<svg width="32" height="32" viewBox="0 0 32 32" fill="none" xmlns="http://www.w3.org/2000/svg">
<path d="M29 2H24C23.8115 2.00053 23.627 2.05433 23.4678 2.15518C23.3085 2.25603 23.181 2.39983 23.1 2.57L21.69 5.52L20.54 7.24C20.3558 7.50503 20.1201 7.73019 19.8469 7.90201C19.5737 8.07383 19.2686 8.18879 18.95 8.24L15.75 8.77C15.0684 8.88667 14.3674 8.78151 13.75 8.47L12.84 8C12.1123 7.64035 11.278 7.55978 10.4949 7.77352C9.71177 7.98727 9.0341 8.48051 8.58999 9.16L7.72999 10.46C7.39881 10.9576 7.17372 11.518 7.06877 12.1065C6.96382 12.6949 6.98125 13.2986 7.11999 13.88C7.18003 14.0846 7.25352 14.2851 7.33999 14.48C5.99941 14.9435 4.80791 15.7586 3.88999 16.84C2.90668 18.005 2.27672 19.4267 2.07429 20.9377C1.87186 22.4487 2.10539 23.9861 2.74738 25.3689C3.38937 26.7516 4.41309 27.9222 5.69799 28.7426C6.98289 29.5631 8.47548 29.9993 9.99999 30H10.68C11.804 29.9029 12.8947 29.5692 13.8806 29.0208C14.8664 28.4724 15.7252 27.7216 16.4004 26.8179C17.0756 25.9141 17.5521 24.8778 17.7984 23.7769C18.0448 22.6759 18.0556 21.5354 17.83 20.43H17.91L20.84 22.38C21.636 22.9093 22.6094 23.1012 23.5467 22.9137C24.4841 22.7263 25.3088 22.1747 25.84 21.38L26.39 20.56C26.9153 19.8795 27.2995 19.1009 27.52 18.27C27.7952 17.1974 27.7952 16.0726 27.52 15C27.3885 14.4798 27.4199 13.9318 27.61 13.43C27.7523 13.0455 27.9403 12.6796 28.17 12.34L29.35 10.57V10.5C29.35 10.5 29.35 10.45 29.41 10.41L29.85 9.41C29.9269 9.28473 29.9779 9.14532 30 9V3C30 2.73478 29.8946 2.48043 29.7071 2.29289C29.5196 2.10536 29.2652 2 29 2ZM24.63 4H28V8.79L27.79 9.26C27.355 9.44431 26.8847 9.53003 26.4127 9.51101C25.9407 9.49199 25.4787 9.3687 25.06 9.15C24.566 8.85897 24.1624 8.43664 23.8941 7.92998C23.6257 7.42331 23.5032 6.85215 23.54 6.28L24.63 4ZM10.25 10.27C10.4311 10.005 10.7013 9.81387 11.0115 9.73129C11.3216 9.6487 11.6511 9.68018 11.94 9.82L12.88 10.29C13.7929 10.7426 14.8189 10.9165 15.83 10.79L16.66 12.46C16.7439 12.6264 16.8726 12.7661 17.0316 12.8633C17.1906 12.9605 17.3736 13.0113 17.56 13.01C17.7157 13.0122 17.8698 12.9779 18.01 12.91C18.2455 12.7901 18.424 12.5819 18.5065 12.3308C18.5889 12.0797 18.5686 11.8062 18.45 11.57L17.9 10.47L19 10.29L19.7 11.51C19.7625 11.6295 19.8486 11.7351 19.9529 11.8205C20.0573 11.9059 20.1779 11.9693 20.3075 12.0069C20.437 12.0445 20.5728 12.0554 20.7067 12.0392C20.8405 12.0229 20.9698 11.9797 21.0865 11.9122C21.2033 11.8447 21.3052 11.7543 21.3861 11.6464C21.467 11.5385 21.5253 11.4154 21.5574 11.2844C21.5895 11.1534 21.5947 11.0173 21.5728 10.8842C21.5509 10.7511 21.5023 10.6238 21.43 10.51L20.92 9.61C21.3372 9.34057 21.7057 9.00246 22.01 8.61C22.4386 9.57109 23.1595 10.3725 24.07 10.9C24.776 11.3067 25.5752 11.5238 26.39 11.53C26.155 11.92 25.951 12.328 25.78 12.75C25.4566 13.6239 25.4009 14.5743 25.62 15.48C25.8152 16.2308 25.8152 17.0192 25.62 17.77C25.5386 18.0936 25.4177 18.4059 25.26 18.7L19.92 15.64C19.2346 15.2351 18.4559 15.0146 17.66 15C17.1882 15.0161 16.7211 14.9019 16.31 14.67L9.95999 10.67L10.25 10.27ZM15.61 19.92C15.9663 20.8776 16.0697 21.9108 15.91 22.92L13.4 22.46L13.27 19.46L13.55 19L14.27 19.4C14.6864 19.6429 15.1387 19.8184 15.61 19.92ZM9.83999 23.61L8.43999 22.43L9.04999 20.73L11.31 20.45L11.41 22.72L9.83999 23.61ZM11.59 18.4L8.99999 18.73L8.11999 16.33L8.32999 16.25C8.40932 16.2221 8.48361 16.1816 8.54999 16.13C8.77859 16.3202 9.02278 16.4908 9.27999 16.64L11.85 18.07L11.59 18.4ZM5.41999 18.13C5.68242 17.8258 5.97379 17.5478 6.28999 17.3L7.22999 19.88L6.54999 21.77L4.08999 22.33H4.01999C3.93421 20.8027 4.435 19.3004 5.41999 18.13ZM4.41999 24.29H4.49999L6.85999 23.75L8.75999 25.36L8.62999 27.78C8.62999 27.78 8.62999 27.83 8.62999 27.86C7.68902 27.6513 6.8135 27.2153 6.07999 26.59C5.36535 25.9626 4.81009 25.1742 4.45999 24.29H4.41999ZM10.64 28C10.6445 27.9735 10.6445 27.9465 10.64 27.92L10.79 25.4L12.54 24.4L15.23 24.9C15.0442 25.257 14.8195 25.5924 14.56 25.9C13.5745 27.0812 12.1693 27.834 10.64 28ZM21.93 20.77L19 18.78C18.2552 18.2774 17.3785 18.006 16.48 18C16.0463 17.9997 15.6197 17.8896 15.24 17.68L10.24 14.88C9.95065 14.7311 9.69654 14.522 9.49473 14.2667C9.29293 14.0114 9.1481 13.7159 9.06999 13.4C9.00506 13.1001 9.00506 12.7899 9.06999 12.49L15.29 16.38C16.01 16.8057 16.8337 17.0237 17.67 17.01C18.1158 17.0196 18.5522 17.1399 18.94 17.36L24.17 20.36C23.918 20.7008 23.5432 20.93 23.125 20.9991C22.7068 21.0682 22.2782 20.9717 21.93 20.73V20.77Z" fill="white"/>
</svg>
