<?xml version="1.0" encoding="UTF-8"?>
<svg version="1.1" xmlns="http://www.w3.org/2000/svg" width="180" height="180">
<path d="M0 0 C1.80597656 0.01353516 1.80597656 0.01353516 3.6484375 0.02734375 C6.5991679 0.05076225 9.54947689 0.08356007 12.5 0.125 C12.58813808 4.24986211 12.64077078 8.37447739 12.6875 12.5 C12.71263672 13.65628906 12.73777344 14.81257813 12.76367188 16.00390625 C12.87111974 28.68275466 9.57600471 40.80369787 0.5 50.125 C-8.73225339 57.58901333 -18.46611133 62.28414815 -30.45703125 62.22265625 C-31.56884766 62.21943359 -32.68066406 62.21621094 -33.82617188 62.21289062 C-34.97666016 62.20451172 -36.12714844 62.19613281 -37.3125 62.1875 C-39.06723633 62.18073242 -39.06723633 62.18073242 -40.85742188 62.17382812 C-43.73833358 62.1620693 -46.61914044 62.14563426 -49.5 62.125 C-50.08305925 42.94010807 -50.53273934 27.23410415 -36.9375 12.3125 C-25.49538376 2.04393414 -15.1599773 -0.2165711 0 0 Z M-32.5 17.125 C-40.99217007 27.44099183 -43.47701909 37.92999245 -43.73046875 51.109375 C-43.61929312 53.44069695 -43.61929312 53.44069695 -41.5 56.125 C-31.46320871 58.24019155 -17.97235507 54.63401961 -9.5 49.125 C-0.29048993 42.67834295 4.10017589 33.37863404 6.1875 22.5625 C6.53729999 18.71470015 6.56775477 14.98702194 6.5 11.125 C-0.42810724 16.79074049 -6.64204142 23.15533639 -12.9375 29.5 C-14.06161467 30.62913955 -15.18596174 31.75804778 -16.31054688 32.88671875 C-19.04305235 35.63015188 -21.77239009 38.37669985 -24.5 41.125 C-25.82 40.465 -27.14 39.805 -28.5 39.125 C-27.22073703 36.31588726 -25.89890044 34.2794951 -23.70263672 32.11645508 C-23.14220673 31.55940384 -22.58177673 31.0023526 -22.00436401 30.42842102 C-21.10114914 29.54539558 -21.10114914 29.54539558 -20.1796875 28.64453125 C-19.56102814 28.03107346 -18.94236877 27.41761566 -18.30496216 26.78556824 C-16.33300442 24.8313948 -14.35447517 22.884056 -12.375 20.9375 C-10.38928484 18.97935756 -8.40502948 17.01979059 -6.4236145 15.05729675 C-5.19103921 13.83702889 -3.95580191 12.61944323 -2.71774292 11.40473938 C-1.29308758 9.996875 0.10634343 8.56355703 1.5 7.125 C1.5 6.795 1.5 6.465 1.5 6.125 C-10.77820688 5.66167144 -23.49640523 8.12140523 -32.5 17.125 Z " fill="#BD9B60" transform="translate(65.5,101.875)"/>
<path d="M0 0 C4.12486211 -0.08813808 8.24947739 -0.14077078 12.375 -0.1875 C14.10943359 -0.22520508 14.10943359 -0.22520508 15.87890625 -0.26367188 C28.55775466 -0.37111974 40.67869787 2.92399529 50 12 C57.46401333 21.23225339 62.15914815 30.96611133 62.09765625 42.95703125 C62.09443359 44.06884766 62.09121094 45.18066406 62.08789062 46.32617188 C62.07532227 48.0519043 62.07532227 48.0519043 62.0625 49.8125 C62.05798828 50.98232422 62.05347656 52.15214844 62.04882812 53.35742188 C62.0370693 56.23833358 62.02063426 59.11914044 62 62 C42.81510807 62.58305925 27.10910415 63.03273934 12.1875 49.4375 C1.91893414 37.99538376 -0.3415711 27.6599773 -0.125 12.5 C-0.11597656 11.29601562 -0.10695313 10.09203125 -0.09765625 8.8515625 C-0.07423775 5.9008321 -0.04143993 2.95052311 0 0 Z M11 6 C16.66574049 12.92810724 23.03033639 19.14204142 29.375 25.4375 C30.50413955 26.56161467 31.63304778 27.68596174 32.76171875 28.81054688 C35.50515188 31.54305235 38.25169985 34.27239009 41 37 C40.34 38.32 39.68 39.64 39 41 C36.19088726 39.72073703 34.1544951 38.39890044 31.99145508 36.20263672 C31.43440384 35.64220673 30.8773526 35.08177673 30.30342102 34.50436401 C29.42039558 33.60114914 29.42039558 33.60114914 28.51953125 32.6796875 C27.90607346 32.06102814 27.29261566 31.44236877 26.66056824 30.80496216 C24.7063948 28.83300442 22.759056 26.85447517 20.8125 24.875 C18.85435756 22.88928484 16.89479059 20.90502948 14.93229675 18.9236145 C13.71202889 17.69103921 12.49444323 16.45580191 11.27973938 15.21774292 C9.871875 13.79308758 8.43855703 12.39365657 7 11 C6.67 11 6.34 11 6 11 C5.53817177 23.23844797 8.26150823 33.15551189 15.25 43.25 C25.25961026 53.25961026 37.17164641 55.96483935 50.984375 56.23046875 C53.31569695 56.11929312 53.31569695 56.11929312 56 54 C58.11519155 43.96320871 54.50901961 30.47235507 49 22 C42.55334295 12.79048993 33.25363404 8.39982411 22.4375 6.3125 C18.58970015 5.96270001 14.86202194 5.93224523 11 6 Z " fill="#BD9B60" transform="translate(102,102)"/>
<path d="M0 0 C19.18489193 -0.58305925 34.89089585 -1.03273934 49.8125 12.5625 C60.08106586 24.00461624 62.3415711 34.3400227 62.125 49.5 C62.11597656 50.70398438 62.10695312 51.90796875 62.09765625 53.1484375 C62.07423775 56.0991679 62.04143993 59.04947689 62 62 C57.87513789 62.08813808 53.75052261 62.14077078 49.625 62.1875 C47.89056641 62.22520508 47.89056641 62.22520508 46.12109375 62.26367188 C33.44224534 62.37111974 21.32130213 59.07600471 12 50 C4.53598667 40.76774661 -0.15914815 31.03388867 -0.09765625 19.04296875 C-0.09443359 17.93115234 -0.09121094 16.81933594 -0.08789062 15.67382812 C-0.07951172 14.52333984 -0.07113281 13.37285156 -0.0625 12.1875 C-0.05798828 11.01767578 -0.05347656 9.84785156 -0.04882812 8.64257812 C-0.0370693 5.76166642 -0.02063426 2.88085956 0 0 Z M6 8 C4.06994626 20.13176636 8.29641294 33.28058991 15.1875 43.125 C22.3964957 51.21583004 32.41280342 55.03752758 43 56 C45.67312031 56.06611958 48.3251689 56.04692686 51 56 C45.33425951 49.07189276 38.96966361 42.85795858 32.625 36.5625 C31.49586045 35.43838533 30.36695222 34.31403826 29.23828125 33.18945312 C26.49484812 30.45694765 23.74830015 27.72760991 21 25 C21.8125 23.0625 21.8125 23.0625 23 21 C23.99 20.67 24.98 20.34 26 20 C26.20488037 20.53012695 26.40976074 21.06025391 26.62084961 21.60644531 C28.57909775 25.0050406 31.29682312 27.56177423 34.06640625 30.296875 C34.66049789 30.89050842 35.25458954 31.48414185 35.86668396 32.09576416 C37.11928717 33.34535316 38.37431307 34.59251774 39.6315918 35.83740234 C41.56425072 37.75173412 43.48871713 39.67401858 45.41210938 41.59765625 C46.62973606 42.8103702 47.84781918 44.02262608 49.06640625 45.234375 C49.6455629 45.81241882 50.22471954 46.39046265 50.82142639 46.98602295 C53.05024871 49.73332859 53.05024871 49.73332859 56 51 C56.46182823 38.76155203 53.73849177 28.84448811 46.75 18.75 C36.46561595 8.46561595 24.27976899 6.00777559 10.13671875 5.76953125 C7.78458924 5.79727768 7.78458924 5.79727768 6 8 Z " fill="#BD9B60" transform="translate(16,16)"/>
<path d="M0 0 C1.11181641 0.00322266 2.22363281 0.00644531 3.36914062 0.00976562 C4.51962891 0.01814453 5.67011719 0.02652344 6.85546875 0.03515625 C8.02529297 0.03966797 9.19511719 0.04417969 10.40039062 0.04882812 C13.28130233 0.06058695 16.16210919 0.07702199 19.04296875 0.09765625 C19.626028 19.28254818 20.07570809 34.9885521 6.48046875 49.91015625 C-4.96164749 60.17872211 -15.29705395 62.43922735 -30.45703125 62.22265625 C-31.66101563 62.21363281 -32.865 62.20460937 -34.10546875 62.1953125 C-37.05619915 62.171894 -40.00650814 62.13909618 -42.95703125 62.09765625 C-43.04516933 57.97279414 -43.09780203 53.84817886 -43.14453125 49.72265625 C-43.16966797 48.56636719 -43.19480469 47.41007812 -43.22070312 46.21875 C-43.32815099 33.53990159 -40.03303596 21.41895838 -30.95703125 12.09765625 C-21.72477786 4.63364292 -11.99091992 -0.0614919 0 0 Z M-26.95703125 18.09765625 C-34.91562461 28.07995061 -37.17775578 38.51635797 -36.95703125 51.09765625 C-30.02892401 45.43191576 -23.81498983 39.06731986 -17.51953125 32.72265625 C-16.39541658 31.5935167 -15.27106951 30.46460847 -14.14648438 29.3359375 C-11.4139789 26.59250437 -8.68464116 23.8459564 -5.95703125 21.09765625 C-4.63703125 21.75765625 -3.31703125 22.41765625 -1.95703125 23.09765625 C-3.23629422 25.90676899 -4.55813081 27.94316115 -6.75439453 30.10620117 C-7.31482452 30.66325241 -7.87525452 31.22030365 -8.45266724 31.79423523 C-9.35588211 32.67726067 -9.35588211 32.67726067 -10.27734375 33.578125 C-10.89600311 34.19158279 -11.51466248 34.80504059 -12.15206909 35.43708801 C-14.12402683 37.39126145 -16.10255608 39.33860025 -18.08203125 41.28515625 C-20.06774641 43.24329869 -22.05200177 45.20286566 -24.03341675 47.1653595 C-25.26599204 48.38562736 -26.50122934 49.60321302 -27.73928833 50.81791687 C-29.16394367 52.22578125 -30.56337468 53.65909922 -31.95703125 55.09765625 C-31.95703125 55.42765625 -31.95703125 55.75765625 -31.95703125 56.09765625 C-19.71858328 56.55948448 -9.80151936 53.83614802 0.29296875 46.84765625 C10.5773528 36.5632722 13.03519316 24.37742524 13.2734375 10.234375 C13.24569107 7.88224549 13.24569107 7.88224549 11.04296875 6.09765625 C-1.74422154 4.06333052 -17.98763635 8.54488607 -26.95703125 18.09765625 Z " fill="#BD9B60" transform="translate(144.95703125,15.90234375)"/>
<path d="M0 0 C0.66 0 1.32 0 2 0 C3.6886535 3.51069266 5.34682383 7.0349795 7 10.5625 C7.47695312 11.55314453 7.95390625 12.54378906 8.4453125 13.56445312 C10.9488739 18.94711014 12.79422704 23.0393654 12 29 C10.34860695 32.5386994 9.28394771 33.81070153 6 36 C2.60892629 36.54602034 -0.60874176 36.54627924 -4 36 C-7.77810787 33.07003879 -9.76307405 30.83864406 -10.375 26.08984375 C-10.29305575 20.44593339 -7.39866987 15.54460216 -5 10.5625 C-4.52304688 9.54478516 -4.04609375 8.52707031 -3.5546875 7.47851562 C-2.38158439 4.97980599 -1.19652253 2.4875576 0 0 Z " fill="#00205B" transform="translate(89,125)"/>
<path d="M0 0 C2.62855579 2.02774304 4.02292805 3.66542157 4.55859375 6.9921875 C4.73903462 13.97631062 4.73903462 13.97631062 1.8125 17.75 C-1.4652938 20.169324 -3.48603931 21.09497357 -7.60595703 21.03515625 C-12.46780565 20.26913806 -16.85263988 17.8046415 -21.25 15.6875 C-22.26771484 15.21054688 -23.28542969 14.73359375 -24.33398438 14.2421875 C-26.83269401 13.06908439 -29.3249424 11.88402253 -31.8125 10.6875 C-31.8125 10.0275 -31.8125 9.3675 -31.8125 8.6875 C-28.30180734 6.9988465 -24.7775205 5.34067617 -21.25 3.6875 C-20.25935547 3.21054688 -19.26871094 2.73359375 -18.24804688 2.2421875 C-6.70250104 -3.12783382 -6.70250104 -3.12783382 0 0 Z " fill="#00205B" transform="translate(156.8125,80.3125)"/>
<path d="M0 0 C3.93780355 1.40828886 7.67191296 3.18703031 11.4375 5 C12.45521484 5.47695312 13.47292969 5.95390625 14.52148438 6.4453125 C17.02019401 7.61841561 19.5124424 8.80347747 22 10 C22 10.66 22 11.32 22 12 C18.48930734 13.6886535 14.9650205 15.34682383 11.4375 17 C10.44685547 17.47695312 9.45621094 17.95390625 8.43554688 18.4453125 C3.05288986 20.9488739 -1.0393654 22.79422704 -7 22 C-10.5386994 20.34860695 -11.81070153 19.28394771 -14 16 C-14.54602034 12.60892629 -14.54627924 9.39125824 -14 6 C-10.03775993 0.8907957 -6.40837219 -1.00968378 0 0 Z " fill="#00205B" transform="translate(33,79)"/>
<path d="M0 0 C3.77810787 2.92996121 5.76307405 5.16135594 6.375 9.91015625 C6.29305575 15.55406661 3.39866987 20.45539784 1 25.4375 C0.52304688 26.45521484 0.04609375 27.47292969 -0.4453125 28.52148438 C-1.61841561 31.02019401 -2.80347747 33.5124424 -4 36 C-4.66 36 -5.32 36 -6 36 C-7.6886535 32.48930734 -9.34682383 28.9650205 -11 25.4375 C-11.47695312 24.44685547 -11.95390625 23.45621094 -12.4453125 22.43554688 C-14.9488739 17.05288986 -16.79422704 12.9606346 -16 7 C-12.60834796 -0.26782581 -7.45538401 -1.20094703 0 0 Z " fill="#00205B" transform="translate(95,19)"/>
<path d="M0 0 C3.27593689 2.5452745 5.32676302 4.93301158 6.15625 8.98828125 C6.29617873 13.70213031 5.8558839 17.62940702 2.90625 21.42578125 C-0.4146601 24.52026566 -2.37273805 25.91493025 -6.94921875 26.05078125 C-12.83256183 25.73542618 -15.83183236 24.29375384 -19.84375 19.98828125 C-22.28732377 16.16355708 -22.0671983 12.56923986 -21.44921875 8.20703125 C-20.21983073 3.70191903 -17.51674716 1.05714055 -13.59375 -1.44921875 C-8.91871806 -2.40547528 -4.26301752 -2.33924055 0 0 Z M-12.65625 7.11328125 C-15.14714948 9.80088088 -15.14714948 9.80088088 -14.90625 13.11328125 C-14.03081667 16.00473774 -14.03081667 16.00473774 -12.15625 17.92578125 C-8.94431066 19.40153716 -7.17900198 19.05272337 -3.84375 17.98828125 C-1.7651892 16.41132493 -1.7651892 16.41132493 -0.84375 13.98828125 C-0.91597995 10.44901366 -1.17180009 8.68340185 -3.65625 6.11328125 C-7.44630582 4.16410969 -9.33279611 4.6022272 -12.65625 7.11328125 Z " fill="#BD9B60" transform="translate(97.84375,78.01171875)"/>
</svg>
