<svg width="558" height="558" viewBox="0 0 558 558" fill="none" xmlns="http://www.w3.org/2000/svg">
<g clip-path="url(#clip0_383_669)">
<path d="M549 279C549 428.131 428.336 548.999 279.504 548.999C130.657 549.001 10 428.129 10 279C10 129.89 130.657 9.00153 279.499 9.00153C428.336 9.00153 549 129.89 549 279Z" fill="#DBA111"/>
<path d="M540.007 279C540.007 423.146 423.377 539.992 279.496 539.992C135.615 539.992 18.9827 423.148 18.9827 279C18.9827 134.852 135.618 18.0031 279.499 18.0031C423.375 18.0031 540.007 134.852 540.007 279Z" fill="#034694"/>
<path d="M465.149 279C465.149 381.725 382.028 464.981 279.499 464.981C176.962 464.981 93.8438 381.722 93.8438 279C93.8438 176.268 176.964 93.0005 279.499 93.0005C382.031 92.9979 465.149 176.27 465.149 279Z" fill="#DBA111"/>
<path d="M459.529 279C459.529 378.618 378.915 459.367 279.496 459.367C180.065 459.367 99.4658 378.616 99.4658 279C99.4658 179.387 180.067 98.6331 279.496 98.6331C378.917 98.6357 459.529 179.387 459.529 279Z" fill="white"/>
<path d="M125.24 434.607C127.229 436.512 132.134 441.188 132.134 441.188L136.832 436.231L122.819 422.852L121.015 424.741L102.201 444.503L109.341 451.319C109.341 451.319 115.378 444.98 117.583 442.67L123.856 448.653L128.557 443.709L122.291 437.716C123.462 436.476 124.057 435.852 125.24 434.607ZM159.032 457.173C158.399 453.381 156.274 450.033 153.063 447.751C151.515 446.633 149.763 445.832 147.906 445.393C146.049 444.955 144.124 444.888 142.241 445.196C138.167 445.89 134.506 448.267 131.928 451.886C129.357 455.523 128.32 459.766 129.012 463.863C129.65 467.642 131.755 470.967 134.961 473.256C138.167 475.54 142.035 476.453 145.815 475.816C149.888 475.125 153.549 472.749 156.117 469.116C158.173 466.245 159.246 462.948 159.246 459.656C159.246 458.833 159.177 457.99 159.032 457.173ZM138.911 467.67C135.641 465.35 138.34 460.499 140.252 457.831C142.15 455.142 145.843 450.986 149.113 453.304C152.53 455.75 149.337 461.043 147.806 463.192C146.265 465.36 142.336 470.119 138.911 467.67ZM181.058 464.667C173.516 460.847 164.799 463.976 160.79 471.931C158.785 475.906 158.392 480.268 159.683 484.199C160.877 487.847 163.466 490.827 166.976 492.595C168.675 493.476 170.532 494.009 172.439 494.164C174.346 494.319 176.265 494.092 178.083 493.498C182 492.222 185.27 489.319 187.262 485.346C191.286 477.371 188.613 468.487 181.058 464.667ZM172.719 486.772C171.833 487.061 170.995 486.971 170.045 486.499C168.548 485.733 168.023 484.369 168.023 482.846C168.023 480.74 169.037 478.255 169.893 476.559C171.381 473.61 174.401 468.959 177.988 470.771C178.933 471.256 179.499 471.882 179.784 472.759C180.384 474.571 179.782 477.551 178.166 480.742C176.555 483.918 174.52 486.174 172.719 486.772ZM196.63 475.605L195.241 479.59C195.241 479.59 198.789 480.838 199.867 481.194L192.248 502.992L201.542 506.258C201.542 506.258 207.815 488.373 209.169 484.478L213.805 486.094L216.057 479.665L197.492 473.14L196.63 475.605ZM235.231 484.246L222.665 481.591L222.127 484.148L216.512 510.859L229.298 513.579C233.384 514.425 236.075 513.419 237.609 512.427C239.557 511.156 240.923 509.063 241.448 506.57C241.592 505.889 241.662 505.232 241.662 504.585C241.662 502.783 241.088 501.156 240.059 499.759C241.499 498.615 242.526 496.998 242.953 494.98C243.061 494.457 243.123 493.866 243.123 493.253C243.131 489.829 241.18 485.491 235.231 484.246ZM231.771 504.642C231.637 505.253 231.395 506.059 230.932 506.361C230.505 506.637 229.689 506.673 228.626 506.444C228.626 506.444 228.143 506.335 227.571 506.224C227.978 504.296 228.253 503.012 228.65 501.084C229.195 501.213 229.895 501.352 229.895 501.352C231.544 501.7 231.861 502.92 231.861 503.806C231.861 504.165 231.817 504.466 231.771 504.642ZM230.914 490.345C232.02 490.598 232.828 491 233.14 491.474C233.293 491.742 233.367 492.047 233.353 492.356C233.353 492.572 233.325 492.825 233.268 493.126C233.101 493.91 232.872 494.995 230.695 494.549C230.695 494.549 230.428 494.48 230.052 494.397C230.397 492.776 230.561 491.972 230.914 490.345ZM258.425 488.597L244.778 516.59L252.569 517.188L255.52 510.952C257.17 511.089 258.821 511.205 260.437 511.334L262.565 517.946L272.93 518.753L261.346 482.776L258.425 488.597ZM289.194 510.945L288.239 488.228L278.392 488.644L279.638 518.539L299.371 517.719L299.075 510.545C299.075 510.542 292.024 510.841 289.194 510.945ZM316.206 508.083C315.568 504.038 312.689 485.622 312.689 485.622L310.108 486.035L302.945 487.154L307.568 516.727L327.088 513.656L325.971 506.562C325.971 506.557 319.006 507.655 316.206 508.083ZM372.713 488.195C372.634 490.757 371.126 492.967 368.774 493.897C367.47 494.418 366.227 494.418 364.976 493.887C363.064 493.067 361.286 490.989 360.221 488.321C358.973 485.174 358.713 482.498 359.534 480.624C360.1 479.304 361.204 478.322 362.9 477.646C364.737 476.917 366.476 477.59 368.859 478.992L371.046 480.286L374.682 474.543L372.523 473.122C368.561 470.508 363.654 469.98 359.405 471.676C355.466 473.249 352.409 476.193 350.793 479.959C349.154 483.774 349.154 488.149 350.822 492.289C353.958 500.143 362.817 504.015 370.567 500.904C376.169 498.666 379.337 494.405 379.738 488.582L379.921 485.983L372.791 485.455L372.713 488.195ZM395.699 480.028C393.681 476.437 384.616 460.151 384.616 460.151L382.35 461.434L376.007 464.981L390.581 491.103L407.805 481.462L404.321 475.19C404.324 475.19 398.159 478.634 395.699 480.028ZM414.863 439.744L412.753 441.291L409.053 444.021L421.149 460.537C421.702 461.282 421.702 461.78 421.648 462.074C421.532 462.927 420.647 463.847 419.868 464.414C419.248 464.821 418.503 464.993 417.768 464.899C417.145 464.809 416.651 464.466 416.214 463.876L404.259 447.547L396.293 453.389L408.188 469.64C409.954 472.047 412.143 473.465 414.701 473.86C417.57 474.308 420.835 473.331 423.866 471.086C430.103 466.52 430 460.452 427.278 456.735L414.863 439.744ZM451.151 433.738C449.314 431.836 447.052 430.977 444.68 431.106C444.548 429.189 443.739 427.383 442.397 426.01C439.904 423.434 434.336 421.429 429.208 426.425L419.983 435.365L440.769 456.861L450.15 447.751C453.15 444.838 453.809 442.018 453.842 440.198C453.894 437.86 452.937 435.576 451.151 433.738ZM435.45 433.011C435.759 433.344 436.142 433.73 436.142 434.266C436.142 434.707 435.9 435.251 435.183 435.939L434.722 436.403C433.559 435.192 433.006 434.627 431.825 433.408C433.904 431.5 434.768 432.318 435.45 433.011ZM440.372 440.415C442.055 438.788 443.679 440.219 444.142 440.703C444.59 441.154 445.097 441.789 445.097 442.338V442.358C445.086 442.866 444.659 443.572 443.885 444.323C443.885 444.323 443.524 444.673 443.097 445.073C441.744 443.665 440.82 442.719 439.462 441.319C439.863 440.912 440.372 440.415 440.372 440.415Z" fill="#DBA111"/>
<path d="M125.173 431.833C125.986 432.617 132.056 438.417 132.056 438.417L134.058 436.303L122.876 425.618L122.423 426.092L104.972 444.433L109.272 448.548C109.272 448.548 116.708 440.739 117.508 439.886L123.789 445.88L125.793 443.773L119.51 437.785C120.241 437.017 124.455 432.583 125.173 431.833ZM151.92 449.344C149.149 447.364 145.833 446.578 142.575 447.125C139.001 447.738 135.795 449.831 133.526 453.028C131.251 456.237 130.338 459.957 130.945 463.522C131.49 466.796 133.325 469.683 136.099 471.648C137.44 472.62 138.96 473.317 140.572 473.697C142.184 474.077 143.854 474.133 145.488 473.862C149.041 473.267 152.252 471.166 154.517 467.99C156.328 465.425 157.285 462.525 157.285 459.65C157.285 458.936 157.224 458.204 157.108 457.49C156.555 454.227 154.715 451.332 151.92 449.344ZM149.396 464.334C147.521 466.964 142.639 472.738 137.781 469.274C132.936 465.832 136.781 459.323 138.651 456.676C140.524 454.033 145.408 448.264 150.243 451.708C155.103 455.186 151.27 461.697 149.396 464.334ZM180.175 466.425C173.632 463.113 166.052 465.868 162.54 472.831C160.769 476.332 160.419 480.142 161.541 483.599C162.573 486.741 164.814 489.303 167.858 490.84C170.91 492.397 174.324 492.678 177.474 491.642C180.898 490.512 183.755 487.966 185.527 484.467C189.035 477.499 186.737 469.738 180.175 466.425ZM169.16 488.239C163.862 485.568 166.682 478.544 168.144 475.659C169.6 472.761 173.565 466.327 178.858 469.021C180.265 469.722 181.207 470.776 181.652 472.15C182.692 475.326 181.007 479.438 179.905 481.624C178.809 483.789 176.501 487.587 173.321 488.633C171.967 489.095 170.56 488.955 169.16 488.239ZM198.485 476.247L197.734 478.376L202.363 480.008C201.951 481.17 194.736 501.785 194.736 501.785L200.346 503.763C200.346 503.763 207.571 483.148 207.97 481.98L212.599 483.599L213.569 480.861L198.691 475.631L198.485 476.247ZM234.835 486.161L224.185 483.911L224.041 484.555L218.838 509.364L229.705 511.651C232.468 512.233 234.766 511.94 236.544 510.774C238.082 509.769 239.114 508.163 239.536 506.168C239.644 505.621 239.706 505.106 239.706 504.598C239.706 502.427 238.633 500.587 236.714 499.277C238.934 498.638 240.524 497.001 241.039 494.57C241.126 494.194 241.178 493.745 241.178 493.235C241.175 490.747 239.871 487.223 234.835 486.161ZM231.112 488.355C232.903 488.731 234.141 489.419 234.771 490.396C235.136 490.951 235.314 491.6 235.314 492.353C235.314 492.722 235.265 493.103 235.18 493.518C234.488 496.818 231.825 496.787 230.296 496.452C230.296 496.452 228.673 496.117 227.736 495.918C227.955 494.9 229.187 489.012 229.401 487.999C230.08 488.136 231.112 488.355 231.112 488.355ZM230.294 499.429C233.32 500.066 233.793 502.458 233.793 503.907C233.793 504.528 233.695 504.977 233.685 505.049C233.379 506.482 232.833 507.454 231.997 507.993C231.112 508.586 229.836 508.699 228.222 508.369C228.222 508.369 226.285 507.954 225.248 507.748L227.139 498.767C228.024 498.947 230.294 499.429 230.294 499.429ZM260.19 489.458L247.809 514.86L251.375 515.128C251.375 515.128 254 509.601 254.344 508.9L261.904 509.491C262.143 510.218 264.032 516.105 264.032 516.105L270.179 516.582L260.978 488.009L260.19 489.458ZM258.832 499.672C259.426 501.589 260.581 505.289 260.965 506.493C259.737 506.405 256.923 506.186 255.711 506.093L258.832 499.672ZM287.313 512.991L286.353 490.275L285.723 490.301L280.42 490.518L281.508 516.505L297.33 515.827L297.189 512.584C297.194 512.584 288.458 512.953 287.313 512.991ZM314.577 510.346C314.382 509.119 311.052 487.857 311.052 487.857L310.417 487.96L305.186 488.788L309.205 514.476L324.847 512.001L324.347 508.792C324.347 508.797 315.699 510.156 314.577 510.346ZM374.664 488.239C374.571 491.621 372.587 494.488 369.497 495.733C367.699 496.447 365.923 496.426 364.207 495.684C361.788 494.66 359.673 492.232 358.392 489.046C356.948 485.408 356.722 482.225 357.725 479.838C358.508 478.041 359.997 476.69 362.174 475.824C365.017 474.682 367.637 475.984 369.844 477.298L370.398 477.621L371.99 475.112L371.458 474.752C368.025 472.498 363.785 472.027 360.134 473.494C356.673 474.883 353.984 477.445 352.592 480.73C351.159 484.055 351.172 487.909 352.641 491.544C355.371 498.406 363.08 501.78 369.85 499.076C374.759 497.101 377.425 493.536 377.78 488.437L377.831 487.783L374.692 487.566L374.664 488.239ZM394.942 482.696C394.332 481.624 383.86 462.832 383.86 462.832L383.284 463.154L378.67 465.739L391.314 488.427L405.139 480.693L403.57 477.853C403.572 477.858 395.917 482.127 394.942 482.696ZM414.436 442.479L413.903 442.871L411.783 444.428L422.724 459.362C423.457 460.37 423.743 461.367 423.588 462.352C423.326 464.128 421.713 465.5 421.033 465.979C419.999 466.705 418.727 467.009 417.477 466.83C416.325 466.662 415.38 466.049 414.621 465.03L403.822 450.27L399.039 453.804L409.771 468.462C411.217 470.439 412.974 471.607 415.002 471.903C418.195 472.388 421.195 470.606 422.703 469.503C427.88 465.69 427.95 460.919 425.714 457.882L414.436 442.479ZM449.744 435.102C447.737 433.019 445.169 432.547 442.506 433.573C442.721 432.966 442.834 432.327 442.843 431.683C442.843 430.137 442.23 428.631 440.993 427.36C439.325 425.638 434.997 423.512 430.574 427.822L422.757 435.408L440.807 454.075L448.799 446.31C450.809 444.372 451.864 442.283 451.89 440.167C451.92 438.324 451.172 436.576 449.744 435.102ZM438.088 434.292C438.088 435.602 437.238 436.674 436.549 437.347C436.549 437.347 435.35 438.515 434.673 439.182C433.945 438.435 429.761 434.114 429.043 433.346C429.53 432.874 430.294 432.147 430.294 432.147C432.736 429.76 434.879 429.608 436.847 431.652C437.756 432.583 438.088 433.47 438.088 434.292ZM443.061 447.839C442.32 447.073 437.442 442.018 436.693 441.252C437.339 440.634 439.006 439.005 439.006 439.005C442.189 435.934 445.418 439.188 445.555 439.34C446.563 440.376 447.052 441.361 447.052 442.338V442.379C447.039 443.451 446.419 444.575 445.241 445.743C445.246 445.74 443.692 447.238 443.061 447.839Z" fill="white"/>
<path d="M159.766 101.134L148.874 104.078L150.125 107.986C151.63 112.726 150.269 117.691 146.581 120.929C144.531 122.731 142.158 123.558 139.549 123.378C135.579 123.11 131.097 120.534 127.566 116.487C123.408 111.711 121.329 107.114 121.597 103.222C121.777 100.376 123.156 97.8855 125.804 95.5629C128.727 92.9979 132.432 93.0984 137.457 94.0987L141.183 94.8359L143.597 84.3827L139.845 83.4676C131.773 81.4672 123.359 83.4315 117.354 88.6981C105.595 99.0069 104.638 115.838 115.123 127.853C124.87 139.015 141.777 140.234 152.803 130.575C160.741 123.628 163.507 114.737 160.808 104.9L159.766 101.134ZM189.346 46.393L178.22 51.6415C178.22 51.6415 184.431 64.8297 186.567 69.3745C183.394 70.8696 180.317 72.3236 177.142 73.8264L168.784 56.0934L154.133 63.0227L176.444 110.44L191.108 103.513C191.108 103.513 184.195 88.8476 181.971 84.0914C185.144 82.6014 188.219 81.145 191.402 79.6421L200.536 99.0533L215.195 92.124L192.889 44.7174L189.346 46.393ZM238.955 75.7676C238.242 72.2385 237.514 68.645 236.809 65.1185L253.367 61.7724L251.252 51.2419L234.686 54.5957C234.035 51.3682 233.495 48.6563 232.839 45.4314L250.413 41.8766L248.29 31.3486L244.435 32.1246L214.827 38.1232L225.179 89.5127L258.906 82.6839L256.791 72.1586C256.791 72.1586 243.687 74.8034 238.955 75.7676ZM286.796 30.1293L270.573 29.7916L270.493 33.7125L269.479 82.2045L303.529 82.9185L303.776 71.5657C303.776 71.5657 290.702 71.2873 285.924 71.1893L286.796 30.1293ZM339.364 56.5677C335.154 53.4717 333.924 52.2266 334.349 50.5356C334.56 49.6591 335.512 46.8596 338.535 47.6097C340.354 48.0789 342.163 49.0404 342.974 52.9588L343.859 57.3102L354.571 53.6831L353.899 50.301C352.582 43.6682 346.983 38.0175 339.948 36.2595C334.912 35.0066 329.867 35.6743 325.727 38.1671C323.86 39.2733 322.233 40.7407 320.938 42.4835C319.644 44.2264 318.709 46.21 318.187 48.3186C315.499 59.0657 322.734 64.2394 327.51 67.668C332.409 71.179 333.659 72.553 332.913 75.4866C332.8 75.9349 332.599 76.3561 332.321 76.7257C332.044 77.0952 331.696 77.4057 331.297 77.6391C330.312 78.2165 329.084 78.4253 328.081 78.165C325.508 77.5282 324.389 76.3089 323.308 72.9706L321.993 68.9724L311.245 73.3753L312.282 76.7935C314.297 83.4367 319.106 87.6231 326.98 89.5977C335.826 91.8147 346.556 87.7391 349.229 77.0952C352.018 65.8918 344.402 60.2747 339.364 56.5677ZM378.06 84.5271L393.128 92.1601L397.968 82.5757C397.968 82.5757 387.017 77.0333 382.905 74.9478C384.377 72.0065 385.63 69.5343 387.097 66.6033L403.107 74.7055L407.934 65.121L377.474 49.7029L375.714 53.1933L353.866 96.4857L384.583 112.025L389.426 102.446L373.182 94.2275C374.787 91.013 376.447 87.7443 378.06 84.5271ZM438.721 89.425L389.912 114.721L399.25 122.857C399.25 122.857 407.308 118.565 410.237 117.023L417.765 123.587C416.716 126.706 413.736 135.476 413.736 135.476L426.596 146.692L447.461 85.0478L438.721 89.425Z" fill="#DBA111"/>
<path d="M157.936 104.322L152.183 105.887L152.605 107.192C154.432 112.945 152.783 118.962 148.287 122.901C145.707 125.169 142.694 126.211 139.367 125.997C134.65 125.68 129.64 122.844 125.59 118.207C120.964 112.899 118.669 107.653 118.972 103.031C119.212 99.525 120.928 96.344 124.075 93.5857C128.205 89.9689 133.412 90.6314 137.956 91.5285L139.204 91.7709L140.463 86.311L139.212 85.999C131.961 84.2152 124.435 85.9552 119.062 90.6701C108.433 99.9968 107.579 115.229 117.084 126.126C125.878 136.203 141.127 137.306 151.079 128.598C158.297 122.256 160.723 114.526 158.276 105.593L157.936 104.322ZM190.458 48.7466L181.704 52.8892L190.043 70.6144C188.17 71.5064 177.772 76.4198 175.886 77.304C174.921 75.2391 167.555 59.5761 167.555 59.5761L157.607 64.2704L177.695 106.947L187.637 102.258L178.498 82.8438C180.384 81.9544 190.771 77.0513 192.655 76.1568C193.635 78.2475 201.794 95.5758 201.794 95.5758L211.721 90.8738L191.633 48.1975L190.458 48.7466ZM236.904 78.8507C236.495 76.8013 234.141 65.1262 233.737 63.0742L250.289 59.7256L249.203 54.3353L232.641 57.6762C232.244 55.6655 230.168 45.3928 229.774 43.3846C231.969 42.9335 247.333 39.8349 247.333 39.8349L246.244 34.4421L217.905 40.1675L227.227 86.4218L255.834 80.6345L254.748 75.2391L236.904 78.8507ZM284.128 32.6943L273.138 32.4571L273.115 33.7564L272.145 79.6343L300.984 80.2479L301.115 74.1229L283.263 73.7465C283.325 71.3001 284.128 32.6969 284.128 32.6943ZM339.168 45.0808C342.66 45.9573 344.68 48.2954 345.534 52.4355L345.833 53.8842L351.565 51.9457L351.349 50.814C350.217 45.1608 345.39 40.3299 339.32 38.8012C334.964 37.7134 330.618 38.2831 327.077 40.4124C325.507 41.346 324.137 42.5824 323.046 44.0502C321.956 45.5179 321.167 47.1878 320.725 48.9631C318.468 57.9778 324.332 62.1746 329.036 65.5438C333.796 68.9543 336.665 71.2873 335.44 76.1233C335.251 76.9098 334.904 77.6496 334.421 78.2976C333.937 78.9455 333.327 79.488 332.628 79.8921C331.069 80.8266 329.21 81.1195 327.44 80.7093C323.964 79.838 322.181 77.969 320.825 73.7929L320.382 72.4576L314.433 74.8859L314.783 76.0279C316.51 81.7198 320.712 85.3262 327.623 87.0637C335.216 88.961 344.42 85.5196 346.689 76.4584C349.052 66.9539 342.825 62.3602 337.789 58.6713C333.513 55.5082 330.929 53.3944 331.809 49.904C332.584 46.7822 335.167 44.0755 339.168 45.0808ZM385.947 63.0923L401.941 71.1867L404.429 66.2708L378.634 53.2165L378.045 54.3817L357.391 95.3386L383.428 108.519L385.908 103.608L369.677 95.385C370.614 93.5161 375.979 82.8979 376.913 81.0264C378.897 82.0343 391.978 88.6542 391.978 88.6542L394.471 83.7409C394.471 83.7409 381.375 77.1235 379.391 76.113L385.947 63.0923ZM439.922 91.7528L394.536 115.283L399.61 119.702L410.597 113.868L420.812 122.772C420.328 124.21 416.767 134.651 416.767 134.651L425.382 142.15L442.915 90.3453L439.922 91.7528ZM415.849 111.159C417.997 110.045 423.48 107.192 426.83 105.449C425.585 109.012 423.532 114.879 422.744 117.16C420.45 115.155 418.152 113.154 415.849 111.159Z" fill="white"/>
<path d="M408.253 271.916C404.532 262.038 391.713 257.748 379.596 262.326C374.545 264.231 370.405 267.418 367.585 271.174C375.585 248.298 408.17 243.444 408.17 222.161C408.17 186.491 357.609 196.483 364.966 222.166C364.966 210.512 383.474 208.377 383.474 222.166C383.474 235.96 351.197 245.001 351.197 268.299C351.197 293.985 376.838 296.362 374.239 319.849C373.799 323.901 369.456 329.224 363.157 329.224C323.887 329.224 337.905 280.789 324.185 266.049L324.901 256.098C332.833 260.976 353.881 249.556 340.025 232.153C340.025 240.711 322.237 240.239 322.237 224.066C322.237 202.188 342.657 213.603 343.645 218.436C342.668 210.465 342.297 205.408 343.607 200.819C332.602 204.374 331.57 197.999 332.962 195.532C334.557 192.683 336.688 189.35 340.977 189.35C343.293 189.35 344.685 189.672 345.506 190.239C346.877 191.18 347.881 189.033 347.685 191.031C348.861 189.237 348.388 191.479 349.53 189.678C350.685 187.888 352.247 185.865 354.985 183.168L354.867 179.137L358.073 180.315L361.147 175.324C357.826 168.423 353.318 171.746 349.998 163.19C347.222 162.471 303.971 167.181 305.229 149.896C301.704 149.896 293.352 151.835 298.521 158.87C294.502 159.354 291.605 154.781 285.545 167.15C293.136 165.724 289.207 174.226 289.207 176.646C289.207 192.315 268.383 192.054 268.383 184.713C263.363 189.6 266.211 200.283 273.799 202.915C273.799 202.915 270.912 214.342 263.787 221.589C253.21 221.166 236.24 219.325 226.478 210.081C222.268 206.098 218.926 203.923 216.078 202.812V197.633C220.246 195.589 224.816 191.972 229.566 185.927C233.268 181.392 235.278 175.579 234.737 169.405C234.667 168.676 234.564 167.95 234.429 167.23C234.388 167.003 234.333 166.784 234.279 166.559C234.177 166.065 234.054 165.576 233.909 165.093C233.842 164.855 233.775 164.608 233.701 164.379C233.542 163.894 233.366 163.416 233.17 162.945C233.091 162.749 233.031 162.538 232.939 162.355C232.675 161.734 232.382 161.126 232.061 160.532C231.925 160.29 231.781 160.066 231.647 159.842C231.428 159.483 231.22 159.12 230.991 158.772C230.801 158.493 230.608 158.216 230.412 157.942C230.211 157.676 229.998 157.405 229.789 157.14C229.56 156.856 229.331 156.552 229.087 156.274C228.924 156.088 228.754 155.909 228.578 155.738C227.549 154.611 226.411 153.589 225.181 152.688L224.852 152.448C224.414 152.139 223.967 151.84 223.498 151.549C223.47 151.531 223.444 151.518 223.424 151.494C218.781 148.65 213.358 147.353 207.934 147.79C194.276 148.88 184.122 160.311 185.262 173.331C186.15 183.473 193.612 191.572 203.323 194.155C199.919 196.055 197.042 197.158 196.391 197.158C196.499 197.225 196.641 197.308 196.792 197.408L196.926 197.476C197.06 197.561 197.214 197.648 197.374 197.736L197.502 197.805L198.2 198.153L198.328 198.205C198.627 198.351 198.933 198.481 199.244 198.597C199.836 198.844 200.508 199.069 201.239 199.277C201.344 199.308 201.452 199.332 201.54 199.357C201.836 199.432 202.137 199.502 202.451 199.576L202.767 199.638C203.156 199.705 203.57 199.778 203.981 199.827C204.018 199.827 204.051 199.847 204.084 199.847V202.794C203.93 202.827 203.791 202.845 203.647 202.866C199.203 203.595 196.316 204.964 195.012 208.931C193.715 212.909 195.05 214.35 197.129 217.139C195.372 220.287 190.766 221.465 196.777 228.417C196.339 231.044 196.893 235.228 200.709 236.496C201.951 236.919 202.991 237.143 204.084 237.334L204.079 289.471C200.274 291.49 198.398 294.013 197.358 296.359C197.358 296.359 194.304 289.567 194.51 303.026C197.981 300.327 196.612 306.15 196.612 306.15C191.885 312.285 197.888 311.953 197.888 311.953C201.959 307.877 201.128 313.796 201.128 313.796C201.128 321.019 204.059 323.839 204.079 323.852V363.571L200.624 363.584L200.657 374.543L206.706 374.532C203.315 375.945 201.076 379.302 201.401 383.008C201.812 387.682 206.122 391.162 211.034 390.783C215.941 390.389 219.587 386.287 219.168 381.601C218.89 378.366 216.752 375.726 213.842 374.512L219.42 374.496L219.397 363.533L216.07 363.551L216.075 328.312C216.762 328.688 217.503 328.948 218.308 329.124C218.63 329.183 218.949 329.227 219.273 329.25C219.417 329.271 219.564 329.271 219.711 329.278C218.813 324.643 221.579 321.576 221.579 321.576C222.997 319.436 225.052 317.766 227.384 316.588C234.364 313.084 243.892 313.966 246.738 319.678C264.781 314.915 280.283 296.746 280.283 296.746L289.163 311.888C270.336 318.194 229.321 353.915 257.792 366.286C257.782 369.885 257.301 396.614 240.195 394.49C215.56 391.446 209.416 401.657 214.145 413.136C211.922 422.818 219.363 426.18 219.363 426.18C218.244 420.588 220.928 415.956 231.107 416.015C231.055 426.216 237.632 428.054 237.632 428.054C237.678 419.32 243.738 416.085 249.118 416.111C249.077 423.305 257.427 426.043 257.427 426.043C257.427 426.043 255.312 417.748 264.745 416.111C288.631 411.94 266.196 387.329 302.52 380.547C302.52 380.547 284.436 377.811 284.436 367.91C284.436 358.895 300.806 352.726 306.444 352.726C318.005 374.855 330.566 375.03 333.855 375.187C338.97 380.918 337.256 400.228 329.864 399.847C302.811 398.393 303.799 414.881 306.832 418.253C306.485 424.654 311.459 428.35 311.459 428.35C311.459 421.491 317.971 419.56 326.326 420.013C325.889 428.397 331.215 429.647 331.215 429.647C331.362 421.215 337.591 419.781 342.014 420.013C341.69 425.924 347.544 427.67 347.544 427.67C347.544 427.67 346.965 420.168 354.851 420.168C369.806 420.158 348.087 388.051 377.27 356.297C351.635 368.188 337.995 338.468 337.995 332.764C351.172 348.21 393.898 351.296 393.898 324.906C393.898 299.698 366.242 290.304 379.177 280.66C386.703 275.053 401.504 286.38 393.038 298.079C405.18 293.573 411.948 281.792 408.227 271.924M244.379 272.71C234.714 278.402 228.233 285.604 219.423 288.757C218.085 289.231 217.017 289.36 216.09 289.301V240.095C218.424 240.314 224.484 241.144 231.567 244.078C238.584 247.914 238.584 255.841 229.73 257.72C235.324 268.454 254.71 263.198 258.937 254.456C261.006 254.273 262.835 257.975 264.557 261.473C261.829 262.888 256.264 265.701 244.379 272.71ZM352.561 191.137C351.501 192.585 350.451 194.019 349.533 195.253C350.767 197.32 352.559 198.996 354.702 200.087C356.845 201.178 359.253 201.64 361.647 201.42C365.003 201.099 368.097 199.46 370.249 196.859C372.402 194.259 373.438 190.91 373.13 187.546C373.087 187.29 373.056 187.061 373.022 186.814C372.276 190.441 368.01 193.513 362.578 194.011C358.477 194.395 354.756 193.212 352.561 191.137Z" fill="#D1D3D4"/>
<path d="M196.399 161.525C196.399 161.533 196.381 161.551 196.381 161.569H196.375C196.383 161.554 196.391 161.539 196.399 161.525ZM196.844 367.913C196.854 367.905 196.872 367.905 196.877 367.892C196.87 367.91 196.857 367.91 196.844 367.913ZM192.843 366.704L198.892 366.696C198.169 366.999 197.491 367.403 196.88 367.895C197.477 367.665 198.115 367.523 198.794 367.523C200.25 367.523 201.646 368.103 202.675 369.134C203.704 370.165 204.283 371.564 204.283 373.022C204.283 374.48 203.704 375.879 202.675 376.91C201.646 377.941 200.25 378.52 198.794 378.52C197.63 378.521 196.497 378.148 195.561 377.455C194.624 376.763 193.934 375.788 193.591 374.674V375.172C194.006 379.856 198.308 383.338 203.225 382.934C208.127 382.552 211.773 378.441 211.369 373.762C211.081 370.539 208.948 367.897 206.037 366.683L211.613 366.66L211.588 355.696L208.261 355.717V320.472C206.64 319.625 205.336 318.276 204.543 316.626C203.749 314.976 203.509 313.114 203.858 311.316C205.94 311.316 207.803 311.857 209.048 312.711C207.126 316.951 211.907 321.439 211.907 321.439C211.011 316.804 213.769 313.747 213.769 313.747C215.203 311.602 217.253 309.932 219.577 308.751C226.568 305.243 236.088 306.127 238.932 311.837C256.974 307.078 272.479 288.904 272.479 288.904L281.364 304.039C302.191 304.039 294.937 288.412 293.581 287.048C298.37 287.048 305.114 290.582 305.114 298.406C305.114 317.624 249.355 320.364 249.355 343.686C249.355 353.479 259.048 357.204 259.048 357.204C259.048 378.469 244.471 391.1 234.501 391.1C218.558 391.1 206.349 387.865 206.349 405.281H211.907C206.627 410.573 211.554 418.33 211.554 418.33C210.44 412.744 213.131 408.119 223.31 408.171H229.663C225.629 412.21 227.986 418.346 229.841 420.22C229.88 411.473 235.929 408.243 241.317 408.271H245.928C244.675 409.509 246.687 415.26 249.628 418.196C249.628 418.196 247.502 409.908 256.948 408.271C280.824 404.103 258.392 379.492 294.713 372.7C294.713 372.7 276.64 369.972 276.64 360.058C276.64 351.059 293.002 344.877 298.629 344.877C303.068 344.243 307.293 344.4 310.906 345.179C312.375 359.468 328.75 358.769 332.314 358.769C346.2 372.684 328.783 395.021 328.783 395.021C307.468 395.021 299.033 397.97 299.033 410.406H303.065C300.804 412.682 302.085 418.941 303.647 420.501C303.647 413.638 310.172 411.721 318.527 412.164H322.919C320.779 414.309 321.152 419.529 323.424 421.795C323.547 413.36 329.787 411.927 334.213 412.164H337.877C336.505 413.548 337.877 417.949 339.755 419.836C339.755 419.836 339.173 412.326 347.055 412.319C362.009 412.319 340.28 380.201 369.487 348.447C343.851 360.344 330.196 330.614 330.196 324.909C343.375 340.363 386.106 343.446 386.106 317.065C386.106 295.777 366.397 285.772 368.03 277.371C368.31 274.236 369.751 271.319 372.07 269.196C374.389 267.072 377.417 265.895 380.559 265.897C383.895 265.899 387.093 267.228 389.451 269.593C391.808 271.957 393.132 275.163 393.131 278.505C393.135 281.02 392.386 283.478 390.982 285.562C389.577 287.647 387.581 289.261 385.252 290.198C385.262 290.198 385.262 290.188 385.262 290.188C385.252 290.198 385.237 290.214 385.237 290.234C397.369 285.728 404.144 273.945 400.443 264.077C396.71 254.201 383.888 249.899 371.782 254.477C366.708 256.395 362.591 259.568 359.768 263.332C367.755 240.459 400.348 235.612 400.348 214.319C400.348 178.652 349.785 188.646 357.141 214.33C357.141 213.945 357.164 213.561 357.208 213.193C358.497 198.674 384.4 195.707 384.4 214.634C384.4 230.802 351.223 239.765 351.223 261.52C351.223 283.862 375.727 289.448 375.727 312.961C375.727 315.76 374.25 327.817 357.97 327.817C342.264 327.817 334.712 319.021 330.422 307.539C322.423 292.052 325.359 267.877 316.348 258.21L317.06 248.267C324.998 253.149 346.054 241.719 332.224 224.316C332.224 232.885 314.42 232.4 314.42 216.235C314.42 194.356 334.83 205.771 335.816 210.599C334.835 202.636 334.454 197.563 335.795 192.99C324.774 196.535 323.758 190.165 325.127 187.693C326.74 184.836 328.871 181.511 333.152 181.511C339.338 181.511 338.947 183.787 338.62 186.991C340.985 183.411 341.656 180.717 347.153 175.332L347.037 171.287L350.225 172.476L353.325 167.48C350.009 160.579 345.498 163.915 342.163 155.351C339.4 154.627 303.04 151.262 304.295 133.973C301.079 133.973 292.32 145.088 298.241 151.038H290.692C286.654 151.52 277.234 148.695 271.182 161.058C286.073 146.145 295.735 181.727 268.314 181.727V181.717C264.269 181.727 260.798 180.036 260.561 177.178C257.828 189.185 275.104 192.923 275.104 192.923C275.104 196.491 266.451 215.807 262.244 220.016C265.079 222.86 265.957 240.007 252.852 240.007C257.579 227.203 243.681 216.356 230.178 209.179H230.196C227.752 208.251 225.426 207.117 223.267 205.756C214.979 201.958 208.24 199.824 208.24 199.824V189.786C212.408 187.739 216.978 184.12 221.728 178.077C225.436 173.548 227.435 167.735 226.892 161.556C226.834 160.824 226.729 160.096 226.578 159.378C226.545 159.153 226.493 158.939 226.447 158.715C226.342 158.222 226.216 157.734 226.071 157.251C225.858 156.52 225.612 155.799 225.333 155.091C225.253 154.892 225.184 154.701 225.101 154.503C224.833 153.889 224.539 153.286 224.221 152.696C224.095 152.446 223.943 152.221 223.812 151.987C223.593 151.631 223.382 151.278 223.153 150.93C222.963 150.657 222.778 150.368 222.572 150.092C222.371 149.827 222.168 149.556 221.954 149.301C221.729 149 221.493 148.708 221.247 148.424C221.085 148.238 220.917 148.058 220.743 147.883C220.12 147.208 219.457 146.571 218.759 145.975C218.689 145.921 218.63 145.841 218.561 145.792C218.166 145.46 217.758 145.143 217.338 144.844C217.228 144.774 217.125 144.681 217.014 144.601C216.572 144.287 216.121 143.987 215.661 143.702C215.632 143.689 215.607 143.666 215.578 143.653C210.939 140.804 205.515 139.506 200.091 139.946C198.869 140.044 197.68 140.263 196.52 140.513C188.654 143.531 182.934 152.755 182.934 163.67C182.934 173.955 188.023 182.725 195.182 186.226C195.279 186.252 195.382 186.29 195.485 186.319C192.073 188.218 189.197 189.322 188.543 189.322C188.654 189.389 188.8 189.471 188.955 189.577C188.998 189.595 189.037 189.618 189.081 189.641C189.22 189.719 189.361 189.801 189.536 189.894C189.58 189.917 189.616 189.94 189.665 189.956C189.868 190.064 190.107 190.193 190.354 190.314C190.399 190.326 190.442 190.345 190.481 190.371C190.697 190.474 190.933 190.564 191.183 190.67C191.907 190.969 192.647 191.226 193.401 191.438L193.705 191.521C193.99 191.595 194.294 191.665 194.605 191.73C194.711 191.758 194.819 191.776 194.929 191.799C195.321 191.871 195.725 191.943 196.146 191.995C196.179 191.994 196.212 192.003 196.239 192.021C198.843 192.235 201.923 191.588 201.923 191.588V197.411C201.455 197.411 197.366 196.089 196.239 194.965C196.1 194.985 195.951 195.014 195.802 195.039C191.368 195.766 188.479 197.133 187.177 201.103C185.877 205.08 187.213 206.519 189.289 209.31C187.519 212.448 182.926 213.631 188.926 220.589C188.499 223.21 189.047 227.402 192.858 228.673C194.103 229.095 195.146 229.309 196.234 229.503C198.493 229.503 201.918 231.39 201.918 236.089V280.897C203.974 281.016 206.207 281.294 208.235 281.472V232.256C210.571 232.48 216.633 233.313 223.707 236.236C223.781 236.275 223.852 236.32 223.92 236.37C223.915 236.365 223.907 236.365 223.907 236.357C224.553 236.437 225.209 236.579 225.86 236.772C230.572 238.221 233.505 242.317 232.401 245.947C231.302 249.564 226.573 251.329 221.872 249.881C227.456 260.623 246.851 255.366 251.079 246.625C253.138 246.442 254.97 250.144 256.694 253.637C256.694 253.637 261.551 255.503 273.578 255.503C273.578 255.503 224.872 286.656 210.79 286.656C204.771 286.656 191.422 286.656 191.422 291.216C187.753 291.216 182.468 297.463 182.468 301.035C185.937 298.321 188.759 298.321 188.759 298.321C191.716 298.321 193.38 299.208 193.38 299.208C192.297 300.28 187.437 305.779 187.437 310.04C191.507 305.957 193.283 305.975 193.283 305.975C193.283 305.975 197.533 305.423 199.049 306.954C198.027 307.975 196.231 311.667 196.231 316.033C196.231 316.033 198.756 311.151 201.913 311.151V357.988C201.913 359.421 195.462 360.793 192.804 360.793M194.826 225.002C193.622 225.048 193.056 223.483 193.046 222.916C193.018 222.344 193.468 220.751 194.664 220.707C197.518 220.609 203.225 221.981 203.246 222.543C203.269 223.099 197.677 224.896 194.826 225.002ZM192.987 217.271C191.33 217.155 190.787 214.912 190.843 214.123C190.895 213.353 191.762 211.21 193.419 211.334C197.366 211.628 205.024 214.389 204.957 215.165C204.908 215.956 196.929 217.562 192.987 217.271ZM192.307 207.367C190.555 206.903 190.414 204.392 190.622 203.559C190.843 202.732 192.197 200.613 193.957 201.072C198.133 202.167 205.803 206.666 205.59 207.49C205.374 208.318 196.486 208.462 192.307 207.367ZM205.242 179.459C205.968 177.724 205.814 175.358 205.363 173.13L205.139 173.135C203.945 173.136 202.763 172.901 201.659 172.443C200.556 171.985 199.553 171.315 198.709 170.469C197.864 169.623 197.194 168.619 196.737 167.514C196.279 166.409 196.044 165.224 196.044 164.028C195.969 163.193 196.086 162.353 196.381 161.569C196.381 161.551 196.394 161.533 196.401 161.527C196.943 159.624 198.089 157.948 199.665 156.755C201.242 155.561 203.163 154.915 205.139 154.913C207.551 154.915 209.864 155.877 211.568 157.587C213.273 159.297 214.23 161.614 214.23 164.031C214.23 169.836 210.149 175.182 205.242 179.459Z" fill="#034694"/>
<path d="M341.716 187.414C342.946 189.483 344.736 191.159 346.879 192.25C349.022 193.34 351.429 193.8 353.822 193.575C357.18 193.258 360.276 191.619 362.429 189.017C364.581 186.415 365.615 183.064 365.303 179.699C365.277 179.451 365.231 179.211 365.2 178.964C364.457 182.586 360.172 185.666 354.753 186.166C350.631 186.553 346.921 185.37 344.729 183.297C343.676 184.749 342.616 186.182 341.716 187.414Z" fill="#ED1C24"/>
<path d="M324.733 163.788L329.126 164.02L326.928 167.039C326.928 167.041 323.995 167.969 324.733 163.788ZM314.258 163.788H320.586C320.586 163.788 320.357 168.9 324.978 169.362L323.995 170.991C323.995 170.991 311.58 167.74 314.258 163.788Z" fill="white"/>
<path d="M205.59 207.493C205.808 206.668 198.136 202.17 193.957 201.074C192.194 200.618 190.843 202.737 190.625 203.564C190.411 204.394 190.555 206.908 192.305 207.372C196.486 208.462 205.376 208.318 205.59 207.493ZM204.959 215.167C205.024 214.389 197.369 211.631 193.422 211.337C191.765 211.213 190.897 213.355 190.846 214.126C190.792 214.917 191.332 217.155 192.992 217.273C196.931 217.562 204.91 215.959 204.959 215.167ZM196.267 192.023V194.965C197.392 196.094 201.483 197.411 201.949 197.411V191.588C201.951 191.59 198.874 192.237 196.267 192.023ZM194.667 220.705C193.468 220.754 193.018 222.344 193.049 222.914C193.059 223.481 193.633 225.043 194.829 224.999C197.678 224.896 203.269 223.099 203.246 222.537C203.225 221.978 197.518 220.604 194.667 220.705ZM188.793 298.313C184.071 304.441 187.47 310.032 187.47 310.032C187.47 305.768 192.331 300.275 193.417 299.203C193.414 299.2 191.749 298.313 188.793 298.313ZM203.853 311.316C203.426 313.517 203.883 315.797 205.125 317.662C206.367 319.527 208.294 320.825 210.486 321.274C210.823 321.351 211.14 321.393 211.469 321.431L211.902 321.444C211.902 321.444 207.121 316.961 209.043 312.718C207.795 311.857 205.935 311.316 203.853 311.316ZM195.213 186.231C188.057 182.733 182.965 173.96 182.965 163.675C182.965 152.76 188.687 143.537 196.551 140.518C184.745 143.142 176.416 153.65 177.458 165.497C178.341 175.538 185.661 183.563 195.213 186.231ZM271.211 161.058C278.809 159.625 281.385 166.392 281.385 168.818C281.385 177.992 274.255 181.686 268.342 181.722V181.727C295.768 181.725 286.104 146.145 271.211 161.058ZM252.88 240.015C265.988 240.015 265.105 222.865 262.272 220.019C266.476 215.809 275.132 196.493 275.132 192.926C275.132 192.926 257.831 189.188 260.597 177.162C260.592 177.154 260.592 177.149 260.592 177.139L260.36 177.098C255.644 182.081 258.513 192.475 265.99 195.068C265.99 195.068 263.106 206.495 255.978 213.744C248.884 213.469 238.939 212.533 230.206 209.184C243.707 216.363 257.607 227.214 252.88 240.015ZM201.681 157.668C205.067 157.398 208.055 159.805 208.343 163.048C208.621 166.276 206.099 169.13 202.705 169.4C199.304 169.673 196.316 167.266 196.044 164.025C196.045 166.441 197.004 168.757 198.71 170.465C200.415 172.172 202.728 173.131 205.139 173.13L205.366 173.125C205.816 175.352 205.971 177.722 205.245 179.454C210.152 175.18 214.233 169.833 214.233 164.023C214.581 162.77 214.659 161.458 214.459 160.173C214.259 158.888 213.787 157.661 213.075 156.574C212.363 155.487 211.426 154.566 210.329 153.872C209.231 153.177 207.998 152.727 206.713 152.549C205.427 152.372 204.118 152.473 202.874 152.845C201.631 153.216 200.481 153.85 199.502 154.704C198.523 155.558 197.738 156.612 197.2 157.795C196.662 158.978 196.382 160.263 196.381 161.564C197.173 159.457 199.183 157.872 201.681 157.668ZM298.269 151.041C292.338 145.094 301.1 133.975 304.321 133.975C300.799 133.975 285.538 143.985 290.72 151.041H298.269ZM221.906 249.878C226.607 251.327 231.336 249.561 232.435 245.944C233.538 242.317 230.603 238.224 225.894 236.77C225.255 236.58 224.602 236.441 223.941 236.355C230.742 240.242 230.662 248.035 221.906 249.878ZM208.268 199.829C208.268 199.829 215.007 201.966 223.295 205.761C221.64 204.743 220.089 203.564 218.666 202.239C214.459 198.257 211.112 196.084 208.268 194.98V199.829ZM210.823 286.651C224.911 286.651 273.614 255.498 273.614 255.498C261.582 255.498 256.727 253.631 256.727 253.631C254.01 255.052 248.437 257.854 236.559 264.861C226.892 270.56 220.413 277.768 211.6 280.915C210.26 281.403 209.189 281.516 208.271 281.467C206.243 281.294 204.01 281.013 201.954 280.892V236.089C201.954 231.39 198.529 229.5 196.273 229.5V281.642C192.464 283.666 190.589 286.182 189.559 288.53C189.559 288.53 182.298 287.561 182.504 301.03C182.504 297.455 187.794 291.209 191.458 291.209C191.456 286.651 204.805 286.651 210.823 286.651ZM332.314 358.784C328.745 358.784 312.372 359.48 310.906 345.194C307.291 344.413 303.06 344.261 298.63 344.892C310.203 367.021 322.768 367.196 326.053 367.369C331.166 373.086 329.452 392.392 322.063 392.008C295.004 390.559 295.997 407.057 299.034 410.429C299.034 397.996 307.466 395.047 328.783 395.047C328.781 395.037 346.201 372.7 332.314 358.784ZM337.877 412.177H334.213C333.904 418.103 339.755 419.849 339.755 419.849C337.877 417.964 336.505 413.564 337.877 412.177ZM303.637 420.519C302.083 418.957 300.796 412.698 303.055 410.419H299.026C298.689 416.83 303.637 420.519 303.637 420.519ZM384.403 214.636C384.403 195.707 358.49 198.685 357.211 213.216C358.353 202.562 375.667 200.989 375.667 214.335C375.667 228.129 343.378 237.159 343.378 260.468C343.378 286.154 369.011 288.53 366.417 312.009C365.98 316.075 361.636 321.388 355.338 321.388C341.842 321.388 334.619 315.647 330.422 307.539C334.712 319.019 342.264 327.817 357.972 327.817C374.252 327.817 375.729 315.763 375.729 312.963C375.729 289.453 351.221 283.862 351.221 261.52C351.228 239.768 384.403 230.805 384.403 214.636ZM193.316 305.967C193.316 313.216 196.265 316.023 196.265 316.023C196.265 311.656 198.058 307.96 199.082 306.944C197.569 305.418 193.316 305.967 193.316 305.967ZM380.564 265.902C377.422 265.899 374.392 267.076 372.073 269.199C369.754 271.323 368.312 274.24 368.033 277.376C368.332 275.832 369.363 274.332 371.365 272.829C378.904 267.217 393.671 278.521 385.25 290.201C387.579 289.263 389.574 287.648 390.978 285.564C392.382 283.48 393.131 281.022 393.128 278.508C393.13 275.167 391.808 271.962 389.452 269.598C387.095 267.234 383.899 265.905 380.564 265.902ZM322.914 412.177H318.522C318.069 420.55 323.419 421.808 323.419 421.808C321.152 419.544 320.771 414.322 322.914 412.177ZM198.792 367.523C198.11 367.523 197.477 367.665 196.875 367.897C195.826 368.682 194.98 369.707 194.408 370.886C193.836 372.066 193.555 373.366 193.589 374.677C193.932 375.791 194.623 376.765 195.559 377.456C196.495 378.148 197.628 378.521 198.792 378.52C199.512 378.52 200.226 378.378 200.892 378.102C201.558 377.826 202.163 377.421 202.673 376.91C203.182 376.399 203.586 375.793 203.862 375.126C204.138 374.459 204.28 373.744 204.28 373.022C204.28 372.3 204.138 371.585 203.862 370.918C203.586 370.251 203.182 369.644 202.673 369.134C202.163 368.623 201.558 368.218 200.892 367.942C200.226 367.666 199.512 367.523 198.792 367.523ZM229.658 408.181H223.308C223.254 418.379 229.838 420.23 229.838 420.23C227.978 418.356 225.624 412.221 229.658 408.181ZM249.353 343.691C249.353 320.367 305.111 317.629 305.111 298.411C305.111 290.587 298.37 287.053 293.579 287.053C294.932 288.414 302.188 304.044 281.362 304.044C262.529 310.354 221.517 346.073 249.986 358.449C249.973 362.043 249.492 388.767 232.393 386.666C207.764 383.609 201.619 393.81 206.346 405.294C206.346 387.875 218.555 391.113 234.498 391.113C244.469 391.113 259.045 378.484 259.045 357.215C259.043 357.209 249.353 353.487 249.353 343.691ZM201.951 357.988V311.148C198.792 311.148 196.27 316.033 196.27 316.033V355.993V355.735L192.817 355.745L192.845 360.793C195.501 360.79 201.951 359.416 201.951 357.988ZM211.549 418.34C211.549 418.34 206.619 410.581 211.902 405.291H206.344C204.11 414.982 211.549 418.34 211.549 418.34ZM245.923 408.282H241.312C241.276 415.482 249.623 418.209 249.623 418.209C246.684 415.273 244.67 409.519 245.923 408.282Z" fill="#6A7AB5"/>
<path d="M90.8744 330.523L90.5682 329.577L90.437 328.595C89.9867 325.226 89.1736 318.951 84.3388 317.828C83.0471 317.528 81.7117 317.681 80.2836 318.268C80.6722 316.778 80.6284 315.428 80.1601 314.193C78.3796 309.547 72.0678 309.609 68.6765 309.651H67.6807L66.6978 309.47C63.3682 308.857 57.1568 307.697 54.6069 311.955C53.9199 313.092 53.6497 314.412 53.7655 315.948C52.4764 315.116 51.1744 314.739 49.8622 314.806C44.8961 315.072 43.0024 321.099 41.986 324.349L41.6746 325.288L41.2141 326.167C39.5879 329.157 36.5722 334.705 39.8298 338.461C40.6995 339.466 41.8702 340.136 43.3652 340.492C42.1841 341.472 41.4199 342.588 41.088 343.874C39.7912 348.669 44.9373 352.337 47.6905 354.307L48.4984 354.9L49.1957 355.603C51.5295 358.081 55.8703 362.656 60.4375 360.718C61.6494 360.197 62.6478 359.292 63.4506 357.98C64.0244 359.411 64.8452 360.473 65.9542 361.202C70.1123 363.904 75.1812 360.14 77.9087 358.132L78.7141 357.542L79.6095 357.101C82.6714 355.634 88.3734 352.92 87.9437 347.965C87.8305 346.632 87.2747 345.418 86.2815 344.25C87.8125 344.16 89.0707 343.694 90.0973 342.861C93.9647 339.737 91.9551 333.746 90.8744 330.523Z" fill="white"/>
<path d="M69.1369 334.54C96.8978 350.979 88.35 332.898 87.7376 330.224C87.1227 327.564 86.8885 307.568 69.1369 334.54ZM67.3923 338.654C60.3704 370.173 74.8851 356.451 77.2266 355.052C79.5655 353.642 98.4751 347.238 67.3923 338.654ZM62.9358 338.27C30.8289 341.309 48.3516 350.904 50.4126 352.701C52.4762 354.487 64.3895 370.532 62.9358 338.27ZM61.9271 333.895C49.1158 304.25 45.4183 323.909 44.3504 326.43C43.2852 328.936 31.7346 345.258 61.9271 333.895Z" fill="#ED1C24"/>
<path d="M520.467 326.167L520.007 325.288L519.695 324.347C518.676 321.096 516.78 315.064 511.835 314.804C510.504 314.742 509.207 315.11 507.921 315.933C508.039 314.407 507.756 313.089 507.085 311.953C504.524 307.691 498.323 308.851 494.991 309.465L493.998 309.645H493.005C489.629 309.599 483.312 309.542 481.537 314.188C481.053 315.422 481.017 316.776 481.395 318.263C479.99 317.678 478.655 317.526 477.353 317.825C472.523 318.944 471.695 325.221 471.267 328.59L471.116 329.572L470.817 330.518C469.731 333.741 467.729 339.731 471.592 342.864C472.616 343.694 473.871 344.158 475.408 344.25C474.412 345.418 473.856 346.64 473.745 347.968C473.318 352.922 479.012 355.634 482.079 357.101L482.967 357.542L483.77 358.132C486.503 360.143 491.577 363.901 495.725 361.202C496.849 360.47 497.662 359.411 498.231 357.978C499.036 359.29 500.027 360.189 501.251 360.715C505.814 362.654 510.162 358.078 512.493 355.603L513.191 354.9L513.991 354.304C516.752 352.337 521.893 348.666 520.604 343.874C520.256 342.59 519.51 341.466 518.319 340.492C519.806 340.136 520.982 339.466 521.846 338.461C525.112 334.702 522.101 329.157 520.467 326.167Z" fill="white"/>
<path d="M495.925 331.596C471.751 310.231 491.546 312.78 494.266 312.538C496.975 312.311 516.039 306.348 495.925 331.596ZM492.56 334.54C464.801 350.979 473.328 332.898 473.956 330.224C474.564 327.564 474.793 307.568 492.56 334.54ZM494.299 338.654C501.326 370.173 486.809 356.451 484.462 355.052C482.123 353.642 463.224 347.238 494.299 338.654ZM498.75 338.27C530.855 341.309 513.345 350.904 511.276 352.701C509.228 354.487 497.297 370.532 498.75 338.27ZM499.749 333.895C512.565 304.25 516.258 323.909 517.328 326.43C518.391 328.936 529.941 345.258 499.749 333.895Z" fill="#ED1C24"/>
<path d="M505.986 334.821C505.955 334.56 505.873 334.336 505.837 334.083C508.415 332.189 511.199 330.157 511.199 330.157L510.931 329.557L504.568 330.673C503.795 329.391 502.734 328.308 501.47 327.508C500.206 326.708 498.774 326.215 497.286 326.066C496.636 324.103 495.989 322.139 495.346 320.173L494.693 320.228C494.693 320.228 494.255 323.326 493.81 326.363C491.92 326.874 490.231 327.952 488.97 329.454C488.309 330.272 487.781 331.19 487.406 332.173C484.264 332.173 480.947 332.186 480.947 332.186L480.808 332.836C480.808 332.836 483.899 334.344 486.757 335.746C486.768 336.009 486.732 336.264 486.757 336.527C486.973 339.021 488.155 341.331 490.051 342.962L487.92 349.618L488.474 349.95C488.474 349.95 491.08 347.249 493.398 344.864C494.61 345.258 495.899 345.418 497.204 345.302C498.516 345.202 499.762 344.81 500.894 344.22C503.583 346.158 506.616 348.354 506.616 348.354L507.11 347.924C507.11 347.924 505.389 344.668 503.858 341.755C505.439 339.808 506.202 337.321 505.986 334.821Z" fill="white"/>
<path d="M495.876 329.982C495.129 330.04 494.4 330.248 493.735 330.594C493.069 330.941 492.481 331.418 492.004 331.998C491.401 332.718 490.985 333.576 490.792 334.495C490.599 335.415 490.635 336.368 490.898 337.27C491.161 338.172 491.642 338.995 492.298 339.666C492.954 340.338 493.765 340.837 494.66 341.119C495.555 341.401 496.505 341.457 497.427 341.284C498.349 341.11 499.213 340.711 499.944 340.122C500.675 339.533 501.25 338.773 501.618 337.909C501.985 337.044 502.134 336.102 502.052 335.166C501.987 334.419 501.776 333.692 501.431 333.027C501.085 332.361 500.612 331.771 500.038 331.289C499.465 330.808 498.802 330.444 498.087 330.22C497.373 329.996 496.622 329.915 495.876 329.982ZM65.7637 331.596C89.9428 310.231 70.1405 312.78 67.4259 312.538C64.7061 312.311 45.6448 306.348 65.7637 331.596Z" fill="#ED1C24"/>
<path d="M74.9186 335.733C77.7953 334.334 80.8727 332.82 80.8727 332.82L80.7261 332.173C80.7261 332.173 77.4171 332.16 74.2702 332.16C73.8991 331.176 73.3726 330.258 72.711 329.441C71.451 327.938 69.7605 326.859 67.8684 326.35L66.9962 320.215L66.3323 320.161C66.3323 320.161 65.37 323.13 64.4154 326.053C62.9247 326.199 61.4884 326.691 60.2208 327.49C58.9531 328.29 57.889 329.374 57.113 330.658L50.742 329.544L50.4873 330.145C50.4873 330.145 53.2662 332.176 55.8419 334.071C55.8007 334.326 55.7261 334.555 55.6978 334.805C55.4827 337.306 56.2509 339.793 57.8386 341.735C56.2922 344.648 54.5733 347.903 54.5733 347.903L55.0802 348.331C55.0802 348.331 58.1088 346.132 60.795 344.196C61.922 344.787 63.1674 345.168 64.4797 345.279C65.765 345.394 67.0601 345.244 68.2853 344.838L73.1998 349.927L73.7736 349.592L71.6328 342.949C73.5238 341.31 74.7049 338.999 74.9264 336.504C74.9598 336.251 74.9186 335.996 74.9186 335.733Z" fill="white"/>
<path d="M69.6876 331.998C69.2115 331.417 68.6225 330.938 67.9565 330.592C67.2904 330.245 66.561 330.038 65.8125 329.982C65.0674 329.916 64.3165 329.998 63.6028 330.222C62.8892 330.447 62.2267 330.811 61.6534 331.292C61.0801 331.774 60.6072 332.364 60.2616 333.028C59.9161 333.693 59.7048 334.42 59.6397 335.166C59.5111 336.697 59.9819 338.162 60.952 339.34C61.6795 340.201 62.645 340.828 63.7272 341.142C64.8094 341.455 65.96 341.441 67.0341 341.101C68.1083 340.761 69.0582 340.11 69.7642 339.231C70.4703 338.352 70.9011 337.283 71.0024 336.159C71.1299 334.652 70.6572 333.156 69.6876 331.998Z" fill="#ED1C24"/>
<path d="M69.2992 197.192C55.7854 194.8 42.8428 203.889 40.455 217.431C38.0698 230.98 47.1322 243.944 60.6485 246.334C74.1752 248.726 87.1229 239.639 89.503 226.092C91.8959 212.551 82.8284 199.587 69.2992 197.192Z" fill="white"/>
<path d="M74.9366 216.062C74.5801 215.836 74.2267 215.606 73.8765 215.371C71.8335 214.015 67.8272 211.362 67.7166 211.283C67.1634 210.901 66.623 210.538 66.0904 210.179C64.5012 209.093 62.8776 208.059 61.2221 207.078C60.6654 206.758 60.1 206.454 59.5265 206.166C57.1464 204.962 54.8641 204.235 52.1726 203.998C50.0868 205.51 48.2808 207.376 46.8361 209.512C53.0269 211.749 59.0736 215.34 71.6611 223.172C72.3841 221.511 74.7925 216.374 74.9366 216.062ZM69.1318 229.436C69.3865 228.807 70.4903 226.002 70.9432 224.922C58.0418 216.895 52.0517 213.342 45.848 211.143C44.8724 212.912 44.1476 214.807 43.6943 216.776C47.2349 221.648 56.727 226.433 69.1318 229.436ZM67.7346 209.035C72.5642 206.173 78.0552 206.952 82.2905 208.4C80.7089 206.335 78.7729 204.568 76.5731 203.183C72.5694 202.381 67.045 202.26 62.645 205.763C64.2455 206.702 65.8974 207.8 67.7346 209.035Z" fill="#ED1C24"/>
<path d="M48.4623 232.155C49.1081 232.599 49.772 233.021 50.4718 233.418C51.8973 234.205 53.4334 234.885 55.0288 235.468C55.7029 235.728 56.3873 235.96 57.0795 236.184C59.4956 236.984 65.0535 238.427 65.4651 238.523L68.419 231.194C58.8009 228.804 48.2693 224.62 43.2672 219.184C42.963 221.636 43.0796 224.123 43.612 226.536C44.6696 228.843 46.3626 230.678 48.4623 232.155ZM65.7894 240.538L63.7824 240.023C61.7938 239.524 59.8171 238.978 57.854 238.386C58.8549 240.523 60.4271 242.188 62.1047 243.477C64.2975 243.77 66.522 243.728 68.7021 243.351C67.1659 242.147 65.7894 240.538 65.7894 240.538ZM85.9056 215.399C85.4543 213.907 84.8471 212.467 84.0942 211.102C80.2989 209.411 74.5275 207.753 69.4843 210.226L76.4367 214.827C77.8879 214.698 79.2234 214.657 80.4456 214.688C81.112 214.698 81.7321 214.734 82.3214 214.794C83.6877 214.915 84.8481 215.134 85.9056 215.399ZM82.3445 216.675C82.1412 228.129 76.7506 236.963 72.1062 242.492C79.3752 239.961 85.108 233.684 86.5386 225.577C87.002 222.897 86.9654 220.154 86.4306 217.487C85.0997 217.078 83.7306 216.806 82.3445 216.675ZM60.9082 204.789C64.1632 201.915 68.0073 200.943 71.5556 200.863C70.6487 200.564 69.7218 200.331 68.7818 200.164C63.9212 199.303 58.9127 200.123 54.5785 202.489C56.8145 202.93 58.8369 203.716 60.9082 204.789Z" fill="#ED1C24"/>
<path d="M76.707 216.686C75.0525 220.137 74.0799 222.251 73.2719 224.174C73.0223 224.757 72.783 225.321 72.5386 225.912C72.1526 226.876 70.9639 229.874 70.9639 229.874L70.2589 231.637L67.1866 239.257C68.0357 240.386 69.0624 241.304 70.071 242.018C74.6331 236.806 80.3144 228.039 80.4868 216.565C79.3341 216.523 78.0707 216.567 76.707 216.686ZM55.5512 237.628C54.0136 237.109 52.509 236.496 51.0457 235.793C51.5861 237.461 52.3631 238.948 53.1428 240.216C54.7818 241.271 56.5804 242.098 58.4999 242.691C57.2597 241.291 56.1867 239.629 55.5512 237.628ZM48.7917 234.56C47.7694 233.948 46.7994 233.251 45.8918 232.478C46.9079 234.293 48.1763 235.956 49.6588 237.414C49.2922 236.488 49.0022 235.534 48.7917 234.56Z" fill="#ED1C24"/>
<path d="M469.487 226.092C471.877 239.639 484.812 248.723 498.331 246.334C511.855 243.944 520.912 230.977 518.54 217.431C516.152 203.892 503.212 194.805 489.688 197.192C476.164 199.587 467.102 212.551 469.487 226.092Z" fill="white"/>
<path d="M484.05 216.062L485.118 215.371C487.72 213.65 490.315 211.919 492.904 210.179C494.49 209.088 496.113 208.053 497.773 207.078C498.352 206.751 498.912 206.441 499.463 206.166C501.838 204.962 504.128 204.235 506.817 203.998C508.903 205.504 510.705 207.371 512.138 209.512C505.952 211.749 499.924 215.34 487.318 223.172C486.598 221.511 484.2 216.374 484.05 216.062ZM489.858 229.436C489.601 228.807 488.489 226.002 488.062 224.922C500.937 216.895 506.946 213.342 513.147 211.143C514.104 212.876 514.829 214.763 515.303 216.776C511.755 221.648 502.26 226.433 489.858 229.436ZM491.255 209.035C486.42 206.173 480.934 206.952 476.697 208.4C478.283 206.335 480.223 204.568 482.427 203.183C486.425 202.381 491.945 202.26 496.339 205.763C494.613 206.804 492.918 207.895 491.255 209.035Z" fill="#ED1C24"/>
<path d="M510.517 232.155C509.871 232.611 509.202 233.032 508.513 233.418C507.095 234.205 505.561 234.885 503.969 235.468C503.287 235.728 502.597 235.96 501.908 236.185C499.499 236.984 493.941 238.427 493.525 238.523C493.429 238.309 491.34 233.153 490.571 231.194C500.184 228.804 510.708 224.62 515.728 219.184C516.023 221.637 515.904 224.122 515.375 226.536C514.32 228.843 512.63 230.678 510.517 232.155ZM493.205 240.539L495.197 240.023C497.193 239.525 499.176 238.979 501.146 238.386C500.127 240.523 498.563 242.188 496.89 243.477C494.699 243.77 492.476 243.728 490.298 243.351C491.821 242.147 493.205 240.539 493.205 240.539ZM473.087 215.399C473.534 213.904 474.145 212.463 474.908 211.102C478.691 209.411 484.452 207.753 489.498 210.226L482.55 214.827C481.217 214.705 479.878 214.658 478.539 214.688C477.911 214.697 477.283 214.732 476.658 214.794C475.453 214.9 474.259 215.103 473.087 215.399ZM476.648 216.675C476.846 228.129 482.252 236.963 486.896 242.493C479.607 239.961 473.869 233.684 472.454 225.577C471.983 222.897 472.021 220.153 472.567 217.487C473.896 217.078 475.263 216.806 476.648 216.675ZM498.089 204.789C494.832 201.915 490.977 200.943 487.437 200.863C488.344 200.563 489.272 200.329 490.213 200.164C495.071 199.303 500.077 200.123 504.409 202.489C502.18 202.93 500.155 203.717 498.089 204.789Z" fill="#ED1C24"/>
<path d="M482.288 216.686C483.488 219.158 484.639 221.655 485.738 224.174L486.449 225.912C486.84 226.876 488.028 229.874 488.028 229.874L488.728 231.637L491.806 239.257C490.991 240.319 490.019 241.25 488.924 242.018C484.362 236.806 478.673 228.039 478.511 216.565C479.658 216.523 480.927 216.567 482.288 216.686ZM503.441 237.628C504.979 237.108 506.485 236.495 507.949 235.793C507.422 237.345 506.715 238.83 505.842 240.216C504.179 241.279 502.381 242.112 500.495 242.691C501.733 241.291 502.806 239.629 503.441 237.628ZM510.206 234.56C511.223 233.942 512.191 233.246 513.1 232.478C512.085 234.295 510.816 235.957 509.331 237.414C509.694 236.487 509.987 235.533 510.206 234.56Z" fill="#ED1C24"/>
</g>
<defs>
<clipPath id="clip0_383_669">
<rect width="539" height="540" fill="white" transform="translate(10 9)"/>
</clipPath>
</defs>
</svg>
