<?xml version="1.0" encoding="UTF-8"?>
<svg version="1.1" xmlns="http://www.w3.org/2000/svg" width="1341" height="261">
<path d="M0 0 C1.25619141 -0.03738281 2.51238281 -0.07476562 3.80664062 -0.11328125 C18.39070601 -0.2488069 29.3582343 4.75166996 40.0625 14.375 C57.71337217 32.24616386 61.37317245 54.8503561 61.30688477 78.89916992 C61.12920197 104.6134014 53.16371814 125.1967554 35.0625 143.375 C24.14376703 153.51831431 9.86839298 157.78667499 -4.75 157.6875 C-6.06266846 157.67904053 -6.06266846 157.67904053 -7.40185547 157.67041016 C-22.38211833 157.39068996 -32.33778934 152.97471066 -42.9375 142.375 C-43.2675 165.145 -43.5975 187.915 -43.9375 211.375 C-56.1475 211.375 -68.3575 211.375 -80.9375 211.375 C-80.96255615 205.78876709 -80.9876123 200.20253418 -81.01342773 194.44702148 C-81.09699451 175.96694847 -81.1856214 157.48690226 -81.27683926 139.0068655 C-81.33200829 127.80512426 -81.38546254 116.60337983 -81.43481445 105.40161133 C-81.47785719 95.63288559 -81.52418408 85.86418174 -81.57437855 76.09549004 C-81.6008187 70.9278634 -81.62566594 65.76024065 -81.64657402 60.59258842 C-81.66634873 55.71792787 -81.69055027 50.84330838 -81.71799088 45.96868515 C-81.72725232 44.18989251 -81.73496523 42.41109095 -81.74091911 40.63228416 C-81.76936965 32.37872749 -81.85041024 24.12773998 -82.26283264 15.88319397 C-82.31898774 14.69607347 -82.37514284 13.50895296 -82.43299961 12.28585911 C-82.71898795 9.40338429 -82.71898795 9.40338429 -84.24919796 7.51120663 C-86.93459348 5.70396828 -89.77451108 5.67339518 -92.9375 5.375 C-92.9375 4.715 -92.9375 4.055 -92.9375 3.375 C-76.7675 3.375 -60.5975 3.375 -43.9375 3.375 C-43.4425 11.295 -43.4425 11.295 -42.9375 19.375 C-41.9475 18.17875 -40.9575 16.9825 -39.9375 15.75 C-28.75878295 3.07033296 -16.33113623 0.17937344 0 0 Z M-35.625 39.9375 C-46.69609521 54.52441598 -46.80543602 76.55660952 -44.61669922 93.91992188 C-42.91573421 103.58421393 -40.06311546 114.3513522 -32.25 120.8125 C-23.77729136 126.41337294 -14.19664362 127.66551442 -4.30078125 125.90625 C4.35770725 123.678645 10.96334398 118.72413298 16.0625 111.375 C24.82314407 91.61261687 25.47180607 69.37571877 18.375 49 C15.27340819 41.85440964 9.95363011 35.99177325 3.0625 32.375 C-10.53371193 27.81038307 -25.21391419 30.01065074 -35.625 39.9375 Z " fill="#000000" transform="translate(349.9375,49.625)"/>
<path d="M0 0 C24.255 0.495 24.255 0.495 49 1 C49 66.67 49 132.34 49 200 C36.79 200 24.58 200 12 200 C11.67 195.38 11.34 190.76 11 186 C9.783125 187.36125 8.56625 188.7225 7.3125 190.125 C-2.08761227 199.52511227 -14.62409814 203.18416703 -27.6484375 203.32983398 C-45.59744434 203.21304701 -60.30579691 199.42897218 -73.66015625 186.55078125 C-85.12613104 174.05114597 -92.56319772 157.9747926 -94 141 C-94.06413086 140.3188916 -94.12826172 139.6377832 -94.19433594 138.93603516 C-95.59153781 123.46319427 -95.14424085 107.8053761 -90 93 C-89.60039063 91.81921875 -89.20078125 90.6384375 -88.7890625 89.421875 C-82.87995578 72.89283139 -70.99842181 57.77727864 -55 50 C-38.0524968 42.93449996 -18.93980267 42.55371275 -1.5703125 48.22265625 C1.60624171 49.80398247 3.96285059 51.42386854 6.72314453 53.61108398 C7.52624054 54.24473373 8.32933655 54.87838348 9.1567688 55.53123474 C10.06916824 56.25827354 10.06916824 56.25827354 11 57 C11.05069859 50.37975331 11.08573295 43.75955666 11.10986328 37.13916016 C11.11992253 34.88686248 11.13357146 32.63457786 11.15087891 30.38232422 C11.17513031 27.14547502 11.1864839 23.90879845 11.1953125 20.671875 C11.20563507 19.66445251 11.21595764 18.65703003 11.22659302 17.61907959 C11.22674408 16.67840637 11.22689514 15.73773315 11.22705078 14.76855469 C11.231492 13.94248718 11.23593323 13.11641968 11.24050903 12.26531982 C10.9718248 9.73462186 10.35939038 8.14312603 9 6 C6.83718718 4.8774351 6.83718718 4.8774351 4.375 4.25 C3.55773438 4.00765625 2.74046875 3.7653125 1.8984375 3.515625 C1.27195312 3.34546875 0.64546875 3.1753125 0 3 C0 2.01 0 1.02 0 0 Z M-44 86 C-44.9075 86.9075 -45.815 87.815 -46.75 88.75 C-53.72837705 98.82987795 -55.39535112 111.62747775 -55.375 123.625 C-55.37411377 124.57705322 -55.37322754 125.52910645 -55.37231445 126.51000977 C-55.15038051 139.92856382 -52.26808293 154.08973451 -42.953125 164.20703125 C-37.25316053 169.43959863 -29.61921839 171.94663291 -21.95703125 172.03515625 C-12.08773919 171.56078231 -2.95649966 169.44183684 4 162 C13.09710056 147.4186474 13.34265528 131.64325661 13 115 C12.98324219 113.87078125 12.96648437 112.7415625 12.94921875 111.578125 C12.51719815 101.45649947 10.13616612 89.81874171 2.796875 82.328125 C-11.01222511 72.12139883 -32.46666279 73.55259877 -44 86 Z " fill="#000000" transform="translate(1087,4)"/>
<path d="M0 0 C1.10041122 0.00081573 1.10041122 0.00081573 2.22305298 0.00164795 C13.26830982 0.03934867 23.44578483 0.61712204 33.9375 4.375 C35.16855469 4.81070312 36.39960938 5.24640625 37.66796875 5.6953125 C56.21334658 12.97034818 70.28592914 26.62954132 78.45361328 44.72998047 C81.41326886 51.54027317 83.9375 57.88030653 83.9375 65.375 C70.7375 65.375 57.5375 65.375 43.9375 65.375 C42.2875 61.085 40.6375 56.795 38.9375 52.375 C35.83754199 48.32238498 35.83754199 48.32238498 32.9375 45.375 C32.9375 44.715 32.9375 44.055 32.9375 43.375 C32.36 43.106875 31.7825 42.83875 31.1875 42.5625 C28.9375 41.375 28.9375 41.375 27.13671875 39.93359375 C24.66621966 38.18274271 22.3523566 37.25485239 19.5 36.25 C18.57316406 35.91742188 17.64632812 35.58484375 16.69140625 35.2421875 C3.16395742 30.98248021 -12.83789796 32.16113008 -25.421875 38.578125 C-27.40930763 39.7586301 -29.22846468 40.96801656 -31.0625 42.375 C-32.03960937 43.10976563 -33.01671875 43.84453125 -34.0234375 44.6015625 C-37.33480799 47.38815489 -39.2389374 50.52289116 -41.25 54.3125 C-41.57935547 54.90740234 -41.90871094 55.50230469 -42.24804688 56.11523438 C-43.20596451 57.85776845 -44.13466323 59.61626462 -45.0625 61.375 C-45.59230469 62.31730469 -46.12210938 63.25960937 -46.66796875 64.23046875 C-48.480387 68.31729422 -49.32816275 72.37769209 -50.1875 76.75 C-50.35636719 77.56210938 -50.52523437 78.37421875 -50.69921875 79.2109375 C-56.10312465 105.76241217 -53.61383335 134.28400953 -39.20849609 157.69189453 C-32.63782756 167.34212651 -22.26277794 172.33271716 -11.1953125 174.97583008 C1.73608789 177.39602692 15.44024335 175.52046657 26.75 168.75 C36.05829326 161.91822513 39.47188377 154.09247895 43.9375 143.375 C57.1375 143.375 70.3375 143.375 83.9375 143.375 C81.78994946 160.55540435 72.57535605 175.66186513 59.9375 187.375 C59.0403125 188.27992188 59.0403125 188.27992188 58.125 189.203125 C39.99531871 206.66627389 15.01399103 209.02481909 -8.89453125 208.68359375 C-31.38334745 207.97465919 -51.24399408 199.22559269 -67.68359375 183.9375 C-76.32977049 174.62404853 -82.21918259 164.03004189 -87.0625 152.375 C-87.46210937 151.44171875 -87.86171875 150.5084375 -88.2734375 149.546875 C-93.60111566 136.167593 -94.580409 122.2959825 -94.50854492 108.06689453 C-94.5000287 105.50862087 -94.52894477 102.95258702 -94.56054688 100.39453125 C-94.62291977 85.87366939 -92.42618504 71.77411993 -86.9375 58.25 C-86.64601074 57.51974609 -86.35452148 56.78949219 -86.05419922 56.03710938 C-80.92491885 43.74804282 -73.54938857 32.72263149 -64.0625 23.375 C-63.45277344 22.75496094 -62.84304687 22.13492187 -62.21484375 21.49609375 C-54.19322236 13.8832174 -44.06078679 8.89928262 -33.8125 5 C-33.18794922 4.76144287 -32.56339844 4.52288574 -31.91992188 4.27709961 C-21.42564433 0.49221093 -11.06892402 -0.03075176 0 0 Z " fill="#000000" transform="translate(94.0625,-0.375)"/>
<path d="M0 0 C1.17038818 0.00684814 2.34077637 0.01369629 3.54663086 0.02075195 C20.99945307 0.34077829 36.52821701 3.70356052 49.546875 15.96484375 C58.47629485 25.71022783 60.93283978 36.25363775 61.00195312 49.11645508 C61.01439308 50.37672012 61.01439308 50.37672012 61.02708435 51.66244507 C61.04440698 53.4782358 61.0595946 55.29404792 61.07286072 57.10987282 C61.09407448 60.00125702 61.12108897 62.89253771 61.14953613 65.78385925 C61.20903549 71.9391982 61.26114878 78.09458847 61.3125 84.25 C61.37216457 91.35273925 61.43499004 98.45542933 61.50437927 105.55808067 C61.53048769 108.37478889 61.55159013 111.19150336 61.5723877 114.008255 C61.64564573 122.43179108 61.81157616 130.83636311 62.26757812 139.2487793 C62.30574394 139.95962834 62.34390976 140.67047739 62.38323212 141.40286732 C62.66501814 146.11687428 63.18766036 150.75973552 63.8125 155.4375 C58.72220056 155.5115421 53.63221308 155.56605008 48.54150391 155.60229492 C46.80902651 155.6174009 45.07658746 155.63788694 43.34423828 155.66381836 C40.85700022 155.70012321 38.37026674 155.71720765 35.8828125 155.73046875 C35.10567902 155.74595261 34.32854553 155.76143646 33.52786255 155.77738953 C31.34423828 155.77807617 31.34423828 155.77807617 27.8125 155.4375 C25.90931116 152.58271674 25.3505901 151.01808692 24.6875 147.75 C24.51992188 146.94175781 24.35234375 146.13351563 24.1796875 145.30078125 C24.05851563 144.68589844 23.93734375 144.07101563 23.8125 143.4375 C23.37421875 143.87320313 22.9359375 144.30890625 22.484375 144.7578125 C11.22065958 155.33471601 -1.43347042 158.84799501 -16.5625 158.75 C-17.481521 158.74436035 -18.40054199 158.7387207 -19.34741211 158.73291016 C-33.45623918 158.48134488 -46.2388247 154.53418058 -56.625 144.625 C-66.39802726 134.10020141 -69.88350635 122.02559436 -69.46875 107.69921875 C-68.25423758 93.61424835 -63.58145502 83.5325043 -52.734375 74.40234375 C-31.30848347 57.87285994 -1.728994 60.10907327 23.8125 60.4375 C23.79036737 45.9376838 23.79036737 45.9376838 17.1875 33.5625 C8.85817384 28.31810945 -1.62175343 28.33652979 -11.0625 30.3125 C-12.44206342 30.6703474 -13.81784786 31.04341498 -15.1875 31.4375 C-16.156875 31.705625 -17.12625 31.97375 -18.125 32.25 C-20.81800355 33.51704951 -20.81800355 33.51704951 -22.1875 38.4375 C-24.1675 43.3875 -24.1675 43.3875 -26.1875 48.4375 C-38.0675 48.4375 -49.9475 48.4375 -62.1875 48.4375 C-60.67855166 33.34801662 -56.74419545 22.52613665 -45.1875 12.4375 C-32.32420287 2.84419877 -15.73426048 -0.14302833 0 0 Z M-27.0625 95 C-30.99402023 100.21528194 -31.52512892 107.14241269 -30.87890625 113.44921875 C-29.63959946 119.09152854 -27.86013349 122.88010668 -23.12109375 126.2890625 C-14.34542122 131.50128012 -4.75143372 131.82508602 5.125 129.375 C12.35662452 126.82749591 17.15883035 122.33178463 20.6875 115.5625 C24.55058726 106.17142591 24.95723593 95.49006831 24.8125 85.4375 C20.41672496 85.37848412 16.02105438 85.34356752 11.625 85.3125 C10.39845703 85.29574219 9.17191406 85.27898437 7.90820312 85.26171875 C-5.71488257 85.18982912 -16.67603646 85.74249989 -27.0625 95 Z " fill="#000000" transform="translate(602.1875,48.5625)"/>
<path d="M0 0 C6.62815864 5.25681547 11.8371004 10.6257207 16 18 C16.51304687 18.88171875 17.02609375 19.7634375 17.5546875 20.671875 C24.91013036 34.21174494 27.19220639 49.11915016 27.125 64.375 C27.12886719 65.27605469 27.13273437 66.17710938 27.13671875 67.10546875 C27.13478516 68.39517578 27.13478516 68.39517578 27.1328125 69.7109375 C27.13168457 70.48743652 27.13055664 71.26393555 27.12939453 72.06396484 C27 74 27 74 26 76 C-7 76 -40 76 -74 76 C-72.78636237 88.32009055 -72.78636237 88.32009055 -68.6875 98.625 C-68.11386719 99.73101562 -67.54023437 100.83703125 -66.94921875 101.9765625 C-62.66321565 108.62459136 -57.35199259 112.35164662 -50 115 C-41.03049793 116.8317165 -31.99992597 116.384078 -23.8125 112.0625 C-20.20258539 109.66325903 -19.17767525 107.25499908 -17.4453125 103.3515625 C-14.40216246 98.43657739 -14.40216246 98.43657739 -11.11764526 97.41390991 C-5.45178246 96.59753586 0.244448 97.00099842 5.9375 97.3125 C7.68799775 97.36772433 9.4386623 97.41790628 11.18945312 97.46289062 C15.46377311 97.5836677 19.73005031 97.77312818 24 98 C23.05858695 112.64465394 13.26769961 124.74371172 2.5 134.25 C-1.85142055 137.54920497 -6.43277732 139.76833007 -11.4375 141.875 C-12.45650391 142.30474121 -12.45650391 142.30474121 -13.49609375 142.74316406 C-30.76465311 149.53775347 -52.67009822 149.51007853 -70 143 C-87.93247429 135.19118703 -99.09811582 123.05067284 -106.8203125 105.09765625 C-115.72467114 81.71634367 -114.91859975 52.11590058 -105.43359375 29.12109375 C-97.9456994 12.81911123 -87.17737434 -0.06532337 -70.046875 -6.56640625 C-48.47137621 -14.19916132 -18.90554123 -14.80878097 0 0 Z M-63.8125 25.5625 C-70.1952196 33.69556351 -71.96529894 40.65298937 -73 51 C-52.54 51.33 -32.08 51.66 -11 52 C-12.09944573 39.47740832 -12.09944573 39.47740832 -17 29 C-17.42152344 28.37609375 -17.84304688 27.7521875 -18.27734375 27.109375 C-21.98275206 22.22357346 -25.98747507 19.34584995 -32 18 C-43.50982288 16.71926247 -55.30379025 16.7460284 -63.8125 25.5625 Z " fill="#000000" transform="translate(1264,60)"/>
<path d="M0 0 C2.5233201 2.20070383 4.89901274 4.48406871 7.25390625 6.86328125 C7.95128906 7.52714844 8.64867187 8.19101563 9.3671875 8.875 C18.56330722 18.24968515 23.96737678 31.0724698 26.25390625 43.86328125 C26.45628906 44.86359375 26.65867187 45.86390625 26.8671875 46.89453125 C31.21853386 70.81213573 27.58242785 95.34054067 14.34765625 115.859375 C3.6965158 131.1405821 -11.58928682 140.65668069 -29.87890625 144.390625 C-52.67500487 147.17681483 -74.07212506 143.99193156 -92.62109375 129.55078125 C-108.66656989 115.54916517 -116.31801224 96.71755143 -118.74609375 75.86328125 C-120.2829424 50.53685758 -115.06766127 27.64338452 -98.40234375 8.1171875 C-74.20382544 -17.69194648 -28.12535706 -21.88416829 0 0 Z M-71.74609375 29.86328125 C-73.97495475 33.72522178 -75.41395003 37.61775005 -76.74609375 41.86328125 C-77.22175781 43.16265625 -77.22175781 43.16265625 -77.70703125 44.48828125 C-82.42992169 59.39355017 -81.14661921 77.33061725 -75.74609375 91.86328125 C-75.45734375 92.64574219 -75.16859375 93.42820312 -74.87109375 94.234375 C-71.52600721 101.89522052 -65.48589206 108.87111905 -57.734375 112.15234375 C-57.07824219 112.38695312 -56.42210937 112.6215625 -55.74609375 112.86328125 C-55.12089844 113.09789062 -54.49570312 113.3325 -53.8515625 113.57421875 C-46.45053667 115.89551809 -37.81272027 115.03488283 -30.71484375 111.98046875 C-20.7003459 106.29763862 -16.18879454 97.72610728 -12.43359375 87.17578125 C-8.75993407 69.47542099 -8.78636118 47.92069928 -17.74609375 31.86328125 C-22.22629035 25.32778319 -26.95760773 20.69438455 -34.65234375 18.4140625 C-49.72246247 15.7311247 -61.70724317 17.94324501 -71.74609375 29.86328125 Z " fill="#000000" transform="translate(949.74609375,62.13671875)"/>
<path d="M0 0 C11.93819727 9.01997127 21.44995808 21.84431412 23.63671875 36.9921875 C23.63671875 39.3021875 23.63671875 41.6121875 23.63671875 43.9921875 C11.42671875 43.9921875 -0.78328125 43.9921875 -13.36328125 43.9921875 C-14.35328125 40.6921875 -15.34328125 37.3921875 -16.36328125 33.9921875 C-19.76850507 28.39128768 -24.22616991 23.99232746 -30.6796875 22.359375 C-40.42996612 21.02527574 -48.71013849 21.13941149 -57.36328125 25.9921875 C-58.35328125 26.3221875 -59.34328125 26.6521875 -60.36328125 26.9921875 C-61.06722737 28.30622026 -61.72673783 29.6442132 -62.36328125 30.9921875 C-62.98976563 31.69988281 -63.61625 32.40757813 -64.26171875 33.13671875 C-66.81284247 36.60302254 -67.86858343 39.83570982 -69.05078125 43.9296875 C-69.26283203 44.61998047 -69.47488281 45.31027344 -69.69335938 46.02148438 C-74.98258628 63.62443196 -74.1854707 84.86174832 -66.42578125 101.6796875 C-61.32498823 109.87187023 -56.26952426 114.23237447 -46.7265625 116.6640625 C-39.17000615 117.76720941 -32.31066745 116.03166896 -25.36328125 112.9921875 C-24.33155984 112.02494868 -23.32052453 111.03318957 -22.36328125 109.9921875 C-21.70328125 109.9921875 -21.04328125 109.9921875 -20.36328125 109.9921875 C-18.91780746 107.15309548 -17.58329255 104.28331585 -16.30078125 101.3671875 C-15.35536053 99.21947703 -14.41270912 97.09104325 -13.36328125 94.9921875 C-0.82328125 94.9921875 11.71671875 94.9921875 24.63671875 94.9921875 C19.68346966 113.56687159 12.96510158 128.22240308 -3.36328125 138.9921875 C-20.73621249 148.85249983 -42.50617378 151.1976359 -61.92578125 146.4296875 C-79.85629647 141.14840289 -92.98963159 131.34307688 -102.36328125 114.9921875 C-107.02624811 105.99205059 -109.71285223 96.96866144 -111.36328125 86.9921875 C-111.49476563 86.21617187 -111.62625 85.44015625 -111.76171875 84.640625 C-114.8207269 62.56616078 -110.95289171 38.12138939 -98.28125 19.51953125 C-93.07305716 12.6565969 -87.29618513 6.15121405 -80.36328125 0.9921875 C-79.70714844 0.49074219 -79.05101562 -0.01070312 -78.375 -0.52734375 C-56.6410387 -15.35448488 -21.71863758 -14.11559988 0 0 Z " fill="#000000" transform="translate(792.36328125,59.0078125)"/>
<path d="M0 0 C30.36 0 60.72 0 92 0 C92 9.57 92 19.14 92 29 C82.1 29 72.2 29 62 29 C62.06298004 39.83152333 62.13844298 50.66276403 62.23571491 61.49403477 C62.2803896 66.52375744 62.31965219 71.55339966 62.34643555 76.58325195 C62.37249736 81.43985902 62.41292031 86.29615598 62.46318626 91.15257072 C62.47983549 93.00281853 62.49136186 94.85311994 62.49761391 96.70343208 C62.50727617 99.30074483 62.53536047 101.89726773 62.56762695 104.49438477 C62.56619186 105.25467987 62.56475677 106.01497498 62.5632782 106.79830933 C62.65228947 111.88428468 63.64217621 115.47154729 66 120 C68.78073581 122.08234167 71.13095952 122.24147352 74.546875 122.1953125 C75.30838867 122.19031738 76.06990234 122.18532227 76.85449219 122.18017578 C77.81000977 122.16196777 78.76552734 122.14375977 79.75 122.125 C82.8025 122.08375 85.855 122.0425 89 122 C89 130.91 89 139.82 89 149 C81.71879197 152.12051773 76.72617858 152.72189233 69 153 C67.88496094 153.04125 66.76992188 153.0825 65.62109375 153.125 C54.21888905 153.34038994 43.34390807 152.01011295 34.21484375 144.5390625 C26.00735234 135.93274159 23.83830928 124.30457863 23.88647461 112.89526367 C23.88632858 111.98745148 23.88618256 111.07963928 23.8860321 110.14431763 C23.88672719 107.15217679 23.89450069 104.16009868 23.90234375 101.16796875 C23.90420936 99.09003229 23.90563259 97.01209538 23.90663147 94.93415833 C23.91044535 89.47122987 23.92026601 84.00832809 23.93133545 78.54541016 C23.94157384 72.96842815 23.94613429 67.39144182 23.95117188 61.81445312 C23.96188928 50.87628849 23.97947696 39.93815064 24 29 C16.08 29 8.16 29 0 29 C0 19.43 0 9.86 0 0 Z " fill="#000000" transform="translate(426,53)"/>
<path d="M0 0 C16.17 0 32.34 0 49 0 C49 49.83 49 99.66 49 151 C36.79 151 24.58 151 12 151 C11.98541748 146.7601123 11.97083496 142.52022461 11.95581055 138.15185547 C11.9055069 124.15400371 11.83906977 110.15626302 11.76428509 96.15852165 C11.71933154 87.67047238 11.67991586 79.18246502 11.65356445 70.69433594 C11.63058079 63.29553719 11.59717868 55.89687114 11.55129844 48.49817765 C11.52737111 44.58110026 11.50863916 40.66415425 11.50238609 36.74700546 C11.49633296 33.05826664 11.4763252 29.36986395 11.44572449 25.68124962 C11.43277043 23.68572781 11.43451358 21.69012745 11.4367218 19.69456482 C11.42418365 18.49992111 11.41164551 17.3052774 11.39872742 16.07443237 C11.39181397 14.52305478 11.39181397 14.52305478 11.38476086 12.94033623 C10.9267108 9.43992513 9.80301345 7.01968901 8 4 C6.0090141 2.87594619 6.0090141 2.87594619 3.8125 2.625 C2.554375 2.41875 1.29625 2.2125 0 2 C0 1.34 0 0.68 0 0 Z " fill="#000000" transform="translate(193,53)"/>
<path d="M0 0 C5.30617762 3.14739053 9.75146083 7.12156998 11.7421875 13.09375 C12.3118217 18.95818074 12.59836489 24.54260366 9.109375 29.5234375 C5.2715229 33.93148477 2.29056521 36.71265699 -3.6796875 37.60546875 C-8.91845374 37.76572637 -13.01899274 37.65882568 -17.8203125 35.46875 C-23.11468761 30.3101281 -26.38048442 26.45276657 -26.5078125 18.78125 C-26.41628986 12.97718899 -25.59310865 9.43391135 -21.3828125 5.21484375 C-15.15851738 -0.44880714 -8.35614028 -3.3540217 0 0 Z " fill="#000000" transform="translate(229.2578125,8.90625)"/>
<path d="M0 0 C4.8618073 3.45728519 8.5954339 7.61657889 11.3125 12.9375 C12.33329348 19.18986008 11.85141176 24.06031334 8.125 29.3125 C4.36643043 33.7224376 1.57362524 36.65112136 -4.43359375 37.41015625 C-10.72054454 37.66961771 -15.98966647 37.8286298 -20.859375 33.5 C-25.63644354 28.10472258 -27.56860389 23.50043236 -27.46484375 16.41015625 C-26.83747704 10.95825116 -24.29969187 6.69446604 -20.1875 3.125 C-13.65207765 -1.5042575 -7.76011731 -2.43454661 0 0 Z " fill="#000000" transform="translate(478.1875,9)"/>
<path d="M0 0 C4.10143979 2.26425262 6.65048181 5.11346361 8.75 9.3125 C10.09715592 22.69220771 10.09715592 22.69220771 7.328125 28.078125 C3.80042329 32.14855005 0.40271539 34.99476529 -5.0546875 35.6484375 C-11.28874265 35.72775118 -15.45318086 35.74955771 -20.25 31.3125 C-24.04868604 27.30277585 -26.20136751 23.57628063 -26.28515625 17.953125 C-25.91878283 12.05540649 -24.77327443 8.07368167 -21.25 3.3125 C-14.61639422 -1.83192897 -7.7777577 -3.60539049 0 0 Z " fill="#000000" transform="translate(1332.25,172.6875)"/>
</svg>
