<svg width="32" height="32" viewBox="0 0 32 32" fill="none" xmlns="http://www.w3.org/2000/svg">
<path d="M26.23 10H25.32L18.84 5.37001C18.9823 4.99172 19.0307 4.58458 18.9811 4.18348C18.9316 3.78238 18.7855 3.39927 18.5555 3.06698C18.3254 2.73469 18.0183 2.46313 17.6603 2.27556C17.3023 2.08799 16.9042 1.99001 16.5 1.99001C16.0958 1.99001 15.6977 2.08799 15.3397 2.27556C14.9817 2.46313 14.6746 2.73469 14.4445 3.06698C14.2145 3.39927 14.0684 3.78238 14.0189 4.18348C13.9693 4.58458 14.0177 4.99172 14.16 5.37001L7.68 10H6.77C6.30057 10 5.85036 10.1865 5.51842 10.5184C5.18648 10.8504 5 11.3006 5 11.77V13.23C5 13.6994 5.18648 14.1496 5.51842 14.4816C5.85036 14.8135 6.30057 15 6.77 15H7V23.38C7.00015 24.0481 7.17689 24.7042 7.51231 25.282C7.84773 25.8598 8.32991 26.3386 8.91 26.67L13.2 29.12C14.2043 29.6964 15.3421 29.9996 16.5 29.9996C17.6579 29.9996 18.7957 29.6964 19.8 29.12L24.09 26.67C24.6701 26.3386 25.1523 25.8598 25.4877 25.282C25.8231 24.7042 25.9998 24.0481 26 23.38V15H26.23C26.6994 15 27.1496 14.8135 27.4816 14.4816C27.8135 14.1496 28 13.6994 28 13.23V11.77C28 11.3006 27.8135 10.8504 27.4816 10.5184C27.1496 10.1865 26.6994 10 26.23 10ZM16.5 4.00001C16.5989 4.00001 16.6956 4.02933 16.7778 4.08427C16.86 4.13921 16.9241 4.2173 16.9619 4.30866C16.9998 4.40003 17.0097 4.50056 16.9904 4.59755C16.9711 4.69454 16.9235 4.78363 16.8536 4.85356C16.7836 4.92349 16.6945 4.97111 16.5975 4.9904C16.5006 5.00969 16.4 4.99979 16.3087 4.96195C16.2173 4.9241 16.1392 4.86002 16.0843 4.77779C16.0293 4.69557 16 4.5989 16 4.50001C16 4.3674 16.0527 4.24022 16.1464 4.14645C16.2402 4.05268 16.3674 4.00001 16.5 4.00001ZM15.57 6.82001C16.1667 7.06027 16.8333 7.06027 17.43 6.82001L21.88 10H11.12L15.57 6.82001ZM24 23.38C24.0015 23.6951 23.9189 24.0049 23.7607 24.2773C23.6025 24.5498 23.3744 24.7751 23.1 24.93L18.81 27.39C18.1036 27.7832 17.3085 27.9895 16.5 27.9895C15.6915 27.9895 14.8964 27.7832 14.19 27.39L9.9 24.93C9.6256 24.7751 9.39752 24.5498 9.2393 24.2773C9.08109 24.0049 8.99848 23.6951 9 23.38V15H24V23.38ZM26 13H7V12H26V13Z" fill="white"/>
<path d="M12 24C12.2652 24 12.5196 23.8947 12.7071 23.7071C12.8946 23.5196 13 23.2652 13 23V22H15C15.2652 22 15.5196 21.8947 15.7071 21.7071C15.8946 21.5196 16 21.2652 16 21C16 20.7348 15.8946 20.4804 15.7071 20.2929C15.5196 20.1054 15.2652 20 15 20H13V19H15C15.2652 19 15.5196 18.8947 15.7071 18.7071C15.8946 18.5196 16 18.2652 16 18C16 17.7348 15.8946 17.4804 15.7071 17.2929C15.5196 17.1054 15.2652 17 15 17H12C11.7348 17 11.4804 17.1054 11.2929 17.2929C11.1054 17.4804 11 17.7348 11 18V23C11 23.2652 11.1054 23.5196 11.2929 23.7071C11.4804 23.8947 11.7348 24 12 24Z" fill="white"/>
<path d="M18 24H21C21.2652 24 21.5196 23.8947 21.7071 23.7071C21.8946 23.5196 22 23.2652 22 23C22 22.7348 21.8946 22.4804 21.7071 22.2929C21.5196 22.1054 21.2652 22 21 22H19V19H21C21.2652 19 21.5196 18.8947 21.7071 18.7071C21.8946 18.5196 22 18.2652 22 18C22 17.7348 21.8946 17.4804 21.7071 17.2929C21.5196 17.1054 21.2652 17 21 17H18C17.7348 17 17.4804 17.1054 17.2929 17.2929C17.1054 17.4804 17 17.7348 17 18V23C17 23.2652 17.1054 23.5196 17.2929 23.7071C17.4804 23.8947 17.7348 24 18 24Z" fill="white"/>
</svg>
