<svg width="558" height="558" viewBox="0 0 558 558" fill="none" xmlns="http://www.w3.org/2000/svg">
<path d="M340.783 383.066C337.144 381.107 334.485 378.169 333.225 374.111C332.385 371.033 332.525 368.094 333.645 365.016C335.464 360.259 340.643 355.221 348.48 356.201C354.498 356.9 359.816 361.658 360.516 368.794C360.935 372.292 359.956 375.51 357.996 378.309C356.037 381.107 353.378 382.926 350.159 383.906C350.159 384.326 350.019 384.605 350.019 384.885C349.879 388.383 350.159 391.742 350.859 395.1C352.119 400.557 355.058 404.894 359.956 407.693C362.755 409.232 365.834 409.792 368.913 409.512C372.271 409.092 375.35 407.693 378.009 405.734C380.529 403.915 382.768 401.676 384.727 399.158C387.246 395.939 389.345 392.441 391.305 388.803C391.585 388.243 391.865 387.544 392.005 386.844C392.145 386.424 391.725 386.005 391.305 386.145C391.025 386.284 390.745 386.424 390.605 386.424C386.546 388.383 382.208 389.363 377.59 389.363C375.49 389.363 373.391 389.363 371.292 388.943C370.032 388.663 369.752 388.383 369.752 387.124C369.892 385.585 370.032 384.186 370.312 382.646C371.432 374.811 373.671 367.255 376.75 359.979C377.03 359.419 377.31 358.859 377.59 358.3C377.87 357.74 378.709 357.74 379.129 358.3C379.409 358.719 379.689 359.279 379.969 359.699C380.809 361.098 381.648 362.497 382.628 363.897C384.867 366.975 387.946 369.354 391.445 370.893C392.564 371.313 393.684 371.732 394.944 371.592C395.643 371.592 396.063 371.173 396.203 370.473C396.343 369.634 396.483 368.934 396.623 368.094C396.903 365.436 396.763 362.777 396.203 360.119C395.643 357.18 394.804 354.242 393.404 351.583C391.305 347.386 388.366 344.167 384.167 342.208C375.35 338.011 367.513 332.414 360.376 325.558L359.396 324.718C358.836 324.858 358.416 324.998 357.857 325.138C354.638 326.397 351.559 327.936 348.62 329.755C347.08 330.735 346.8 330.455 345.961 328.916C344.421 325.837 342.742 322.759 341.062 319.681C339.243 316.462 336.864 313.524 334.345 310.726C333.785 310.166 333.365 309.606 332.805 309.047C330.706 310.866 328.467 311.705 325.808 311.285C324.268 311.005 322.729 310.726 321.469 309.466C322.029 309.186 322.449 308.907 322.869 308.487C325.388 306.808 325.388 303.729 322.869 302.05C321.469 301.071 320.07 300.791 318.39 300.931C315.032 301.071 312.512 302.75 310.693 305.548C310.273 306.108 309.993 306.668 309.573 307.367C308.454 305.828 308.734 304.289 309.154 302.75C309.573 301.211 310.273 299.812 310.973 298.412C309.433 297.993 308.034 298.692 306.634 299.252C305.375 299.812 304.255 300.651 302.996 301.351C302.436 300.931 302.716 300.371 302.856 300.091C303.696 297.573 305.095 295.614 306.914 293.795L308.174 292.535C308.034 291.976 307.614 291.976 307.334 291.976C305.935 291.976 304.675 292.116 303.416 292.815C303.136 292.955 302.716 293.095 302.296 293.235C302.156 292.955 302.016 292.815 302.016 292.815C303.136 289.317 305.235 286.939 308.734 285.679C310.693 284.98 312.652 285.12 314.612 285.399C316.851 285.819 318.95 286.799 321.049 287.918C325.108 290.157 328.747 292.955 332.106 296.313C337.284 301.491 341.762 307.507 345.541 313.804L346.94 316.043C347.78 314.783 348.06 313.524 348.48 312.265C348.2 311.845 348.06 311.425 347.78 311.005C341.762 302.75 338.263 293.515 336.304 283.58C335.604 280.082 335.184 276.444 334.905 272.806C334.765 271.827 334.905 271.267 335.324 271.267C336.024 271.267 336.164 271.967 336.304 272.386C337.704 275.465 339.383 278.403 341.342 281.062C341.762 281.482 341.762 281.481 342.742 282.041C343.442 280.362 343.582 278.683 344.281 277.004C344.981 275.465 345.401 273.786 346.101 272.247C346.8 270.707 347.5 269.028 348.48 267.629C349.18 267.629 349.32 268.049 349.459 268.329C350.439 270.567 351.419 272.946 352.538 275.325C354.218 278.963 356.177 282.321 358.556 285.539C358.976 286.099 359.256 286.519 359.676 286.939C359.956 287.218 360.376 287.358 360.796 287.498C361.355 286.659 361.215 285.819 361.355 285.12C361.495 282.041 361.915 279.103 362.755 276.164C363.175 274.485 363.734 272.806 364.294 271.127C364.434 270.707 364.714 270.428 364.854 270.148C365.554 270.148 365.834 270.567 366.114 270.987C369.612 275.605 373.671 279.523 378.149 283.161C379.269 284 380.529 284.84 381.648 285.539C381.928 285.679 382.348 285.819 382.908 285.959C382.908 285.539 383.048 285.12 382.908 284.84C382.208 282.461 381.928 280.082 381.508 277.564C381.368 276.864 381.368 276.164 381.508 275.465C381.508 275.185 381.788 275.045 381.928 274.765C382.768 274.765 383.328 275.325 384.027 275.745C388.926 278.683 393.964 281.202 399.422 283.021C399.982 283.161 400.542 283.44 401.101 283.58C401.381 283.58 401.801 283.58 402.221 283.58C401.941 282.881 401.661 282.461 401.521 281.901C399.422 277.704 398.022 273.086 397.043 268.469C396.903 267.909 396.763 267.349 397.183 266.929C397.743 266.65 398.162 267.209 398.582 267.489C402.361 269.728 406.14 271.407 410.198 272.806C412.018 273.366 413.977 273.786 415.936 274.066C416.496 274.066 417.056 274.066 417.476 273.506C417.336 273.366 417.336 273.086 417.196 272.806C412.297 266.65 409.219 259.513 407.259 251.818C406.979 250.838 406.699 249.999 406.559 249.019C406.42 248.459 406.28 247.76 406.699 247.06C406.979 247.06 407.259 247.06 407.539 247.34C408.239 247.62 408.799 248.04 409.498 248.459C412.857 250.278 416.356 251.818 420.135 253.077C420.555 253.217 420.974 253.357 421.534 253.497C423.074 253.917 423.634 253.357 423.354 251.678C422.514 247.34 421.814 242.862 421.394 238.525C420.974 234.187 420.695 229.71 420.974 225.372C421.114 221.874 421.394 218.376 421.954 214.878C423.074 206.202 425.313 197.947 428.812 189.971C432.73 180.876 437.769 172.621 443.507 164.645C447.005 159.888 450.924 155.41 454.843 150.933C455.682 150.093 456.522 149.253 457.362 148.554C457.921 147.994 458.621 147.714 459.321 147.714C460.021 147.714 460.721 148.274 460.441 148.974C460.301 149.673 459.881 150.373 459.601 151.072C458.481 153.031 457.362 154.85 456.382 156.809C455.682 158.209 454.983 159.608 454.423 161.007C454.283 161.287 454.423 161.567 454.423 162.126C454.983 161.847 455.402 161.707 455.682 161.567C456.802 160.727 457.922 159.888 458.901 159.188C465.479 154.291 472.756 151.072 480.873 149.673C485.912 148.834 491.09 148.414 496.268 148.974C499.627 149.393 502.846 149.953 505.925 151.212C507.464 151.772 508.864 152.472 509.983 153.451C510.543 153.871 511.103 154.431 511.523 155.13C512.502 156.669 512.083 158.209 510.403 159.048C509.284 159.608 507.884 159.748 506.624 159.888C504.525 160.028 502.426 160.028 500.327 160.307C497.108 160.727 494.029 161.287 491.09 162.406C490.39 162.686 489.55 162.826 488.991 163.526C489.271 164.085 489.69 163.945 490.25 163.945C493.189 163.945 495.988 164.365 498.927 164.925C500.187 165.065 501.306 165.485 502.426 165.764C507.464 167.304 512.362 169.123 516.981 171.781C522.719 175.279 527.337 179.617 530.976 185.354C534.895 191.79 537.134 198.786 536.994 206.342C536.854 215.717 533.495 223.833 526.637 230.409C523.279 233.767 519.08 235.726 514.602 236.846C510.823 237.825 506.904 237.965 503.126 236.846C495.428 234.747 490.67 229.71 488.711 221.874C487.871 218.376 488.151 215.018 489.41 211.659C491.23 207.182 494.309 204.383 498.787 202.984C500.607 202.425 502.426 202.564 504.245 202.844C504.385 202.844 504.525 203.124 504.665 203.124C504.665 203.824 504.105 204.104 503.825 204.383C502.566 205.643 502.006 207.182 502.006 209.001C502.006 211.52 503.406 214.738 507.464 215.018C510.123 215.298 512.223 214.178 513.622 211.939C515.022 209.701 515.441 207.182 515.161 204.663C514.602 199.766 512.502 195.568 508.864 192.35C505.645 189.412 501.866 187.733 497.808 186.613C491.51 185.074 485.492 185.913 479.474 188.012C475.135 189.552 471.077 191.79 467.438 194.729C465.479 196.268 463.799 198.087 462.26 199.906C461.84 200.326 461.56 200.885 461.28 201.445C461.14 201.585 461.14 202.005 461.28 202.145C461.42 202.285 461.7 202.425 461.98 202.425C463.799 202.005 465.619 202.005 467.438 202.145C470.097 202.285 472.616 202.984 474.996 204.244C479.194 206.482 481.853 210.12 483.393 214.598C484.792 218.796 484.652 222.853 482.973 226.911C480.314 233.488 475.835 238.105 469.258 240.764C467.858 241.323 466.459 241.603 465.059 242.023C464.779 242.163 464.359 242.023 463.939 242.023C464.079 241.463 464.079 241.043 464.079 240.764C464.499 239.504 464.779 238.245 464.779 236.986C464.779 236.146 464.779 235.167 464.499 234.327C463.52 231.109 460.301 229.29 457.082 230.269C454.143 231.109 452.183 233.068 450.784 235.726C449.804 237.545 449.245 239.364 448.965 241.323C448.405 244.262 448.265 247.2 448.685 250.139C448.825 250.698 448.825 251.398 449.524 251.678C450.364 251.678 450.924 251.118 451.624 250.698C456.242 248.32 461 246.78 466.179 246.92C469.957 246.92 473.456 248.04 476.815 249.999C482.413 253.357 486.332 258.254 488.571 264.411C489.97 268.049 490.67 271.827 490.39 275.745C490.11 281.062 488.571 286.099 485.912 290.716C483.952 294.215 481.433 297.433 478.354 299.951C477.655 300.511 476.815 301.071 476.115 301.631C475.835 301.91 475.415 301.91 474.856 302.05C474.856 301.631 474.856 301.211 474.856 300.931C474.996 300.371 475.275 299.812 475.555 299.252C476.675 295.754 476.815 292.116 475.555 288.618C474.996 287.078 474.156 285.679 472.896 284.56C469.677 281.901 464.359 283.021 462.82 287.218C462.26 288.897 461.98 290.716 462.4 292.535C462.96 294.494 463.52 296.453 464.499 298.272C465.899 301.071 467.298 303.869 468.698 306.668C470.377 310.166 471.917 313.664 472.476 317.442C474.296 327.796 470.517 339.13 460.581 345.567C456.522 348.225 452.183 349.345 447.425 348.645C439.308 347.526 434.13 342.208 432.45 335.492C431.471 331.574 431.891 327.796 434.41 324.298C434.69 323.878 434.97 323.459 435.669 323.739C435.669 324.018 435.809 324.438 435.809 324.858C435.949 327.097 436.929 328.636 438.888 329.615C440.987 330.595 442.947 330.455 444.906 329.196C446.585 328.076 447.705 326.397 448.125 324.298C448.545 322.339 448.405 320.38 447.425 318.421C445.886 315.063 442.247 313.244 438.608 313.944C435.109 314.643 432.17 316.323 429.931 319.261C429.092 320.38 428.252 321.5 427.692 322.619C417.056 341.229 408.239 360.678 401.661 381.107C398.162 391.881 395.643 402.795 393.824 413.989C392.704 420.846 391.865 427.842 391.585 434.838C391.445 438.476 391.445 442.114 391.305 445.752V448.551C389.765 448.551 388.366 448.271 386.966 448.131C382.628 447.571 378.289 446.872 373.951 446.172C370.592 445.612 367.233 445.192 363.874 444.633C361.075 444.213 358.416 443.933 355.617 443.653C352.258 443.234 348.76 442.954 345.261 442.534C343.442 442.394 341.622 442.254 339.803 442.114L331.966 441.554C329.167 441.414 326.228 441.135 323.429 440.855C321.189 440.715 318.81 440.575 316.571 440.435C313.072 440.295 309.573 440.015 306.075 439.875C301.176 439.595 296.278 439.316 291.52 439.176C287.181 439.036 282.843 438.896 278.504 439.036C271.927 439.176 265.349 439.316 258.771 439.595C253.593 439.735 248.415 440.155 243.097 440.435C236.939 440.855 230.781 441.135 224.623 441.694C219.025 442.114 213.567 442.674 207.969 443.234C201.391 443.793 194.954 444.773 188.376 445.752C182.778 446.592 177.32 447.431 171.722 448.271C170.462 448.411 169.343 448.551 167.943 448.691C167.803 448.271 167.663 447.851 167.663 447.571C167.663 446.592 167.663 445.472 167.663 444.493C167.663 436.517 167.103 428.681 166.124 420.706C164.164 405.314 160.526 390.482 155.487 375.79C150.869 362.497 145.271 349.764 138.973 337.171C136.594 332.414 133.935 327.796 131.416 323.039C130.716 321.64 129.736 320.38 128.757 319.121C126.518 316.323 123.719 314.643 120.22 313.944C116.301 313.244 111.263 315.483 110.563 321.36C110.283 324.578 111.263 327.377 114.062 329.196C116.161 330.595 118.4 330.595 120.5 329.196C121.759 328.356 122.459 327.237 122.739 325.697L123.019 323.739C123.579 323.459 123.718 323.599 123.998 323.878C125.258 325.418 126.098 327.237 126.378 329.196C127.077 333.393 126.098 337.031 123.858 340.529C121.339 344.587 117.561 347.106 112.942 348.085C106.924 349.345 101.326 348.085 96.428 344.307C88.031 337.731 84.6722 328.916 85.7918 318.421C86.2116 314.224 87.891 310.166 89.8503 306.388C91.1099 303.869 92.5094 301.351 93.769 298.692C94.7486 296.733 95.5883 294.774 96.0082 292.535C96.428 290.716 96.428 288.897 95.8682 287.078C94.4687 282.741 89.1506 281.342 85.6518 284.14C83.8324 285.539 82.9928 287.498 82.4329 289.737C81.7332 292.955 82.0131 296.174 83.1327 299.252C83.4126 299.951 83.5526 300.651 83.8325 301.211C83.4126 301.77 82.9927 301.491 82.5729 301.351C80.7535 300.231 79.2141 298.972 77.8146 297.433C72.9163 292.256 69.6974 286.099 68.4378 279.103C67.4582 273.366 68.1579 267.909 70.3972 262.592C72.6364 257.275 75.9952 252.937 80.8935 249.859C86.2116 246.361 92.0895 245.521 98.2474 246.92C101.466 247.62 104.545 248.739 107.484 250.558C107.904 250.838 108.464 250.978 109.024 251.258C109.304 250.838 109.583 250.558 109.583 250.139C109.723 249.019 109.863 247.9 110.003 246.64C110.143 243.142 109.583 239.784 108.464 236.566C107.624 234.467 106.505 232.648 104.685 231.249C103.286 230.129 101.606 229.43 99.7869 229.43C96.568 229.43 94.0489 231.669 93.769 234.887C93.629 236.566 93.769 238.105 94.3288 239.784C94.4687 240.344 94.8886 240.764 94.4687 241.323C93.769 241.743 93.2092 241.463 92.5094 241.183C89.4305 240.344 86.6315 239.085 84.1124 237.266C80.6136 234.747 77.8146 231.389 76.1352 227.331C73.1962 220.615 73.8959 214.178 78.2344 208.301C80.7535 204.663 84.3923 202.704 88.7307 201.725C91.3898 201.165 94.0489 201.025 96.8479 201.585C97.1278 201.585 97.4077 201.585 97.5476 201.305C97.6876 201.165 97.6876 200.745 97.5476 200.605C97.2677 200.046 96.8479 199.486 96.428 198.926C94.7486 196.828 92.7893 194.869 90.5501 193.19C85.2319 189.272 79.354 186.473 72.9163 185.354C65.6388 184.094 58.9212 185.354 52.6234 189.272C47.5851 192.49 44.6462 197.107 43.6665 202.844C43.1067 205.783 43.6665 208.581 45.3459 211.1C47.1653 213.758 50.2442 214.738 53.1832 213.618C55.5623 212.639 57.2418 209.98 56.8219 207.462C56.542 205.923 55.9822 204.523 54.8626 203.404C54.5827 203.124 54.3028 202.984 54.1628 202.704C53.8829 202.425 54.1628 201.865 54.4427 201.725C56.1222 201.445 57.8016 201.445 59.481 201.865C63.9594 203.124 67.3182 205.923 69.1376 210.26C71.6567 216.557 70.6771 222.434 66.8984 228.031C63.5396 232.928 58.9212 235.586 53.0432 236.286C45.3459 237.266 37.2288 234.467 31.7707 228.87C26.8724 223.833 23.7935 217.956 22.5339 210.96C21.1344 202.704 22.5339 195.009 26.1726 187.593C30.2312 179.337 36.669 173.32 44.6462 169.123C49.1246 166.744 53.8829 165.065 58.9212 163.945C62.0001 163.246 65.079 162.826 68.1579 162.826C68.7177 162.826 69.4175 162.966 69.9773 162.406C69.6974 162.126 69.4175 161.847 68.9976 161.707C66.6185 160.587 63.9594 160.028 61.4403 159.608C58.3614 159.048 55.4224 158.768 52.3435 158.768C51.3638 158.768 50.3842 158.628 49.5445 158.348C48.4249 158.069 47.3052 157.509 47.0253 156.25C46.6055 154.85 47.3052 153.871 48.145 152.891C49.2646 151.772 50.5241 151.072 51.9236 150.513C55.0025 149.114 58.3614 148.414 61.7202 147.994C63.6795 147.854 65.6388 147.574 67.5981 147.574C79.2141 147.574 89.7104 150.793 99.2271 157.509C100.347 158.348 101.466 159.188 102.446 159.888C103.006 160.307 103.566 160.587 103.985 160.867C104.545 160.587 104.545 160.307 104.405 159.888C104.125 159.188 103.845 158.488 103.566 157.789C102.166 155.27 100.767 152.612 99.367 150.093C98.9472 149.393 98.6673 148.694 98.3874 147.854C98.1075 147.015 98.6672 146.455 99.6469 146.455C100.347 146.455 100.906 146.735 101.466 147.294C102.166 147.854 102.866 148.554 103.566 149.253C112.662 158.908 120.5 169.402 126.518 181.156C131.136 189.971 134.495 199.206 136.174 209.001C137.574 216.977 138.273 224.952 137.714 232.928C137.294 238.385 136.734 243.702 135.614 249.019C135.474 249.719 135.334 250.558 135.334 251.258C135.334 251.818 135.754 252.377 136.314 252.237C136.734 252.237 137.294 252.097 137.714 251.958C141.912 250.698 145.971 248.879 149.889 246.78L151.989 245.661C152.129 246.081 152.408 246.361 152.408 246.64C152.408 247.2 152.268 247.9 152.129 248.459C150.729 254.196 148.91 259.793 145.971 264.97C144.711 267.069 143.452 269.168 141.912 271.127C141.632 271.407 141.492 271.827 141.352 272.107C141.632 272.806 142.192 272.806 142.752 272.806C144.851 272.666 146.81 272.107 148.63 271.547C152.548 270.288 156.327 268.469 159.966 266.51C160.246 266.37 160.666 266.09 161.085 265.95C161.225 265.95 161.365 265.81 161.505 265.81C162.065 265.95 162.065 266.37 162.065 266.789C161.925 267.909 161.645 268.888 161.365 270.008C160.386 273.926 159.126 277.564 157.307 281.202C157.167 281.621 157.027 281.901 156.887 282.321C157.447 282.741 158.006 282.601 158.426 282.321C161.365 281.342 164.164 280.222 166.963 278.963C169.902 277.564 172.701 276.164 175.36 274.345C175.92 274.066 176.48 273.786 177.04 273.366C177.18 273.926 177.46 274.205 177.46 274.625C177.32 276.444 177.18 278.263 176.9 280.082C176.76 281.342 176.34 282.461 176.06 283.72C176.06 284 176.06 284.28 176.2 284.42C176.34 284.56 176.76 284.56 176.9 284.42C177.6 284 178.439 283.44 179.139 283.021C184.317 279.383 188.796 275.045 192.714 270.008C192.994 269.588 193.274 268.888 193.974 268.888C194.954 270.288 195.933 272.946 196.633 277.424C197.193 280.362 197.473 283.301 197.753 286.239C198.172 286.099 198.592 286.099 198.872 285.819C199.432 285.259 199.852 284.7 200.272 284.14C203.631 279.662 206.15 274.765 208.249 269.588L209.508 266.51C210.208 266.23 210.348 266.65 210.628 267.069C212.867 270.987 214.547 275.045 215.526 279.383C215.666 279.942 215.526 280.502 216.226 280.782C216.926 280.782 217.206 280.082 217.626 279.662C219.445 277.284 220.984 274.625 222.244 271.967C222.524 271.407 222.804 270.847 223.084 270.288C223.084 270.148 223.504 270.008 223.644 270.148C223.783 270.148 224.063 270.428 224.063 270.567C224.063 270.987 224.203 271.407 224.063 271.827C223.364 280.782 221.404 289.597 217.906 297.853C216.366 301.77 214.127 305.408 211.748 308.907L210.348 311.005C210.628 312.265 211.188 313.524 211.748 314.783C212.447 314.504 212.587 313.804 213.007 313.244C215.946 308.487 219.025 304.009 222.664 299.812C225.743 296.174 229.102 292.815 233.02 290.017C235.399 288.338 237.779 286.799 240.438 285.679C242.537 284.7 244.636 284.14 246.875 284.14C250.374 284.14 253.173 285.679 255.132 288.478C255.692 289.317 256.112 290.297 256.672 291.136C256.812 291.416 256.952 291.836 256.532 292.116C254.713 291.416 252.893 290.577 250.934 290.996C250.654 291.556 251.074 291.696 251.214 291.976C252.054 292.955 253.033 293.795 253.873 294.774C255.133 296.313 255.832 297.853 256.252 299.951C255.972 300.371 255.692 300.231 255.412 299.951C253.873 298.692 252.194 297.853 250.374 297.293C249.674 297.013 248.835 296.873 247.855 297.293C248.135 297.713 248.275 298.132 248.555 298.552C249.394 299.951 249.814 301.351 250.094 303.03C250.234 304.289 250.094 304.849 249.394 306.108L248.695 304.989C247.855 303.589 246.875 302.47 245.476 301.491C243.237 299.951 240.718 299.392 238.198 300.091C237.359 300.231 236.519 300.791 235.819 301.211C233.72 302.89 233.86 305.828 235.959 307.367C236.379 307.647 236.939 307.927 237.499 308.347C236.379 309.606 234.14 310.446 231.901 310.306C229.801 310.306 227.982 309.326 226.443 308.067C225.603 308.627 225.043 309.326 224.483 309.886C220.705 314.084 217.626 318.841 214.967 323.878C214.267 325.138 213.707 326.397 213.007 327.656C212.867 328.076 212.587 328.356 212.447 328.776C212.168 329.196 211.748 329.196 211.328 329.056C210.908 328.776 210.348 328.496 209.928 328.216C206.709 326.257 203.351 324.718 199.712 323.459C199.292 323.878 198.732 324.298 198.172 324.718C191.455 331.154 183.897 336.612 175.5 340.529C170.322 343.048 166.823 346.966 164.584 352.143C162.905 356.341 161.925 360.818 162.065 365.296C162.065 366.415 162.205 367.675 162.485 368.794C162.765 370.053 163.185 370.333 164.444 370.333C165.424 370.333 166.404 370.053 167.383 369.634C170.462 368.374 173.121 366.415 175.22 363.897C176.34 362.497 177.32 360.958 178.299 359.419C178.719 358.719 178.999 358.02 179.559 357.32C180.119 356.481 180.819 356.481 181.238 357.32C181.378 357.6 181.518 357.88 181.658 358.3C184.317 364.316 186.277 370.473 187.536 376.77C188.096 379.288 188.516 381.947 188.796 384.465C189.216 387.964 188.796 387.544 186.277 387.824C183.478 388.243 180.539 388.243 177.74 387.824C174.241 387.404 170.882 386.564 167.663 384.885C167.523 384.745 167.243 384.885 166.963 384.745C166.963 385.025 166.823 385.445 166.823 385.725C166.823 386.145 167.103 386.564 167.243 386.844C169.622 391.602 172.421 396.079 175.92 399.997C178.579 402.935 181.518 405.314 185.157 406.853C188.936 408.532 192.854 408.672 196.773 407.273C200.552 405.874 203.491 403.215 205.59 399.717C206.849 397.618 207.689 395.24 208.109 392.861C208.669 389.783 208.809 386.564 208.669 383.486C208.669 383.206 208.529 382.926 208.529 382.646C204.89 381.527 201.951 379.428 200.132 375.93C198.592 373.132 198.032 370.053 198.452 366.835C199.152 361.798 203.211 355.781 210.488 354.942C218.325 353.962 223.644 359.139 225.323 364.177C226.583 367.675 226.443 371.033 225.043 374.391C223.644 377.749 221.264 379.988 218.325 381.667C218.325 381.947 218.185 382.087 218.185 382.087C219.865 387.684 222.244 393.001 226.163 397.338C230.221 401.956 235.399 404.475 241.417 404.754C245.196 404.894 248.835 404.055 252.194 402.516C260.171 398.738 266.049 392.721 269.827 384.745C271.507 381.247 272.207 377.469 272.626 373.691C272.766 372.852 272.766 371.872 272.906 370.893C267.168 370.333 261.71 371.453 256.112 372.432C250.654 373.411 245.476 375.51 240.578 377.889C239.738 377.329 239.738 376.63 239.738 376.07C238.898 369.634 238.898 363.197 239.318 356.761C239.318 355.921 239.598 354.942 239.738 354.102C239.738 353.822 240.018 353.542 240.298 353.123C250.654 357.6 261.43 359.699 272.626 359.839C273.186 358.859 272.906 357.88 272.906 356.9C272.626 354.382 272.346 351.863 271.927 349.345C271.087 344.167 268.988 339.55 265.769 335.492C264.789 334.373 263.949 333.253 262.97 332.274C262.13 331.434 261.57 330.455 261.29 329.196C261.57 329.056 261.85 328.776 262.13 328.636C263.11 328.496 264.089 328.356 265.209 328.356C271.647 327.936 278.084 327.656 284.522 327.936C288.161 328.076 291.8 328.356 295.438 328.636C295.718 328.636 295.998 328.636 296.278 328.776C296.978 328.916 297.258 329.335 296.978 329.895C296.558 330.875 295.998 331.714 295.298 332.414C293.619 334.233 292.08 336.192 290.68 338.151C288.441 341.369 287.181 345.007 286.482 348.925C285.922 351.723 285.642 354.522 285.502 357.32C285.502 358.16 285.222 358.999 285.782 359.839C296.838 359.559 307.614 357.6 317.97 353.123C318.11 353.402 318.53 353.682 318.53 354.102C318.67 354.802 318.81 355.501 318.95 356.061C319.65 362.917 319.51 369.634 318.53 376.35C318.53 376.77 318.25 377.189 318.11 377.749C315.871 377.189 313.912 375.79 311.813 375.091C309.713 374.391 307.614 373.691 305.375 372.992C303.276 372.432 301.176 372.012 299.077 371.732C296.838 371.313 294.599 371.033 292.499 370.753C290.26 370.473 288.021 370.613 285.642 370.613C285.642 371.173 285.502 371.592 285.642 372.012C286.202 380.268 289.001 387.404 294.599 393.561C297.538 396.779 300.617 399.437 304.395 401.396C306.774 402.795 309.433 403.775 312.232 404.195C318.39 405.314 323.848 403.915 329.027 400.417C332.525 397.898 334.905 394.54 337.004 390.902C338.543 388.243 339.663 385.305 340.503 382.367C340.643 383.626 340.643 383.346 340.783 383.066ZM262.97 244.122C263.25 243.562 263.11 243.282 262.97 242.863C262.13 241.463 261.43 240.204 260.731 238.805C258.351 234.327 257.792 229.71 259.051 224.812C260.031 220.755 261.01 216.697 261.99 212.639C263.11 208.161 263.809 203.684 264.509 199.066C265.069 195.009 265.349 191.091 265.349 187.033C265.489 179.757 265.069 172.481 264.229 165.345C264.229 165.065 264.229 164.785 264.089 164.505C263.809 163.106 263.39 162.826 261.99 162.826C260.591 162.826 259.191 163.106 257.792 163.106C256.532 163.106 255.832 163.386 255.972 165.205C255.972 165.345 255.972 165.625 255.972 165.764C256.812 170.242 256.812 174.72 257.092 179.337C257.652 190.811 256.252 202.005 253.593 213.199C252.613 217.117 251.634 221.034 250.794 224.952C250.374 226.911 250.094 229.01 250.374 231.109C250.934 234.887 252.893 237.685 255.692 240.064C257.512 241.603 259.611 242.863 261.85 243.842C262.13 243.982 262.55 243.982 262.97 244.122ZM319.09 322.199C318.11 322.199 317.551 322.339 316.991 322.339C311.953 322.339 306.774 322.339 301.736 322.199C286.901 321.919 271.927 321.919 257.092 322.199C252.054 322.339 246.875 322.339 241.837 322.339C241.277 322.339 240.718 322.199 240.158 322.199C239.738 321.64 240.018 321.22 240.298 320.8C241.277 319.401 242.677 318.281 244.216 317.582C246.316 316.462 248.555 316.043 250.794 315.483C255.412 314.364 260.031 313.384 264.649 312.265C266.049 311.845 267.448 311.425 268.848 310.866C271.647 309.746 273.466 307.647 273.886 304.569C274.166 302.33 274.446 299.951 274.586 297.573C274.726 295.474 274.726 293.515 274.866 291.416C275.006 286.659 274.726 281.761 274.306 277.004C273.746 271.267 272.766 265.81 271.507 260.213C271.227 259.234 270.807 258.674 270.107 258.114C268.148 256.715 266.049 255.596 263.949 254.616C261.71 253.497 259.611 252.517 257.372 251.398C253.173 249.159 249.534 246.221 246.735 242.303C244.216 238.805 242.537 234.887 242.397 230.549C242.397 229.01 242.397 227.331 242.817 225.792C243.237 223.553 243.936 221.314 244.496 219.075C246.456 212.499 248.135 205.783 249.255 198.926C250.514 191.51 250.794 183.955 250.374 176.399C250.094 170.242 249.255 164.085 248.275 158.069L248.135 157.509C248.135 156.669 248.415 156.25 249.255 156.11C250.794 155.97 252.194 155.83 253.733 155.69C256.812 155.41 259.891 155.27 263.11 155.13C264.509 154.99 265.909 154.99 267.308 154.99C275.285 154.99 283.123 154.85 291.1 154.99C295.159 154.99 299.217 155.41 303.276 155.69C305.235 155.83 307.054 155.97 308.874 156.25C309.154 156.25 309.573 156.25 309.853 156.39C310.273 156.529 310.553 156.809 310.553 157.229C310.553 157.649 310.553 158.209 310.413 158.628C309.853 163.386 309.154 168.143 308.594 172.901C308.174 177.658 308.034 182.415 308.314 187.313C308.734 195.848 310.133 204.104 312.512 212.359C313.352 215.297 314.192 218.236 315.032 221.314C315.591 223.413 316.011 225.512 316.431 227.751C316.991 230.829 316.431 233.907 315.311 236.846C313.072 242.723 309.154 247.06 303.975 250.418C301.316 252.097 298.377 253.497 295.578 254.896C293.339 256.015 291.1 257.135 289.001 258.534C288.301 258.954 287.741 259.513 287.601 260.493C285.922 267.909 284.662 275.325 284.242 282.881C283.962 287.638 284.102 292.396 284.242 297.013C284.382 299.672 284.662 302.33 284.942 304.989C285.222 307.927 286.901 310.026 289.7 311.145C291.24 311.705 292.779 312.265 294.319 312.685C299.497 313.944 304.675 315.203 309.853 316.462C311.533 316.882 313.072 317.302 314.612 318.142C316.151 318.981 317.551 319.961 318.39 321.36C318.81 321.08 318.81 321.5 319.09 322.199ZM367.233 164.925C367.233 163.526 366.114 162.406 364.714 162.266C363.175 162.266 362.055 163.386 362.055 164.925C362.055 166.324 363.315 167.583 364.574 167.583C365.974 167.723 367.233 166.464 367.233 164.925ZM351.699 161.986C351.419 160.028 350.299 158.348 349.459 156.669C348.48 154.99 347.5 153.171 346.241 151.632C345.121 150.093 343.721 148.694 342.462 147.155C342.602 146.735 343.022 146.735 343.302 146.735C346.241 146.735 348.9 147.294 351.699 148.274C353.098 148.694 354.358 149.253 355.617 149.813C356.737 150.373 357.717 150.513 358.976 150.373C364.014 149.813 368.773 150.933 373.251 153.311C378.849 156.25 383.468 160.447 387.386 165.485C393.824 174.02 397.883 183.675 400.122 194.029C401.241 199.346 401.941 204.803 402.221 210.26C402.501 214.598 402.641 218.936 403.061 223.133C403.481 227.891 404.46 232.508 406.14 236.846C406.42 237.545 406.699 238.385 406.979 239.085C406.559 239.784 406.14 239.504 405.72 239.364C403.9 238.665 402.221 237.545 400.682 236.426L398.722 235.027C398.582 235.586 398.442 235.866 398.442 236.286C398.442 237.405 398.582 238.665 398.722 239.784C399.282 244.122 399.982 248.32 401.241 252.517C402.361 256.015 403.62 259.374 405.44 262.452C405.72 262.872 405.86 263.291 406.14 263.711C406.14 263.851 406.14 263.991 406.14 264.131C406 264.551 405.72 264.551 405.3 264.411C404.74 264.131 404.04 263.851 403.481 263.571C399.002 261.332 394.944 258.254 391.445 254.616C390.885 254.056 390.605 253.357 389.625 253.217C388.926 254.756 389.206 256.435 389.206 258.114C389.206 259.793 389.206 261.472 389.485 263.012C389.625 264.691 390.045 266.23 390.325 267.909C390.745 269.448 391.165 270.987 391.585 272.526C391.025 272.946 390.745 272.666 390.325 272.526C388.646 271.547 387.106 270.567 385.567 269.308C382.348 266.51 379.829 263.151 377.59 259.513C377.31 258.954 377.03 258.254 376.33 257.834C376.19 258.114 376.05 258.254 376.05 258.534C375.071 262.732 374.791 266.929 375.49 271.127C375.63 271.547 375.63 272.107 375.63 272.526C375.63 272.666 375.49 272.806 375.35 272.806C374.651 272.946 374.371 272.386 374.091 272.107C370.452 268.189 367.513 263.711 365.834 258.534C365.694 257.974 365.414 257.415 365.134 256.855C365.134 256.715 364.994 256.715 364.714 256.575C364.434 256.855 364.154 257.135 363.874 257.415C361.215 261.053 359.256 264.97 358.416 269.448C358.276 270.148 358.136 270.847 357.996 271.407C357.996 271.547 357.717 271.687 357.577 271.827C357.437 271.827 357.157 271.687 357.017 271.547C356.737 270.987 356.317 270.428 356.177 270.008C354.218 265.67 353.098 261.193 352.818 256.295C352.818 255.736 352.678 255.176 352.678 254.756C351.979 254.196 351.559 254.756 351.139 255.036C347.5 258.534 344.421 262.312 342.462 267.069C342.182 267.769 341.902 268.469 341.622 269.168C341.482 269.448 341.342 269.448 341.062 269.728C340.503 269.168 340.363 268.469 340.223 267.769C339.523 265.11 339.383 262.312 339.383 259.653C339.383 259.094 339.383 258.394 339.383 257.834C339.383 257.555 339.243 257.415 339.103 257.135C338.263 257.135 337.844 257.694 337.284 258.114C333.505 261.752 330.566 265.95 328.467 270.707C328.187 271.547 327.767 272.386 327.347 273.086C327.207 273.226 326.927 273.506 326.787 273.506C326.508 273.366 326.228 273.086 326.088 272.806C326.088 270.987 325.948 269.168 326.088 267.209C326.647 261.053 328.187 255.036 330.286 249.299C332.385 243.422 335.464 238.105 339.383 233.208C340.643 231.669 341.902 229.99 343.302 228.45C347.08 223.973 350.439 219.215 353.518 214.178C355.337 211.24 356.877 208.161 357.857 204.663C357.996 204.104 358.276 203.544 357.996 202.704C357.717 202.984 357.577 203.264 357.437 203.544C356.317 205.223 355.337 206.902 354.218 208.441C352.818 210.4 350.999 211.799 349.04 213.059C342.462 217.256 334.625 213.339 332.805 206.762C332.106 204.383 332.246 202.005 333.085 199.766C334.065 197.107 335.604 195.009 337.704 193.19C339.243 191.79 341.062 190.531 342.742 189.412C345.121 187.593 347.36 185.634 348.9 182.975C349.879 181.296 350.579 179.337 350.999 177.518C351.279 176.399 351.279 175.139 350.999 173.88C347.78 171.921 344.981 169.542 342.602 166.324C341.062 164.225 339.803 162.126 338.823 159.748C338.543 159.188 338.403 158.628 338.263 158.209C338.823 157.649 339.103 158.069 339.383 158.209C341.202 159.048 342.882 160.028 344.561 160.867C346.101 161.567 347.78 162.126 349.599 162.406C350.579 162.826 351.139 162.686 351.699 161.986ZM191.595 165.065C191.595 166.464 192.714 167.723 194.114 167.723C195.513 167.723 196.773 166.464 196.773 165.065C196.773 163.526 195.513 162.406 193.974 162.546C192.714 162.406 191.595 163.526 191.595 165.065ZM220.425 157.789C220.285 158.488 220.285 158.768 220.285 158.908C217.766 164.785 214.267 169.822 208.809 173.18C207.829 173.74 207.409 174.58 207.549 175.699C207.689 178.218 208.389 180.456 209.508 182.555C210.768 184.934 212.587 186.893 214.687 188.572C216.086 189.552 217.486 190.531 218.745 191.51C220.425 192.77 221.964 194.029 223.224 195.708C225.183 198.227 226.303 201.165 226.163 204.383C226.023 209.001 222.244 214.178 216.086 214.598C213.147 214.878 210.628 213.898 208.249 212.219C205.45 210.26 203.351 207.462 201.671 204.523C201.391 203.964 201.111 203.544 200.552 202.984C200.552 203.404 200.552 203.824 200.692 204.244C201.251 206.622 202.231 208.721 203.351 210.96C205.17 214.458 207.269 217.816 209.648 221.034C211.888 224.113 214.407 227.051 216.646 230.129C218.325 232.368 220.145 234.467 221.824 236.706C225.743 242.163 228.262 248.32 230.221 254.896C231.761 259.793 232.6 264.831 232.74 270.008C232.74 271.127 232.74 272.247 232.6 273.226C232.6 273.366 232.32 273.646 232.041 273.646C231.901 273.646 231.621 273.506 231.621 273.366C231.341 272.806 231.061 272.107 230.781 271.547C228.682 266.51 225.603 262.032 221.684 258.254C221.124 257.694 220.705 257.135 220.005 256.995C219.445 257.415 219.585 257.974 219.585 258.534C219.585 261.193 219.445 263.711 219.025 266.37C218.885 267.069 218.745 267.909 218.465 268.608C218.325 269.028 218.185 269.308 217.906 269.588C217.346 269.588 217.206 269.308 217.066 269.028C216.926 268.608 216.786 268.329 216.646 267.909C214.687 263.012 211.608 258.814 207.829 255.316C207.549 255.036 207.269 254.896 206.989 254.616C206.709 254.336 206.15 254.616 206.01 255.036C206.01 255.596 206.01 256.295 205.87 256.855C205.59 261.752 204.33 266.37 202.231 270.567C202.091 270.847 201.951 271.267 201.671 271.407C201.531 271.547 201.251 271.687 201.111 271.687C200.971 271.687 200.692 271.547 200.692 271.407C200.552 270.567 200.272 269.868 200.132 269.028C199.152 264.691 197.333 260.913 194.814 257.415C194.674 257.135 194.534 256.995 194.254 256.855C194.114 256.715 193.974 256.715 193.834 256.715C193.134 256.995 193.134 257.834 192.994 258.394C191.315 263.571 188.516 268.049 184.877 271.967C184.457 272.386 184.177 272.946 183.338 272.946C182.918 272.526 183.198 271.967 183.198 271.407C183.897 267.349 183.618 263.151 182.918 259.094C182.778 258.674 182.638 258.254 182.498 257.694C182.218 257.974 181.938 257.974 181.798 258.254C180.539 260.073 179.419 262.032 178.159 263.991C175.78 267.349 172.841 270.008 169.343 272.107C168.923 272.386 168.363 272.666 167.803 272.806C167.663 272.806 167.383 272.526 167.383 272.247C167.383 272.107 167.383 271.827 167.523 271.687C169.482 266.789 170.042 261.752 169.902 256.575L169.762 254.056C169.762 253.777 169.622 253.637 169.482 253.217C169.203 253.357 168.923 253.497 168.783 253.637C168.223 254.196 167.663 254.756 167.103 255.316C163.744 258.814 159.826 261.472 155.627 263.711C154.928 264.131 154.228 264.551 153.248 264.551C153.248 264.271 153.108 263.991 153.108 263.851C153.248 263.431 153.528 263.012 153.808 262.592C156.887 257.275 158.706 251.678 159.686 245.661C160.106 243.142 160.386 240.484 160.806 237.965C160.945 237.126 161.085 236.286 160.806 235.586C160.246 235.307 159.966 235.726 159.686 235.866C158.006 236.986 156.327 237.965 154.648 239.085C154.228 239.364 153.668 239.504 153.108 239.784C152.968 239.784 152.688 239.784 152.548 239.784C151.989 239.364 152.408 238.805 152.548 238.245C153.108 236.286 153.948 234.467 154.368 232.648C155.627 228.45 156.047 224.113 156.327 219.635C156.607 214.878 156.747 210.26 157.167 205.503C157.867 197.527 159.406 189.691 162.345 182.136C164.864 175.559 168.223 169.402 172.841 163.945C176.48 159.608 180.819 155.83 185.857 153.311C190.335 151.072 194.954 149.953 199.992 150.513C201.111 150.653 202.231 150.373 203.351 149.953C205.45 148.974 207.549 148.134 209.788 147.574C211.608 147.155 213.427 146.875 215.246 146.875C215.666 146.875 216.086 146.735 216.366 147.155C216.506 147.574 216.226 147.854 215.946 147.994C212.307 151.352 209.928 155.55 207.829 160.028C207.549 160.587 207.409 161.007 207.269 161.567C207.129 162.266 207.409 162.826 208.109 162.826C208.389 162.826 208.809 162.826 209.089 162.826C210.488 162.406 212.028 162.126 213.287 161.427C214.967 160.727 216.646 159.888 218.185 159.048C218.885 158.628 219.445 158.209 220.425 157.789ZM391.305 456.386L392.984 467.72C392.704 467.72 392.284 467.86 392.005 467.86C387.946 467.86 384.027 468 379.969 468C351.559 468 323.289 467.86 294.879 467.72C271.507 467.72 247.995 467.72 224.623 467.86H169.343C168.223 467.86 167.103 468 165.984 467.72L167.523 456.386C167.663 456.386 167.943 456.106 168.223 456.106C174.521 455.127 180.958 454.148 187.256 453.168C192.714 452.329 198.172 451.629 203.77 450.929C209.368 450.23 215.106 449.81 220.705 449.25C226.443 448.83 232.181 448.271 237.919 447.991C245.756 447.571 253.453 447.151 261.29 446.732C265.489 446.452 269.827 446.312 274.026 446.172H274.446C280.883 446.312 287.321 446.312 293.759 446.452C299.357 446.592 304.955 447.011 310.553 447.291C316.011 447.571 321.469 447.991 326.927 448.411C331.266 448.691 335.744 448.97 340.083 449.39C343.722 449.67 347.22 450.09 350.719 450.51C353.658 450.789 356.457 451.069 359.396 451.489C362.615 451.909 365.974 452.329 369.193 452.888C373.251 453.448 377.31 454.148 381.368 454.707C384.447 455.127 387.386 455.547 390.465 455.967C390.885 456.246 391.165 456.386 391.305 456.386ZM275.985 133.442C276.265 132.882 275.985 132.323 275.845 131.763C274.726 126.586 272.766 121.549 270.527 116.651C269.547 114.412 268.428 112.034 267.728 109.655C267.028 107.276 266.469 104.898 266.748 102.379C267.168 97.4816 269.407 93.5637 273.746 91.3249C281.163 87.6869 289.7 91.8846 291.52 99.7204C292.22 102.659 292.08 105.597 291.24 108.396C290.54 111.194 289.421 113.713 288.161 116.231C286.062 120.709 284.242 125.466 283.123 130.224C282.983 131.063 282.703 131.763 282.563 132.602C282.563 132.882 282.563 133.022 282.563 133.442C283.403 133.022 283.543 132.323 283.962 131.763C285.502 129.244 287.181 126.866 289.141 124.627C292.219 121.269 295.858 118.61 300.057 117.071C307.054 114.552 313.632 115.252 319.79 119.45C324.408 122.528 327.767 126.866 329.307 132.323C330.146 135.121 330.286 138.06 329.446 140.858C328.467 144.076 326.368 146.035 323.149 146.595C319.79 147.015 317.131 145.755 315.451 142.817C314.752 141.418 314.192 139.879 313.632 138.479C313.072 137.22 312.792 135.961 312.093 134.841C311.533 133.722 310.833 132.602 309.993 131.623C307.334 128.405 303.835 127.565 299.917 128.265C296.838 128.964 294.039 130.364 291.66 132.463C287.741 135.681 284.662 139.739 282.283 144.216C281.443 145.755 280.744 147.434 280.044 148.974C279.904 149.393 279.764 149.673 279.484 150.093C279.344 150.373 278.784 150.373 278.644 150.093C278.504 149.673 278.224 149.393 278.084 148.974C277.385 147.434 276.685 145.755 275.845 144.216C273.466 139.599 270.387 135.541 266.329 132.323C263.949 130.364 261.43 128.964 258.351 128.405C254.153 127.425 250.794 128.545 247.995 131.763C246.595 133.442 245.616 135.401 244.916 137.5C244.496 138.619 244.076 139.879 243.656 140.998C243.237 141.837 242.817 142.817 242.257 143.517C240.438 146.035 237.919 147.015 234.98 146.595C232.181 146.175 230.081 144.496 229.102 141.837C228.262 139.599 228.122 137.36 228.402 134.981C228.962 131.063 230.501 127.565 233.02 124.347C236.099 120.709 239.738 117.91 244.216 116.651C249.814 114.972 255.272 115.532 260.591 118.19C265.629 120.709 269.407 124.487 272.486 129.104C273.326 130.224 274.026 131.483 274.726 132.742C275.425 133.162 275.565 133.442 275.985 133.442ZM380.669 137.5C380.948 138.06 381.368 138.199 381.788 138.06C382.628 137.78 383.468 137.5 384.307 137.22C387.386 135.961 390.605 134.981 393.824 134.282C394.944 134.002 395.923 133.862 397.043 133.862C397.743 133.862 398.582 134.002 399.282 134.282C400.682 134.841 401.101 136.241 400.122 137.5C399.702 138.06 399.142 138.619 398.582 139.039C397.743 139.739 396.903 140.438 396.063 141.138C395.503 141.698 394.944 142.257 394.664 142.817C393.824 144.216 394.244 145.475 395.643 146.175C396.063 146.455 396.623 146.595 397.183 146.595C398.722 146.875 400.402 147.155 401.941 147.434C402.921 147.574 403.9 147.994 404.88 148.274C405.72 148.554 406.42 148.974 406.839 149.673C407.679 150.653 407.679 151.912 406.699 152.752C406.14 153.171 405.58 153.451 404.88 153.731C403.341 154.431 401.801 155.27 400.682 156.529C400.262 156.949 399.702 157.509 399.422 158.069C399.002 158.628 399.282 159.328 399.982 159.608C400.682 159.888 401.381 160.028 402.221 159.888C404.04 159.748 406 159.608 407.819 159.328C409.918 159.048 411.878 159.048 413.837 159.468C414.397 159.608 414.957 159.748 415.376 160.028C416.356 160.587 416.776 161.427 416.216 162.406C415.936 163.106 415.376 163.945 414.817 164.365C413.557 165.485 412.297 166.464 411.038 167.444C407.679 169.542 404.04 170.942 400.122 171.641C399.142 171.781 398.162 171.781 397.043 171.921C396.343 171.921 395.783 171.641 395.363 170.942C394.664 169.682 393.964 168.423 393.124 167.304C389.765 162.126 385.847 157.509 380.948 153.731C376.61 150.373 371.712 148.274 366.394 147.294C364.434 147.015 362.475 146.875 360.516 146.735C360.096 146.735 359.536 146.735 359.116 146.735C358.556 146.735 358.276 146.315 358.276 145.755C358.276 145.056 358.276 144.356 358.416 143.656C358.696 141.977 359.116 140.298 359.676 138.759C360.656 136.101 361.915 133.722 363.874 131.483C364.574 130.644 365.554 129.804 366.394 129.104C366.813 128.825 367.373 128.545 367.793 128.405C368.913 128.125 370.032 128.685 370.032 129.944C370.032 130.783 369.892 131.623 369.892 132.323C369.892 133.022 369.612 133.722 369.612 134.421C369.612 135.541 370.452 136.241 371.572 135.821C372.272 135.681 372.831 135.261 373.391 134.841C374.651 134.142 375.77 133.302 376.89 132.463C378.569 131.483 380.249 130.644 382.068 130.224C382.768 130.084 383.468 130.084 384.027 130.364C384.587 130.644 384.867 131.063 384.727 131.623C384.587 132.323 384.307 132.882 383.887 133.442C383.328 134.282 382.488 134.981 381.788 135.681C381.368 136.38 380.669 136.8 380.669 137.5ZM200.132 146.735C199.432 146.735 198.592 146.735 197.613 146.735C194.954 146.875 192.295 147.155 189.635 147.854C183.198 149.673 177.74 153.171 173.121 157.929C169.622 161.567 166.543 165.625 164.024 169.962C162.905 171.921 163.185 172.061 160.526 171.781C158.426 171.641 156.467 171.082 154.648 170.522C151.569 169.542 148.77 168.143 146.251 166.184C145.551 165.625 144.851 165.065 144.291 164.505C144.011 164.225 143.731 163.945 143.452 163.526C141.912 161.567 142.472 160.028 144.851 159.468C146.81 159.048 148.91 158.908 150.869 159.188C152.688 159.468 154.648 159.608 156.467 159.748C157.307 159.888 158.286 159.888 158.986 159.468C159.686 159.188 159.826 158.628 159.406 157.929C159.126 157.369 158.566 156.809 158.146 156.39C156.887 155.27 155.487 154.431 154.088 153.731C153.668 153.451 153.108 153.311 152.688 153.031C151.009 152.052 150.869 150.513 152.408 149.253C153.248 148.554 154.088 148.134 155.207 147.994C156.607 147.714 158.146 147.434 159.546 147.155L162.205 146.735C162.345 146.735 162.485 146.735 162.625 146.595C164.864 145.895 165.424 144.076 164.024 142.257C163.045 141.138 161.925 140.158 160.806 139.179C160.246 138.619 159.686 138.199 159.126 137.64C157.867 136.101 158.426 134.421 160.386 133.862C161.085 133.722 161.925 133.582 162.625 133.722C164.164 133.862 165.564 134.142 166.963 134.421C169.622 135.121 172.282 135.961 174.801 137.08C175.5 137.36 176.2 137.64 176.9 137.78C177.18 137.78 177.46 137.78 177.74 137.78C178.159 137.78 178.439 137.22 178.159 136.8C177.74 136.38 177.32 135.961 176.9 135.541C176.2 134.701 175.36 134.002 174.661 133.162C174.101 132.463 173.681 131.623 174.241 130.923C174.801 130.084 175.78 130.084 176.62 130.224C178.579 130.644 180.399 131.483 182.078 132.463C183.338 133.162 184.457 134.002 185.717 134.841C186.277 135.261 186.836 135.541 187.536 135.821C188.516 136.101 189.356 135.541 189.356 134.561C189.356 133.862 189.216 133.022 189.076 132.323C188.936 131.623 188.796 130.923 188.796 130.364C188.796 128.964 190.195 127.845 191.455 128.545C191.875 128.825 192.434 128.964 192.854 129.244C193.554 129.804 194.394 130.504 194.954 131.203C198.172 134.981 200.132 139.459 200.692 144.356C200.832 145.196 200.971 145.895 200.132 146.735Z" fill="#966E41"/>
</svg>
