<svg width="558" height="558" viewBox="0 0 558 558" fill="none" xmlns="http://www.w3.org/2000/svg">
<g clip-path="url(#clip0_383_669)">
<path d="M346.888 253.432C314.325 255.22 301.385 258.672 288.014 270.558C270.188 286.402 275.835 320.018 276.092 321.407C277.268 330.155 274.867 336.351 269.387 338.78C267.35 339.511 265.066 339.837 262.425 339.837C253.335 339.837 241.901 335.603 229.772 331.128C218.422 326.945 206.73 322.61 195.877 321.339C195.082 321.216 195.032 320.384 195.116 319.967C195.39 318.736 195.496 317.471 195.446 316.442C195.34 314.952 194.36 314.536 193.963 314.446C189.368 313.389 185.17 312.833 181.487 312.833C176.875 312.833 173.092 313.665 170.26 315.335C168.754 316.24 168.754 316.915 169.051 318.045C170.517 322.593 171.228 330.47 179.226 329.846C183.597 329.497 186.155 329.481 187.896 329.722C223.241 335.727 258.221 359.347 274.391 389.005C288.624 415.137 294.411 441.934 282.977 473.205C282.753 473.829 282.115 473.779 282.008 473.104C277.206 435.254 252.692 423.054 236.315 410.094C222.754 399.316 209.696 391.473 210.608 370.648C210.625 370.282 210.485 369.934 210.261 369.675C209.69 369.085 208.549 369.191 207.983 369.95C191.209 391.85 190.761 408.807 201.088 422.205C201.312 422.52 201.138 422.812 200.814 422.671C195.373 420.192 192.368 417.673 189.877 415.61C186.441 412.731 183.726 410.437 176.92 410.162C175.868 410.128 174.81 410.111 173.775 410.111C129.307 410.111 90.1117 439.106 75.8395 457.401C75.1511 458.306 75.2015 458.947 75.375 459.29C75.722 460.021 76.6511 460.173 77.6194 459.464C105.985 437.132 247.123 432.516 282.523 539.622C282.714 540.297 283.234 540.73 283.855 540.73C284.477 540.73 284.98 540.297 285.204 539.622C287.191 533.342 292.01 525.325 299.37 514.339C308.079 501.323 364.91 437.79 294.171 307.379C289.749 298.08 289.609 294.813 290.32 293.705C290.51 293.43 290.857 293.048 291.977 293.048C293.65 293.048 296.017 293.846 298.525 294.678C301.497 295.668 304.57 296.708 307.004 296.567C334.855 295.06 349.726 261.41 349.866 261.045C351.041 258.217 351.231 256.463 350.47 255.338C349.759 254.248 348.741 253.449 347.134 253.449H346.877" fill="#DBAC45"/>
<path d="M346.888 253.432C314.325 255.22 301.385 258.672 288.014 270.558C270.188 286.402 275.835 320.018 276.092 321.407C277.268 330.155 274.867 336.351 269.387 338.78C267.35 339.511 265.066 339.837 262.425 339.837C253.335 339.837 241.901 335.603 229.772 331.128C218.422 326.945 206.73 322.61 195.877 321.339C195.082 321.216 195.032 320.384 195.116 319.967C195.39 318.736 195.496 317.471 195.446 316.442C195.34 314.952 194.36 314.536 193.963 314.446C189.368 313.389 185.17 312.833 181.487 312.833C176.875 312.833 173.092 313.665 170.26 315.335C168.754 316.24 168.754 316.915 169.051 318.045C170.517 322.593 171.228 330.47 179.226 329.846C183.597 329.497 186.155 329.481 187.896 329.722C223.241 335.727 258.221 359.347 274.391 389.005C288.624 415.137 294.411 441.934 282.977 473.205C282.753 473.829 282.115 473.779 282.008 473.104C277.206 435.254 252.692 423.054 236.315 410.094C222.754 399.316 209.696 391.473 210.608 370.648C210.625 370.282 210.485 369.934 210.261 369.675C209.69 369.085 208.549 369.191 207.983 369.95C191.209 391.85 190.761 408.807 201.088 422.205C201.312 422.52 201.138 422.812 200.814 422.671C195.373 420.192 192.368 417.673 189.877 415.61C186.441 412.731 183.726 410.437 176.92 410.162C175.868 410.128 174.81 410.111 173.775 410.111C129.307 410.111 90.1117 439.106 75.8395 457.401C75.1511 458.306 75.2015 458.947 75.375 459.29C75.722 460.021 76.6511 460.173 77.6194 459.464C105.985 437.132 247.123 432.516 282.523 539.622C282.714 540.297 283.234 540.73 283.855 540.73C284.477 540.73 284.98 540.297 285.204 539.622C287.191 533.342 292.01 525.325 299.37 514.339C308.079 501.323 364.91 437.79 294.171 307.379C289.749 298.08 289.609 294.813 290.32 293.705C290.51 293.43 290.857 293.048 291.977 293.048C293.65 293.048 296.017 293.846 298.525 294.678C301.497 295.668 304.57 296.708 307.004 296.567C334.855 295.06 349.726 261.41 349.866 261.045C351.041 258.217 351.231 256.463 350.47 255.338C349.759 254.248 348.741 253.449 347.134 253.449H346.877" stroke="#C8963C" stroke-miterlimit="10"/>
<path d="M446.34 17.3823C444.834 18.2482 446.754 21.7903 447.028 22.3637C460.903 50.9479 457.5 73.9378 453.717 82.1634C452.234 85.4412 450.952 85.981 450.605 86.0709C450.521 86.0878 450.398 86.1046 450.297 86.1046C447.599 86.1046 443.368 79.161 439.618 73.0551C437.374 69.3949 435.057 65.5942 432.795 62.6762C418.283 43.9143 404.134 34.0246 383.526 28.509C381.886 28.0592 374.095 25.7484 373.11 28.0086C372.209 30.0383 379.585 32.7089 381.628 33.839C404.637 45.3087 411.012 56.9695 414.902 63.5983C414.952 63.7051 415.646 64.8296 414.314 64.8127C408.197 64.4641 398.251 62.6087 385.899 59.9212C377.761 58.1502 368.604 56.1711 358.535 54.2483C357.791 54.1077 353.683 53.3093 353.061 54.9229C352.44 56.5028 356.448 58.1164 357.209 58.5156C370.821 65.5773 382.983 69.5355 393.796 73.0607C406.63 77.2269 416.581 80.7465 423.768 87.5833C425.878 89.613 427.691 91.8676 429.141 94.3021C434.928 104.574 440.06 122.24 435.465 138.275C432.113 150.003 424.148 159.375 411.729 166.145C397.77 173.415 400.378 165.695 400.742 164.34C405.046 147.973 405.096 136.436 404.335 124.269C404.212 121.318 403.456 110.871 401.346 110.854C399.376 110.837 398.441 120.036 397.96 122.549C396.13 132.529 392.968 146.152 386.766 159.184C381.6 170.047 375.695 181.083 365.33 186.273C364.451 186.723 343.457 195.297 333.836 197.45C333.315 197.535 328.413 199.429 331.021 192.295C334.009 183.968 339.92 166.836 335.409 137.819C335.302 137.122 333.993 128.396 331.899 128.728C329.722 129.06 329.566 137.578 329.465 138.5C328.446 148.929 326.997 157.014 325.368 163.8C322.122 174.921 316.816 185.199 308.611 196.112C305.879 199.739 293.129 217.528 281.561 217.528C276.898 217.528 271.128 214.284 266.096 208.819C259.514 201.65 248.858 184.924 250.912 152.696C251.018 150.841 251.723 147.54 249.943 147.197C247.649 146.866 246.076 152.128 245.919 152.595C233.186 188.831 245.399 213.277 250.067 222.633C250.671 223.83 251.136 224.803 251.415 225.478C252.54 228.272 252.484 231.066 251.292 233.771C248.768 239.376 241.912 243.559 236.298 245.589C233.6 246.562 231.132 247.253 229.319 247.551C228.25 247.759 228.507 247.101 228.781 246.927C233.046 244.532 234.809 241.861 234.602 239.5C234.272 235.632 228.558 233.27 222.49 230.791C218.259 229.037 213.905 227.232 212.366 225.185C208.649 220.153 204.972 215.813 201.412 211.647C190.112 198.423 181.146 187.909 180.788 165.954C180.754 162.867 181.896 156.446 179.959 156.446C177.625 156.446 175.331 163.806 175.124 164.531C169.146 186.571 176.193 202.364 179.719 210.134C180.032 210.809 180.34 211.506 180.637 212.164C181.101 213.238 181.935 215.183 179.187 214.092C166.057 209.094 157.073 199.705 152.495 186.082C146.294 167.635 150.318 147.675 152.031 144.903C157.504 136.138 165.833 130.864 176.388 124.202C185.685 118.338 196.98 110.77 209.797 98.8337C210.815 97.8779 211.7 96.506 210.955 95.7245C208.845 93.5374 199.28 99.6658 195.513 101.487C178.93 109.454 166.667 115.077 158.198 118.18C156.575 118.771 156.922 117.314 157.04 117.05C167.976 90.6925 182.971 72.9202 203.802 60.7365C203.802 60.7365 208.845 58.0265 208 56.2611C207.049 54.3326 196.789 58.5494 195.026 59.3309C158.54 75.1073 144.878 101.324 137.742 119.67C137.742 119.67 134.563 130.19 132.111 127.603C122.417 117.731 116.529 97.6699 131.003 73.7748C131.26 73.3081 132.749 71.1379 131.557 70.3226C130.762 69.7829 129.57 70.4969 127.426 72.4254C113.624 84.9183 111.671 104.771 112.606 114.891C114.212 132.191 122.731 141.929 127.309 147.152C128.898 148.974 130.331 150.087 130.214 153.506C129.313 165.234 129.229 169.417 129.369 175.247C129.402 177.468 127.673 177.575 126.811 177.26C113.317 172.403 106.751 160.101 107.619 139.618C107.686 138.022 108.43 132.45 106.287 132.416C104.233 132.382 102.901 138.337 102.643 139.287C99.8616 149.907 96.4083 161.9 104.25 177.395C110.227 189.247 120.072 194.437 127.259 198.237C131.182 200.318 134.568 202.106 136.018 204.259C149.512 227.131 178.168 237.836 197.12 244.903C205.756 248.13 212.578 250.649 214.19 252.988C214.761 253.893 214.918 254.635 214.688 255.316C214 257.295 210.026 258.627 206.791 259.724C204.681 260.455 202.851 261.062 201.782 261.877C199.537 263.665 199.812 266.634 200.052 269.029C200.136 270.119 200.243 271.25 200.019 271.739C198.552 274.792 179.114 279.306 173.12 280.639C166.437 282.168 165.743 290.394 168.021 295.791C168.021 295.791 168.015 295.797 168.004 295.808C166.779 297.039 163.566 300.582 165.329 305.006C165.81 306.12 166.952 308.026 167.4 308.666C167.92 309.307 168.508 309.291 169.594 308.807C170.892 308.234 174.844 307.368 178.493 307.368C188.321 307.368 192.76 308.672 193.246 308.672C193.733 308.672 194.041 308.588 194.472 308.116C196.493 305.945 195.491 298.361 195.491 298.276C195.407 296.955 194.349 296.055 192.849 296.055C191.741 296.055 190.448 296.505 188.998 297.377C188.204 297.793 187.476 297.292 187.045 296.837C185.819 295.516 185.041 292.845 185.198 290.624C185.456 286.857 186.928 285.103 190.174 284.777C191.142 284.693 192.301 285.176 192.989 285.958C193.129 286.115 193.907 286.824 195.116 286.391C199.453 284.445 224.226 278.081 229.543 277.524C231.86 277.299 233.36 275.129 235.279 272.385C238.167 268.253 242.102 262.58 251.158 261.191C252.244 261.034 253.335 260.949 254.371 260.949C261.333 260.949 265.307 264.66 268.503 267.629C270.507 269.501 272.37 271.081 273.926 270.963C276.294 270.822 286.088 266.763 284.068 261.242C284.018 261.084 281.163 254.545 283.844 248.698C286.161 243.458 287.868 241.861 294.159 237.212C301.519 232.197 315.909 227.98 334.099 222.65C380.705 209.01 451.002 188.409 480.106 129.442C482.16 125.242 483.593 120.086 482.127 119.552C481.248 119.237 479.983 120.457 478.119 123.061C474.442 128.25 463.265 138.73 456.04 144.926C455.693 145.218 455.351 144.909 455.502 144.442C458.334 135.919 458.385 126.901 458.424 119.676C458.581 114.936 459.566 111.765 460.271 109.769C460.528 109.038 460.959 108.066 461.48 106.834C466.489 95.3141 481.483 60.6353 450.633 20.3453C450.303 19.9293 448.249 17.3092 446.833 17.3092C446.676 17.3092 446.502 17.3261 446.351 17.4104" fill="#DBAC45"/>
<path d="M446.34 17.3823C444.834 18.2482 446.754 21.7903 447.028 22.3637C460.903 50.9479 457.5 73.9378 453.717 82.1634C452.234 85.4412 450.952 85.981 450.605 86.0709C450.521 86.0878 450.398 86.1046 450.297 86.1046C447.599 86.1046 443.368 79.161 439.618 73.0551C437.374 69.3949 435.057 65.5942 432.795 62.6762C418.283 43.9143 404.134 34.0246 383.526 28.509C381.886 28.0592 374.095 25.7484 373.11 28.0086C372.209 30.0383 379.585 32.7089 381.628 33.839C404.637 45.3087 411.012 56.9695 414.902 63.5983C414.952 63.7051 415.646 64.8296 414.314 64.8127C408.197 64.4641 398.251 62.6087 385.899 59.9212C377.761 58.1502 368.604 56.1711 358.535 54.2483C357.791 54.1077 353.683 53.3093 353.061 54.9229C352.44 56.5028 356.448 58.1164 357.209 58.5156C370.821 65.5773 382.983 69.5355 393.796 73.0607C406.63 77.2269 416.581 80.7465 423.768 87.5833C425.878 89.613 427.691 91.8676 429.141 94.3021C434.928 104.574 440.06 122.24 435.465 138.275C432.113 150.003 424.148 159.375 411.729 166.145C397.77 173.415 400.378 165.695 400.742 164.34C405.046 147.973 405.096 136.436 404.335 124.269C404.212 121.318 403.456 110.871 401.346 110.854C399.376 110.837 398.441 120.036 397.96 122.549C396.13 132.529 392.968 146.152 386.766 159.184C381.6 170.047 375.695 181.083 365.33 186.273C364.451 186.723 343.457 195.297 333.836 197.45C333.315 197.535 328.413 199.429 331.021 192.295C334.009 183.968 339.92 166.836 335.409 137.819C335.302 137.122 333.993 128.396 331.899 128.728C329.722 129.06 329.566 137.578 329.465 138.5C328.446 148.929 326.997 157.014 325.368 163.8C322.122 174.921 316.816 185.199 308.611 196.112C305.879 199.739 293.129 217.528 281.561 217.528C276.898 217.528 271.128 214.284 266.096 208.819C259.514 201.65 248.858 184.924 250.912 152.696C251.018 150.841 251.723 147.54 249.943 147.197C247.649 146.866 246.076 152.128 245.919 152.595C233.186 188.831 245.399 213.277 250.067 222.633C250.671 223.83 251.136 224.803 251.415 225.478C252.54 228.272 252.484 231.066 251.292 233.771C248.768 239.376 241.912 243.559 236.298 245.589C233.6 246.562 231.132 247.253 229.319 247.551C228.25 247.759 228.507 247.101 228.781 246.927C233.046 244.532 234.809 241.861 234.602 239.5C234.272 235.632 228.558 233.27 222.49 230.791C218.259 229.037 213.905 227.232 212.366 225.185C208.649 220.153 204.972 215.813 201.412 211.647C190.112 198.423 181.146 187.909 180.788 165.954C180.754 162.867 181.896 156.446 179.959 156.446C177.625 156.446 175.331 163.806 175.124 164.531C169.146 186.571 176.193 202.364 179.719 210.134C180.032 210.809 180.34 211.506 180.637 212.164C181.101 213.238 181.935 215.183 179.187 214.092C166.057 209.094 157.073 199.705 152.495 186.082C146.294 167.635 150.318 147.675 152.031 144.903C157.504 136.138 165.833 130.864 176.388 124.202C185.685 118.338 196.98 110.77 209.797 98.8337C210.815 97.8779 211.7 96.506 210.955 95.7245C208.845 93.5374 199.28 99.6658 195.513 101.487C178.93 109.454 166.667 115.077 158.198 118.18C156.575 118.771 156.922 117.314 157.04 117.05C167.976 90.6925 182.971 72.9202 203.802 60.7365C203.802 60.7365 208.845 58.0265 208 56.2611C207.049 54.3326 196.789 58.5494 195.026 59.3309C158.54 75.1073 144.878 101.324 137.742 119.67C137.742 119.67 134.563 130.19 132.111 127.603C122.417 117.731 116.529 97.6699 131.003 73.7748C131.26 73.3081 132.749 71.1379 131.557 70.3226C130.762 69.7829 129.57 70.4969 127.426 72.4254C113.624 84.9183 111.671 104.771 112.606 114.891C114.212 132.191 122.731 141.929 127.309 147.152C128.898 148.974 130.331 150.087 130.214 153.506C129.313 165.234 129.229 169.417 129.369 175.247C129.402 177.468 127.673 177.575 126.811 177.26C113.317 172.403 106.751 160.101 107.619 139.618C107.686 138.022 108.43 132.45 106.287 132.416C104.233 132.382 102.901 138.337 102.643 139.287C99.8616 149.907 96.4083 161.9 104.25 177.395C110.227 189.247 120.072 194.437 127.259 198.237C131.182 200.318 134.568 202.106 136.018 204.259C149.512 227.131 178.168 237.836 197.12 244.903C205.756 248.13 212.578 250.649 214.19 252.988C214.761 253.893 214.918 254.635 214.688 255.316C214 257.295 210.026 258.627 206.791 259.724C204.681 260.455 202.851 261.062 201.782 261.877C199.537 263.665 199.812 266.634 200.052 269.029C200.136 270.119 200.243 271.25 200.019 271.739C198.552 274.792 179.114 279.306 173.12 280.639C166.437 282.168 165.743 290.394 168.021 295.791C168.021 295.791 168.015 295.797 168.004 295.808C166.779 297.039 163.566 300.582 165.329 305.006C165.81 306.12 166.952 308.026 167.4 308.666C167.92 309.307 168.508 309.291 169.594 308.807C170.892 308.234 174.844 307.368 178.493 307.368C188.321 307.368 192.76 308.672 193.246 308.672C193.733 308.672 194.041 308.588 194.472 308.116C196.493 305.945 195.491 298.361 195.491 298.276C195.407 296.955 194.349 296.055 192.849 296.055C191.741 296.055 190.448 296.505 188.998 297.377C188.204 297.793 187.476 297.292 187.045 296.837C185.819 295.516 185.041 292.845 185.198 290.624C185.456 286.857 186.928 285.103 190.174 284.777C191.142 284.693 192.301 285.176 192.989 285.958C193.129 286.115 193.907 286.824 195.116 286.391C199.453 284.445 224.226 278.081 229.543 277.524C231.86 277.299 233.36 275.129 235.279 272.385C238.167 268.253 242.102 262.58 251.158 261.191C252.244 261.034 253.335 260.949 254.371 260.949C261.333 260.949 265.307 264.66 268.503 267.629C270.507 269.501 272.37 271.081 273.926 270.963C276.294 270.822 286.088 266.763 284.068 261.242C284.018 261.084 281.163 254.545 283.844 248.698C286.161 243.458 287.868 241.861 294.159 237.212C301.519 232.197 315.909 227.98 334.099 222.65C380.705 209.01 451.002 188.409 480.106 129.442C482.16 125.242 483.593 120.086 482.127 119.552C481.248 119.237 479.983 120.457 478.119 123.061C474.442 128.25 463.265 138.73 456.04 144.926C455.693 145.218 455.351 144.909 455.502 144.442C458.334 135.919 458.385 126.901 458.424 119.676C458.581 114.936 459.566 111.765 460.271 109.769C460.528 109.038 460.959 108.066 461.48 106.834C466.489 95.3141 481.483 60.6353 450.633 20.3453C450.303 19.9293 448.249 17.3092 446.833 17.3092C446.676 17.3092 446.502 17.3261 446.351 17.4104" stroke="#C8963C" stroke-miterlimit="10"/>
<path d="M244.481 271.306C243.652 272.413 242.807 273.56 240.921 274.482C238.834 275.489 236.774 276.563 236.449 277.727C236.382 277.951 236.365 278.401 236.673 278.817C237.07 279.318 237.781 279.582 238.8 279.582C238.8 279.582 239.578 279.531 240.473 279.391C241.475 279.25 242.858 279.042 244.761 278.958C247.542 278.874 249.686 280.071 249.72 280.071C250.083 280.296 251.035 280.611 252.014 280.611C252.994 280.611 253.794 280.318 254.348 279.706C255.037 278.997 255.367 277.884 255.316 276.394C255.283 275.472 255.249 274.331 255.837 273.707C256.184 273.341 256.682 273.15 257.41 273.133C258.759 273.133 261.16 273.757 262.089 277.89C262.313 278.913 263.214 279.593 264.384 279.593C265.906 279.559 267.132 279.053 267.753 278.221C268.167 277.704 268.29 277.057 268.117 276.433C267.479 273.971 262.19 266.212 254.589 266.212C249.389 266.212 246.227 268.989 244.481 271.311" fill="#DBAC45"/>
<path d="M244.481 271.306C243.652 272.413 242.807 273.56 240.921 274.482C238.834 275.489 236.774 276.563 236.449 277.727C236.382 277.951 236.365 278.401 236.673 278.817C237.07 279.318 237.781 279.582 238.8 279.582C238.8 279.582 239.578 279.531 240.473 279.391C241.475 279.25 242.858 279.042 244.761 278.958C247.542 278.874 249.686 280.071 249.72 280.071C250.083 280.296 251.035 280.611 252.014 280.611C252.994 280.611 253.794 280.318 254.348 279.706C255.037 278.997 255.367 277.884 255.316 276.394C255.283 275.472 255.249 274.331 255.837 273.707C256.184 273.341 256.682 273.15 257.41 273.133C258.759 273.133 261.16 273.757 262.089 277.89C262.313 278.913 263.214 279.593 264.384 279.593C265.906 279.559 267.132 279.053 267.753 278.221C268.167 277.704 268.29 277.057 268.117 276.433C267.479 273.971 262.19 266.212 254.589 266.212C249.389 266.212 246.227 268.989 244.481 271.311" stroke="#C8963C" stroke-miterlimit="10"/>
</g>
<defs>
<clipPath id="clip0_383_669">
<rect width="408" height="524" fill="white" transform="translate(75 17)"/>
</clipPath>
</defs>
</svg>
