<svg width="558" height="558" viewBox="0 0 558 558" fill="none" xmlns="http://www.w3.org/2000/svg">
<path d="M359.868 67.1673L359.149 66.4489C357.712 65.7305 355.916 64.6529 355.916 61.061V60.7017C355.916 58.5466 357.712 56.3914 360.586 55.3138L363.819 54.9547C363.819 53.8771 362.382 49.2075 362.382 49.2075L364.178 43.4604C364.537 42.742 365.615 40.2277 365.615 40.2277C365.615 40.2277 365.974 39.5093 365.974 39.1501C365.974 39.5093 366.692 40.2277 366.692 40.2277L368.847 42.3829L373.517 47.4116L374.235 53.5179C374.595 53.8771 378.187 52.4403 378.187 52.4403C381.06 52.0811 383.215 53.5179 383.934 55.3138C385.37 58.5466 384.293 59.9834 383.934 61.061C383.574 61.7794 383.574 62.8569 383.574 62.8569C383.574 63.9345 383.574 64.6529 383.215 64.6529C382.856 65.0121 382.138 64.6529 380.701 63.9345L379.982 62.8569C379.264 61.4202 378.905 60.7017 377.109 61.4201L376.031 62.1386C375.672 62.8569 376.031 63.9345 376.391 64.2937C377.109 65.0121 377.468 65.0121 377.468 65.0121L378.546 66.0897L378.187 67.8856L377.827 68.604V71.4776C378.186 71.8368 379.982 73.2736 379.982 73.2736C380.701 73.2736 379.982 73.9919 379.982 73.9919L376.75 74.3511C376.391 75.0695 375.313 77.9431 375.313 77.9431C374.595 78.3023 372.439 75.7879 372.439 75.7879C371.721 75.4287 368.488 76.1471 368.488 76.1471H367.77C368.129 76.1471 368.488 75.4287 368.488 75.4287L369.566 72.5552C369.566 72.196 368.847 71.1184 368.129 70.7592C367.411 70.0408 366.333 68.604 366.333 68.604L367.051 66.808L367.411 65.7305L366.333 63.5753L364.896 63.2161C364.178 63.2161 363.46 63.5753 363.46 63.9345V65.7305V67.1673C363.1 67.5265 362.741 68.2449 362.023 68.2449C360.945 68.604 360.586 67.8856 359.868 67.1673ZM362.741 27.6559C344.422 31.607 318.919 42.3829 303.474 70.0408C310.299 68.604 322.871 67.5264 334.724 69.6816C345.5 71.8368 359.149 77.5839 365.615 93.0292C365.974 93.0292 392.554 86.5637 392.554 86.5637C391.836 70.7592 399.02 59.9834 405.485 53.5179C413.388 45.6156 424.523 39.5093 435.298 37.7133C421.649 27.2967 392.195 21.1904 362.741 27.6559Z" fill="#AD9554"/>
<path d="M365.975 98.058C367.771 103.805 370.285 113.863 371.004 118.891C371.363 119.25 399.021 111.707 399.021 111.707C399.021 111.348 393.992 90.8741 393.992 90.8741C393.633 90.8741 365.975 98.058 365.975 98.058Z" fill="#AD9554"/>
<path d="M298.805 99.4946C297.727 100.213 297.727 101.65 297.727 102.368C297.727 102.727 297.727 103.446 297.727 103.446V104.523V112.785C298.086 116.018 298.805 116.736 301.319 118.532C302.397 119.25 302.397 119.969 302.397 120.328V120.687C302.038 121.405 300.96 122.124 299.164 122.483C297.368 130.026 295.213 134.336 291.98 136.132C289.466 137.569 286.951 136.492 285.515 136.132C283.359 137.569 278.69 138.288 276.176 137.569C274.02 139.724 270.428 146.19 269.71 149.782C268.992 153.015 267.196 152.655 267.196 152.655C266.118 152.655 265.041 151.219 265.041 150.141L266.477 141.88L266.836 140.443C266.477 140.084 263.604 139.365 263.604 139.365C261.808 141.161 259.653 141.88 257.497 141.88C251.391 141.52 244.926 133.259 243.848 131.822C243.13 130.745 242.052 130.745 240.974 130.745L228.044 133.618C227.684 133.618 221.219 148.345 221.219 148.345C221.578 148.704 240.615 144.394 240.615 144.394C240.615 144.753 240.974 145.472 240.974 145.472C241.334 145.112 241.693 149.063 241.693 149.063C248.877 153.374 266.118 169.897 270.428 174.925C270.788 174.925 280.127 170.974 280.127 170.974L288.388 167.742C293.417 165.227 297.009 162.354 299.164 159.121C299.523 158.762 305.989 151.578 305.989 151.578L310.299 146.908C312.454 144.394 314.609 141.52 314.609 140.084L313.891 134.696L312.454 123.201C312.813 121.046 312.454 118.173 310.658 116.018C308.503 113.144 303.834 103.087 303.115 98.7762C300.96 98.417 299.523 98.417 298.805 99.4946Z" fill="#AD9554"/>
<path d="M161.952 147.986L163.03 152.655L163.389 153.733C163.389 154.092 164.826 161.276 164.826 161.276C165.185 161.635 178.475 158.402 178.475 158.402C178.834 158.402 185.3 143.316 185.3 143.316C184.94 142.957 161.952 147.986 161.952 147.986Z" fill="#AD9554"/>
<path d="M85.0842 161.276L84.3659 161.635C83.2883 163.431 83.6475 168.46 84.3659 172.411C85.4435 176.722 87.9578 180.673 89.3946 181.391C99.8112 179.954 99.8112 179.954 99.8112 179.954C101.966 179.595 100.889 173.848 99.452 168.819C98.0152 162.713 95.86 159.121 93.7049 158.762C93.7049 159.121 85.0842 161.276 85.0842 161.276Z" fill="#AD9554"/>
<path d="M101.967 161.276L103.404 167.023L103.763 169.178L104.84 174.566C105.2 174.925 141.837 166.664 141.837 166.664C142.197 166.305 141.478 163.431 141.478 163.431L140.76 160.558C140.76 160.198 140.401 159.48 140.401 159.48L139.323 154.092C138.964 153.374 101.967 161.276 101.967 161.276Z" fill="#AD9554"/>
<path d="M359.508 102.368L353.761 117.095C354.12 117.454 365.255 114.94 365.255 114.94C365.614 114.581 361.663 102.368 361.663 102.368C361.663 102.009 359.508 102.368 359.508 102.368Z" fill="#AD9554"/>
<path d="M332.569 108.474L326.462 123.201C326.822 123.561 347.655 118.532 347.655 118.532C348.014 118.532 353.761 103.805 353.761 103.805C353.402 103.805 332.569 108.474 332.569 108.474Z" fill="#AD9554"/>
<path d="M313.532 113.144L313.891 114.581L314.61 116.018L314.969 117.095C314.969 117.454 315.687 122.124 315.687 122.124V123.561L316.047 126.075C316.406 126.794 319.998 125.716 319.998 125.716L325.745 110.989C325.745 110.271 313.532 113.144 313.532 113.144Z" fill="#AD9554"/>
<path d="M191.405 141.52L184.221 156.606C184.581 156.966 214.753 150.141 214.753 150.141L221.578 135.055C221.578 134.696 191.405 141.52 191.405 141.52Z" fill="#AD9554"/>
<path d="M378.546 121.405V122.124C379.983 128.23 381.779 136.851 376.391 144.035C385.73 147.986 392.914 154.092 396.146 159.121C397.583 153.374 400.816 144.753 406.563 138.288C400.097 134.336 396.146 127.152 394.35 117.095C393.632 117.454 378.546 121.405 378.546 121.405Z" fill="#AD9554"/>
<path d="M399.02 93.0292L402.252 105.601C409.436 104.883 420.212 105.601 427.396 109.193C436.376 100.213 454.335 89.7965 465.83 85.4862C451.821 84.7678 432.425 83.331 420.571 78.3023C414.824 84.7678 405.126 90.874 399.02 93.0292Z" fill="#AD9554"/>
<path d="M249.235 110.271H248.876L247.439 110.63C245.643 110.989 243.847 112.785 243.488 114.222L240.615 124.998C241.333 124.998 242.77 121.765 242.77 121.765C242.77 121.406 242.77 121.046 243.488 121.046C243.847 121.046 244.207 121.406 244.566 123.202C244.925 123.92 245.643 126.434 245.643 126.434C247.08 129.667 249.954 132.541 255.342 136.492C256.778 137.569 258.934 137.569 260.011 136.851C261.089 135.773 261.089 133.618 260.011 131.463L254.623 118.173L253.905 115.658L252.109 111.348C251.031 109.552 250.313 109.552 249.235 110.271Z" fill="#AD9554"/>
<path d="M261.09 103.805C258.575 104.164 255.702 104.882 255.343 106.319L255.702 109.911C256.061 110.63 266.118 135.414 266.118 135.414C267.196 137.21 268.633 137.569 270.07 136.851C271.865 136.132 273.302 134.336 272.584 131.822C271.866 129.308 265.759 106.678 264.682 104.164C264.322 103.446 263.245 103.446 261.09 103.805Z" fill="#AD9554"/>
<path d="M268.632 101.291C267.555 102.009 268.273 104.164 269.351 105.96C269.351 106.319 270.428 108.115 270.428 108.115L270.787 109.193L271.506 110.989C273.661 116.377 277.612 127.871 277.253 132.181C277.971 133.977 279.767 134.696 281.204 134.336C283 133.977 284.796 132.9 285.155 131.463V128.23C285.155 127.871 285.155 124.997 285.155 124.997L284.796 119.609L280.126 103.805L278.33 100.213C273.661 99.1353 269.71 100.931 268.632 101.291Z" fill="#AD9554"/>
<path d="M284.437 99.8538C283.359 99.8538 283 100.572 283 101.291C283 104.883 284.796 110.27 285.874 112.426C286.951 115.658 288.029 122.124 288.029 124.279V131.822C288.029 132.541 288.747 132.541 289.106 132.9C290.184 133.259 291.98 132.9 292.698 131.822C294.135 130.385 294.853 127.153 295.213 124.997V121.765C295.213 121.405 294.853 118.891 294.853 118.891V114.222V108.834L294.494 105.242L293.776 103.446C293.417 102.727 293.057 101.291 293.057 101.291C292.339 100.213 292.339 99.8538 290.902 99.8538H284.437Z" fill="#AD9554"/>
<path d="M238.101 153.374L235.586 154.811C235.227 154.811 234.509 155.529 234.509 155.529C233.791 156.247 233.431 156.607 233.431 156.966L234.15 157.684C238.101 160.199 258.575 180.313 259.293 181.391L261.808 186.42C262.526 186.779 263.244 186.779 263.244 186.779C265.04 186.42 266.836 185.342 268.632 183.187C268.632 182.828 268.992 182.469 267.196 180.313C262.167 173.13 246.362 157.325 240.974 153.733C240.256 153.015 238.819 153.374 238.101 153.374Z" fill="#AD9554"/>
<path d="M204.695 176.721L200.744 178.877L197.511 180.673C191.046 184.264 171.649 197.914 155.126 209.049C175.959 218.029 196.074 229.523 206.491 237.066C217.267 229.164 227.324 220.184 233.431 214.078L258.574 188.934C258.574 188.575 256.778 184.983 256.778 184.983C256.06 183.905 235.945 164.15 231.275 160.558C231.275 161.276 204.695 176.721 204.695 176.721Z" fill="#AD9554"/>
<path d="M192.483 338L192.124 338.359L197.512 341.951C197.871 342.31 199.308 343.388 199.308 343.388C202.181 345.543 214.035 357.037 224.81 368.531C229.121 373.201 231.635 375.715 243.129 377.87C253.546 379.666 277.612 380.385 293.057 376.793C284.437 370.327 271.506 356.678 262.885 347.698L253.187 338C249.236 335.126 246.362 332.971 240.615 332.253C214.035 327.583 195.716 336.204 192.483 338Z" fill="#AD9554"/>
<path d="M256.78 334.049H256.421L262.168 338L269.711 345.543L271.507 347.339C279.409 355.959 293.059 370.686 301.679 376.074C309.941 381.821 339.395 384.695 357.714 381.462C351.248 375.715 344.064 366.735 337.24 358.474C331.493 351.29 325.386 343.747 320.717 340.155C317.125 337.281 311.737 334.767 306.349 333.33C283.001 327.583 263.605 331.175 256.78 334.049Z" fill="#AD9554"/>
<path d="M325.027 336.204H324.308L329.337 339.436C334.007 343.028 339.395 350.212 344.782 357.396C351.248 366.017 358.073 374.997 364.897 380.385C372.44 386.491 400.098 394.393 418.776 394.034C413.748 387.209 408.36 378.229 403.331 369.609L402.613 368.531C398.302 360.988 393.274 352.008 388.963 347.698C386.09 344.824 382.139 341.592 374.955 339.436C360.228 335.126 336.88 333.689 325.027 336.204Z" fill="#AD9554"/>
<path d="M394.35 345.543C399.019 349.853 404.048 358.474 409.436 367.454C414.465 375.715 419.493 383.976 424.163 390.083C427.396 393.675 440.686 403.373 452.898 402.295C465.47 401.577 473.013 394.752 474.45 382.181C475.168 377.152 473.013 372.482 469.062 367.813C456.849 354.163 425.959 344.106 391.835 342.31C391.476 343.028 394.35 345.543 394.35 345.543Z" fill="#AD9554"/>
<path d="M96.2195 358.474C87.2396 363.144 81.1333 375.715 83.6477 384.695C85.4436 391.161 89.754 395.83 96.2195 398.704C104.84 402.296 125.314 405.169 164.466 383.977C164.466 383.618 152.254 377.152 152.254 377.152L150.458 376.075L139.323 368.531C133.576 364.221 127.469 359.911 118.849 355.6C116.693 354.882 108.073 352.368 96.2195 358.474Z" fill="#AD9554"/>
<path d="M169.137 338.718C150.459 340.155 138.964 343.747 123.878 352.008L123.519 352.368L125.315 353.086C134.654 357.396 138.964 360.988 142.916 364.58C143.275 364.58 152.614 371.405 152.614 371.405L156.565 373.919L170.933 381.462C188.533 387.928 215.114 382.899 227.685 376.793C227.685 376.434 224.453 373.919 224.453 373.919C223.734 373.56 216.191 368.172 216.191 368.172L202.542 354.523L198.95 350.931L193.562 345.543C188.533 340.873 182.068 337.641 169.137 338.718Z" fill="#AD9554"/>
<path d="M145.428 147.627L144.71 147.986C143.632 149.782 143.632 154.811 144.71 159.121C146.147 164.15 149.02 168.819 150.816 168.46L159.796 167.023C161.951 166.305 161.233 161.276 159.796 155.529C158.359 149.423 156.204 145.831 154.049 145.472L145.428 147.627Z" fill="#AD9554"/>
<path d="M138.245 216.951C137.885 217.311 137.526 218.029 137.526 218.388V218.747C137.526 219.107 138.245 219.466 139.322 219.466C151.894 221.621 176.319 233.474 187.813 238.862L193.201 241.377C194.997 242.095 200.744 243.891 203.618 240.299C191.046 230.96 169.494 220.184 148.302 211.923C143.992 212.282 140.759 213.719 138.245 216.951Z" fill="#AD9554"/>
<path d="M112.024 245.328L111.665 245.687C109.51 247.842 109.869 248.201 111.306 250.716C115.257 257.54 127.11 267.957 136.808 274.782C150.099 265.083 173.446 251.434 187.096 244.969L187.455 244.609L187.814 243.891C184.581 241.736 151.535 225.572 135.731 222.699C132.498 225.213 124.596 232.756 112.024 245.328Z" fill="#AD9554"/>
<path d="M193.201 247.842C180.629 253.23 154.767 267.957 139.681 279.092L139.322 279.81C139.322 281.965 143.273 286.276 145.428 287.353C147.584 288.431 149.379 288.431 152.253 285.557C160.515 277.655 188.891 259.695 202.54 253.23H202.899V252.152C201.822 249.279 199.307 244.968 193.201 247.842Z" fill="#AD9554"/>
<path d="M155.487 290.945C159.797 296.692 177.038 311.419 191.047 323.632L198.231 329.738C211.88 325.787 225.889 324.71 239.897 326.506C244.208 327.224 247.441 327.942 250.314 329.738C259.653 325.428 282.642 321.836 306.708 327.583C310.659 328.661 315.328 329.738 318.92 331.893C319.279 331.893 336.88 329.738 336.88 329.738C337.598 329.738 338.676 329.379 338.676 329.379C299.883 302.799 245.645 275.859 206.492 256.463C194.28 262.569 165.903 280.529 155.487 290.945Z" fill="#AD9554"/>
<path d="M145.228 470.698C145.833 465.935 147.27 462.078 149.463 459.281C151.655 456.408 154.377 454.971 157.477 454.971C160.502 454.971 163.148 456.483 165.265 459.508C167.382 462.532 168.517 466.313 168.668 470.698H145.228ZM138.877 461.7C134.643 467.9 132.526 475.008 132.526 482.796C132.526 490.659 134.189 497.389 137.516 502.757C141.523 509.487 147.421 512.889 155.133 512.889C162.846 512.889 169.273 509.789 174.263 503.74C177.665 499.581 179.631 495.498 180.161 491.567C180.161 491.491 180.161 491.491 180.161 491.415C180.161 491.037 179.858 490.811 179.253 490.659L178.27 490.508C175.851 494.742 174.49 497.086 174.036 497.691C171.012 501.169 167.004 502.908 162.241 502.908C156.494 502.908 151.882 500.413 148.706 495.498C145.909 491.189 144.472 485.593 144.472 479.015L144.699 474.932L180.614 475.008C180.841 469.413 179.329 464.271 176.304 459.659C172.221 453.761 166.324 450.737 158.687 450.737C150.445 450.812 143.792 454.442 138.877 461.7Z" fill="#AD9554"/>
<path d="M209.573 454.064C206.473 456.029 204.129 458.298 202.617 460.944L202.693 450.888L202.164 450.812C197.627 454.29 191.502 457.239 183.866 459.508V460.339C187.571 460.415 189.537 462.003 189.915 465.254V503.816C189.915 506.613 189.159 508.579 187.571 509.713C187.041 510.243 185.832 510.772 184.093 511.225V511.982L207.154 512.057L207.23 511.301C204.205 510.394 202.693 507.899 202.693 503.891V473.118C202.693 469.488 203.525 466.161 205.188 463.288C207.381 459.659 210.556 457.844 214.564 457.844C221.747 457.844 225.376 461.851 225.376 469.791V503.816C225.376 507.899 223.864 510.394 220.84 511.225V511.982L243.523 512.057L243.598 511.301C242.011 510.772 240.952 510.318 240.423 509.789C239.137 508.655 238.457 506.689 238.457 503.891V465.33C238.457 462.078 236.945 458.978 234.071 456.029C230.669 452.627 226.359 450.888 221.142 450.888C216.908 450.812 213.052 451.871 209.573 454.064Z" fill="#AD9554"/>
<path d="M272.709 454.064C269.684 455.954 267.265 458.298 265.753 460.944L265.828 450.888L265.299 450.812C260.762 454.29 254.638 457.239 247.001 459.508V460.339C250.706 460.415 252.672 462.003 253.05 465.254V503.816C253.05 506.613 252.294 508.579 250.706 509.713C250.177 510.243 248.967 510.772 247.152 511.225V511.982L270.214 512.057L270.289 511.301C267.265 510.394 265.828 507.899 265.828 503.891V473.118C265.828 469.488 266.66 466.161 268.323 463.288C270.516 459.659 273.692 457.844 277.699 457.844C284.882 457.844 288.511 461.851 288.511 469.791V503.816C288.511 507.974 286.999 510.394 283.975 511.225V511.982L306.658 512.057L306.734 511.301C305.146 510.772 304.087 510.318 303.558 509.789C302.197 508.655 301.592 506.689 301.592 503.891V465.33C301.592 462.154 300.08 458.978 297.207 456.029C293.804 452.627 289.494 450.888 284.277 450.888C280.043 450.812 276.187 451.871 272.709 454.064Z" fill="#AD9554"/>
<path d="M322.385 470.698C322.99 466.01 324.351 462.154 326.62 459.281C328.812 456.408 331.534 454.971 334.634 454.971C337.659 454.971 340.305 456.483 342.347 459.508C344.464 462.532 345.598 466.313 345.749 470.698H322.385ZM315.959 461.7C311.724 467.9 309.607 475.008 309.607 482.796C309.607 490.659 311.271 497.389 314.597 502.757C318.605 509.487 324.503 512.889 332.215 512.889C339.927 512.889 346.354 509.789 351.344 503.74C354.671 499.581 356.713 495.498 357.242 491.567C357.242 491.491 357.242 491.491 357.242 491.415C357.242 491.037 356.94 490.811 356.335 490.659L355.352 490.508C352.932 494.742 351.571 497.086 351.118 497.691C348.018 501.169 344.086 502.908 339.398 502.908C333.651 502.908 329.039 500.413 325.864 495.498C323.066 491.189 321.629 485.593 321.629 479.015L321.856 474.932L357.771 475.008C357.998 469.488 356.562 464.271 353.462 459.659C349.379 453.761 343.481 450.737 335.844 450.737C327.603 450.812 320.949 454.442 315.959 461.7Z" fill="#AD9554"/>
<path d="M398.45 451.266C397.921 453.383 397.014 454.366 395.501 454.366C394.594 454.366 392.704 453.912 390.133 453.081C387.335 452.249 384.84 451.795 382.648 451.795C378.111 451.795 374.028 453.156 370.474 455.954C366.316 459.129 364.274 463.364 364.35 468.505C364.425 473.269 366.164 477.276 369.567 480.301C370.55 481.208 373.801 483.325 379.245 486.501C384.538 489.676 387.411 491.415 388.243 492.096C391.04 494.44 392.477 497.237 392.553 500.413C392.628 503.362 391.343 505.706 388.772 507.369C386.731 508.73 384.689 509.335 382.648 509.184C375.54 508.73 370.172 503.513 366.618 493.608H364.803C364.728 493.684 365.786 513.191 365.786 513.191C365.862 513.267 366.769 513.343 366.769 513.343C368.055 511.452 369.567 510.545 371.23 510.545C371.911 510.545 373.423 510.999 375.691 511.982C377.96 512.965 380.833 513.418 384.235 513.418C388.923 513.418 393.233 512.057 397.014 509.411C401.853 506.008 404.348 501.094 404.272 494.818C404.197 490.886 402.231 487.181 398.601 483.627C396.258 481.51 392.326 478.864 386.957 475.688C381.438 472.437 378.565 470.698 378.035 470.169C375.994 468.505 374.935 466.237 374.86 463.288C374.784 461.02 375.465 459.129 376.826 457.617C378.262 456.105 380.228 455.349 382.648 455.425C385.067 455.5 387.638 456.407 390.284 458.147C393.687 460.415 396.636 463.742 398.98 468.127H400.341C400.416 468.052 399.509 451.039 399.509 451.039C399.584 451.039 398.45 451.266 398.45 451.266Z" fill="#AD9554"/>
<path d="M443.212 451.266C442.683 453.383 441.775 454.366 440.263 454.366C439.356 454.366 437.541 453.912 434.819 453.081C432.097 452.249 429.526 451.795 427.333 451.795C422.797 451.795 418.638 453.156 415.16 455.954C411.001 459.129 408.884 463.364 408.96 468.505C409.036 473.269 410.775 477.276 414.177 480.301C415.236 481.208 418.563 483.401 423.855 486.501C428.997 489.601 431.946 491.415 432.853 492.096C435.651 494.44 437.087 497.237 437.163 500.413C437.239 503.362 436.029 505.706 433.382 507.369C431.341 508.73 429.299 509.335 427.258 509.184C420.15 508.73 414.782 503.513 411.228 493.608H409.414C409.338 493.684 410.472 513.191 410.472 513.191C410.548 513.267 411.455 513.343 411.455 513.343C412.741 511.452 414.253 510.545 415.916 510.545C416.597 510.545 418.109 510.999 420.377 511.982C422.646 512.965 425.519 513.418 428.846 513.418C433.534 513.418 437.843 512.057 441.624 509.411C446.463 506.008 448.958 501.094 448.883 494.818C448.807 490.962 446.917 487.181 443.212 483.627C440.868 481.51 436.936 478.864 431.568 475.688C426.124 472.513 423.175 470.698 422.646 470.169C420.604 468.505 419.546 466.237 419.47 463.288C419.394 461.02 420.075 459.129 421.511 457.617C422.872 456.105 424.914 455.349 427.333 455.425C429.753 455.5 432.324 456.407 434.97 458.147C438.448 460.415 441.321 463.666 443.665 468.127H445.026C445.102 468.052 444.119 451.039 444.119 451.039C444.27 451.039 443.212 451.266 443.212 451.266Z" fill="#AD9554"/>
<path d="M489.108 452.325V453.081C491.679 453.383 492.888 454.971 492.888 457.995C492.888 459.13 492.662 460.264 492.284 461.398C489.637 469.639 485.403 481.208 479.808 495.801C479.883 495.801 467.407 459.281 467.407 459.281C467.105 458.373 466.954 457.542 466.954 456.786C466.954 454.442 468.39 453.307 471.264 453.307L471.339 452.476L446.841 452.4L446.766 453.686C449.488 453.383 451.756 455.273 453.419 459.432C461.434 479.847 468.239 497.767 473.683 512.738C473.078 515.082 472.322 517.123 471.566 518.862C469.6 522.945 467.407 524.987 465.139 524.987C464.005 524.987 462.644 524.533 461.283 523.701C459.846 522.794 458.561 522.416 457.502 522.416C453.419 522.416 451.302 523.928 451.302 527.028C451.302 528.011 451.907 529.07 453.117 530.128C454.705 531.489 456.822 532.17 459.544 532.17C462.644 532.17 465.82 531.111 468.768 529.07C471.793 527.028 473.91 524.306 475.12 521.055L497.576 461.398C498.106 459.734 499.164 457.92 500.752 456.181C502.567 453.988 504.154 453.005 505.667 453.232L505.742 452.476L489.108 452.325Z" fill="#AD9554"/>
<path d="M103.34 428.205V429.188C104.777 429.263 105.986 429.944 107.045 431.305C108.103 432.666 108.633 434.329 108.633 436.144V464.876L72.7174 464.8L72.793 436.144C72.793 434.329 73.2467 432.666 74.0784 431.305C74.9102 429.944 76.0443 429.188 77.4053 429.188L77.4809 428.205L52.3781 428.129L52.3024 429.112C53.7391 429.188 55.0244 429.868 56.083 431.305C57.1416 432.741 57.7464 434.405 57.7464 436.068V504.194C57.7464 505.933 57.1416 507.521 55.9318 509.033C54.722 510.469 53.4366 511.226 52.0756 511.226L52 512.057L77.4053 512.133L77.4809 511.301C74.7589 511.226 73.2467 508.882 72.793 504.194V470.396L108.708 470.471L108.633 504.194C108.633 505.933 108.028 507.521 106.894 509.033C105.759 510.469 104.398 511.226 102.886 511.226L102.811 512.057L128.14 512.133L128.216 511.301C126.779 511.226 125.57 510.469 124.587 509.033C123.604 507.521 123.074 505.933 123.074 504.194V436.068C123.074 434.253 123.604 432.59 124.587 431.229C125.57 429.868 126.779 429.112 128.216 429.112L128.292 428.129L103.34 428.205Z" fill="#AD9554"/>
</svg>
