<svg width="558" height="558" viewBox="0 0 558 558" fill="none" xmlns="http://www.w3.org/2000/svg">
<g clip-path="url(#clip0_383_669)">
<path d="M331.711 428.926C334.422 429.488 334.32 429.641 335.676 430.305C337.467 431.123 339.232 432.579 339.897 434.52C340.869 434.673 341.764 434.111 342.506 433.626C345.166 431.506 347.699 428.696 346.957 425.197C346.701 424.226 346.241 423.639 345.243 422.592C341.099 419.348 335.19 419.45 330.176 419.859C330.176 419.859 329.997 419.859 329.434 419.859C325.29 420.012 321.069 419.935 317.769 417.662C313.395 414.265 312.73 408.595 310.479 404.049C309.839 401.903 309.225 399.732 308.662 397.561C304.569 382.313 301.807 366.809 300.604 350.769C300.604 350.463 300.604 349.978 301.014 350.131C304.902 353.043 309.2 354.83 313.983 355.571C316.337 355.903 319.176 355.98 320.711 354.115C318.511 352.098 315.672 350.31 313.574 348.215C310.402 344.895 307.793 341.14 305.721 337.105C300.221 326.428 298.584 313.785 300.937 301.755C295.923 297.72 291.523 293.838 286.919 289.623C282.672 285.46 278.4 281.169 274.461 276.623C266.684 267.683 260.186 257.824 257.782 246.356C257.552 245.309 257.373 244.262 257.245 243.215C257.321 241.503 256.503 239.256 257.884 237.8C258.14 237.723 258.6 237.647 258.779 237.876C259.777 240.737 260.877 243.572 262.105 246.382C263.563 249.702 265.175 252.946 266.965 256.113C271.11 263.826 276.942 270.416 283.286 276.623C293.416 286.558 304.876 295.523 313.088 306.608C316.26 310.746 318.511 315.446 320.532 320.222C322.246 325.534 323.423 331.307 323.653 337.105C323.755 339.863 323.653 342.622 323.295 345.38C323.627 345.789 323.934 346.198 324.523 346.044C325.904 345.15 326.057 343.618 326.62 342.239C327.055 340.655 327.388 339.071 327.695 337.488C327.695 337.488 327.695 337.411 327.695 337.36C327.695 337.284 327.72 337.207 327.746 337.13C330.406 321.116 325.802 304.744 316.567 291.82C312.09 286.15 307 281.246 301.73 276.623C290.628 266.866 278.733 258.361 270.317 246.382C269.114 244.67 267.989 242.908 266.94 241.044C266.454 239.843 265.226 238.208 266.607 237.008C266.94 236.931 267.426 236.829 267.758 237.085L271.979 241.605C273.693 243.266 275.484 244.849 277.3 246.382C289.323 256.419 303.342 263.316 319.892 262.83C329.536 261.528 338.208 256.598 345.192 249.702L345.448 248.732C345.294 248.323 344.962 248.093 344.629 248.016C336.546 248.348 328.769 247.735 321.248 246.382C315.493 245.36 309.89 243.879 304.493 242.091C299.556 240.15 294.593 238.438 290.142 235.45C290.065 235.041 290.065 234.479 290.295 234.173C299.709 233.841 309.993 230.597 315.262 221.939C315.186 221.377 315.672 220.483 314.853 220.253C307.383 220.815 299.274 220.891 292.06 219.359C291.498 219.359 291.318 218.874 291.318 218.388C291.395 218.056 291.805 217.903 292.06 217.648C295.744 217.443 299.325 216.958 302.753 216.141C308.586 214.736 313.983 212.309 318.741 208.427C320.199 207.303 320.609 205.515 321.99 204.443C322.732 202.987 323.934 201.531 323.116 199.743C314.853 201.122 306.744 203.217 298.558 203.625C296.537 203.702 294.03 203.804 291.984 203.472C291.574 202.987 291.984 202.425 292.316 202.093C297.023 200.79 301.807 199.999 306.258 198.211C312.576 195.861 318.895 193.434 323.525 187.917C324.574 185.644 326.774 183.473 325.802 180.791C325.392 180.383 324.983 180.051 324.344 180.23C315.262 184.035 305.695 186.947 295.718 188.658C294.414 188.582 293.032 189.552 292.06 188.403C291.421 187.764 292.623 187.917 292.47 187.356C302.932 183.805 313.395 180.408 321.913 172.695C324.906 169.451 327.516 165.16 326.697 160.716C326.441 160.077 325.878 159.439 325.085 159.515C317.795 162.989 310.479 166.386 302.702 168.813C301.73 168.813 300.835 169.86 299.863 169.068C299.607 168.736 299.607 168.174 299.939 167.944C306.002 163.704 312.218 159.694 318.409 155.659C324.267 151.827 330.125 147.996 335.829 143.91C339.794 140.921 343.939 137.601 347.98 134.613C366.399 120.131 382.924 101.971 396.38 82.3038C398.17 79.6986 399.705 76.9657 401.573 74.4371C408.633 61.4876 416.333 48.4615 419.096 33.7241C420.144 25.4742 417.382 16.9689 411.882 10.558C411.165 9.91949 410.5 9.10217 409.452 9.02554C408.863 9.17879 408.786 9.84287 408.633 10.3026C408.965 14.849 407.814 18.6546 407.405 22.5369C406.663 27.7985 404.745 32.8301 403.44 37.9129C396.789 59.6997 386.326 79.673 371.745 98.2416C354.043 121.995 329.971 139.031 305.721 155.633C301.96 158.187 298.225 160.741 294.491 163.321C287.839 168.506 280.881 173.589 276.737 181.123C273.975 186.232 271.8 192.055 269.754 197.495C267.758 203.957 264.817 210.7 260.391 216.141C256.682 220.713 251.975 224.339 245.989 226.076C244.761 226 242.919 226.97 242.101 225.591C241.845 224.774 242.254 224.135 242.843 223.65C246.705 222.015 249.826 219.359 252.282 216.141C254.431 213.331 256.068 210.062 257.193 206.716C261.159 194.89 263.921 182.503 270.086 171.571C273.182 165.722 276.968 160.486 281.188 155.633C291.088 144.267 303.418 134.996 314.827 125.035C317.82 122.915 320.66 120.003 323.576 117.73C337.364 105.444 350.411 91.4221 359.748 75.6375C363.329 69.15 366.399 62.356 367.294 54.9234C368.829 46.2649 367.499 36.3293 360.157 31.6041C357.65 29.995 355.143 27.492 351.971 27.8751C351.331 28.0283 350.999 28.6158 351.255 29.2543C355.22 34.9245 356.269 43.251 354.248 49.8918C349.541 66.7236 339.667 81.5376 328.13 95.1511C313.216 113.694 293.518 127.538 276.072 143.807C273.796 146.234 270.956 148.405 269.191 151.163C267.963 152.466 266.531 154.177 265.405 155.633C265.405 155.633 265.303 155.786 265.251 155.863C265.175 155.94 265.124 156.016 265.047 156.118C260.468 162.274 257.193 169.221 254.61 176.194C251.361 185.976 249.263 196.193 246.577 206.154C246.168 208.58 244.787 210.522 243.994 212.718C243.124 213.995 242.05 215.528 240.643 216.141C240.054 216.396 239.44 216.498 238.724 216.345C238.57 216.268 238.417 216.217 238.264 216.141C236.115 215.042 234.887 212.642 234.426 210.445C230.052 190.931 239.364 173.538 251.361 159.286C252.384 158.06 253.407 156.834 254.456 155.659C261.696 147.332 269.549 139.414 275.202 130.219C279.347 123.349 280.805 113.464 276.175 106.568C274.793 103.427 271.8 101.153 268.884 99.7741C268.628 99.4421 268.628 99.059 268.884 98.7269C271.468 98.0884 273.821 99.2888 276.251 99.391C282.084 100.106 288.505 99.2122 293.672 97.1178C297.074 95.4065 300.886 92.9035 301.858 89.0212C302.114 87.642 302.83 85.6242 301.295 84.577C300.067 84.0917 300.4 85.7008 299.837 86.1861C297.151 89.0212 293.032 90.1706 289.042 90.1706C279.398 89.2 270.623 86.1861 261.798 83.2744C255.377 81.3332 249.238 79.1367 242.663 77.9362C235.68 77.1955 226.215 75.5098 221.585 82.0739C220.613 83.683 221.022 85.4709 221.841 87.1056C217.952 87.5142 213.885 87.361 209.843 87.7441C208.871 84.8324 207.976 81.9973 206.697 79.3155C204.42 79.8007 202.245 80.5925 199.713 80.286C201.657 82.7891 203.192 85.5476 203.678 88.6125C198.076 90.3238 191.834 92.2649 188.508 97.3732C187.869 99.059 186.385 100.694 186.795 102.558C192.218 100.208 197.897 98.3438 204.215 98.0373L204.548 98.2927C204.548 101.358 203.729 104.601 202.757 107.513C200.173 108.228 197.564 107.845 195.057 108.075C195.211 108.484 194.648 108.892 194.801 109.352C195.211 112.264 198.766 112.034 200.301 113.311C198.766 116.376 196.822 119.62 194.392 122.148C192.039 119.952 188.867 118.087 185.643 118.266C179.402 117.704 174.695 122.48 169.093 124.013C167.788 124.498 166.33 123.604 165.204 123.374C164.718 124.907 165.767 126.516 167.072 127.487C168.12 127.895 169.016 128.942 170.141 128.687C171.676 129.504 173.876 129.428 175.82 129.351C180.118 128.942 183.264 125.877 187.255 124.498C188.969 124.268 190.734 123.119 192.448 124.166C192.115 125.29 190.734 125.954 189.864 126.848C184.441 130.807 177.713 132.671 174.132 138.904C173.237 141.33 173.16 144.242 174.209 146.668C175.999 149.503 179.069 151.138 182.395 150.653C182.395 150.244 182.164 149.912 181.985 149.605C180.604 145.161 185.388 142.249 188.15 139.644C190.095 137.448 191.476 134.204 190.018 131.318C191.885 129.785 193.65 128.329 195.697 126.874C196.848 129.785 198.383 132.544 200.89 134.894C203.806 137.397 208.283 138.444 211.915 136.758C216.289 134.817 220.664 130.296 220.357 125.188C218.234 127.384 215.496 128.917 212.401 129.479C211.097 127.946 209.971 127.052 208.436 125.673C205.776 123.655 202.194 123.017 198.792 123.655C201.708 120.258 203.908 116.606 206.083 112.826C211.199 112.34 216.289 111.293 221.406 110.067C227.801 108.765 235.501 109.097 239.645 114.614C240.463 115.508 241.103 116.81 241.768 118.164C244.531 126.031 239.645 133.233 234.401 138.801C228.389 144.906 221.764 150.372 215.01 155.735C200.711 167.101 185.899 178.033 175.616 193.537C173.032 196.934 170.679 200.995 168.965 205.209C167.123 208.657 165.614 212.361 164.437 216.243C161.521 225.795 160.651 236.395 162.032 246.484C163.03 253.61 165.153 260.532 168.479 266.662C170.193 270.237 172.316 273.583 174.746 276.75C184.927 289.93 200.685 299.482 215.343 305.28C231.971 312.176 249.315 316.697 267.324 318.894L267.656 319.226C269.882 324.845 271.365 331.026 271.749 337.258C272.107 343.081 271.519 348.956 269.677 354.524C269.421 355.188 268.858 355.903 269.114 356.721C271.877 355.75 274.614 353.809 276.661 351.791C278.195 350.744 278.937 349.135 280.242 347.832C280.549 347.756 280.728 347.909 280.881 348.164C283.235 365.175 287.302 382.007 293.416 397.791C293.416 397.791 293.467 397.868 293.467 397.919C293.467 397.944 293.467 397.995 293.518 398.021C294.925 401.597 296.435 405.147 298.072 408.646C298.967 411.481 301.73 413.652 300.988 416.743C300.425 417.458 299.53 418.429 298.481 418.352C297.279 418.275 295.897 418.199 294.849 417.867C291.523 416.973 288.274 415.44 285.026 414.546C280.165 413.729 273.182 410.97 269.14 415.44C268.5 416.666 268.5 418.199 269.063 419.476C267.605 419.808 265.993 419.399 264.356 419.552C260.877 419.476 257.884 421.57 256.324 424.584C255.838 426.04 255.838 428.236 256.733 429.514C257.296 430.484 258.345 431.046 259.419 431.123C259.752 430.867 259.828 430.484 259.905 429.999C262.003 425.938 266.786 425.299 271.084 425.223C271.416 425.299 271.826 425.631 271.647 426.04C270.444 427.087 268.884 427.649 267.912 428.952C266.684 430.663 266.044 432.681 267.093 434.775C267.989 436.486 269.703 437.763 271.8 437.763C272.568 437.763 272.516 438.095 272.849 437.763C272.593 436.231 273.591 434.596 274.793 433.396C279.986 429.36 286.56 428.543 293.211 427.904C305.542 426.857 319.765 426.602 331.736 429.105M208.845 106.849C209.229 105.751 209.817 103.784 210.201 101.766C210.508 100.183 210.636 99.9018 210.738 97.6797C218.873 97.6797 222.889 97.9862 222.889 100.54C222.889 104.04 215.42 105.904 208.82 106.849M234.989 95.2277C233.787 95.2277 232.636 95.0745 231.664 94.3338C230.359 93.1334 230.282 91.09 230.768 89.5576C231.254 88.6636 232.559 89.3021 233.454 89.3021C237.982 90.1195 242.612 90.8346 246.91 92.1372C247.166 92.2905 246.987 92.6225 246.91 92.8524C242.791 93.3377 239.133 94.8702 234.989 95.2022M244.224 283.928C238.622 282.14 233.147 279.688 228.006 276.597C220.229 271.923 213.245 265.793 207.822 258.335C205.111 254.683 202.859 250.647 201.094 246.331C197.206 236.88 195.697 226.255 197.078 216.09C197.692 211.543 198.894 207.074 200.711 202.859C203.218 197.112 206.466 191.442 210.201 186.513C213.68 182.554 217.108 178.339 221.713 175.249C222.122 175.249 222.531 175.249 222.685 175.658V176.475C219.999 180.434 217.824 184.393 215.88 188.786C212.069 197.342 209.408 206.741 209.076 216.09C208.999 218.031 209.024 220.023 209.178 221.964C209.638 230.674 211.608 238.745 214.831 246.331C216.75 250.826 219.078 255.142 221.841 259.28C222.813 260.429 223.452 261.885 224.603 262.754C228.517 268.041 233.326 272.562 238.417 276.572C241.231 278.794 244.147 280.837 247.038 282.753C247.677 283.34 248.982 283.8 248.828 284.694C247.37 285.664 245.759 284.209 244.301 283.902" fill="#E31F26"/>
<path d="M356.78 90.9368C338.285 117.168 310.479 133.77 288.095 156.016C286.791 157.728 284.693 158.928 284.514 161.201C284.77 161.457 284.923 161.763 285.333 162.018C285.972 162.172 286.381 162.018 287.123 161.865C293.697 156.272 300.272 151.266 307.46 146.311C313.062 142.275 318.639 138.393 324.318 134.485C344.092 119.747 362.587 102.43 374.585 80.4137C380.11 71.4232 383.666 58.3204 377.654 48.5125C377.015 47.3887 376.273 46.2394 375.378 45.3454C374.738 45.09 373.996 45.422 373.843 45.9073C373.843 47.7718 374.073 49.5597 374.073 51.3987C372.206 65.9829 365.324 79.2644 356.729 90.9113" fill="#E31F26"/>
<path d="M228.978 433.932C230.026 434.264 230.999 433.6 231.894 433.115C232.047 432.962 232.15 432.91 232.533 432.553C234.964 430.612 235.782 427.93 235.782 425.095C235.705 422.362 233.096 420.497 230.922 419.68C230.436 419.476 230.282 419.425 229.771 419.271C224.424 417.637 218.489 418.301 212.734 418.377C211.122 418.122 208.999 418.454 208.257 416.692C207.95 415.644 208.411 414.419 208.922 413.525C212.631 408.161 216.494 402.848 220.382 397.561C226.727 388.903 233.122 380.295 239.005 371.509C243.61 364.613 246.629 356.133 246.859 348.036C250.108 351.28 253.996 353.937 258.217 355.648C259.266 355.903 260.57 356.21 261.542 355.903C257.782 350.207 255.198 343.822 253.638 337.105C252.487 332.124 251.873 326.939 251.745 321.754C249.57 321.116 247.14 321.014 244.94 320.452C236.601 318.511 228.568 315.19 221.022 311.538C220.715 320.018 219.206 328.88 216.724 337.207C215.445 341.523 213.859 345.789 212.017 349.901C219.18 349.901 225.064 345.048 230.103 340.91C228.159 348.93 225.396 355.162 221.661 364C216.008 377.409 209.997 387.728 203.857 397.817C201.785 401.214 199.687 404.611 197.487 408.186C196.029 410.689 194.239 413.678 191.246 415.057C182.906 417.33 176.971 410.613 168.862 411.328C165.025 411.992 163.746 412.707 162.467 414.086C161.725 415.21 161.828 416.59 162.314 417.816C157.76 417.407 152.823 417.407 149.267 420.089C147.732 421.545 146.991 423.741 147.63 425.912C148.116 427.291 149.011 428.492 150.623 429.079C152.567 425.35 156.532 423.665 160.523 422.668C162.211 422.439 164.002 422.106 165.639 422.745C166.048 423 165.716 423.46 165.383 423.716C163.772 424.533 161.981 425.503 160.676 426.959C159.372 428.671 158.246 430.765 158.886 432.962C160.062 435.771 162.953 436.844 165.69 436.512C165.921 436.18 165.614 435.873 165.614 435.541C165.281 432.476 168.351 430.842 170.73 429.539C178.506 426.857 187.357 426.857 195.85 426.627C202.911 426.219 210.048 426.704 217.108 427.189C221.252 427.674 225.396 428.39 228.543 430.995C229.285 431.736 229.438 433.038 228.952 433.907" fill="#E31F26"/>
<path d="M353.199 381.649C354.913 382.058 355.552 380.04 356.448 379.069C360.899 371.713 365.196 364 367.729 355.673C369.699 349.697 370.85 343.413 371.08 337.105C371.719 321.167 366.782 305.025 355.808 293.25C349.464 285.792 341.841 280.658 333.655 276.597C321.811 270.774 308.739 267.198 296.639 262.243C294.286 261.426 292.265 259.816 289.835 259.408C289.502 259.663 289.425 260.046 289.605 260.455C296.179 266.432 303.035 271.412 309.788 276.597C320.046 284.464 330.125 292.816 338.797 305.944C344.45 314.501 347.801 319.43 351.204 329.11C352.176 331.843 352.994 334.5 353.71 337.105C357.727 351.817 357.701 364.741 353.634 378.405C353.634 379.631 352.585 380.423 353.224 381.649" fill="#E31F26"/>
<path d="M355.731 226.843C343.964 233.483 331.634 238.668 317.871 240.379C317.795 240.635 317.641 240.941 317.871 241.197C320.481 241.682 323.064 242.244 325.827 242.397C332.708 242.806 339.539 243.036 346.164 241.912C349.336 238.668 352.099 235.041 354.683 231.389C355.169 230.01 356.806 228.886 356.473 227.251C356.396 226.919 355.987 226.919 355.731 226.843Z" fill="#E31F26"/>
<path d="M374.354 196.423C371.924 197.47 369.98 199.564 367.78 200.944C357.701 207.457 346.983 212.616 335.625 216.09C330.713 217.622 325.674 218.823 320.506 219.717L320.43 220.61C321.248 228.069 314.52 233.739 308.586 236.804V237.289L309.635 237.442C314.495 237.034 319.202 235.833 323.755 234.786C335.983 230.75 347.904 225.463 358.213 216.984C358.571 216.703 358.955 216.422 359.338 216.115C364.608 212.029 369.699 206.869 373.689 201.352C374.099 199.973 375.633 198.747 375.403 197.215C375.147 196.883 374.84 196.321 374.354 196.397" fill="#E31F26"/>
<path d="M387.349 163.704C383.538 166.207 381.184 169.451 377.296 171.877C372.512 175.607 367.652 178.85 362.613 181.992C351.587 188.301 340.255 193.894 328.232 197.853C328.641 203.83 326.518 209.679 321.734 213.638C321.811 214.123 321.018 213.97 321.018 214.378C321.018 214.532 321.018 214.787 321.171 214.94C331.301 213.076 340.792 208.938 350.129 204.162C362.689 196.627 375.019 187.815 383.615 175.504C385.891 172.184 387.912 168.915 388.654 164.828C388.603 163.934 388.091 163.628 387.349 163.704Z" fill="#E31F26"/>
<path d="M426.744 48.3337C426.258 45.9839 426.335 43.4043 425.133 41.3609C424.902 40.8757 424.084 40.8757 423.751 41.2843C422.293 44.8601 421.065 48.487 419.607 51.9606C412.803 65.9573 405.333 79.9795 395.28 92.2649C387.989 102.481 378.499 110.961 370.389 120.284C370.313 120.616 370.134 121.178 370.389 121.484C370.799 121.97 371.515 121.816 371.924 121.816L375.889 118.649C393.003 104.091 409.375 88.7658 422.114 69.9162C426.156 63.7607 427.614 55.9962 426.719 48.2827" fill="#E31F26"/>
<path d="M400.319 127.18C390.445 137.805 379.547 147.256 367.959 155.608C356.217 164.062 343.76 171.341 330.918 177.548C332.299 181.915 331.557 186.768 329.127 190.753C328.564 191.723 327.516 192.464 327.26 193.511C327.516 193.996 328.002 193.588 328.385 193.588C349.132 184.572 369.75 172.746 385.968 155.633C388.398 153.079 390.701 150.397 392.926 147.613C397.224 141.56 401.675 135.302 402.238 127.844C402.084 126.874 400.933 126.874 400.293 127.206" fill="#E31F26"/>
<path d="M419.121 81.2822C395.842 111.855 364.327 136.528 332.274 155.608C331.813 155.863 331.378 156.144 330.918 156.399C331.071 157.293 331.557 158.187 331.967 159.081C333.425 163.296 332.606 168.225 330.022 171.724C329.869 172.031 329.946 172.363 330.176 172.516C339.513 167.306 348.697 161.712 357.624 155.633C374.15 144.369 389.626 131.471 402.903 116.274C409.963 107.615 415.796 98.7014 419.94 88.7402C420.682 86.4671 421.628 84.2194 421.551 81.6908C421.321 80.4648 419.761 80.3882 419.121 81.2822Z" fill="#E31F26"/>
<path d="M372.512 525.728C370.133 528.027 368.675 529.278 365.861 530.989C360.668 534.131 357.087 535.051 351.076 535.791C348.083 536.149 346.343 536.2 343.35 535.996C340.357 535.766 338.643 535.536 335.804 534.642C331.404 533.288 328.871 532.062 325.367 529.048C323.013 527.031 321.939 525.575 320.148 523.021C318.792 521.079 318.102 519.93 317.053 517.81C315.825 515.333 315.288 513.851 314.495 511.195C313.676 508.487 313.292 506.929 312.934 504.145C312.704 502.23 312.653 501.157 312.627 499.242C312.525 491.222 313.113 486.241 316.746 479.115C317.769 477.097 318.409 475.973 319.764 474.134C320.788 472.73 321.402 471.989 322.629 470.737C325.315 467.979 327.106 466.625 330.534 464.863C338.157 460.904 343.99 460.597 352.406 462.283C360.31 463.867 364.71 466.574 370.619 472.04C371.771 473.087 372.436 474.083 373.408 474.849C373.996 474.645 374.457 474.313 374.968 473.955C374.968 473.113 373.408 455.898 373.075 455.361C371.259 454.851 369.647 454.519 367.422 454.033C358.801 452.245 353.813 450.866 345.013 451.3C335.062 451.786 329.076 452.884 320.25 457.456C319.33 457.916 318.818 458.196 317.923 458.733C316.925 459.32 316.362 459.678 315.416 460.342C313.676 461.568 312.755 462.334 311.195 463.79C310.504 464.429 310.146 464.812 309.481 465.501C307.716 467.34 306.718 468.413 305.183 470.456C301.346 475.59 299.888 479.14 297.995 485.245C297.279 487.544 296.946 488.846 296.511 491.196C295.514 496.764 295.897 500.059 296.204 505.729C296.256 506.47 296.256 506.878 296.307 507.594C296.742 512.523 297.739 515.281 299.683 519.853C300.937 522.816 301.781 524.476 303.546 527.158C306.616 531.781 308.944 534.105 313.344 537.502C317.488 540.721 320.199 542.151 325.06 544.143C335.65 548.485 342.89 548.741 354.248 547.31C356.78 546.978 358.213 546.748 360.72 546.136C362.408 545.727 363.329 545.446 364.992 544.935C368.394 543.913 371.029 542.892 373.612 541.947C373.689 541.666 375.122 525.6 375.429 525.217C375.045 524.86 374.661 524.4 374.124 524.221C373.536 524.604 373.203 525.217 372.589 525.805" fill="#E31F26"/>
<path d="M189.736 524.911L188.815 524.144L188.662 524.298C188.457 524.349 188.508 524.579 188.304 524.579C184.006 528.486 179.223 530.964 174.004 532.777C168.555 534.948 162.39 535.255 156.251 535.204V469.154C156.251 467.442 156.788 465.68 157.3 463.943C158.144 460.393 160.318 456.919 163.362 454.825C163.567 454.672 163.669 454.57 163.899 454.493C163.976 454.416 164.13 454.289 164.13 454.212C163.746 453.625 163.49 452.935 163.03 452.424H134.712C134.481 452.96 133.893 453.471 133.97 454.084C138.114 458.58 139.853 464.454 139.777 470.329V523.378C139.879 525.932 139.649 528.665 139.137 531.27C138.088 535.638 136.681 539.699 133.612 543.147C133.509 543.224 133.356 543.505 133.305 543.556C132.819 544.118 132.307 544.373 132 544.935C132.128 545.548 132.435 545.982 132.512 546.544H182.241C182.804 546.544 182.804 546.544 183.06 545.931C184.799 541.104 186.385 536.251 188.125 531.475C188.662 529.687 189.327 527.95 190.018 526.213C190.069 525.932 190.325 525.753 190.222 525.472C190.094 525.217 189.711 525.243 189.762 524.936" fill="#E31F26"/>
<path d="M265.609 508.717C265.865 508.998 266.198 509.177 266.223 509.458C266.223 509.458 268.193 508.717 268.193 508.488C268.193 502.639 268.142 489.612 268.193 486.267C268.065 485.96 267.016 485.143 266.709 485.015C265.482 486.803 263.691 487.927 261.363 489.204C258.984 490.506 257.423 490.889 254.789 491.477C251.898 492.115 250.184 492.09 247.191 492.192C245.682 492.243 244.607 492.115 243.354 492.192C243.354 492.192 243.277 466.881 243.405 463.203C243.635 463.254 243.789 462.973 244.019 462.973C245.349 463.177 248.317 463.1 251.028 463.356C254.098 463.637 255.837 463.765 258.856 464.403C260.57 464.761 261.516 464.991 263.179 465.527C264.407 465.91 265.098 466.114 266.275 466.651C268.73 467.749 270.495 468.694 272.03 470.405C271.902 470.865 272.337 470.559 272.542 470.712C272.926 470.456 273.437 470.099 273.923 469.92C274.384 469.639 273.898 469.23 274.077 468.847C273.591 464.914 273.156 460.546 272.695 456.562C272.465 455.208 272.593 453.906 272.414 452.552H221.405C221.047 453.088 220.638 453.599 220.408 454.212C222.071 455.208 223.426 456.792 224.475 458.477C226.445 462.028 227.34 465.961 227.57 470.201C227.622 474.211 227.494 526.034 227.57 526.315C227.417 531.858 226.24 536.992 223.426 541.385C222.812 542.074 222.301 542.841 221.636 543.505C221.354 544.092 220.587 544.373 220.331 544.961C220.612 545.446 220.689 546.161 221.022 546.697H249.161C249.519 546.059 249.672 545.293 249.928 544.68C248.445 543.403 247.242 542.228 246.014 540.287C244.684 538.116 243.661 535.536 243.661 534.182V502.843C248.393 502.69 252.231 503.098 257.475 504.452C258.114 504.605 258.498 504.707 259.137 504.912C259.777 505.142 260.109 505.295 260.723 505.576C262.77 506.521 264.023 507.108 265.558 508.768" fill="#E31F26"/>
<path d="M269.626 533.314C265.891 533.314 262.847 536.353 262.847 540.082C262.847 543.811 265.865 546.851 269.626 546.851C273.386 546.851 276.405 543.811 276.405 540.082C276.405 536.353 273.386 533.314 269.626 533.314Z" fill="#E31F26"/>
<path d="M201.427 533.314C197.692 533.314 194.648 536.353 194.648 540.082C194.648 543.811 197.692 546.851 201.427 546.851C205.162 546.851 208.206 543.811 208.206 540.082C208.206 536.353 205.162 533.314 201.427 533.314Z" fill="#E31F26"/>
<path d="M391.852 533.314C388.117 533.314 385.073 536.353 385.073 540.082C385.073 543.811 388.091 546.851 391.852 546.851C395.612 546.851 398.631 543.811 398.631 540.082C398.631 536.353 395.612 533.314 391.852 533.314Z" fill="#E31F26"/>
<path d="M332.862 347.934C331.327 349.467 330.483 351.459 330.483 353.528C330.483 355.597 331.276 357.487 332.76 358.994C334.269 360.501 336.187 361.318 338.285 361.318C340.383 361.318 342.301 360.501 343.836 358.994C345.32 357.563 346.113 355.648 346.113 353.502C346.113 351.357 345.294 349.467 343.862 348.011C342.352 346.478 340.408 345.687 338.285 345.687C336.162 345.687 334.294 346.453 332.862 347.909M343.171 348.752C344.425 350.003 345.09 351.689 345.09 353.579C345.09 355.469 344.399 357.053 343.12 358.304C341.764 359.607 340.101 360.296 338.26 360.296C336.52 360.296 334.806 359.581 333.527 358.279C332.248 356.976 331.532 355.29 331.532 353.528C331.532 351.765 332.274 350.003 333.604 348.649C334.832 347.398 336.52 346.734 338.336 346.734C340.153 346.734 341.866 347.423 343.171 348.752Z" fill="#E31F26"/>
<path d="M336.853 354.039H338.515L340.332 357.819H342.199L340.229 353.783C341.508 353.528 342.25 352.659 342.25 351.408C342.25 349.799 341.048 348.981 338.566 348.981H335.215V357.819H336.878V354.039H336.853ZM336.853 350.054H338.234C339.794 350.054 340.511 350.488 340.511 351.587C340.511 352.685 339.794 352.991 338.259 352.991H336.853V350.054Z" fill="#E31F26"/>
</g>
<defs>
<clipPath id="clip0_383_669">
<rect width="295" height="539" fill="white" transform="translate(132 9)"/>
</clipPath>
</defs>
</svg>
