<?xml version="1.0" encoding="UTF-8"?>
<svg version="1.1" xmlns="http://www.w3.org/2000/svg" width="558" height="558">
<path d="M0 0 C1.98 0 3.96 0 6 0 C6 0.99 6 1.98 6 3 C6.66 3 7.32 3 8 3 C9 5 9 5 9 13 C18.9 13 28.8 13 39 13 C39 10.36 39 7.72 39 5 C39.66 5 40.32 5 41 5 C41 3.68 41 2.36 41 1 C41.99 1 42.98 1 44 1 C44 2.32 44 3.64 44 5 C44.66 5 45.32 5 46 5 C48.7868507 11.80949945 49.40233453 17.68967353 49.25 25 C49.23356445 26.65189331 49.23356445 26.65189331 49.21679688 28.3371582 C49.17594591 31.7142453 49.11729187 35.09023252 49.05004883 38.46685791 C48.99353323 41.32730514 48.94100028 44.187813 48.88867188 47.04833984 C48.6234585 61.36635839 48.31380141 75.68281053 48 90 C18.63 90 -10.74 90 -41 90 C-42.19877676 36.80428135 -42.19877676 36.80428135 -42 13 C-41.34 13 -40.68 13 -40 13 C-40.061875 11.948125 -40.12375 10.89625 -40.1875 9.8125 C-39.9922214 5.84183507 -39.29674932 4.15803031 -37 1 C-34 2 -34 2 -32.8125 3.625 C-32 6 -32 6 -32 13 C-22.43 13 -12.86 13 -3 13 C-2.67 10.69 -2.34 8.38 -2 6 C-1.37743972 3.98583438 -0.72433347 1.97984481 0 0 Z M1 9 C0.79375 10.299375 0.5875 11.59875 0.375 12.9375 C-0.65775872 17.65549845 -2.65366512 20.97692881 -5.46484375 24.859375 C-8.60090655 29.23230736 -10.37844321 32.12573409 -10.34057617 37.61645508 C-10.34034958 38.71721878 -10.34012299 39.81798248 -10.33988953 40.95210266 C-10.32440567 42.1293541 -10.30892181 43.30660553 -10.29296875 44.51953125 C-10.28872391 45.73323898 -10.28447906 46.94694672 -10.28010559 48.19743347 C-10.26332908 52.0693491 -10.22567733 55.94074199 -10.1875 59.8125 C-10.1724519 62.4394456 -10.15876371 65.06639937 -10.14648438 67.69335938 C-10.11342881 74.12908424 -10.06323883 80.56450477 -10 87 C-9.34 87 -8.68 87 -8 87 C-8 82.71 -8 78.42 -8 74 C-4.37 74 -0.74 74 3 74 C3 78.29 3 82.58 3 87 C7.62 87 12.24 87 17 87 C17.09895449 79.13464012 17.17151132 71.26964348 17.21972656 63.40380859 C17.23756825 60.72836625 17.26711049 58.05377984 17.30175781 55.37841797 C17.35033506 51.53081429 17.37298365 47.68379213 17.390625 43.8359375 C17.41127014 42.64197357 17.43191528 41.44800964 17.45318604 40.21786499 C17.45490038 33.85862644 17.33515409 29.82267142 13 25 C12.67 26.32 12.34 27.64 12 29 C10.35 29 8.7 29 7 29 C7 27.35 7 25.7 7 24 C8.32 24 9.64 24 11 24 C9.87548273 21.0280615 8.77706209 18.66559313 7 16 C6.60612212 13.67612053 6.26513915 11.34206251 6 9 C4.35 9 2.7 9 1 9 Z M-38 42 C-38 56.85 -38 71.7 -38 87 C-30.08 87 -22.16 87 -14 87 C-14 72.15 -14 57.3 -14 42 C-21.92 42 -29.84 42 -38 42 Z M21 42 C21 56.85 21 71.7 21 87 C28.59 87 36.18 87 44 87 C44 72.15 44 57.3 44 42 C36.41 42 28.82 42 21 42 Z " fill="#7E7E7E" transform="translate(276,141)"/>
<path d="M0 0 C7.92 0 15.84 0 24 0 C26.73003373 6.14257589 29.33637115 12.2478669 31.79882812 18.4921875 C33.0086386 21.54719963 34.2510129 24.57670214 35.5625 27.58984375 C37.25565626 31.6064889 38.5469291 35.68124814 39.83984375 39.83984375 C41.26640665 43.7256666 43.08625582 47.33494993 45 51 C45.34256836 50.13310547 45.68513672 49.26621094 46.03808594 48.37304688 C47.32494549 45.12157593 48.61502567 41.87142029 49.90722656 38.62207031 C50.46318675 37.22218446 51.01790197 35.82180345 51.57128906 34.42089844 C54.45293342 27.12836164 57.41488123 19.98154708 61 13 C61.94998656 10.68003281 62.86975642 8.34731622 63.75 6 C64.4925 4.02 65.235 2.04 66 0 C72.27 0 78.54 0 85 0 C86.1369508 5.68475401 85.48664651 6.16362996 83 11 C82.5355687 14.14418401 82.5355687 14.14418401 82.56762695 17.46435547 C82.54783279 18.72520966 82.52803864 19.98606384 82.50764465 21.28512573 C82.50087647 22.64581146 82.49442943 24.00649883 82.48828125 25.3671875 C82.4714205 26.7711035 82.45326838 28.17500452 82.43388367 29.57888794 C82.38652849 33.25800905 82.35662601 36.93706946 82.33044434 40.61639404 C82.30056524 44.37719711 82.25406033 48.13779131 82.20898438 51.8984375 C82.12311612 59.26553889 82.05723657 66.63261033 82 74 C77.71 74 73.42 74 69 74 C68.67 56.84 68.34 39.68 68 22 C63.90390724 30.11380312 63.90390724 30.11380312 60.5 38.375 C58.57017089 43.51721547 56.53204218 48.59396363 54.40234375 53.65625 C52.6450294 57.8463923 50.91563168 62.04775545 49.1875 66.25 C48.87312988 67.0140918 48.55875977 67.77818359 48.23486328 68.56542969 C47.48968551 70.37686126 46.74480959 72.18841701 46 74 C43.69 74 41.38 74 39 74 C31.9255807 56.69547523 24.92579004 39.36466199 18 22 C17.67 39.16 17.34 56.32 17 74 C14.03 74 11.06 74 8 74 C8.0030162 73.20708557 8.00603241 72.41417114 8.00914001 71.597229 C8.03139139 64.12223777 8.02021216 56.64839631 7.97153378 49.17355728 C7.94768506 45.33060087 7.93673828 41.48851188 7.95532227 37.64550781 C7.97278455 33.93614177 7.95629677 30.22833364 7.91632271 26.51915741 C7.90703284 25.1046187 7.90995044 23.68994515 7.92530632 22.27545929 C8.37798115 14.7190643 8.37798115 14.7190643 5.38162231 8.22351074 C3.27784852 6.91215717 3.27784852 6.91215717 0 6 C0 4.02 0 2.04 0 0 Z " fill="#A6252C" transform="translate(17,341)"/>
<path d="M0 0 C5.61 0 11.22 0 17 0 C17 0.66 17 1.32 17 2 C17.99 2.33 18.98 2.66 20 3 C20 3.66 20 4.32 20 5 C20.99 5.33 21.98 5.66 23 6 C23.66666667 7.66666667 24.33333333 9.33333333 25 11 C25.99 11.33 26.98 11.66 28 12 C29.52011626 13.69660916 30.97015146 15.45678036 32.375 17.25 C34.74169478 20.25919955 37.05270716 23.05167369 39.7890625 25.734375 C42 28 42 28 42 30 C42.66 30 43.32 30 44 30 C45.33203125 31.57421875 45.33203125 31.57421875 46.8125 33.6875 C48.69333909 36.2949224 50.46079389 38.46079389 52.75 40.75 C54.79795274 42.79795274 55.91911331 44.3469145 57 47 C57.66 47 58.32 47 59 47 C59.33 47.66 59.66 48.32 60 49 C60.33 35.8 60.66 22.6 61 9 C58.36 8.34 55.72 7.68 53 7 C53 4.69 53 2.38 53 0 C60.59 0 68.18 0 76 0 C76.495 2.475 76.495 2.475 77 5 C76.02659668 5.5261792 75.05319336 6.0523584 74.05029297 6.59448242 C71.62390604 8.63899669 71.04401858 9.77564914 70.42486572 12.93130493 C70.20753025 16.78912698 70.16802542 20.62655127 70.1953125 24.48828125 C70.18405693 25.91605364 70.1701739 27.34380753 70.15377808 28.77153015 C70.11777925 32.51834506 70.11736119 36.2643434 70.12445068 40.0112915 C70.1253644 43.83905595 70.09249378 47.66651566 70.0625 51.49414062 C70.00867503 58.99620208 69.99245124 66.49772256 70 74 C63.3671875 74.296875 63.3671875 74.296875 60.0625 71.625 C58 69 58 69 58 67 C57.34 67 56.68 67 56 67 C54.37890625 65.13671875 54.37890625 65.13671875 52.5625 62.6875 C50.09023023 59.36091496 50.09023023 59.36091496 47.27734375 56.33203125 C46 55 46 55 46 53 C45.34 53 44.68 53 44 53 C41 49.53846154 41 49.53846154 41 47 C40.34 47 39.68 47 39 47 C37.68846237 45.53190495 36.45005925 43.99804216 35.25 42.4375 C32.74236852 39.21144125 30.21298211 36.05533462 27.5 33 C25 30 25 30 25 28 C24.01 27.67 23.02 27.34 22 27 C20.68 25.35 19.36 23.7 18 22 C17.67 39.16 17.34 56.32 17 74 C14.03 74 11.06 74 8 74 C8.0030162 73.20708557 8.00603241 72.41417114 8.00914001 71.597229 C8.03139139 64.12223777 8.02021216 56.64839631 7.97153378 49.17355728 C7.94768506 45.33060087 7.93673828 41.48851188 7.95532227 37.64550781 C7.97278455 33.93614177 7.95629677 30.22833364 7.91632271 26.51915741 C7.90703284 25.1046187 7.90995044 23.68994515 7.92530632 22.27545929 C8.37798115 14.7190643 8.37798115 14.7190643 5.38162231 8.22351074 C3.27784852 6.91215717 3.27784852 6.91215717 0 6 C0 4.02 0 2.04 0 0 Z " fill="#AA262E" transform="translate(465,341)"/>
<path d="M0 0 C1 1 1 1 1.11352539 2.85766602 C1.10828857 3.64842529 1.10305176 4.43918457 1.09765625 5.25390625 C1.09443359 6.10791016 1.09121094 6.96191406 1.08789062 7.84179688 C1.07532227 9.18854492 1.07532227 9.18854492 1.0625 10.5625 C1.05798828 11.46419922 1.05347656 12.36589844 1.04882812 13.29492188 C1.03700225 15.53001314 1.0205222 17.76497437 1 20 C-1.64 20 -4.28 20 -7 20 C-7.15855469 19.22914063 -7.31710938 18.45828125 -7.48046875 17.6640625 C-7.83044922 16.15972656 -7.83044922 16.15972656 -8.1875 14.625 C-8.40792969 13.62726563 -8.62835938 12.62953125 -8.85546875 11.6015625 C-9.76511732 8.800055 -9.76511732 8.800055 -12.4375 7.72265625 C-13.283125 7.48417969 -14.12875 7.24570312 -15 7 C-16.3921875 6.4121875 -16.3921875 6.4121875 -17.8125 5.8125 C-24.33800939 4.14913486 -30.04161807 5.94299884 -35.95703125 8.7734375 C-42.16031674 12.49778099 -44.72922324 18.76634265 -46.73046875 25.43359375 C-48.71965472 33.73995212 -47.99627211 41.93447919 -43.5859375 49.390625 C-41.86669326 51.52542116 -40.09962169 53.23967079 -38 55 C-37.30132812 55.59941406 -36.60265625 56.19882812 -35.8828125 56.81640625 C-28.53340612 62.14905633 -20.66459129 62.08080332 -12 61 C-7.97411001 59.77806565 -5.00114594 57.78468195 -1.6875 55.1875 C-1.130625 54.795625 -0.57375 54.40375 0 54 C0.99 54.33 1.98 54.66 3 55 C3.8125 57.6875 3.8125 57.6875 4 61 C-1.01441988 67.38198893 -8.09088245 71.45568137 -16 73 C-27.11709429 74.09621937 -35.77209694 72.47470759 -46 68 C-46 67.34 -46 66.68 -46 66 C-46.556875 65.773125 -47.11375 65.54625 -47.6875 65.3125 C-50.66159588 63.62449964 -52.72008865 61.53323483 -55 59 C-55 58.34 -55 57.68 -55 57 C-55.66 57 -56.32 57 -57 57 C-62.39090483 47.19835485 -63.70516618 36.24552962 -61.4296875 25.2421875 C-60.73541746 23.08629631 -59.93629277 21.06071912 -59 19 C-58.608125 18.01 -58.21625 17.02 -57.8125 16 C-52.05609284 6.47215367 -45.27364589 1.18550862 -34.671875 -2 C-22.56938985 -4.9856351 -11.82069502 -3.69271288 0 0 Z " fill="#A6252C" transform="translate(228,343)"/>
<path d="M0 0 C2.64 0 5.28 0 8 0 C8.29656494 0.78947021 8.59312988 1.57894043 8.89868164 2.39233398 C10.2839021 6.07508479 11.67203741 9.75672592 13.0625 13.4375 C13.31299103 14.10071259 13.56348206 14.76392517 13.82156372 15.44723511 C17.01027385 23.87895376 20.28502592 32.26182088 23.78295898 40.57080078 C25.78281773 45.35995227 27.45263245 50.20225551 29.02734375 55.14453125 C30.45138701 59.32515623 32.19118021 63.35677424 33.94921875 67.40625 C35 70 35 70 36 74 C31.05 74 26.1 74 21 74 C20.278125 71.9375 19.55625 69.875 18.8125 67.75 C16.4475116 61.06317328 13.80435853 54.51565855 11 48 C10.00033203 48.18175781 10.00033203 48.18175781 8.98046875 48.3671875 C3.92447917 49.28645833 -1.13151042 50.20572917 -6.1875 51.125 C-7.57001953 51.37636719 -7.57001953 51.37636719 -8.98046875 51.6328125 C-9.64691406 51.75398438 -10.31335938 51.87515625 -11 52 C-11.391875 53.216875 -11.78375 54.43375 -12.1875 55.6875 C-14.24277915 61.87309974 -16.62676756 67.93090361 -19 74 C-21.97 74 -24.94 74 -28 74 C-27.44572353 67.95186555 -25.58678093 62.95420424 -23.25 57.375 C-22.51877748 55.59275699 -21.78830847 53.81020464 -21.05859375 52.02734375 C-20.70394043 51.16608887 -20.34928711 50.30483398 -19.98388672 49.41748047 C-18.70552798 46.27646105 -17.50530995 43.11197503 -16.3125 39.9375 C-14.11520869 34.17423425 -11.60099187 28.59032627 -9 23 C-6.80713202 18.19255865 -5.22212551 13.44010429 -3.76171875 8.37890625 C-2.81135406 5.41084423 -1.50544621 2.72414075 0 0 Z M1 20 C0.03619618 22.18522816 -0.92109439 24.37295386 -1.875 26.5625 C-2.27912109 27.47612305 -2.27912109 27.47612305 -2.69140625 28.40820312 C-4.4820312 32.53537528 -5.82840055 36.64608312 -7 41 C-7.33 41.99 -7.66 42.98 -8 44 C-5.91549283 43.7168444 -3.83241633 43.42314331 -1.75 43.125 C-0.58984375 42.96257812 0.5703125 42.80015625 1.765625 42.6328125 C5.24019306 42.10252991 5.24019306 42.10252991 9 40 C6.69 33.4 4.38 26.8 2 20 C1.67 20 1.34 20 1 20 Z " fill="#A5252C" transform="translate(262,341)"/>
<path d="M0 0 C2.9375 -0.5 2.9375 -0.5 6 0 C9.14995971 4.23091103 10.84302367 9.30918845 12.75 14.1875 C13.09780518 15.06809082 13.44561035 15.94868164 13.80395508 16.85595703 C14.87373568 19.56891869 15.93705418 22.28435447 17 25 C17.63390218 26.60815666 18.26800703 28.21623345 18.90234375 29.82421875 C22.03596148 37.79662291 25.0346304 45.79693354 27.875 53.87890625 C29.18208987 57.50517294 30.61181676 61.06810881 32.10546875 64.62109375 C33.25703008 67.68354288 34.10116687 70.85408405 35 74 C30.05 74 25.1 74 20 74 C18.49603227 70.04313253 16.99665953 66.08463077 15.5 62.125 C15.07074219 60.99707031 14.64148438 59.86914062 14.19921875 58.70703125 C13.79316406 57.63066406 13.38710937 56.55429687 12.96875 55.4453125 C12.40317383 53.95281982 12.40317383 53.95281982 11.82617188 52.43017578 C11 50 11 50 11 48 C4.07 47.34 -2.86 46.68 -10 46 C-10.66 48.64 -11.32 51.28 -12 54 C-12.45826272 55.39138018 -12.94161926 56.77536193 -13.47265625 58.140625 C-13.73240234 58.81867188 -13.99214844 59.49671875 -14.25976562 60.1953125 C-14.65711914 61.21238281 -14.65711914 61.21238281 -15.0625 62.25 C-16.57136335 66.14337402 -17.98454813 69.93819254 -19 74 C-22.3 74 -25.6 74 -29 74 C-27.90294339 68.33187417 -26.43030715 63.25614394 -24.203125 57.9375 C-22.71406113 54.30186354 -21.36079025 50.62261877 -20 46.9375 C-18.16089699 41.99277416 -16.25705153 37.11860624 -14.05859375 32.3203125 C-10.06188911 23.56000786 -6.41834429 14.6742574 -3.078125 5.64453125 C-2 3 -2 3 0 0 Z M0 21 C-0.79675015 22.85198794 -1.58714361 24.7067111 -2.375 26.5625 C-2.81585938 27.59503906 -3.25671875 28.62757813 -3.7109375 29.69140625 C-5.02033692 33.05219808 -6.00911899 36.53191647 -7 40 C-2.05 40.33 2.9 40.66 8 41 C7.13821532 36.69107662 6.01835253 32.87995554 4.5625 28.75 C4.13066406 27.50734375 3.69882813 26.2646875 3.25390625 24.984375 C2.33819852 21.89769554 2.33819852 21.89769554 0 21 Z " fill="#A5242C" transform="translate(132,341)"/>
<path d="M0 0 C3.6875 -0.3125 3.6875 -0.3125 7 0 C8.67159185 3.9979547 10.33707717 7.9984334 12 12 C12.27827637 12.66902344 12.55655273 13.33804687 12.84326172 14.02734375 C13.73074797 16.16327704 14.61562365 18.30027739 15.5 20.4375 C15.90810913 21.41867798 15.90810913 21.41867798 16.32446289 22.41967773 C20.90316331 33.50558901 25.06515229 44.7610527 29.25 56 C29.69601562 57.18722656 30.14203125 58.37445313 30.6015625 59.59765625 C31.23964844 61.31275391 31.23964844 61.31275391 31.890625 63.0625 C32.27250977 64.08472656 32.65439453 65.10695313 33.04785156 66.16015625 C34 69 34 69 35 74 C30.38 74 25.76 74 21 74 C19.70552956 70.95949967 18.41434407 67.91767354 17.125 64.875 C16.57779297 63.59109375 16.57779297 63.59109375 16.01953125 62.28125 C14.50315427 58.69708622 13.06946536 55.24058079 11.98828125 51.49609375 C11.23833082 48.91844483 11.23833082 48.91844483 9.22265625 47.79296875 C3.17617112 46.09820348 -2.73087763 45.33982159 -9 45 C-9.226875 46.258125 -9.45375 47.51625 -9.6875 48.8125 C-10.75460106 53.66018767 -12.63218319 57.87347271 -14.76171875 62.33984375 C-15.87969096 64.74154431 -16.84628975 67.13645799 -17.75 69.625 C-19 73 -19 73 -20 74 C-21.51928038 74.07179964 -23.04167482 74.08392007 -24.5625 74.0625 C-25.80193359 74.04896484 -25.80193359 74.04896484 -27.06640625 74.03515625 C-28.02353516 74.01775391 -28.02353516 74.01775391 -29 74 C-28.31700631 69.43192532 -26.6149885 65.4035634 -24.8125 61.1875 C-22.36112719 55.35273851 -20.01023587 49.49759636 -17.8125 43.5625 C-15.06696004 36.16163501 -12.29935976 28.79918925 -9 21.625 C-6.96086987 17.13091713 -5.47968112 12.50917993 -4.02734375 7.796875 C-2.95607747 4.88042383 -1.85859445 2.49466682 0 0 Z M0 20 C-1.00605593 22.60197202 -2.00502525 25.20629362 -3 27.8125 C-3.28617187 28.55048828 -3.57234375 29.28847656 -3.8671875 30.04882812 C-4.13789063 30.76103516 -4.40859375 31.47324219 -4.6875 32.20703125 C-4.93886719 32.8616333 -5.19023437 33.51623535 -5.44921875 34.19067383 C-6.14560906 36.16311143 -6.14560906 36.16311143 -6 39 C0.93 39.495 0.93 39.495 8 40 C6.58485922 32.92429612 3.88336794 26.59055529 1 20 C0.67 20 0.34 20 0 20 Z " fill="#A6252C" transform="translate(435,341)"/>
<path d="M0 0 C7.92 0 15.84 0 24 0 C24.33 1.32 24.66 2.64 25 4 C24.34 4.66 23.68 5.32 23 6 C21.79930259 12.67624571 21.78678312 19.38822129 21.68359375 26.15625 C21.66281265 27.29912476 21.64203156 28.44199951 21.62062073 29.61950684 C21.55558659 33.24628067 21.49645601 36.87312278 21.4375 40.5 C21.39427085 42.96875687 21.3506552 45.43750701 21.30664062 47.90625 C21.19995288 53.93742923 21.09810344 59.96867536 21 66 C25.10444167 65.86132739 29.2084704 65.71283897 33.3125 65.5625 C34.47974609 65.52318359 35.64699219 65.48386719 36.84960938 65.44335938 C37.96787109 65.40146484 39.08613281 65.35957031 40.23828125 65.31640625 C41.26993408 65.27974854 42.30158691 65.24309082 43.36450195 65.20532227 C46.10748258 65.09838758 46.10748258 65.09838758 49 64 C50.03740882 60.74625076 50.03740882 60.74625076 50.6875 56.9375 C51.06455078 55.00197266 51.06455078 55.00197266 51.44921875 53.02734375 C51.63097656 52.02832031 51.81273437 51.02929688 52 50 C53.65 50 55.3 50 57 50 C57 57.92 57 65.84 57 74 C40.83 74 24.66 74 8 74 C8 52.55 8 31.1 8 9 C6.02 8.34 4.04 7.68 2 7 C1.34 6.67 0.68 6.34 0 6 C0 4.02 0 2.04 0 0 Z " fill="#A9252D" transform="translate(296,341)"/>
<path d="M0 0 C7.59 0 15.18 0 23 0 C24 4 24 4 22.59448242 6.95532227 C20.11007243 12.28809591 20.51992058 17.93686318 20.48828125 23.71484375 C20.47033005 24.92572159 20.45237885 26.13659943 20.43388367 27.38417053 C20.37988872 31.2352454 20.34591851 35.08619705 20.3125 38.9375 C20.27931751 41.55535564 20.24482699 44.17319505 20.20898438 46.79101562 C20.12416819 53.19389992 20.05577241 59.59680038 20 66 C22.87638518 65.91256271 25.74984562 65.8056265 28.625 65.6875 C29.43324219 65.66494141 30.24148438 65.64238281 31.07421875 65.61914062 C36.72909144 65.36628046 41.46557168 64.59594357 45.609375 60.3515625 C47.82480112 56.99807502 49.71764645 53.84706066 51 50 C54.37462715 50.54723683 56.08235 51.0549 59 53 C57.3761429 57.11063343 55.670786 61.1845798 53.9375 65.25 C53.5343457 66.20519531 53.5343457 66.20519531 53.12304688 67.1796875 C51.11636132 71.88363868 51.11636132 71.88363868 50 73 C46.89748799 73.08874135 43.8173188 73.11518455 40.71484375 73.09765625 C39.78402481 73.0962413 38.85320587 73.09482635 37.8941803 73.09336853 C34.90858809 73.08775172 31.92306971 73.0751964 28.9375 73.0625 C26.91862087 73.05748716 24.89974057 73.05292388 22.88085938 73.04882812 C17.92054428 73.03777683 12.96028468 73.02050095 8 73 C8.0030162 72.21961365 8.00603241 71.43922729 8.00914001 70.63519287 C8.03139238 63.2779239 8.02021007 55.92182305 7.97153378 48.56470871 C7.94768605 44.7822821 7.93673717 41.00073674 7.95532227 37.21826172 C7.97278595 33.56724112 7.95629425 29.91780319 7.91632271 26.2669754 C7.90703359 24.87476583 7.90994924 23.48241923 7.92530632 22.09026337 C8.36802634 14.6324121 8.36802634 14.6324121 5.38162231 8.23693848 C3.27678578 6.92680096 3.27678578 6.92680096 0 6 C0 4.02 0 2.04 0 0 Z " fill="#AC262E" transform="translate(351,341)"/>
<path d="M0 0 C2.97 0 5.94 0 9 0 C9 0.99 9 1.98 9 3 C8.34 3 7.68 3 7 3 C7 4.98 7 6.96 7 9 C9.97 9 12.94 9 16 9 C16 7.02 16 5.04 16 3 C15.34 3 14.68 3 14 3 C14 2.01 14 1.02 14 0 C16.97 0 19.94 0 23 0 C22.67 7.59 22.34 15.18 22 23 C20.02 23 18.04 23 16 23 C16 19.7 16 16.4 16 13 C13.03 13 10.06 13 7 13 C7 16.3 7 19.6 7 23 C5.35 23 3.7 23 2 23 C1.97494385 22.44538086 1.9498877 21.89076172 1.92407227 21.31933594 C1.80772073 18.79601157 1.68517246 16.27302464 1.5625 13.75 C1.52318359 12.87730469 1.48386719 12.00460937 1.44335938 11.10546875 C1.40146484 10.26113281 1.35957031 9.41679687 1.31640625 8.546875 C1.27974854 7.77182617 1.24309082 6.99677734 1.20532227 6.19824219 C1.02533857 3.67277555 1.02533857 3.67277555 0 0 Z " fill="#A6252C" transform="translate(269,299)"/>
<path d="M0 0 C5.28 0 10.56 0 16 0 C17 4 17 4 16 7 C15.01 7 14.02 7 13 7 C12.34 6.01 11.68 5.02 11 4 C8.94074861 3.27617533 8.94074861 3.27617533 7 3 C7 4.98 7 6.96 7 9 C8.98 9 10.96 9 13 9 C13 10.32 13 11.64 13 13 C11.02 13 9.04 13 7 13 C7 15.31 7 17.62 7 20 C9.97 20 12.94 20 16 20 C16 20.99 16 21.98 16 23 C11.38 23 6.76 23 2 23 C1.93941406 21.67484375 1.87882812 20.3496875 1.81640625 18.984375 C1.73198036 17.23957318 1.64733338 15.49478205 1.5625 13.75 C1.52318359 12.87730469 1.48386719 12.00460937 1.44335938 11.10546875 C1.40146484 10.26113281 1.35957031 9.41679687 1.31640625 8.546875 C1.27974854 7.77182617 1.24309082 6.99677734 1.20532227 6.19824219 C1.02533857 3.67277555 1.02533857 3.67277555 0 0 Z " fill="#A8252D" transform="translate(298,299)"/>
<path d="M0 0 C4.62 0 9.24 0 14 0 C14 4.62 14 9.24 14 14 C9.38 14 4.76 14 0 14 C0 9.38 0 4.76 0 0 Z " fill="#7E7E7E" transform="translate(301,213)"/>
<path d="M0 0 C4.62 0 9.24 0 14 0 C14 4.62 14 9.24 14 14 C9.38 14 4.76 14 0 14 C0 9.38 0 4.76 0 0 Z " fill="#7E7E7E" transform="translate(243,213)"/>
<path d="M0 0 C7.26 0 14.52 0 22 0 C21.67 2.31 21.34 4.62 21 7 C20.01 7 19.02 7 18 7 C18 6.01 18 5.02 18 4 C15.525 3.505 15.525 3.505 13 3 C13 9.6 13 16.2 13 23 C11.35 23 9.7 23 8 23 C8 16.4 8 9.8 8 3 C5.525 4.485 5.525 4.485 3 6 C0.6875 6.6875 0.6875 6.6875 -1 7 C-0.67 4.69 -0.34 2.38 0 0 Z " fill="#A5242C" transform="translate(244,299)"/>
<path d="M0 0 C3.3 0 6.6 0 10 0 C10 4.29 10 8.58 10 13 C6.7 13 3.4 13 0 13 C0 8.71 0 4.42 0 0 Z " fill="#707070" transform="translate(303,193)"/>
<path d="M0 0 C3.3 0 6.6 0 10 0 C10 4.29 10 8.58 10 13 C6.7 13 3.4 13 0 13 C0 8.71 0 4.42 0 0 Z " fill="#7A7A7A" transform="translate(245,193)"/>
<path d="M0 0 C1.98 0 3.96 0 6 0 C6 4.29 6 8.58 6 13 C3.69 13 1.38 13 -1 13 C-1.02686553 11.02090602 -1.04633375 9.04171029 -1.0625 7.0625 C-1.07410156 5.96035156 -1.08570313 4.85820312 -1.09765625 3.72265625 C-1 1 -1 1 0 0 Z " fill="#737373" transform="translate(284,214)"/>
<path d="M0 0 C0.94875 0.04125 1.8975 0.0825 2.875 0.125 C3.06901633 1.93681405 3.25504375 3.74948532 3.4375 5.5625 C3.54191406 6.57183594 3.64632813 7.58117187 3.75390625 8.62109375 C3.81384766 9.86052734 3.81384766 9.86052734 3.875 11.125 C2.875 12.125 2.875 12.125 -0.6875 12.1875 C-1.821875 12.166875 -2.95625 12.14625 -4.125 12.125 C-4.90077388 8.73098928 -5.4074844 5.60897425 -5.125 2.125 C-3.125 0.125 -3.125 0.125 0 0 Z M-1.125 2.125 C-0.125 4.125 -0.125 4.125 -0.125 4.125 Z M-2.125 8.125 C-2.125 8.785 -2.125 9.445 -2.125 10.125 C-1.465 10.125 -0.805 10.125 -0.125 10.125 C-0.125 9.465 -0.125 8.805 -0.125 8.125 C-0.785 8.125 -1.445 8.125 -2.125 8.125 Z " fill="#6F6F6F" transform="translate(296.125,242.875)"/>
<path d="M0 0 C2.97 0 5.94 0 9 0 C8.67 2.64 8.34 5.28 8 8 C8.66 8 9.32 8 10 8 C10 9.32 10 10.64 10 12 C6.7 12 3.4 12 0 12 C0 11.34 0 10.68 0 10 C0.66 10 1.32 10 2 10 C2 7.36 2 4.72 2 2 C1.34 2 0.68 2 0 2 C0 1.34 0 0.68 0 0 Z M5 8 C5 8.66 5 9.32 5 10 C5.99 9.67 6.98 9.34 8 9 C7.01 8.67 6.02 8.34 5 8 Z " fill="#7F7F7F" transform="translate(235,243)"/>
<path d="M0 0 C1.134375 0.020625 2.26875 0.04125 3.4375 0.0625 C3.4375 1.3825 3.4375 2.7025 3.4375 4.0625 C0.9625 3.0725 0.9625 3.0725 -1.5625 2.0625 C-1.5625 2.7225 -1.5625 3.3825 -1.5625 4.0625 C-0.758125 4.31 0.04625 4.5575 0.875 4.8125 C3.4375 6.0625 3.4375 6.0625 4.3125 8.0625 C4.4375 10.0625 4.4375 10.0625 3.4375 12.0625 C0.7975 12.0625 -1.8425 12.0625 -4.5625 12.0625 C-4.5625 10.7425 -4.5625 9.4225 -4.5625 8.0625 C-2.0875 9.0525 -2.0875 9.0525 0.4375 10.0625 C0.4375 9.4025 0.4375 8.7425 0.4375 8.0625 C-2.0375 7.0725 -2.0375 7.0725 -4.5625 6.0625 C-4.605221 4.39638095 -4.60313832 2.72867115 -4.5625 1.0625 C-3.5625 0.0625 -3.5625 0.0625 0 0 Z " fill="#6F6F6F" transform="translate(252.5625,242.9375)"/>
<path d="M0 0 C1 1 1 1 1.1875 3.4375 C1 6 1 6 -1 8 C-0.34 8.33 0.32 8.66 1 9 C1 9.99 1 10.98 1 12 C-1.64 12 -4.28 12 -7 12 C-6.42437172 8.66135596 -5.40936384 7.30897368 -3 5 C-2.67 4.01 -2.34 3.02 -2 2 C-2.66 2 -3.32 2 -4 2 C-4 2.66 -4 3.32 -4 4 C-4.99 4 -5.98 4 -7 4 C-7 3.01 -7 2.02 -7 1 C-4.51588385 -0.24205807 -2.74800896 -0.14092354 0 0 Z " fill="#858585" transform="translate(309,243)"/>
<path d="M0 0 C0.33 3.96 0.66 7.92 1 12 C-0.98 12 -2.96 12 -5 12 C-5 11.34 -5 10.68 -5 10 C-5.99 9.67 -6.98 9.34 -8 9 C-6.68994234 5.06982701 -4.75047804 0 0 0 Z " fill="#6E6E6E" transform="translate(320,243)"/>
<path d="M0 0 C3.63 0 7.26 0 11 0 C11 1.32 11 2.64 11 4 C10.01 3.67 9.02 3.34 8 3 C8 5.97 8 8.94 8 12 C6.35 12 4.7 12 3 12 C3 9.03 3 6.06 3 3 C2.01 3.33 1.02 3.66 0 4 C0 2.68 0 1.36 0 0 Z " fill="#5E5E5E" transform="translate(258,243)"/>
<path d="M0 0 C1.98 0 3.96 0 6 0 C6 3.3 6 6.6 6 10 C4.02 10 2.04 10 0 10 C0 6.7 0 3.4 0 0 Z " fill="#797979" transform="translate(284,195)"/>
<path d="M0 0 C1.98 0 3.96 0 6 0 C6 3.3 6 6.6 6 10 C4.02 10 2.04 10 0 10 C0 6.7 0 3.4 0 0 Z " fill="#6C6C6C" transform="translate(269,195)"/>
<path d="M0 0 C1.98 0 3.96 0 6 0 C6 3.3 6 6.6 6 10 C4.02 10 2.04 10 0 10 C0 6.7 0 3.4 0 0 Z " fill="#7C7C7C" transform="translate(284,176)"/>
<path d="M0 0 C1.98 0 3.96 0 6 0 C6 2.97 6 5.94 6 9 C4.02 9 2.04 9 0 9 C0 6.03 0 3.06 0 0 Z " fill="#808080" transform="translate(269,177)"/>
<path d="M0 0 C0.33 3.96 0.66 7.92 1 12 C-0.65 12 -2.3 12 -4 12 C-4.33 8.37 -4.66 4.74 -5 1 C-3 0 -3 0 0 0 Z " fill="#676767" transform="translate(288,243)"/>
<path d="M0 0 C0.99 0.33 1.98 0.66 3 1 C2.34 1.66 1.68 2.32 1 3 C0.53993654 5.20250992 0.53993654 5.20250992 0.375 7.625 C0.30023438 8.44226563 0.22546875 9.25953125 0.1484375 10.1015625 C0.09945313 10.72804687 0.05046875 11.35453125 0 12 C1.32 12.33 2.64 12.66 4 13 C2.00045254 13.04254356 -0.00041636 13.04080783 -2 13 C-3 12 -3 12 -3.09765625 9.93359375 C-3.08605469 9.10988281 -3.07445312 8.28617188 -3.0625 7.4375 C-3.05347656 6.61121094 -3.04445313 5.78492188 -3.03515625 4.93359375 C-3.02355469 4.29550781 -3.01195312 3.65742188 -3 3 C-2.34 3 -1.68 3 -1 3 C-0.67 2.01 -0.34 1.02 0 0 Z " fill="#5E5E5E" transform="translate(307,171)"/>
<path d="M0 0 C2.2109885 0.42793326 3.98119242 0.99059621 6 2 C6 2.99 6 3.98 6 5 C3.36 5 0.72 5 -2 5 C-1.125 1.125 -1.125 1.125 0 0 Z " fill="#606060" transform="translate(304,250)"/>
<path d="M0 0 C2.97 0.495 2.97 0.495 6 1 C6 2.32 6 3.64 6 5 C2.7 5 -0.6 5 -4 5 C-4 4.34 -4 3.68 -4 3 C-2.68 3.33 -1.36 3.66 0 4 C0 2.68 0 1.36 0 0 Z M1 1 C1 1.66 1 2.32 1 3 C1.99 2.67 2.98 2.34 4 2 C3.01 1.67 2.02 1.34 1 1 Z " fill="#4E4E4E" transform="translate(239,250)"/>
<path d="M0 0 C1.65 0 3.3 0 5 0 C5 1.65 5 3.3 5 5 C3.35 5 1.7 5 0 5 C0 3.35 0 1.7 0 0 Z " fill="#5B5B5B" transform="translate(283,165)"/>
<path d="M0 0 C0.33 0 0.66 0 1 0 C1 3.3 1 6.6 1 10 C0.01 10.33 -0.98 10.66 -2 11 C-2 8.69 -2 6.38 -2 4 C-1.34 4 -0.68 4 0 4 C0 2.68 0 1.36 0 0 Z " fill="#878787" transform="translate(287,243)"/>
<path d="M0 0 C2.64 0 5.28 0 8 0 C7.67 1.32 7.34 2.64 7 4 C6.01 3.34 5.02 2.68 4 2 C4.33 2.99 4.66 3.98 5 5 C4.34 5 3.68 5 3 5 C3 3.68 3 2.36 3 1 C2.01 0.67 1.02 0.34 0 0 Z " fill="#464646" transform="translate(236,243)"/>
<path d="M0 0 C1.32 0 2.64 0 4 0 C4 1.65 4 3.3 4 5 C2.68 5 1.36 5 0 5 C0 3.35 0 1.7 0 0 Z " fill="#636363" transform="translate(272,165)"/>
<path d="M0 0 C-0.33 0.66 -0.66 1.32 -1 2 C-1.99 2 -2.98 2 -4 2 C-4 2.66 -4 3.32 -4 4 C-4.99 4 -5.98 4 -7 4 C-7 3.01 -7 2.02 -7 1 C-4.53721199 -0.231394 -2.7204945 -0.07159196 0 0 Z " fill="#6B6B6B" transform="translate(309,243)"/>
<path d="M0 0 C0.99 0 1.98 0 3 0 C3 0.99 3 1.98 3 3 C1.68 3 0.36 3 -1 3 C-0.67 2.01 -0.34 1.02 0 0 Z " fill="#787878" transform="translate(271,252)"/>
</svg>
