<svg width="558" height="558" viewBox="0 0 558 558" fill="none" xmlns="http://www.w3.org/2000/svg">
<path d="M279 12C131.811 12 12 131.811 12 279C12 426.189 131.811 546 279 546C426.189 546 546 426.189 546 279C545.87 131.811 426.189 12 279 12Z" fill="#00285E"/>
<path d="M518.101 279C518.101 146.934 411.066 39.8994 278.87 39.8994C146.804 39.8994 39.6387 146.934 39.6387 279C39.6387 411.066 146.804 518.231 278.87 518.231C411.066 518.101 518.101 411.066 518.101 279Z" fill="white"/>
<path d="M431.273 279C431.273 194.911 363.089 126.727 279 126.727C194.91 126.727 126.726 194.911 126.726 279C126.726 363.089 194.91 431.273 279 431.273C363.089 431.273 431.273 363.089 431.273 279Z" fill="#6CADDF"/>
<path d="M279 443.268C188.392 443.268 114.732 369.477 114.732 278.87C114.732 188.262 188.392 114.602 279 114.602C369.608 114.602 443.398 188.262 443.398 278.87C443.268 369.608 369.608 443.268 279 443.268ZM279 123.858C193.477 123.858 123.858 193.477 123.858 279C123.858 364.523 193.477 434.142 279 434.142C364.523 434.142 434.142 364.523 434.142 279C434.142 193.477 364.523 123.858 279 123.858Z" fill="#00285E"/>
<path d="M279 535.049C137.808 535.049 22.9512 420.192 22.9512 279C22.9512 137.808 137.808 22.9512 279 22.9512C420.192 22.9512 535.049 137.808 535.049 279C534.918 420.192 420.192 535.049 279 535.049ZM279 28.4268C140.807 28.4268 28.5571 140.807 28.5571 279C28.5571 417.063 140.937 529.443 279 529.443C417.063 529.443 529.443 417.063 529.443 279C529.443 140.807 417.063 28.4268 279 28.4268Z" fill="#6CADDF"/>
<path d="M65.3215 273.133L61.0193 274.176L59.8459 269.744L67.0164 267.658H70.6667V292.689H65.3215V273.133Z" fill="#6CADDF"/>
<path d="M76.9248 285.779C76.9248 282.65 78.3589 280.956 80.9663 279.782C79.0107 278.609 77.8374 277.044 77.8374 274.307V274.176C77.8374 270.396 81.3574 267.397 86.5723 267.397C91.7871 267.397 95.3071 270.396 95.3071 274.176V274.307C95.3071 276.914 94.1338 278.609 92.1782 279.782C94.6553 281.086 96.2197 282.65 96.2197 285.649V285.779C96.2197 290.342 92.1782 293.08 86.7026 293.08C81.2271 293.08 76.9248 290.082 76.9248 285.779ZM90.7441 285.388C90.7441 283.433 88.9189 282.259 86.4419 282.259C83.9648 282.259 82.1396 283.433 82.1396 285.258C82.1396 286.953 83.7041 288.387 86.4419 288.387C89.1797 288.387 90.7441 287.083 90.7441 285.388ZM90.0923 274.959C90.0923 273.394 88.7886 271.96 86.5723 271.96C84.356 271.96 83.0522 273.264 83.0522 274.828V274.959C83.0522 276.653 84.4863 277.957 86.5723 277.957C88.6582 277.957 90.0923 276.653 90.0923 274.959Z" fill="#6CADDF"/>
<path d="M470.515 282.39C469.211 283.433 467.647 284.084 465.431 284.084C460.085 284.084 456.565 281.086 456.565 276.132V276.001C456.565 271.047 460.477 267.267 466.083 267.267C469.472 267.267 471.297 268.049 473.253 270.004C475.078 271.83 476.121 274.437 476.121 279.391V279.521C476.121 287.604 472.34 293.08 465.3 293.08C461.65 293.08 459.303 291.907 457.087 290.082L459.955 285.91C461.78 287.344 463.345 287.996 465.431 287.996C469.211 287.996 470.254 284.476 470.515 282.39ZM470.645 275.871C470.645 273.655 469.081 271.96 466.343 271.96C463.605 271.96 462.171 273.524 462.171 275.741V275.871C462.171 278.087 463.866 279.652 466.474 279.652C469.081 279.521 470.645 277.957 470.645 275.871Z" fill="#6CADDF"/>
<path d="M493.591 287.213H481.466L480.554 283.302L494.112 267.527H498.675V282.781H502.065V287.213H498.675V292.559H493.46V287.213H493.591ZM493.591 282.781V275.089L486.942 282.781H493.591Z" fill="#6CADDF"/>
<path d="M279 434.142C193.477 434.142 123.858 364.523 123.858 279C123.858 193.477 193.477 123.858 279 123.858C364.523 123.858 434.142 193.477 434.142 279C434.142 364.523 364.523 434.142 279 434.142ZM279 129.595C196.605 129.595 129.595 196.605 129.595 279C129.595 361.395 196.605 428.405 279 428.405C361.395 428.405 428.405 361.395 428.405 279C428.405 196.605 361.395 129.595 279 129.595Z" fill="white"/>
<path fill-rule="evenodd" clip-rule="evenodd" d="M276.132 145.37C199.604 145.37 155.408 155.408 155.408 155.408C155.408 155.408 137.808 222.549 147.847 308.464C152.019 344.577 181.352 422.147 278.609 448.743C375.866 422.278 405.199 344.577 409.371 308.464C419.41 222.419 401.81 155.408 401.81 155.408C401.81 155.408 357.614 145.37 281.086 145.37H276.132Z" fill="#00285E"/>
<path fill-rule="evenodd" clip-rule="evenodd" d="M395.943 288.517C395.03 314.591 390.989 392.553 278.478 435.445C166.881 393.727 161.014 313.027 161.014 288.517H395.943Z" fill="#97C1E7"/>
<path fill-rule="evenodd" clip-rule="evenodd" d="M392.553 284.215C395.551 219.551 384.6 167.142 384.6 167.142C384.6 167.142 342.621 159.059 278.609 159.059C214.466 159.059 171.835 167.924 171.835 167.924C171.835 167.924 160.232 220.594 163.36 284.084H392.553V284.215Z" fill="white"/>
<path d="M281.998 433.099L163.23 289.56C158.928 319.154 182.916 406.373 281.998 433.099Z" fill="#6CADDF"/>
<path d="M198.691 288.647L308.594 421.235C319.676 415.89 327.889 410.675 335.711 404.417L239.758 288.647H198.691Z" fill="#6CADDF"/>
<path d="M274.958 288.778L356.179 386.687C364.132 377.691 370.911 369.478 375.735 360.873L316.025 288.778H274.958Z" fill="#6CADDF"/>
<path d="M393.987 288.778L353.442 288.647L387.469 329.714C393.335 317.068 393.987 295.818 393.987 288.778Z" fill="#6CADDF"/>
<path d="M326.455 342.491C326.194 341.578 325.412 340.796 324.5 340.405L317.72 338.058C317.068 337.797 316.547 337.928 315.895 338.058C315.374 335.711 314.07 333.625 312.114 332.191C311.854 332.061 311.593 331.8 311.332 331.67C310.941 331.409 310.419 331.148 309.898 330.888C308.985 330.497 308.073 330.236 307.291 329.975C305.335 329.323 303.379 328.671 300.902 326.977C298.556 325.282 297.513 323.717 296.47 322.283C296.209 321.892 295.948 321.631 295.688 321.24C295.036 320.197 294.123 319.285 293.21 318.502C291.516 317.329 289.43 316.677 287.344 316.677C286.822 316.677 286.431 316.808 285.91 316.808V316.677C286.04 315.895 285.779 314.982 285.388 314.331L281.216 308.725C280.564 307.942 279.652 307.421 278.609 307.421C277.566 307.421 276.653 307.812 276.132 308.594L271.699 314.2C271.178 314.852 270.917 315.765 271.047 316.677C270.656 316.677 270.395 316.547 270.004 316.547C267.918 316.547 265.833 317.199 264.138 318.372C263.877 318.502 263.616 318.763 263.486 318.894C263.095 319.285 262.704 319.545 262.312 320.067C261.661 320.849 261.139 321.501 260.618 322.283C259.314 323.978 258.271 325.542 255.664 327.368C253.317 329.062 251.492 329.584 249.797 330.105L248.624 330.497C247.45 330.757 246.277 331.279 245.234 332.061C243.148 333.495 241.844 335.711 241.323 338.188C240.671 337.928 239.889 337.928 239.106 338.058L232.458 340.274C231.545 340.535 230.763 341.317 230.372 342.23C230.111 343.143 230.241 344.186 230.763 344.968L234.804 350.834C235.326 351.486 235.978 351.877 236.76 352.138C235.717 354.354 235.456 357.092 236.238 359.439C236.369 359.7 236.499 359.96 236.499 360.221C236.629 360.743 236.89 361.264 237.281 361.786C237.803 362.568 238.324 363.35 238.846 364.002C240.149 365.697 241.323 367.261 242.235 370.26C243.148 372.998 243.018 374.823 243.018 376.648V377.952C242.887 379.255 243.018 380.429 243.539 381.602C244.321 383.949 246.016 385.904 247.972 387.078C247.711 387.599 247.45 388.121 247.581 388.642V395.682C247.581 396.725 248.102 397.638 248.884 398.159C249.666 398.681 250.709 398.941 251.622 398.681L258.532 396.725C259.184 396.595 259.575 396.073 259.966 395.682C262.052 397.638 264.92 398.55 267.658 398.42C268.179 398.42 268.701 398.29 269.353 398.159C270.265 397.898 271.178 397.638 271.96 397.377C273.916 396.725 275.871 396.073 279 396.073C281.868 396.073 283.563 396.725 285.388 397.247L286.562 397.638C287.735 398.159 289.039 398.29 290.212 398.29C292.689 398.29 295.166 397.247 296.991 395.552C297.382 396.073 297.773 396.334 298.425 396.595L305.205 398.681C306.117 398.941 307.16 398.811 308.073 398.29C308.855 397.768 309.376 396.855 309.376 395.812L309.507 388.772C309.507 388.251 309.376 387.729 309.116 387.208C311.202 386.035 312.896 384.079 313.548 381.732C313.679 381.472 313.679 381.211 313.809 380.82C313.939 380.298 314.07 379.777 314.07 379.125C314.2 378.212 314.2 377.3 314.2 376.387C314.2 374.301 314.2 372.346 315.113 369.347C316.025 366.609 317.068 365.175 318.242 363.741C318.502 363.35 318.763 363.089 319.024 362.698C319.806 361.786 320.458 360.612 320.849 359.439C321.631 356.962 321.371 354.224 320.197 351.877C320.849 351.617 321.371 351.356 321.762 350.834L325.934 345.098C326.585 344.446 326.846 343.534 326.455 342.491Z" fill="#00285E"/>
<path d="M274.828 357.744C274.828 355.528 276.653 353.833 278.87 353.833C281.086 353.833 282.911 355.658 282.911 357.744C282.911 359.96 281.086 361.655 278.87 361.655C276.653 361.655 274.828 359.83 274.828 357.744Z" fill="#FFC758"/>
<path d="M278.739 324.108C278.087 321.631 276.523 319.545 274.567 318.372L278.739 313.027L282.65 318.372C280.695 319.676 279.391 321.631 278.739 324.108ZM246.798 347.314C244.712 345.88 243.278 344.055 242.496 341.839L236.238 343.925L240.019 349.4C241.844 348.097 244.321 347.314 246.798 347.314ZM259.183 384.209C257.228 385.774 255.011 386.556 252.534 386.556V393.205L259.053 391.249C258.271 389.164 258.271 386.686 259.183 384.209ZM298.295 384.34C299.207 386.686 299.207 389.033 298.425 391.249L304.813 393.205L304.944 386.556C302.727 386.686 300.381 385.904 298.295 384.34ZM310.419 347.445C313.027 347.314 315.243 347.966 317.068 349.4L320.979 344.055L314.591 341.839C314.07 343.925 312.505 346.011 310.419 347.445ZM270.656 384.47C267.657 384.47 265.311 382.123 265.311 379.125C265.311 378.734 264.92 378.603 264.659 378.864C262.703 381.211 261.269 383.297 261.139 385.774C261.009 389.424 264.137 392.423 267.918 392.423H268.57C268.961 392.423 269.222 392.423 269.743 392.292C272.351 391.641 274.698 390.337 279.13 390.337C282.911 390.337 284.866 391.38 286.822 391.901C287.604 392.162 288.517 392.423 289.429 392.423C293.21 392.423 296.209 389.424 296.209 385.774C296.209 383.166 294.644 381.211 292.689 378.864C292.558 378.603 292.167 378.864 292.167 379.125C292.167 381.993 289.69 384.47 286.822 384.47C284.606 384.47 281.738 382.515 278.869 382.515C276.392 382.515 272.872 384.47 270.656 384.47ZM267.136 377.169C267.136 379.646 269.092 381.602 271.569 381.602C271.829 381.602 272.09 381.602 272.481 381.472C272.612 381.472 272.742 381.472 272.872 381.341H273.003C274.567 380.82 276.001 380.168 278.739 380.168C281.477 380.168 282.781 380.95 284.345 381.341C284.866 381.472 285.388 381.602 285.909 381.602C288.386 381.602 290.342 379.646 290.342 377.169C290.342 376.518 290.212 375.866 289.951 375.344C289.821 375.083 289.69 374.823 289.56 374.692C289.56 374.692 281.998 364.393 281.738 364.132C281.346 363.611 280.825 363.872 280.564 364.002C280.173 364.132 279.26 364.393 278.609 364.393C277.957 364.393 277.175 364.263 276.783 364.002C276.262 363.741 275.871 363.611 275.61 364.132C275.349 364.523 269.874 371.955 268.179 374.301C267.527 375.083 267.136 375.996 267.136 377.169ZM301.945 373.78C301.032 376.648 298.034 378.082 295.166 377.169C294.775 377.039 294.514 377.3 294.775 377.691C296.469 380.168 297.904 382.254 300.381 383.166C303.901 384.34 307.812 382.384 308.855 378.864C308.985 378.603 308.985 378.473 308.985 378.212C309.115 377.952 309.115 377.56 309.246 377.169C309.507 374.432 308.855 371.955 310.289 367.652C311.462 364.132 313.027 362.568 314.2 360.873C314.721 360.221 315.243 359.439 315.504 358.657C316.677 355.137 314.721 351.226 311.201 350.183C308.724 349.4 306.247 350.313 303.379 351.356C303.118 351.486 303.118 351.747 303.51 351.877C306.378 352.79 307.942 355.789 307.03 358.657C306.378 360.743 303.64 362.829 302.727 365.566C301.945 367.783 302.727 371.563 301.945 373.78ZM293.862 374.823C296.209 375.605 298.816 374.301 299.598 371.955C299.729 371.694 299.729 371.433 299.729 371.042V370.52C299.729 368.956 299.468 367.261 300.25 364.784C301.163 362.177 302.206 361.134 303.118 359.83C303.379 359.439 303.64 358.917 303.901 358.396C304.683 356.049 303.379 353.572 301.032 352.79C300.381 352.66 299.729 352.529 299.207 352.66C298.947 352.66 298.686 352.66 298.425 352.79C298.425 352.79 286.17 356.701 285.779 356.831C285.258 357.092 285.258 357.614 285.258 357.874C285.258 358.266 285.127 359.178 284.997 359.83C284.866 360.351 284.475 361.134 284.084 361.525C283.693 361.916 283.432 362.307 283.823 362.698C284.215 363.089 289.429 370.52 291.255 372.867C291.906 373.78 292.819 374.432 293.862 374.823ZM301.163 340.665C303.64 342.36 304.161 345.75 302.336 348.097C302.075 348.357 302.336 348.748 302.727 348.618C305.726 347.836 308.073 347.054 309.637 344.968C311.853 341.969 311.201 337.797 308.203 335.581C308.073 335.451 307.812 335.32 307.551 335.19C307.29 334.929 307.03 334.799 306.508 334.668C304.031 333.625 301.424 333.365 297.773 330.757C294.775 328.541 293.732 326.585 292.428 324.891C292.037 324.239 291.385 323.587 290.603 322.935C287.604 320.719 283.302 321.371 281.216 324.369C279.782 326.455 279.782 329.062 279.912 332.061C279.912 332.322 280.303 332.452 280.434 332.061C282.129 329.714 285.518 329.193 287.995 330.888C289.821 332.191 290.994 335.451 293.341 337.015C295.427 338.971 299.338 339.362 301.163 340.665ZM299.729 348.748C301.163 346.793 300.772 343.925 298.686 342.491C298.555 342.36 298.295 342.1 297.904 341.969C297.773 341.969 297.643 341.839 297.512 341.839H297.382C295.818 341.317 294.253 341.057 292.037 339.492C289.821 337.928 289.169 336.494 288.256 335.32C287.995 334.929 287.604 334.538 287.213 334.147C285.258 332.713 282.389 333.104 280.955 335.19C280.564 335.711 280.303 336.233 280.173 336.885C280.173 337.145 280.043 337.406 280.043 337.667V350.834C280.043 351.486 280.564 351.486 280.955 351.617C281.346 351.747 282.259 352.138 282.65 352.399C283.172 352.79 283.693 353.311 283.954 353.703C284.215 354.094 284.475 354.485 284.997 354.224C285.518 353.963 294.253 351.226 296.991 350.313C298.164 350.183 299.077 349.531 299.729 348.748ZM269.352 331.279C271.699 329.584 275.089 330.105 276.914 332.452C277.175 332.713 277.566 332.713 277.566 332.322C277.696 329.323 277.696 326.716 276.262 324.63C274.176 321.631 269.874 320.979 266.875 323.196C266.615 323.326 266.484 323.456 266.354 323.587C266.093 323.717 265.832 323.978 265.572 324.369C263.746 326.455 262.703 328.802 259.053 331.409C256.054 333.625 253.838 334.017 251.883 334.538C251.1 334.799 250.188 335.06 249.536 335.581C246.537 337.797 245.755 341.969 248.102 344.968C249.666 347.054 252.143 347.836 255.011 348.618C255.272 348.748 255.403 348.357 255.272 348.097C253.577 345.75 254.099 342.36 256.446 340.665C258.271 339.362 261.66 339.231 264.007 337.537C265.832 336.233 267.527 332.582 269.352 331.279ZM276.653 335.19C275.219 333.234 272.351 332.713 270.395 334.147C270.135 334.277 270.004 334.408 269.743 334.668L269.483 334.929L269.352 335.06C268.44 336.363 267.657 337.797 265.441 339.362C263.225 340.926 261.66 341.057 260.226 341.708C259.705 341.839 259.183 342.1 258.792 342.36C256.837 343.794 256.315 346.532 257.749 348.618C258.14 349.14 258.662 349.531 259.183 349.791C259.444 349.922 259.574 350.052 259.835 350.052C259.835 350.052 272.09 353.963 272.481 354.094C273.133 354.224 273.394 353.833 273.524 353.572C273.785 353.311 274.306 352.529 274.828 352.138C275.349 351.747 276.001 351.486 276.523 351.356C277.044 351.226 277.435 351.095 277.435 350.574V338.058C277.566 337.145 277.305 336.102 276.653 335.19ZM250.579 358.526C249.666 355.658 251.231 352.66 253.969 351.747C254.36 351.617 254.36 351.226 254.099 351.095C251.231 350.052 248.754 349.14 246.407 349.922C242.887 350.965 240.931 354.876 242.105 358.396C242.105 358.657 242.235 358.787 242.365 359.048C242.496 359.309 242.626 359.7 242.887 360.091C244.321 362.437 246.277 364.132 247.711 368.435C248.884 371.955 248.493 374.171 248.493 376.257C248.363 377.039 248.493 377.952 248.754 378.864C249.927 382.384 253.708 384.34 257.228 383.166C259.705 382.384 261.139 380.298 262.834 377.691C262.964 377.43 262.703 377.169 262.443 377.3C259.574 378.212 256.576 376.648 255.663 373.91C255.011 371.824 255.924 368.565 255.011 365.827C254.229 363.35 251.231 360.612 250.579 358.526ZM256.446 352.92C254.099 353.703 252.795 356.18 253.577 358.526C253.577 358.787 253.708 359.048 253.969 359.309C254.099 359.439 254.099 359.569 254.229 359.569C254.229 359.569 254.229 359.7 254.36 359.7C255.272 361.003 256.446 362.177 257.358 364.654C258.271 367.261 257.88 368.695 258.01 370.26C258.01 370.781 258.01 371.303 258.271 371.824C259.053 374.171 261.53 375.475 263.877 374.692C264.529 374.562 265.05 374.171 265.441 373.78L265.963 373.258C265.963 373.258 273.524 362.959 273.655 362.568C274.046 362.046 273.655 361.655 273.394 361.394C273.133 361.134 272.612 360.352 272.481 359.7C272.351 359.178 272.22 358.396 272.22 357.874C272.22 357.353 272.22 356.962 271.699 356.831C271.177 356.701 262.443 353.833 259.705 352.92C258.662 352.66 257.619 352.529 256.446 352.92Z" fill="#EE3124"/>
<path d="M316.286 219.812L343.794 210.294C343.794 210.294 341.448 221.767 342.1 230.632C342.882 242.105 349.531 250.84 349.531 250.84L315.634 262.573L316.286 219.812Z" fill="#FFC758"/>
<path d="M349.531 250.84C349.531 250.84 343.534 242.235 342.491 232.197C341.708 224.635 342.491 218.117 343.794 210.294C342.621 215.509 338.188 230.241 325.803 243.93C320.849 249.406 318.633 254.229 317.72 257.619L317.199 192.825C317.199 192.825 310.68 195.171 310.028 195.302C309.246 195.563 308.855 196.084 308.855 196.214C308.855 196.605 308.594 196.866 308.073 196.997C307.551 197.127 303.77 198.561 301.163 199.343C300.642 199.474 300.902 199.995 301.163 199.995C304.292 199.865 308.725 199.474 309.116 199.474C309.767 199.343 310.028 199.083 310.028 198.691V198.561C310.159 198.04 310.55 197.648 311.071 197.648C311.462 197.648 313.809 197.388 315.243 197.127L314.591 266.875H317.72V261.921L349.531 250.84Z" fill="#D4A11E"/>
<path d="M227.634 264.398C227.634 264.398 222.549 260.618 221.115 253.447C219.681 246.146 223.331 241.975 223.331 241.975L256.706 230.502C256.706 230.502 254.62 237.151 256.576 244.712C259.053 254.229 264.138 260.618 264.138 260.618C264.138 260.618 251.883 258.271 240.019 259.835C228.807 261.27 227.634 264.398 227.634 264.398Z" fill="#FFC758"/>
<path d="M189.304 256.055C189.304 256.055 193.476 244.712 205.601 232.327C214.857 222.94 220.854 220.203 220.854 220.203C220.854 220.203 215.509 227.895 213.293 240.541C211.859 248.363 213.423 258.271 213.423 258.271C213.423 258.271 207.165 256.967 199.995 256.185C193.998 255.533 189.304 256.055 189.304 256.055Z" fill="#FFC758"/>
<path d="M220.854 220.203C220.854 220.203 215.64 227.895 213.423 240.541C211.989 248.363 213.554 258.271 213.554 258.271C213.554 258.271 211.989 257.88 208.339 257.098C193.477 253.708 220.854 220.203 220.854 220.203Z" fill="#D4A11E"/>
<path d="M240.41 229.329L240.149 199.343C239.498 199.604 233.631 201.56 232.979 201.82C232.197 202.081 231.806 202.603 231.806 202.863C231.806 203.254 231.545 203.515 231.023 203.646C230.502 203.776 226.721 205.08 224.114 205.992C223.592 206.123 223.853 206.644 224.114 206.644C227.112 206.514 231.675 206.123 232.066 206.123C232.718 205.992 232.979 205.731 233.109 205.34V205.21C233.24 204.688 233.631 204.297 234.152 204.297C234.544 204.297 236.76 204.037 238.324 203.906L238.064 229.459H240.41V229.329Z" fill="#D4A11E"/>
<path d="M279.261 202.211H281.607V173.399C281.607 173.399 275.089 175.746 274.437 175.876C273.655 176.137 273.264 176.659 273.264 176.789C273.264 177.18 273.003 177.441 272.482 177.571C271.96 177.702 268.179 179.005 265.572 179.918C265.05 180.048 265.311 180.57 265.572 180.57C268.701 180.439 273.133 180.048 273.524 180.048C274.176 179.918 274.437 179.657 274.567 179.266C274.698 178.745 275.089 178.354 275.61 178.354C276.002 178.354 278.087 178.093 279.652 177.962L279.261 202.211Z" fill="#D4A11E"/>
<path d="M273.394 180.179H273.524C274.176 180.048 274.437 179.788 274.437 179.396C274.437 179.005 274.698 178.745 275.089 178.614L274.306 176.137C273.524 176.398 273.263 176.919 273.263 177.05C273.263 177.441 273.003 177.571 272.612 177.702L273.394 180.179Z" fill="#FFC758"/>
<path d="M231.936 205.992H232.066C232.718 205.862 232.979 205.601 232.979 205.21C233.109 204.819 233.239 204.558 233.631 204.428L232.848 201.951C232.066 202.211 231.805 202.733 231.805 202.863C231.805 203.254 231.545 203.385 231.154 203.515L231.936 205.992Z" fill="#FFC758"/>
<path d="M308.855 199.474H308.985C309.637 199.343 309.898 199.083 309.898 198.691C310.028 198.3 310.159 198.04 310.55 197.909L309.767 195.432C308.985 195.693 308.724 196.214 308.724 196.345C308.724 196.736 308.464 196.866 308.073 196.997L308.855 199.474Z" fill="#FFC758"/>
<path d="M264.138 260.618C264.138 260.618 258.793 252.795 256.707 244.452C254.881 237.281 256.707 230.502 256.707 230.502C256.707 230.502 253.187 242.757 244.712 249.406C238.846 254.099 224.375 258.401 227.764 264.398C228.286 263.616 229.72 262.052 235.586 260.618C236.238 260.487 237.021 260.357 237.803 260.227V270.135H240.932V259.835C251.753 258.662 264.138 260.618 264.138 260.618Z" fill="#D4A11E"/>
<path d="M224.114 239.889C224.114 239.889 220.202 237.542 220.724 229.98C221.245 222.158 225.157 218.769 225.157 218.508L251.1 209.643C251.1 209.643 249.145 213.554 250.579 219.42C252.143 226.46 256.706 230.502 256.706 230.502C256.706 230.502 243.669 230.632 231.936 234.674C226.199 236.629 224.114 239.889 224.114 239.889Z" fill="#FFC758"/>
<path d="M239.497 223.592C246.928 217.465 250.97 209.643 250.97 209.643C250.97 209.643 249.927 214.597 250.709 219.029C252.143 226.591 256.576 230.502 256.576 230.502C256.576 230.502 246.016 230.632 234.674 233.892C227.112 235.978 224.765 238.976 224.114 240.019C221.636 234.283 231.936 229.85 239.497 223.592Z" fill="#D4A11E"/>
<path d="M269.092 266.354C269.092 266.354 261.921 261.009 260.227 250.97C258.792 243.018 264.138 237.281 264.138 237.281L304.683 223.332C304.683 223.332 302.467 232.327 304.553 240.932C306.899 250.579 315.765 262.573 315.765 262.573C315.765 262.573 298.947 257.749 284.345 259.575C270.396 261.4 269.092 266.354 269.092 266.354Z" fill="#FFC758"/>
<path d="M260.878 202.081C260.618 195.954 264.92 191 265.05 190.739L294.123 180.57C294.123 180.57 292.167 185.133 292.689 189.044C293.601 196.475 297.773 200.386 297.773 200.386C297.773 200.386 286.301 199.734 272.872 204.428C265.441 207.035 264.659 210.555 264.659 210.555C264.659 210.555 261.139 209.643 260.878 202.081Z" fill="#FFC758"/>
<path d="M283.824 194.259C289.039 189.696 294.123 180.7 294.123 180.7C294.123 180.7 292.168 185.263 292.689 189.174C293.602 196.605 297.774 200.517 297.774 200.517C297.774 200.517 285.388 200.386 273.525 204.558C268.44 206.383 265.181 209.121 264.79 210.686C263.095 204.949 276.653 200.517 283.824 194.259Z" fill="#D4A11E"/>
<path d="M265.05 235.586C265.05 235.586 260.878 230.763 260.096 223.201C259.314 215.379 263.877 212.25 264.268 211.989L297.904 200.386C297.904 200.386 296.991 202.863 297.773 209.643C298.556 215.379 304.162 223.201 304.162 223.201C304.162 223.201 286.17 223.723 275.089 228.025C268.049 230.763 265.05 235.586 265.05 235.586Z" fill="#FFC758"/>
<path d="M287.344 216.161C294.644 209.903 297.904 200.517 297.904 200.517C297.904 200.517 296.991 205.862 297.904 210.034C299.598 217.334 304.813 223.462 304.813 223.462C304.813 223.462 289.169 223.723 277.827 227.503C270.395 229.98 265.832 234.413 265.181 235.717C263.486 229.329 280.043 222.419 287.344 216.161Z" fill="#D4A11E"/>
<path d="M316.416 263.225C316.416 263.225 307.29 251.361 304.553 240.932C302.858 234.022 304.162 226.2 304.683 223.462C303.64 227.112 299.99 238.976 290.994 247.32C282.39 255.272 265.441 259.053 269.092 266.484C269.744 265.311 271.699 262.443 278.609 260.748L278.478 270.265H281.738V260.096C296.73 257.75 316.416 263.225 316.416 263.225Z" fill="#D4A11E"/>
<path fill-rule="evenodd" clip-rule="evenodd" d="M332.061 285.519C334.147 285.127 336.233 284.606 339.362 283.824C339.231 283.693 338.971 283.563 338.84 283.433C335.45 279.652 335.972 275.61 338.058 273.655C345.619 266.615 345.489 261.4 345.489 261.4C345.489 261.4 327.107 265.181 302.858 266.484C301.293 266.615 295.687 269.092 293.993 269.092C290.603 269.222 287.213 269.353 283.693 269.353C237.933 269.744 225.157 266.484 210.164 263.747C194.91 260.878 188.262 257.88 188.262 257.88L187.74 259.444C187.74 259.444 199.734 264.138 208.339 268.31C210.164 269.222 217.334 279.913 219.681 283.563H165.316C162.318 221.246 174.312 170.271 174.312 170.271C174.312 170.271 215.9 161.405 278.478 161.405V154.756C212.119 154.756 167.924 164.143 167.924 164.143C167.924 164.143 148.629 232.197 158.798 313.288C163.1 347.054 190.999 410.284 278.218 439.617L281.998 434.272L278.218 428.927C196.084 401.418 172.096 345.75 167.924 314.07C167.011 307.03 166.359 299.99 165.838 293.21H278.609V283.693H220.724C222.028 279.521 226.069 278.479 231.154 279.652C236.368 280.956 241.583 282.259 246.537 281.999C258.923 281.347 257.097 278.087 258.271 278.087C271.047 278.87 275.871 281.999 286.952 281.738C297.121 281.607 300.641 278.87 301.554 278.87C313.939 278.739 318.633 284.476 331.018 285.519H332.061Z" fill="#FFC758"/>
<path fill-rule="evenodd" clip-rule="evenodd" d="M388.903 164.143C388.903 164.143 344.837 154.756 278.478 154.756V161.405C341.057 161.405 382.515 170.271 382.515 170.271C382.515 170.271 394.639 221.246 391.51 283.563H337.015C332.713 279.391 335.19 273.916 336.624 272.612C343.012 266.875 343.012 262.964 343.012 262.964C343.012 262.964 328.28 266.615 304.031 267.658C302.467 267.658 295.687 270.787 293.993 270.787C290.603 270.917 285.91 271.047 282.39 271.047C250.84 271.047 235.326 270.396 207.948 264.529C208.469 265.181 208.73 265.441 209.251 266.224C209.382 266.484 221.246 269.483 221.376 269.744C223.201 272.221 225.548 273.916 228.416 275.48C232.849 277.827 239.367 279.782 244.712 280.173C257.098 280.956 254.751 276.262 255.924 276.262C268.57 276.001 276.784 280.564 287.865 280.434C298.034 280.304 298.295 277.044 299.338 277.044C309.376 276.523 319.545 280.825 328.28 283.693H278.478V293.21H390.858C390.337 300.12 389.685 307.03 388.772 314.07C384.601 345.88 360.612 401.418 278.478 428.927V439.617C365.697 410.284 393.727 347.184 397.898 313.288C408.198 232.197 388.903 164.143 388.903 164.143Z" fill="#D4A11E"/>
<path d="M100 183.308L89.5708 165.447L94.1338 156.842L130.768 176.137L126.596 184.09L102.608 171.574L112.907 190.087L112.777 190.217L91.9175 192.303L115.645 204.819L111.473 212.772L74.8389 193.477L79.4019 184.742L100 183.308Z" fill="#00285E"/>
<path d="M116.688 128.291L122.424 122.164L164.925 137.808L158.407 144.718L149.02 141.067L137.026 153.844L141.198 162.97L134.81 169.749L116.688 128.291ZM141.067 138.069L127.509 132.854L133.506 146.021L141.067 138.069Z" fill="#00285E"/>
<path d="M186.567 105.606L173.399 83.8345L181.091 79.1411L202.472 114.472L195.823 118.513L165.056 106.389L178.745 128.943L171.053 133.636L149.542 98.1753L156.712 93.873L186.567 105.606Z" fill="#00285E"/>
<path d="M205.21 91.0049C201.951 79.5322 207.687 67.7988 219.942 64.2788C227.373 62.0625 232.718 63.3662 237.411 65.8433L233.631 73.9263C229.72 71.9707 226.2 71.1885 222.158 72.3618C215.509 74.3174 212.25 81.227 214.205 88.1367V88.2671C216.161 95.0464 222.549 99.3486 229.328 97.3931C233.891 96.0893 236.108 93.4819 238.454 89.7012L245.625 93.7427C242.757 99.3486 238.976 103.39 231.414 105.606C219.811 108.996 208.469 102.478 205.21 91.0049Z" fill="#00285E"/>
<path d="M264.398 73.9263L281.086 73.5352L280.695 57.1084L289.821 56.8477L290.864 98.3057L281.738 98.5664L281.347 81.8789L264.529 82.4004L265.05 98.9575L255.924 99.2183L254.881 57.7603L263.877 57.4995L264.398 73.9263Z" fill="#00285E"/>
<path d="M343.403 103.912L350.965 100.261C353.051 104.563 355.789 108.084 360.091 110.039C363.48 111.604 366.088 111.212 367.131 108.996V108.866C368.174 106.78 367.261 105.085 361.786 100.652C355.137 95.1768 351.226 90.8745 354.615 83.4434V83.313C357.744 76.5337 365.306 74.5781 372.998 78.0982C378.473 80.5752 382.384 84.4863 384.731 89.3101L377.561 93.6123C375.344 89.7012 372.606 86.833 369.478 85.3989C366.349 83.9649 364.002 84.6167 363.089 86.4419V86.5723C361.916 89.0493 363.22 90.6138 368.956 95.3072C375.605 100.783 378.734 105.606 375.605 112.125V112.255C372.215 119.687 364.523 121.251 356.44 117.601C350.965 114.732 346.141 110.039 343.403 103.912Z" fill="#00285E"/>
<path d="M398.941 92.0479L426.189 112.777L421.104 119.556L411.066 111.864L391.119 138.069L383.818 132.593L403.895 106.389L393.857 98.6968L398.941 92.0479Z" fill="#00285E"/>
<path d="M469.342 165.186L477.816 182.134C480.163 186.828 480.684 191.13 479.511 194.78C478.468 197.909 476.121 200.386 472.601 202.211H472.471C466.474 205.21 461.128 203.906 456.957 199.995L448.222 215.64L443.398 206.123L451.22 192.173L447.961 185.785L436.097 191.782L432.056 183.699L469.342 165.186ZM459.564 190.608C461.519 194.52 464.779 195.823 467.908 194.259H468.038C471.558 192.564 472.08 189.174 470.124 185.263L466.082 177.18L455.522 182.525L459.564 190.608Z" fill="#00285E"/>
<path d="M335.32 81.4878L317.59 77.5767L319.285 69.3633L340.926 74.0567L342.751 66.2344L312.114 59.5855L303.379 100.001L334.277 106.78L335.972 98.8272L313.939 94.0034L315.765 85.5293L331.018 88.7886L335.32 81.4878Z" fill="#00285E"/>
<path d="M427.232 175.876L433.359 170.662L419.019 153.453L425.667 147.847L435.836 159.971L444.05 157.233L431.925 142.632L438.313 137.287L452.524 154.235L458.782 149.02L438.705 125.162L406.894 151.758L427.232 175.876Z" fill="#00285E"/>
<path d="M208.73 478.207C208.73 466.083 217.726 456.305 230.763 456.305C238.715 456.305 243.409 458.912 247.45 462.823L241.584 469.603C238.324 466.604 235.065 464.909 230.763 464.909C223.592 464.909 218.508 470.776 218.508 478.077V478.207C218.508 485.377 223.462 491.505 230.763 491.505C235.586 491.505 238.585 489.549 241.844 486.551L247.711 492.548C243.409 497.241 238.585 500.109 230.372 500.109C217.986 499.849 208.73 490.201 208.73 478.207Z" fill="#00285E"/>
<path d="M256.707 456.957H265.963V499.066H256.707V456.957Z" fill="#00285E"/>
<path d="M287.474 465.561H274.698V456.957H309.637V465.561H296.861V499.197H287.604V465.561H287.474Z" fill="#00285E"/>
<path d="M329.714 482.509L313.548 456.957H324.369L334.408 473.905L344.577 456.957H355.137L338.971 482.249V499.066H329.714V482.509Z" fill="#00285E"/>
</svg>
