<svg width="558" height="558" viewBox="0 0 558 558" fill="none" xmlns="http://www.w3.org/2000/svg">
<path d="M305.449 523.733C303.322 529.991 296.543 545.333 280.13 545.333C261.467 545.333 254.993 525.138 254.679 524.287L254.127 522.376C254.127 522.376 270.202 523.711 279.056 523.711C287.889 523.711 303.022 522.838 305.473 522.376L305.449 523.733Z" fill="black"/>
<path d="M354.428 513.778L358.258 514.263C353.689 526.202 345.484 539.582 329.399 539.582C313.714 539.582 305.979 530.501 302.739 524.432L299.999 522.759C299.999 522.759 327.02 521.886 354.428 513.778ZM206.402 513.778L202.572 514.263C207.119 526.202 215.362 539.582 231.496 539.582C247.094 539.582 255.501 530.024 258.965 524.432L260.824 522.759C260.824 522.759 233.848 521.886 206.402 513.778Z" fill="black"/>
<path d="M293.227 525.007C290.681 528.652 288.971 528.465 285.964 528.465C284.403 528.465 282.163 529.719 282.185 532.033C282.252 533.855 283.738 535.335 286.178 535.335C291.733 535.335 295.982 527.636 297.109 524.358C297.109 524.358 300.365 524.223 301.313 524.127C301.313 524.127 295.49 541.538 280.332 541.538C265.155 541.538 258.966 524.336 258.966 524.336C258.966 524.336 271.761 525.113 279.058 525.113C286.372 525.113 291.033 525.045 293.227 525.007Z" fill="url(#paint0_radial_383_669)"/>
<path d="M208.464 517.334C218.326 519.947 225.374 522.158 241.987 524.172C241.987 524.172 241.457 525.853 237.843 525.719C236.462 525.628 236.275 525.285 235.797 525.203C234.73 525.009 233.184 526.093 233.34 527.891C233.505 529.162 234.565 530.735 238.253 530.735C241.941 530.735 246.235 527.735 248.408 524.927C248.408 524.927 250.61 525.443 252.902 525.554C252.902 525.554 245.802 535.469 231.855 535.469C216.542 535.469 210.838 521.724 208.464 517.334Z" fill="url(#paint1_radial_383_669)"/>
<path d="M278.869 435.729C331.761 435.729 390.356 403.266 431.494 356.468C435.973 351.405 443.478 341.789 461.345 341.789C479.241 341.789 503.028 358.102 500.243 387.788C498.167 409.41 467.265 458.194 414.351 488.201C361.454 518.326 312.722 524.771 278.87 524.771C244.988 524.771 196.302 518.328 143.373 488.2C90.4666 458.194 59.572 409.411 57.512 387.788C54.726 358.102 78.5204 341.789 96.3798 341.789C114.292 341.789 121.826 351.405 126.291 356.467C167.369 403.266 225.995 435.727 278.87 435.727L278.869 435.729Z" fill="#FFE500" stroke="black" stroke-width="3.80783" stroke-miterlimit="3.863"/>
<path d="M278.422 442.925C225.203 442.925 164.645 411.522 120.042 360.723C115.501 355.563 109.722 348.925 95.9697 348.925C87.9366 348.925 78.8272 353.227 72.7869 359.879C68.2404 364.821 63.1403 373.535 64.3654 386.891C66.135 405.139 95.0513 452.363 146.591 481.691C188.132 505.322 232.489 517.259 278.422 517.259C324.399 517.259 368.756 505.32 410.299 481.691C461.822 452.363 490.784 405.139 492.486 386.891C493.762 373.535 488.626 364.821 484.137 359.879C478.068 353.227 468.937 348.925 460.942 348.925C447.13 348.925 441.358 355.563 436.857 360.723C392.281 411.524 331.648 442.925 278.422 442.925Z" fill="#DA020E"/>
<path d="M507.358 178.005L507.545 165.671C511.346 168.575 518.49 168.62 522.671 164.162C524.577 162.131 525.659 158.99 525.503 155.755C525.321 152.104 523.666 148.312 520.94 145.639C505.5 130.549 491.784 115.483 491.784 115.483C490.366 113.243 488.149 111.622 486.865 111.071C484.974 110.167 478.255 107.098 473.133 114.878C468.512 121.926 469.198 131.863 470.088 135.493L484.564 155.225C489.522 161.513 503.491 174.883 507.36 178.003M197.921 50.1001C216.147 43.9781 232.81 38.9162 255.269 36.9306L258.673 35.0176C246.137 25.1259 233.685 18.376 221.283 18.376C213.497 18.376 197.652 23.6703 194.12 51.6228L197.921 50.1001ZM359.857 50.1001C341.623 43.9781 324.973 38.9162 302.538 36.9306L299.089 35.0176C311.676 25.1259 324.1 18.376 336.516 18.376C344.311 18.376 360.087 23.6703 363.694 51.6228L359.857 50.1001Z" fill="black"/>
<path d="M258.278 36.0031C267.447 18.376 275.831 12 280.52 12C286.314 12 293.138 21.2128 298.498 33.1372L299.627 35.8397L294.915 35.4731C291.824 34.8923 283.021 34.7798 279.662 34.7798C276.213 34.7798 268.776 34.7798 264.296 35.1972L258.278 36.0031Z" fill="black"/>
<path d="M185.982 433.26L172.707 457.258C168.698 464.469 164.569 469.046 157.797 465.164C151.13 461.394 152.675 455.928 156.768 448.477L170.079 424.45L159.343 418.492L145.277 443.885C137.534 457.86 147.277 466.531 154.907 470.734C163.053 475.243 174.909 478.597 182.586 464.723L196.748 439.219L185.982 433.26ZM356.69 482.7L352.217 468.932L365.539 464.63L363.694 458.904L350.359 463.227L346.566 451.461L360.2 446.989L358.363 441.321L333.403 449.437L347.275 492.084L374.788 483.161L372.974 477.473L356.69 482.7ZM385.203 427.509L370.011 436.266L392.506 475.277L407.64 466.529C423.281 457.508 424.768 443.845 418.608 432.885C411.193 419.878 398.955 419.581 385.203 427.509ZM408.162 439.379C413.86 449.361 412.702 456.643 403.93 461.666L399.748 464.1L383.232 435.565L387.727 432.959C398.262 426.904 404.244 432.293 408.162 439.379ZM286.62 457.659L287.434 463.505L299.993 461.728L305.42 500.284L317.098 498.665L311.684 460.131L324.056 458.414L323.203 452.486L286.62 457.659ZM275.988 458.026L264.227 457.383L261.877 502.18L273.643 502.807L275.988 458.026ZM240.284 452.548L232.093 483.159L216.766 446.239L207.231 443.68L195.616 487.02L205.999 489.775L214.257 458.91L229.817 496.144L239.142 498.659L250.715 455.303L240.284 452.548ZM178.404 169.709V379.824L278.871 444.377L379.328 379.824L379.477 170.03C376.259 167.193 369.578 160.973 364.343 157.719H192.933C188.595 160.765 179.905 168.097 178.404 169.709Z" fill="#FFE500"/>
<mask id="mask0_383_669" style="mask-type:luminance" maskUnits="userSpaceOnUse" x="178" y="157" width="202" height="288">
<path d="M178.404 169.709V379.824L278.871 444.377L379.33 379.824L379.477 170.03C376.259 167.193 369.578 160.974 364.343 157.717H192.933C188.595 160.765 179.905 168.096 178.404 169.709Z" fill="white"/>
</mask>
<g mask="url(#mask0_383_669)">
<g filter="url(#filter0_f_383_669)">
<path d="M178.404 84.3633V379.824L278.871 444.377L379.328 379.824L379.477 84.6845" stroke="#B54005" stroke-width="18.1498" stroke-miterlimit="3.863"/>
</g>
</g>
<path d="M319.023 320.461V312.651C319.023 312.651 316.947 309.442 311.803 309.442C306.674 309.442 303.605 310.987 303.605 312.279C303.605 314.392 308.197 320.461 319.023 320.461ZM278.513 251.332L286.276 237.774L292.361 251.332H302.44C296.378 257.022 293.898 265.631 293.898 271.371V277.628C293.898 280.287 292.563 284.684 292.563 284.684C292.563 284.684 301.313 291.351 302.658 292.507C303.217 292.95 303.83 293.218 303.425 294.376C302.732 296.324 296.788 299.004 296.184 299.513C294.84 300.707 294.488 301.424 294.84 302.602C295.265 303.738 296.378 303.945 298.656 303.141C300.955 302.4 305.718 299.899 309.712 298.19C313.693 296.458 319.023 296.899 319.023 296.899V289.245H303.972V264.928L301.313 260.643L307.95 248.817L314.626 260.717L311.997 264.928V277.628H319.666V264.928L317.021 260.717L323.682 248.906L330.312 260.717L327.692 264.928V277.628H335.411V264.928L332.679 260.717L339.362 248.906L346.021 260.717L343.364 264.928L343.491 289.209H328.318V300.438C331.761 303.669 335.008 310.987 335.008 315.296C335.008 319.706 332.135 321.576 332.135 321.576C333.097 325.039 332.91 326.48 332.499 329.616C332.135 332.803 328.154 337.776 328.154 337.776V395.812C328.154 399.754 319.023 399.366 319.023 395.997V339.083C313.856 333.431 299.79 328.988 299.79 328.988C294.632 334.148 291.459 343.108 291.459 343.108C293.697 344.675 297.184 343.108 298.498 341.584C299.79 340.059 302.44 339.665 303.972 340.627C305.473 341.584 305.845 341.95 305.329 344.19C304.739 346.55 303.799 350.319 303.799 352.957C303.799 355.657 306.837 355.053 309.108 355.254C313.693 355.657 314.446 360.779 314.065 363.639C313.693 366.514 312.348 372.613 312.348 376.406C312.348 380.163 312.549 383.954 312.923 386.105C313.319 388.18 314.067 390.472 313.856 393.153C313.625 396.759 311.408 397.335 309.108 395.019C306.839 392.743 275.054 358.861 275.054 358.861C272.941 365.752 281.736 377.504 284.573 381.132C287.434 384.762 287.247 387.427 284.746 389.913C282.295 392.369 277.526 393.683 276.593 395.997C275.622 398.237 278.87 405.137 285.551 413.693C292.212 422.234 277.907 427.968 269.373 429.677C260.779 431.365 260.779 425.467 261.376 422.234C261.944 419.031 261.944 417.082 261.735 414.266C261.548 411.399 258.92 407.428 255.268 402.672C251.662 397.894 251.662 393.548 253.163 382.477C254.679 371.433 254.321 364.385 254.321 364.385C254.321 364.385 250.513 364.543 244.988 364.385C239.493 364.177 234.932 360.988 234.543 347.653C234.162 334.357 233.848 302.602 232.946 299.273C232.064 295.981 228.503 295.374 227.002 294.935C225.441 294.547 225.367 292.3 226.875 291.492C230.846 289.559 235.61 284.684 233.848 281.653C232.064 278.613 225.069 279.239 220.386 281.533C215.691 283.802 210.74 288.79 209.464 290.149C208.231 291.492 207.164 291.492 207.299 290.044C207.455 288.492 206.433 281.227 205.828 278.711C205.157 276.172 202.886 271.371 202.117 270.103C201.364 268.825 202.117 268.333 203.402 268.825C204.632 269.333 207.455 270.506 210.106 271.208C212.778 272.014 215.324 270.7 216.542 268.206C217.811 265.629 220.29 260.202 221.559 257.775C222.806 255.38 224.822 255.917 226.479 256.282C228.122 256.67 229.645 257.686 231.162 258.291C232.668 258.917 233.93 258.799 234.469 258.029C234.982 257.298 235.61 257.022 236.52 255.126C237.409 253.229 238.516 254.133 238.656 254.886C243.197 282.183 255.023 283.436 255.023 283.436C253.245 287.984 249.079 295.233 248.094 297.062C247.027 298.772 246.631 301.206 246.37 303.095C246.168 304.978 247.027 323.008 248.288 329.616C249.573 336.23 253.611 333.654 254.925 331.631C256.141 329.616 260.107 321.223 260.107 321.223C260.107 321.223 261.085 318.938 261.085 317.042C261.085 315.131 257.8 310.987 257.045 309.695C256.261 308.381 253.492 305.865 253.492 299.513C253.492 293.18 259.196 288.79 261.249 287.125C263.282 285.461 263.282 283.152 263.004 281.764C262.115 276.867 256.911 266.564 254.41 262.614C251.851 258.679 246.907 251.205 246.907 251.205H257.18L263.795 237.466L270.993 251.265L278.511 251.332H278.513ZM276.847 292.95C280.199 287.409 281.602 281.653 281.602 281.653H271.91C271.91 281.653 273.464 287.543 276.847 292.95ZM266.752 265.017C267.14 267.854 269.253 268.937 270.859 268.108C272.456 267.228 272.18 264.928 270.993 263.091C269.857 261.293 267.498 259.284 266.774 259.583C266.035 259.888 266.498 263.346 266.752 265.017ZM285.963 259.583C285.268 259.284 282.782 261.293 281.602 263.091C280.468 264.928 280.177 267.228 281.789 268.108C283.364 268.937 285.395 267.832 285.903 265.017C286.179 263.346 286.724 259.888 285.963 259.583Z" fill="url(#paint2_linear_383_669)"/>
<path d="M186.287 222.091V234.738H371.641V222.091H357.971V224.133H199.955V222.091H186.287ZM186.296 165.251H371.616V215.648H186.296V165.251Z" fill="#DA020E"/>
<path d="M218.14 201.017L232.333 204.504L239.992 183.158V177.753L218.14 201.017ZM335.113 213.601V207.027H321.719V201.5H332.663V177.13H322.577L319.129 170.426L315.76 177.13H305.643V201.5H316.635V207.027H290.285V201.5H301.247V177.13H291.143L287.731 170.426L284.283 177.13H274.21V201.5H285.223V207.027H258.33V201.5H269.313V177.13H259.196L255.815 170.426L252.343 177.13H242.262V201.5H253.283V207.027L232.004 207.094L210.838 202.15L215.078 213.601H335.113Z" fill="#FFE500"/>
<path d="M198.973 48.1144C216.863 42.125 230.383 37.4605 252.417 35.504C242.262 28.4564 233.251 22.4905 222.887 22.4905C217.437 22.4905 212.778 24.5724 211.703 28.3802C210.703 31.8468 213.435 33.3532 214.408 33.1227C215.422 32.8613 216.146 32.5619 215.9 31.6217C215.638 30.6289 216.408 28.1043 219.871 28.1043C223.396 28.1043 224.724 31.3676 224.724 33.6073C224.724 35.847 221.17 39.5877 214.638 39.5877C208.231 39.5877 204.946 35.317 205.193 31.3658C202.102 35.8924 200.302 40.4679 198.973 48.1144Z" fill="url(#paint3_radial_383_669)"/>
<path d="M74.3171 155.222L88.8478 135.489C89.6827 131.859 90.347 121.931 85.7043 114.882C80.626 107.096 73.9378 110.17 71.974 111.074C70.7343 111.628 68.4801 113.24 67.0917 115.486C67.0917 115.486 53.1218 130.868 37.7489 146.002C35.5764 148.16 33.186 152.1 32.9846 155.752C32.7976 158.993 34.1044 162.249 35.9865 164.279C40.19 168.758 47.5371 168.58 51.2923 165.667L51.5536 178.002C55.4195 174.889 69.3676 161.507 74.3171 155.222Z" fill="black"/>
<path d="M278.869 126.505C361.595 126.505 408.663 204.154 418.936 217.788C437.184 242.141 459.523 261.912 485.408 255.38C523.433 245.651 521.453 189.325 521.453 189.325C512.279 182.719 496.644 174.401 468.138 133.994C440.224 94.3855 377.05 35.709 278.87 35.709C180.667 35.709 117.51 94.3855 89.6608 133.994C61.1257 174.401 45.4388 182.717 36.3512 189.323C36.3512 189.323 34.3003 245.649 72.3549 255.378C98.2238 261.912 120.548 242.139 138.827 217.786C149.063 204.152 196.158 126.503 278.87 126.503L278.869 126.505Z" fill="#FFE500" stroke="black" stroke-width="3.80783" stroke-miterlimit="3.863"/>
<path d="M278.869 119.133C358.624 119.133 406.057 186.784 423.21 211.196C445.912 241.497 465.129 252.935 483.595 248.239C510.278 241.444 513.593 204.718 513.952 193.601V193.16L513.653 192.93C504.246 186.41 488.506 175.608 462.136 138.225C446.404 115.9 386.682 43.0071 278.871 43.0071C171.095 43.0071 111.321 115.9 95.5958 138.225C69.4419 175.366 52.9946 186.695 44.1847 192.743L43.8108 193.048L43.8562 193.436C44.2137 204.577 47.5369 241.497 74.1536 248.239C92.6392 252.935 111.896 241.497 134.538 211.196C151.675 186.783 199.151 119.133 278.869 119.133Z" fill="#DA020E"/>
<path d="M235.543 62.6198C220.909 65.7179 211.27 76.5043 214.43 91.1331C216.265 99.0319 223.314 113.568 245.607 108.827C251.796 107.648 255.141 105.183 258.383 102.085L254.321 97.4202C252.791 99.1208 250.506 101.6 245.377 102.667C234.587 104.945 228.174 96.2168 226.575 88.6829C224.201 77.5207 230.704 69.8307 238.052 68.2408C243.3 67.0828 246.482 68.5094 248.497 69.2934H248.564L249.931 63.5744C246.391 62.1551 242.144 61.2168 235.543 62.6198ZM357.929 126.966C366.3 132.005 375.431 131.146 379.702 124.077C382.807 119.133 382.836 115.027 379.103 107.673C378.141 105.589 376.879 104.097 376.035 102.201C374.384 99.1244 372.863 96.6089 374.28 94.2258C375.848 91.6431 379.476 91.4344 382.762 93.4417C386.205 95.5253 387.629 98.9665 388.354 101.319L393.753 98.9901C392.094 94.5543 389.639 90.5759 384.025 87.2527C374.429 81.4738 366.628 82.9965 363.379 88.4106C360.087 93.8537 361.02 98.3857 363.499 103.028C363.499 103.028 365.037 105.664 365.926 107.464C368.098 111.092 370.63 115.668 368.853 118.528C366.703 122.135 362.998 122.921 359.394 120.679C354.771 117.768 353.689 114.378 352.726 111.071L346.791 113.608C348.097 118.164 351.165 122.883 357.929 126.966ZM294.033 60.2657L293.697 78.5426L276.123 78.2885L276.384 59.9445L264.601 59.7267L263.817 104.577L275.622 104.831L275.995 84.267L293.601 84.5901L293.265 105.114L305.053 105.294L305.823 60.4454L294.033 60.2639V60.2657ZM462.822 202.68C462.906 202.792 469.737 206.168 477.329 199.351C483.676 193.647 481.547 185.83 474.917 178.49L462.695 164.908L429.374 194.939L437.251 203.674L450.518 191.772L454.348 196.095L445.948 215.044L456.005 223.078L462.822 202.68ZM468.773 180.588C471.895 184.053 471.946 188.165 468.318 191.362C464.786 194.618 460.278 193.87 456.849 190.108L454.856 187.875L466.138 177.684L468.773 180.588ZM416.771 169.13L427.933 159.865L436.884 170.518L441.512 166.66L432.51 155.961L441.955 148.009L451.175 158.99L455.753 155.176L438.91 135.099L404.57 163.934L423.118 186.071L427.746 182.227L416.771 169.13ZM403.899 101.736L399.897 106.127L409.304 114.632L383.232 143.555L392.027 151.461L418.063 122.53L427.35 130.892L431.338 126.502L403.899 101.736ZM327.125 104.58L331.873 90.9008L345.081 95.4564L347.045 89.7664L333.813 85.2199L337.837 73.506L351.45 78.1705L353.361 72.5114L328.564 63.9792L313.99 106.453L341.317 115.81L343.259 110.149L327.125 104.58ZM185.121 82.6063L201.964 109.455L164.463 95.4545L156.114 100.696L179.898 138.796L188.955 133.092L171.999 105.967L209.888 120.033L218.072 114.904L194.247 76.8256L185.121 82.6063ZM132.667 123.177L124.998 131.404L146.493 174.15L151.742 168.536L145.903 157.164L156.281 146.002L168.048 150.989L176.694 141.733L132.667 123.177ZM150.795 143.53L143.008 151.891L135.004 136.511L150.795 143.53ZM107.333 150.3L98.986 160.238L114.582 192.491L81.1339 181.539L73.9375 190.066L108.304 218.924L113.522 212.726L89.236 192.284L121.788 202.885L125.214 198.823L109.693 167.72L134.086 188.169L141.7 179.158L107.333 150.3Z" fill="#FFE500"/>
<path d="M54.8312 173.154L54.7949 163.262C71.6742 147.762 79.6329 132.188 79.6329 132.188C79.6329 132.188 73.4293 129.85 70.6524 126.318C69.2785 124.356 68.7467 121.676 68.979 119.875C69.5162 116.501 72.1443 114.791 73.0409 114.403C74.9829 113.568 78.5875 111.67 82.6058 117.196C86.8837 123.177 85.7566 134.524 85.165 137.137C85.165 137.137 77.297 150.839 54.8312 173.154Z" fill="url(#paint4_radial_383_669)"/>
<path d="M73.5128 133.992C71.2332 137.965 65.4924 147.55 50.9707 161.162C48.5586 163.424 42.542 165.342 39.1298 161.513C37.8521 160.026 37.0081 157.944 37.1352 155.523C37.2985 152.724 38.9792 149.47 40.6672 148.036C43.5947 145.564 56.0709 132.968 64.9407 123.062C65.1857 124.868 66.7393 127.892 66.7393 127.892C67.9644 129.58 69.4563 132.006 73.511 133.992" fill="url(#paint5_linear_383_669)"/>
<path d="M278.422 442.927C225.203 442.927 164.645 411.522 120.042 360.723C115.501 355.563 109.722 348.925 95.9697 348.925C87.9366 348.925 78.8272 353.227 72.787 359.879C68.2404 364.821 63.1403 373.535 64.3654 386.891C66.135 405.139 95.0513 452.363 146.591 481.691C188.132 505.322 232.491 517.259 278.422 517.259" fill="url(#paint6_linear_383_669)"/>
<path d="M278.422 442.927C331.641 442.927 392.2 411.522 436.803 360.723C441.342 355.563 447.121 348.925 460.875 348.925C468.908 348.925 478.017 353.227 484.056 359.879C488.604 364.821 493.702 373.535 492.477 386.891C490.71 405.139 461.793 452.363 410.253 481.691C368.71 505.322 324.354 517.259 278.422 517.259" fill="url(#paint7_linear_383_669)"/>
<path d="M423.21 211.196C445.912 241.497 465.129 252.935 483.595 248.239C510.279 241.444 513.593 204.718 513.952 193.601V193.16L513.653 192.93C504.245 186.41 488.506 175.608 462.136 138.225" fill="url(#paint8_linear_383_669)"/>
<path d="M134.603 211.196C111.902 241.497 92.6845 252.935 74.2189 248.239C47.5351 241.444 44.2209 204.718 43.8616 193.601V193.16L44.1611 192.93C53.5681 186.41 69.3076 175.608 95.6774 138.225" fill="url(#paint9_linear_383_669)"/>
<path d="M358.84 48.1144C340.95 42.125 327.43 37.4605 305.396 35.504C315.551 28.4564 324.563 22.4905 334.926 22.4905C340.376 22.4905 345.036 24.5724 346.11 28.3802C347.11 31.8468 344.378 33.3532 343.406 33.1227C342.391 32.8613 341.667 32.5619 341.914 31.6217C342.175 30.6289 341.406 28.1043 337.943 28.1043C334.418 28.1043 333.089 31.3676 333.089 33.6073C333.089 35.847 336.643 39.5877 343.175 39.5877C349.582 39.5877 352.867 35.317 352.62 31.3658C355.711 35.8924 357.512 40.4679 358.84 48.1144Z" fill="url(#paint10_radial_383_669)"/>
<path d="M279.709 24.6323C279.148 28.0517 275.215 31.3296 271.233 31.3296C267.247 31.3296 266.053 30.6871 266.053 30.6871C265.449 31.6272 264.919 32.3514 264.292 33.3678C267.904 33.2262 276.289 32.9939 279.649 32.9939C283.001 32.9939 292.298 33.4803 294.298 33.6219C291.065 26.0426 284.831 15.5538 280.522 15.5538C280.373 15.5538 280.186 15.5392 279.956 15.5392C278.947 15.5392 275.455 18.5666 273.585 21.2237C271.128 24.7158 279.709 24.6323 279.709 24.6323Z" fill="url(#paint11_radial_383_669)"/>
<path d="M502.982 173.154L503.018 163.262C486.139 147.762 478.18 132.188 478.18 132.188C478.18 132.188 484.384 129.85 487.161 126.318C488.535 124.356 489.067 121.676 488.834 119.875C488.297 116.501 485.669 114.791 484.773 114.403C482.83 113.568 479.226 111.67 475.208 117.196C470.93 123.177 472.057 134.524 472.648 137.137C472.648 137.137 480.516 150.839 502.982 173.154Z" fill="url(#paint12_radial_383_669)"/>
<path d="M484.302 133.992C486.58 137.965 492.321 147.55 506.843 161.162C509.255 163.424 515.272 165.342 518.684 161.513C519.961 160.026 520.805 157.944 520.678 155.523C520.515 152.724 518.834 149.47 517.146 148.036C514.219 145.564 501.743 132.968 492.873 123.062C492.628 124.868 491.074 127.892 491.074 127.892C489.849 129.58 488.357 132.006 484.302 133.992Z" fill="url(#paint13_linear_383_669)"/>
<path d="M178.404 169.709V379.824L278.871 444.377L379.328 379.824L379.477 170.03C376.259 167.193 369.578 160.973 364.343 157.719H192.933C188.595 160.765 179.905 168.097 178.404 169.709Z" stroke="black" stroke-width="3.80783" stroke-miterlimit="3.863"/>
<path d="M352.526 517.334C342.663 519.947 335.616 522.158 319.003 524.172C319.003 524.172 319.533 525.853 323.147 525.719C324.528 525.628 324.715 525.285 325.192 525.203C326.26 525.009 327.806 526.093 327.65 527.891C327.485 529.162 326.425 530.735 322.737 530.735C319.049 530.735 314.754 527.735 312.582 524.927C312.582 524.927 310.38 525.443 308.088 525.554C308.088 525.554 315.188 535.469 329.135 535.469C344.447 535.469 350.152 521.724 352.526 517.334Z" fill="url(#paint14_radial_383_669)"/>
<path d="M18 301.658C18 276.31 38.5692 255.695 63.948 255.695C89.3323 255.695 109.885 276.31 109.885 301.658C109.885 327.049 89.3323 347.62 63.948 347.62C38.5692 347.62 18 327.051 18 301.658Z" fill="#FFE500" stroke="black" stroke-width="3.80783" stroke-miterlimit="3.863"/>
<path d="M28.5196 299.948C28.5196 280.731 44.3789 265.101 63.948 265.101C83.5189 265.101 99.3691 280.731 99.3691 299.948C99.3691 319.202 83.5189 334.796 63.9462 334.796C44.3789 334.796 28.5196 319.202 28.5196 299.948Z" fill="url(#paint15_radial_383_669)"/>
<path d="M73.7053 333.248C71.6907 333.888 70.8159 332.478 69.8975 331.462C66.322 327.349 65.4036 316.397 65.4036 314.947C65.4036 313.492 65.9408 311.894 66.9645 311.856C75.5856 311.693 81.7475 309.19 87.3993 304.495C93.0439 299.881 95.4923 294.587 95.9914 293.647C96.4851 292.601 97.6576 292.788 97.8736 294.237C98.1131 295.445 98.5687 297.618 98.5687 299.97C98.5687 315.753 87.9293 328.647 73.7053 333.248ZM64.605 334.672C64.3582 334.672 64.0823 334.703 63.85 334.703C57.4975 334.703 50.5008 332.277 46.3572 329.917C42.063 327.579 40.4513 316.559 40.4513 310.991C40.4513 292.855 47.8872 282.06 49.096 279.938C50.2757 277.787 52.9347 277.564 54.884 278.087C56.8986 278.668 57.6155 279.02 59.9369 279.708C61.1475 280.103 63.6031 280.602 65.4471 280.931C67.2912 281.372 69.2768 281.76 68.0825 285.202C66.9028 288.65 62.8862 296.939 62.4833 306.764C62.0949 315.657 63.2746 324.489 65.2838 329.917C66.6051 333.426 66.6051 334.74 64.605 334.672ZM38.3531 293.273C36.658 292.376 34.6197 288.002 33.9337 286.724C33.4709 285.806 33.4709 283.178 34.1333 282.06C36.9719 277.094 40.9958 272.495 46.1775 270.099C46.8128 269.821 47.7021 269.769 47.7021 271.292C47.7021 272.106 48.1413 273.375 48.1558 274.181C48.1558 274.996 48.5007 276.66 47.4698 277.974C46.3862 279.296 41.7508 287.516 40.5638 292.124C40.3696 293.153 40.0556 294.237 38.3531 293.273ZM37.3967 322.376C32.5888 317.628 29.1621 309.027 29.1621 299.97C29.1621 296.454 29.6848 293.086 30.6177 289.891C30.6177 289.891 31.4762 288.458 32.224 289.674C32.7975 290.57 33.5888 291.474 34.2313 292.668C34.9482 293.863 38.6671 296.692 38.3513 298.999C37.0536 307.475 38.2188 318.733 38.6218 320.63C38.9793 322.503 38.4657 323.302 37.3967 322.376ZM52.5753 267.141C56.2108 265.927 60.0174 265.305 63.85 265.297C69.8013 265.297 75.5802 266.38 80.4026 269.455C81.6422 270.262 81.9925 271.203 81.9925 272.598C81.9925 277.147 74.885 278.669 70.1806 278.669C65.4471 278.669 59.6247 276.795 55.5029 275.488C51.3956 274.205 50.5008 271.831 50.5008 270.747C50.5008 269.709 51.2994 267.56 52.5753 267.141ZM84.666 272.195L86.9801 274.07C90.296 277.094 93.2889 280.543 95.0295 284.679C97.202 289.891 90.4594 297.783 88.481 299.603C79.5513 307.989 73.9594 307.833 70.7941 308.288C67.6288 308.751 65.5742 306.763 65.6577 304.382C65.8573 297.409 70.8231 285.388 72.2497 283.127C73.1608 281.67 74.7435 280.768 74.7435 280.768C78.0576 279.849 81.2774 278.468 82.9417 276.571C84.568 274.644 84.666 272.195 84.666 272.195ZM64.193 263.035C42.8488 263.035 25.563 280.327 25.563 301.658C25.563 323.002 42.847 340.288 64.193 340.288C85.5244 340.288 102.847 323.004 102.847 301.658C102.847 280.327 85.5244 263.035 64.193 263.035Z" fill="#DA020E"/>
<path d="M448.816 301.569C448.816 276.221 469.385 255.681 494.762 255.681C520.156 255.681 540.71 276.221 540.71 301.569C540.71 326.961 520.156 347.539 494.762 347.539C469.385 347.539 448.816 326.961 448.816 301.569Z" fill="#FFE500" stroke="black" stroke-width="3.80783" stroke-miterlimit="3.863"/>
<path d="M521.671 322.216C520.664 323.211 520.096 322.343 520.522 320.485C520.873 318.641 522.045 307.344 520.738 298.87C520.417 296.571 524.158 293.748 524.844 292.539C525.532 291.352 526.314 290.427 526.867 289.559C527.637 288.307 528.45 289.71 528.45 289.71C529.437 292.991 529.931 296.4 529.915 299.827C529.915 308.912 526.443 317.483 521.671 322.218M518.558 292.002C517.364 287.41 512.696 279.152 511.643 277.838C510.583 276.568 510.919 274.88 510.936 274.067C510.936 273.261 511.398 271.97 511.398 271.134C511.398 269.678 512.279 269.707 512.905 269.983C518.117 272.379 522.119 276.913 524.987 281.922C525.622 283.065 525.637 285.679 525.165 286.566C524.493 287.85 522.47 292.226 520.736 293.151C519.007 294.099 518.753 292.995 518.558 292.002ZM512.756 329.788C508.605 332.111 501.61 334.558 495.227 334.558H494.486C492.523 334.613 492.479 333.244 493.822 329.75C495.771 324.367 496.987 315.497 496.584 306.627C496.182 296.757 492.218 288.559 490.985 285.087C489.791 281.646 491.784 281.229 493.651 280.84C495.503 280.474 497.951 279.936 499.169 279.548C501.452 278.853 502.193 278.502 504.207 277.927C506.171 277.419 508.814 277.673 510.015 279.771C511.195 281.922 518.647 292.785 518.647 310.876C518.647 316.416 517.019 327.422 512.756 329.788ZM485.408 333.102C471.148 328.482 460.53 315.595 460.53 299.827C460.53 297.503 460.985 295.355 461.172 294.099C461.448 292.65 462.539 292.411 463.084 293.48C463.585 294.451 466.064 299.736 471.678 304.366C477.367 309.025 483.466 311.571 492.143 311.749C493.196 311.802 493.688 313.346 493.688 314.835C493.688 316.305 492.798 327.235 489.237 331.318C488.29 332.364 487.379 333.798 485.408 333.102ZM464.1 284.557C465.793 280.421 468.803 276.913 472.119 273.956C472.119 273.956 473.761 272.567 474.395 272.081C474.395 272.081 474.529 274.553 476.18 276.404C477.823 278.27 481.01 279.735 484.326 280.608C484.326 280.608 485.887 281.555 486.82 283.013C488.29 285.209 493.218 297.213 493.434 304.239C493.494 306.627 491.463 308.613 488.29 308.159C485.108 307.733 479.533 307.831 470.61 299.491C468.639 297.661 461.898 289.784 464.1 284.557ZM478.674 269.326C483.564 266.235 489.268 265.151 495.227 265.151C499.169 265.151 502.917 265.825 506.507 267.005C507.828 267.415 508.605 269.544 508.605 270.611C508.605 271.664 507.732 274.067 503.596 275.359C499.476 276.629 493.673 278.524 488.947 278.524C484.192 278.524 477.106 276.98 477.106 272.455C477.106 271.088 477.449 270.095 478.672 269.326M494.86 262.935C473.536 262.935 456.245 280.234 456.245 301.513C456.245 322.911 473.536 340.143 494.86 340.143C516.223 340.143 533.512 322.911 533.512 301.513C533.512 280.234 516.221 262.935 494.86 262.935Z" fill="#DA020E"/>
<path d="M459.86 299.779C459.86 280.561 475.719 264.932 495.289 264.932C514.861 264.932 530.71 280.561 530.71 299.779C530.71 319.031 514.861 334.627 495.287 334.627C475.721 334.627 459.86 319.031 459.86 299.779Z" fill="url(#paint16_radial_383_669)"/>
<defs>
<filter id="filter0_f_383_669" x="158.109" y="73.1431" width="241.663" height="393.241" filterUnits="userSpaceOnUse" color-interpolation-filters="sRGB">
<feFlood flood-opacity="0" result="BackgroundImageFix"/>
<feBlend mode="normal" in="SourceGraphic" in2="BackgroundImageFix" result="shape"/>
<feGaussianBlur stdDeviation="5.6101" result="effect1_foregroundBlur_383_669"/>
</filter>
<radialGradient id="paint0_radial_383_669" cx="0" cy="0" r="1" gradientUnits="userSpaceOnUse" gradientTransform="translate(280.143 532.602) scale(18.0032 13.383)">
<stop stop-color="#FFE500"/>
<stop offset="0.5" stop-color="#FFE500"/>
<stop offset="1" stop-color="#E15007"/>
</radialGradient>
<radialGradient id="paint1_radial_383_669" cx="0" cy="0" r="1" gradientUnits="userSpaceOnUse" gradientTransform="translate(230.685 526.397) scale(19.037 17.1165)">
<stop stop-color="#FFE500"/>
<stop offset="0.5" stop-color="#FFE500"/>
<stop offset="1" stop-color="#E15007"/>
</radialGradient>
<linearGradient id="paint2_linear_383_669" x1="273.687" y1="236.825" x2="273.687" y2="336.771" gradientUnits="userSpaceOnUse">
<stop stop-color="#8F0904"/>
<stop offset="0.25" stop-color="#B40509"/>
<stop offset="1" stop-color="#DA020E"/>
</linearGradient>
<radialGradient id="paint3_radial_383_669" cx="0" cy="0" r="1" gradientUnits="userSpaceOnUse" gradientTransform="translate(221.688 36.4284) scale(21.7658 20.7242)">
<stop stop-color="#FFE500"/>
<stop offset="0.5" stop-color="#FFE500"/>
<stop offset="1" stop-color="#E15007"/>
</radialGradient>
<radialGradient id="paint4_radial_383_669" cx="0" cy="0" r="1" gradientUnits="userSpaceOnUse" gradientTransform="translate(63.4666 146.907) rotate(-60.273) scale(33.9629 29.8765)">
<stop stop-color="#FFE500"/>
<stop offset="0.5" stop-color="#FFE500"/>
<stop offset="1" stop-color="#E15007"/>
</radialGradient>
<linearGradient id="paint5_linear_383_669" x1="58.9022" y1="133.397" x2="67.1586" y2="142.472" gradientUnits="userSpaceOnUse">
<stop stop-color="#FFE500"/>
<stop offset="0.5" stop-color="#FFE500"/>
<stop offset="1" stop-color="#E15007"/>
</linearGradient>
<linearGradient id="paint6_linear_383_669" x1="77.6565" y1="358.657" x2="134.683" y2="424.109" gradientUnits="userSpaceOnUse">
<stop stop-color="#740703"/>
<stop offset="1" stop-color="#DA020E" stop-opacity="0"/>
</linearGradient>
<linearGradient id="paint7_linear_383_669" x1="479.188" y1="358.657" x2="422.161" y2="424.109" gradientUnits="userSpaceOnUse">
<stop stop-color="#740703"/>
<stop offset="1" stop-color="#DA020E" stop-opacity="0"/>
</linearGradient>
<linearGradient id="paint8_linear_383_669" x1="500.347" y1="238.206" x2="469.485" y2="209.167" gradientUnits="userSpaceOnUse">
<stop stop-color="#740703"/>
<stop offset="1" stop-color="#DA020E" stop-opacity="0"/>
</linearGradient>
<linearGradient id="paint9_linear_383_669" x1="57.4667" y1="238.206" x2="90.1435" y2="203.722" gradientUnits="userSpaceOnUse">
<stop stop-color="#740703"/>
<stop offset="1" stop-color="#DA020E" stop-opacity="0"/>
</linearGradient>
<radialGradient id="paint10_radial_383_669" cx="0" cy="0" r="1" gradientUnits="userSpaceOnUse" gradientTransform="translate(336.124 36.4284) rotate(180) scale(21.7658 20.7242)">
<stop stop-color="#FFE500"/>
<stop offset="0.5" stop-color="#FFE500"/>
<stop offset="1" stop-color="#E15007"/>
</radialGradient>
<radialGradient id="paint11_radial_383_669" cx="0" cy="0" r="1" gradientUnits="userSpaceOnUse" gradientTransform="translate(278.909 26.3436) scale(16.4427 15.7163)">
<stop stop-color="#FFE500"/>
<stop offset="0.5" stop-color="#FFE500"/>
<stop offset="1" stop-color="#E15007"/>
</radialGradient>
<radialGradient id="paint12_radial_383_669" cx="0" cy="0" r="1" gradientUnits="userSpaceOnUse" gradientTransform="translate(494.349 146.907) rotate(-119.727) scale(33.9629 29.8765)">
<stop stop-color="#FFE500"/>
<stop offset="0.5" stop-color="#FFE500"/>
<stop offset="1" stop-color="#E15007"/>
</radialGradient>
<linearGradient id="paint13_linear_383_669" x1="498.911" y1="133.397" x2="490.655" y2="142.472" gradientUnits="userSpaceOnUse">
<stop stop-color="#FFE500"/>
<stop offset="0.5" stop-color="#FFE500"/>
<stop offset="1" stop-color="#E15007"/>
</linearGradient>
<radialGradient id="paint14_radial_383_669" cx="0" cy="0" r="1" gradientUnits="userSpaceOnUse" gradientTransform="translate(330.305 526.397) rotate(180) scale(19.037 17.1165)">
<stop stop-color="#FFE500"/>
<stop offset="0.5" stop-color="#FFE500"/>
<stop offset="1" stop-color="#E15007"/>
</radialGradient>
<radialGradient id="paint15_radial_383_669" cx="0" cy="0" r="1" gradientUnits="userSpaceOnUse" gradientTransform="translate(63.9419 299.948) scale(35.4255 34.8478)">
<stop stop-color="#DA030E" stop-opacity="0"/>
<stop offset="0.875" stop-color="#DA020E" stop-opacity="0"/>
<stop offset="1" stop-color="#DA020E"/>
</radialGradient>
<radialGradient id="paint16_radial_383_669" cx="0" cy="0" r="1" gradientUnits="userSpaceOnUse" gradientTransform="translate(495.282 299.777) scale(35.4255 34.8479)">
<stop stop-color="#DA030E" stop-opacity="0"/>
<stop offset="0.875" stop-color="#DA020E" stop-opacity="0"/>
<stop offset="1" stop-color="#DA020E"/>
</radialGradient>
</defs>
</svg>
