<svg width="32" height="32" viewBox="0 0 32 32" fill="none" xmlns="http://www.w3.org/2000/svg">
<path d="M29.87 12.5L26.67 6.91C26.0383 5.80438 25.0516 4.94457 23.87 4.47L20.37 3.07C20.2182 3.00955 20.0539 2.98721 19.8915 3.00493C19.7291 3.02265 19.5735 3.0799 19.4384 3.17166C19.3032 3.26341 19.1925 3.3869 19.1161 3.5313C19.0397 3.6757 18.9998 3.83662 19 4C19 4.79565 18.6839 5.55871 18.1213 6.12132C17.5587 6.68393 16.7956 7 16 7C15.2044 7 14.4413 6.68393 13.8787 6.12132C13.3161 5.55871 13 4.79565 13 4C13.0002 3.8362 12.9603 3.67484 12.8835 3.53012C12.8068 3.38539 12.6957 3.26173 12.56 3.17C12.4249 3.07879 12.2695 3.02199 12.1074 3.00456C11.9453 2.98713 11.7814 3.0096 11.63 3.07L8.13 4.47C6.94838 4.94457 5.96171 5.80438 5.33 6.91L2.13 12.5C2.06178 12.6185 2.01859 12.7498 2.00311 12.8857C1.98763 13.0216 2.00018 13.1592 2.04 13.29C2.07998 13.4193 2.14579 13.5392 2.23345 13.6423C2.32112 13.7454 2.42881 13.8297 2.55 13.89L8 16.62V24.62C7.99993 25.2308 8.17144 25.8293 8.495 26.3473C8.81855 26.8654 9.28112 27.2821 9.83 27.55C11.7519 28.4745 13.8573 28.9546 15.99 28.9546C18.1227 28.9546 20.2281 28.4745 22.15 27.55C22.6958 27.287 23.1579 26.8775 23.4845 26.3672C23.8112 25.8569 23.9897 25.2658 24 24.66V16.66L29.45 13.93C29.5712 13.8697 29.6789 13.7854 29.7665 13.6823C29.8542 13.5792 29.92 13.4593 29.96 13.33C30.0057 13.1933 30.0213 13.0484 30.0058 12.9052C29.9902 12.7619 29.9439 12.6237 29.87 12.5ZM4.39 12.58L4.73 11.98L8 13.62V14.38L4.39 12.58ZM22 24.66C22.0024 24.8979 21.9369 25.1315 21.8111 25.3335C21.6853 25.5354 21.5046 25.6972 21.29 25.8C19.6357 26.5931 17.8246 27.0048 15.99 27.0048C14.1554 27.0048 12.3443 26.5931 10.69 25.8C10.4792 25.6944 10.3025 25.5313 10.1804 25.3296C10.0583 25.1279 9.99578 24.8958 10 24.66V13C10.0047 12.9534 10.0047 12.9065 10 12.86C10.0047 12.7901 10.0047 12.7199 10 12.65C9.97393 12.5913 9.94386 12.5345 9.91 12.48C9.91 12.43 9.84 12.37 9.8 12.33C9.74794 12.278 9.69101 12.2311 9.63 12.19L9.52 12.11L5.73 10.24L7.07 7.9C7.47322 7.18656 8.10839 6.63255 8.87 6.33L11.2 5.4C11.5029 6.43858 12.1345 7.35089 13 8C13.8655 8.64911 14.9181 9 16 9C17.0819 9 18.1345 8.64911 19 8C19.8655 7.35089 20.4971 6.43858 20.8 5.4L23.13 6.33C23.8916 6.63255 24.5268 7.18656 24.93 7.9L26.27 10.24L22.55 12.11L22.44 12.19C22.379 12.2311 22.3221 12.278 22.27 12.33C22.27 12.33 22.2 12.43 22.16 12.48C22.1261 12.5345 22.0961 12.5913 22.07 12.65C22.0605 12.7197 22.0605 12.7903 22.07 12.86C22.0415 12.9039 22.018 12.9509 22 13V24.66ZM24 14.38V13.62L27.27 12L27.61 12.6L24 14.38Z" fill="white"/>
<path d="M18.5 11C18.0055 11 17.5222 11.1466 17.1111 11.4213C16.7 11.696 16.3795 12.0865 16.1903 12.5433C16.0011 13.0001 15.9516 13.5028 16.048 13.9877C16.1445 14.4727 16.3826 14.9181 16.7322 15.2678C17.0819 15.6174 17.5273 15.8555 18.0123 15.952C18.4972 16.0484 18.9999 15.9989 19.4567 15.8097C19.9135 15.6205 20.304 15.3 20.5787 14.8889C20.8534 14.4778 21 13.9945 21 13.5C21 12.837 20.7366 12.2011 20.2678 11.7322C19.7989 11.2634 19.163 11 18.5 11ZM18.5 14C18.4011 14 18.3044 13.9707 18.2222 13.9157C18.14 13.8608 18.0759 13.7827 18.0381 13.6913C18.0002 13.6 17.9903 13.4994 18.0096 13.4025C18.0289 13.3055 18.0765 13.2164 18.1464 13.1464C18.2164 13.0765 18.3055 13.0289 18.4025 13.0096C18.4994 12.9903 18.6 13.0002 18.6913 13.0381C18.7827 13.0759 18.8608 13.14 18.9157 13.2222C18.9707 13.3044 19 13.4011 19 13.5C19 13.6326 18.9473 13.7598 18.8536 13.8536C18.7598 13.9473 18.6326 14 18.5 14Z" fill="white"/>
</svg>
