<?xml version="1.0" encoding="UTF-8"?>
<svg version="1.1" xmlns="http://www.w3.org/2000/svg" width="558" height="558">
<path d="M0 0 C-7.60546546 1.99837485 -15.29806628 3.54862466 -23 5.125 C-24.36070892 5.40479314 -25.72138628 5.6847398 -27.08203125 5.96484375 C-30.38771437 6.64473602 -33.69370797 7.32307619 -37 8 C-34.22832203 8 -31.69284301 7.74238308 -28.94921875 7.37890625 C-27.43424805 7.18264648 -27.43424805 7.18264648 -25.88867188 6.98242188 C-23.79730221 6.70808113 -21.70614557 6.43211025 -19.61523438 6.15429688 C-7.22313318 4.55556765 5.1139633 3.84269168 17.60546875 3.796875 C19.47251213 3.78832489 19.47251213 3.78832489 21.37727356 3.77960205 C23.9914975 3.77022851 26.60573284 3.76364888 29.2199707 3.75976562 C33.16053429 3.75006637 37.10057395 3.71897043 41.04101562 3.6875 C59.13737788 3.61045109 76.09311274 4.73415793 93.5 10 C94.48863037 10.29487305 95.47726074 10.58974609 96.49584961 10.89355469 C141.40241587 24.77140612 185.84242108 48.43002686 220 81 C220.79148437 81.73863281 221.58296875 82.47726563 222.3984375 83.23828125 C237.11432452 97.36036932 252.97824232 118.88810336 256.9375 139.25 C257.58753577 142.36198225 258.40830806 145.26567631 259.5 148.25 C262.9673565 158.37778263 263.36425974 169.07453594 263.3125 179.6875 C263.30686035 180.91283447 263.3012207 182.13816895 263.29541016 183.40063477 C263.16485697 193.2186218 262.30848486 202.462479 260 212 C259.71793701 213.19786133 259.71793701 213.19786133 259.43017578 214.41992188 C249.82168598 254.07691876 226.93804561 289.40791489 202.13671875 321.23828125 C199.6649013 324.4331166 197.31091764 327.68768472 195 331 C193.61266189 326.83798567 195.38975588 324.49197109 197.1875 320.75 C208.41250989 296.34999095 210.27551394 265.25642239 201.22021484 239.80859375 C198.06930437 231.31756377 194.26586754 223.19205536 189.96875 215.22265625 C189.48921875 214.12244141 189.48921875 214.12244141 189 213 C189.33 212.34 189.66 211.68 190 211 C190.75023437 211.66386719 191.50046875 212.32773437 192.2734375 213.01171875 C202.66436726 222.24340047 202.66436726 222.24340047 215.625 226.3125 C216.40875 226.209375 217.1925 226.10625 218 226 C221.74695651 218.50608697 218.56544342 207.88082626 216.22265625 200.390625 C214.44037037 195.44805586 212.34112885 190.70144729 210 186 C210.28875 187.03898438 210.5775 188.07796875 210.875 189.1484375 C215.19511596 205.17672168 215.19511596 205.17672168 214 212 C213.34 212.99 212.68 213.98 212 215 C203.86770138 216.21119341 195.82903885 212.64782943 189.375 207.875 C182.47697315 202.06288793 176.74901998 196.05362428 172.9375 187.8125 C170.64604621 182.86977737 168.30792541 179.954644 164.0390625 176.62109375 C161.98149521 174.98528834 160.28675483 173.23700025 158.5 171.3125 C147.99543076 160.72586381 135.19816938 152.76453908 122 146 C121.33419922 145.65485352 120.66839844 145.30970703 119.98242188 144.95410156 C101.66086392 135.56408269 82.16126383 129.89174838 62 126 C61.20851563 125.84547363 60.41703125 125.69094727 59.6015625 125.53173828 C33.79339595 120.70356908 6.74702924 120.95081825 -19.43432617 120.34130859 C-23.29047093 120.24720332 -27.14494322 120.13114279 -31 120 C-32.28551758 119.9589917 -33.57103516 119.9179834 -34.89550781 119.87573242 C-45.97093631 119.37062617 -56.47973368 117.30335116 -67.29101562 114.93579102 C-75.41108278 113.17361163 -83.07595636 111.75608908 -91.41015625 111.98046875 C-98.33523657 112.14731232 -103.91081099 111.07781766 -110.4375 108.875 C-117.87473202 106.37643027 -122.46491169 105.85078211 -130 108 C-139.41304372 109.00064494 -147.94888375 107.12178035 -156.92871094 104.58203125 C-159.76457474 103.78515486 -162.61292607 103.03828096 -165.46142578 102.28808594 C-168.31049917 101.53606705 -171.15530652 100.76839422 -174 100 C-174.33 98.68 -174.66 97.36 -175 96 C-158.62593228 93.19452934 -142.51717971 92.56523647 -125.93945312 92.46704102 C-112.10174112 92.45932389 -112.10174112 92.45932389 -99.4375 87.375 C-97.26755942 83.78988079 -97.17637434 80.12715965 -97 76 C-97.226875 77.051875 -97.45375 78.10375 -97.6875 79.1875 C-98.87416734 83.23853678 -100.63158928 85.36385248 -104 88 C-114.05839436 93.11742871 -124.03240985 91.18777711 -134.64453125 88.734375 C-148.89382382 85.6157871 -164.58893684 86.41760875 -179 88 C-179.47349266 84.21205875 -179.77116996 81.46639137 -177.96875 78.0390625 C-173.83688557 72.87423197 -168.54885983 69.5163686 -163.04150391 65.99926758 C-158.19904919 62.88710605 -153.74906517 59.47525231 -149.3125 55.8125 C-138.14225674 46.76924599 -127.66423469 42.05704309 -114.0637207 37.54833984 C-104.31603834 34.25911265 -95.35670246 30.04534802 -86.29296875 25.21533203 C-82.51498318 23.21290314 -78.69579737 21.29407246 -74.875 19.375 C-74.2051709 19.03202881 -73.5353418 18.68905762 -72.84521484 18.33569336 C-68.22736837 16 -68.22736837 16 -66 16 C-66 15.01 -66 14.02 -66 13 C-47.66137248 7.34848622 -29.57605312 2.05929334 -10.5 -0.3125 C-9.43048096 -0.44567627 -9.43048096 -0.44567627 -8.33935547 -0.58154297 C-5.15198106 -0.93170962 -3.08313025 -1.02771008 0 0 Z M68 27 C68.59748047 27.63615234 68.59748047 27.63615234 69.20703125 28.28515625 C72.05198212 31.43467607 73.88897729 33.69721078 75.375 37.75 C77.138028 41.27605599 77.53427892 41.59532075 81 42.9375 C83.5505264 43.74420058 85.28235 44 88 44 C87.23562609 37.7299184 83.42730351 34.22384288 79 30 C75.17513519 27.52508747 72.54539508 26.59893573 68 27 Z M-31.19921875 41.875 C-31.79347656 42.57625 -32.38773438 43.2775 -33 44 C-37.09023731 42.63658756 -38.15201803 40.19401496 -40.5 36.71484375 C-40.995 36.14894531 -41.49 35.58304688 -42 35 C-42.99 35 -43.98 35 -45 35 C-44.48423403 37.44247794 -43.7638289 39.57300529 -42.80859375 41.890625 C-38.67727585 52.01294235 -36.76894628 61.70294461 -40.0390625 72.3984375 C-44.35554003 81.97185413 -51.24938881 88.45564581 -60.98046875 92.32421875 C-63.29943997 93.10019945 -65.57264858 93.68679336 -68 94 C-68 94.33 -68 94.66 -68 95 C-65.69 95 -63.38 95 -61 95 C-66.50425365 100.13730341 -72.30510393 103.5859662 -79 107 C-79 107.33 -79 107.66 -79 108 C-65.11318437 108 -53.14267312 97.72060946 -43.51416016 88.5390625 C-37.81763746 82.74885304 -34.03168534 76.44640537 -31 69 C-29.783125 69.40089844 -28.56625 69.80179688 -27.3125 70.21484375 C-16.33441651 73.79096485 -5.29909549 77.15405867 5.80200195 80.32595825 C7.21827923 80.73153703 8.6336606 81.14025829 10.0480957 81.55221558 C12.0594488 82.13670653 14.07398576 82.70861144 16.08984375 83.27734375 C17.25378662 83.60984131 18.41772949 83.94233887 19.61694336 84.28491211 C23.17093628 85.03613137 26.37819767 85.12709595 30 85 C30 85.66 30 86.32 30 87 C15.08122071 90.91312244 0.95859781 89.64136022 -13.6328125 85.19140625 C-17.94369681 83.93152655 -22.48324556 82.76985427 -27 83 C-29.66827877 85.14554685 -29.66827877 85.14554685 -31 88 C-31 88.66 -31 89.32 -31 90 C-26.87026372 89.43260132 -26.87026372 89.43260132 -23 88 C-15.15060045 86.71879635 -9.06399613 89.3247557 -2.1015625 92.58984375 C3.08587482 94.94836374 7.51666041 95.19304696 13.1875 95.1875 C14.32554077 95.18737915 14.32554077 95.18737915 15.48657227 95.18725586 C21.56383636 95.12540904 27.45853845 94.77073077 33 92 C62.2291404 89.04329505 97.36641468 104.14886013 123 117 C123.87575684 117.433125 124.75151367 117.86625 125.65380859 118.3125 C131.06184133 121.00266432 136.388328 123.80541166 141.66748047 126.74023438 C143.76231315 127.8716282 145.8762607 128.88942969 148.03515625 129.890625 C152.60603201 132.34354142 156.00491947 134.41445603 157.93359375 139.42578125 C159.58345993 145.29470822 160.52734783 151.26450896 161.49072266 157.27636719 C162.51593645 162.75924595 164.41790607 168.05325163 167 173 C167.66 173.33 168.32 173.66 169 174 C168.72091886 169.95736161 168.42451164 165.91617201 168.125 161.875 C168.04636719 160.73289063 167.96773437 159.59078125 167.88671875 158.4140625 C167.80292969 157.30546875 167.71914063 156.196875 167.6328125 155.0546875 C167.55949707 154.03874512 167.48618164 153.02280273 167.41064453 151.97607422 C165.62497348 139.03473649 155.09629459 130.2417857 145.24560547 122.64746094 C113.40345462 98.91135167 74.25177756 88.47768696 35 86 C35.80824219 85.62488281 36.61648437 85.24976563 37.44921875 84.86328125 C45.54462606 81.01988005 45.54462606 81.01988005 52 75 C51.67 74.34 51.34 73.68 51 73 C50.25234375 73.27714844 49.5046875 73.55429688 48.734375 73.83984375 C47.25710937 74.38318359 47.25710937 74.38318359 45.75 74.9375 C44.28820312 75.47697266 44.28820312 75.47697266 42.796875 76.02734375 C20.9184844 83.6358902 -5.22154094 72.82712943 -26.2578125 66.45556641 C-28.02236243 65.91567174 -28.02236243 65.91567174 -30 66 C-30 64.68 -30 63.36 -30 62 C-29.01 62.33 -28.02 62.66 -27 63 C-24.74818845 63.08483332 -22.49386726 63.10720198 -20.24047852 63.09765625 C-19.55705887 63.09619598 -18.87363922 63.09473572 -18.16950989 63.0932312 C-16.6848281 63.08942624 -15.20015085 63.08331075 -13.71548653 63.07516479 C-11.35539469 63.06237256 -8.99535933 63.05587671 -6.63523865 63.05102539 C-0.76532092 63.03766615 5.10454408 63.01363172 10.97442627 62.98962402 C15.92334264 62.96975318 20.87223791 62.95416193 25.82118416 62.94406128 C28.12744558 62.93765594 30.43361943 62.92514133 32.73985291 62.91235352 C40.87182673 62.8845219 48.90506189 63.13807527 57 64 C60.32234286 57.79774725 60.32234286 57.79774725 62 51 C54.40998682 50.84883176 46.95589441 51.31373525 39.3984375 51.98828125 C38.20433258 52.09214645 37.01022766 52.19601166 35.77993774 52.30302429 C33.25674937 52.52368542 30.73375107 52.74652981 28.2109375 52.97143555 C24.4354336 53.30712667 20.65921494 53.63357728 16.8828125 53.95898438 C1.539775 55.30101911 -13.73460618 56.95453861 -29 59 C-29.66 56.36 -30.32 53.72 -31 51 C-29.80769775 50.92761108 -29.80769775 50.92761108 -28.59130859 50.85375977 C-20.82167928 50.32720873 -13.28159639 49.33418537 -5.625 47.9375 C-3.11870729 47.49096386 -0.61217773 47.04575588 1.89453125 46.6015625 C2.57855515 46.47975113 3.26257904 46.35793976 3.96733093 46.23243713 C10.37062516 45.09749916 16.78422174 44.02744435 23.19921875 42.9609375 C26.41592532 42.42357993 29.63255784 41.88578079 32.84918213 41.34793091 C34.98747561 40.99162989 37.1261075 40.63735372 39.26507568 40.28512573 C42.29361967 39.78582237 45.3207222 39.27849052 48.34765625 38.76953125 C49.26310715 38.62071503 50.17855804 38.4718988 51.12174988 38.318573 C51.96981705 38.17453033 52.81788422 38.03048767 53.69165039 37.88208008 C54.79954674 37.69818474 54.79954674 37.69818474 55.92982483 37.51057434 C58.16323295 36.9597413 59.98616961 36.09942622 62 35 C57.71447005 30.33109019 57.71447005 30.33109019 52 28 C44.58497251 28.45881408 37.94976635 30.30892261 30.875 32.5 C28.4898507 33.22223773 26.10442201 33.94355326 23.71875 34.6640625 C21.84509766 35.23302246 21.84509766 35.23302246 19.93359375 35.81347656 C13.77081451 37.67832459 7.59056081 39.48357241 1.40826416 41.2824707 C-0.58036636 41.86199296 -2.56779542 42.44550429 -4.55517578 43.02929688 C-14.01914975 45.7866833 -23.17320642 48.0641149 -33 49 C-33 48.34 -33 47.68 -33 47 C-32.195625 46.814375 -31.39125 46.62875 -30.5625 46.4375 C-25.66552108 44.46152605 -22.09076901 41.28852744 -18 38 C-5.50342363 28.15048168 5.84137283 26.39485443 21.25 26.75 C22.78513266 26.77011799 24.3202911 26.7883593 25.85546875 26.8046875 C29.57085943 26.84821243 33.28525776 26.91693903 37 27 C36.505 26.01 36.505 26.01 36 25 C28.89942968 22.7916381 21.4258523 21.41801155 14 21 C12.52273437 20.90332031 12.52273437 20.90332031 11.015625 20.8046875 C-7.4533194 20.14192634 -19.51444446 28.50020393 -31.19921875 41.875 Z M101 36 C103.46614957 42.98533737 107.97320779 49.20634536 114.375 53 C118.88104415 54.24304666 123.39360621 55.21218617 128 56 C128 51.81459245 125.70968517 49.97745764 123 47.0625 C122.49815186 46.52197998 121.99630371 45.98145996 121.47924805 45.42456055 C115.31753598 38.99541818 109.86212129 36.63300866 101 36 Z M131 43 C131.92474101 50.39792805 137.51350357 57.08580481 143 61.9375 C149.02233695 66.25203969 149.02233695 66.25203969 156 68 C157.36050589 65.05344607 157.36050589 65.05344607 155.8828125 62.546875 C149.43588519 52.28909732 142.46120901 46.85230616 131 43 Z M-88 46 C-87.41992188 46.61875 -87.41992188 46.61875 -86.828125 47.25 C-79.75992526 55.08800368 -75.50620692 63.92828686 -75.81640625 74.67578125 C-76.38693457 81.89842701 -78.02906847 88.50581252 -83 94 C-85.54756797 95.70681989 -88.16341692 96.86085531 -91 98 C-92.33841489 98.65640522 -93.67323093 99.32036328 -95 100 C-89.43366482 99.64831433 -85.77308578 99.01458049 -81 96 C-79.824375 95.95875 -78.64875 95.9175 -77.4375 95.875 C-74.00251612 95.40095937 -74.00251612 95.40095937 -72.82226562 93.29956055 C-70.25104998 87.45209782 -69.27184949 82.30075072 -69.0625 75.9375 C-69.00771484 75.09123047 -68.95292969 74.24496094 -68.89648438 73.37304688 C-68.5895936 66.38993572 -69.81460305 61.09521702 -73.8671875 55.35546875 C-74.86105469 54.28232422 -74.86105469 54.28232422 -75.875 53.1875 C-76.53242188 52.45917969 -77.18984375 51.73085937 -77.8671875 50.98046875 C-81.06788963 48.0083882 -83.5540177 46 -88 46 Z M72 48 C72.01571045 48.83809204 72.01571045 48.83809204 72.03173828 49.69311523 C72.07383379 52.2745293 72.09949343 54.85587076 72.125 57.4375 C72.14175781 58.31599609 72.15851563 59.19449219 72.17578125 60.09960938 C72.21967784 66.04759738 71.48881322 71.2381756 70 77 C72.64559657 78.27585295 75.10203537 79.43114028 78 80 C81.5596014 78.0308588 82.7123459 76.86296231 84 73 C84.66990252 65.58714428 84.62110831 59.10042652 80 53 C78.08821565 51.00530663 76.29280374 49.59499391 74 48 C73.34 48 72.68 48 72 48 Z M100 54 C100.41320661 56.96131407 100.83757248 59.61055765 101.9921875 62.37890625 C104.89601006 69.93109594 104.12339874 77.3807457 102 85 C105.79039366 87.12999997 108.65736138 87.16702456 113 87 C116.56971189 81.49669417 116.79480965 76.34944527 116 70 C114.19947041 63.75173361 110.30837274 59.60211007 105 56 C102.25452126 54.62949404 102.25452126 54.62949404 100 54 Z M164 57 C164.27714844 57.52078125 164.55429687 58.0415625 164.83984375 58.578125 C166 61 166 61 167.19140625 64.171875 C170.27707694 72.22450847 173.61102532 78.11623959 181 83 C181.99 83.33 182.98 83.66 184 84 C182.63412997 79.53905503 180.87942079 75.55403416 178.6875 71.4375 C177.82705078 69.79587891 177.82705078 69.79587891 176.94921875 68.12109375 C173.54472807 62.66981508 169.85283808 59.58613776 164 57 Z M-126.6875 60.1875 C-129.1150042 61.78346621 -129.1150042 61.78346621 -129.875 64.125 C-129.91625 64.74375 -129.9575 65.3625 -130 66 C-128.10511048 67.89488952 -125.42860854 67.18019112 -122.91015625 67.23046875 C-120.7587364 67.1702792 -120.7587364 67.1702792 -119 65 C-119.32041397 62.39719432 -119.32041397 62.39719432 -120 60 C-122.85815253 58.83556749 -123.80070797 58.91194073 -126.6875 60.1875 Z M131 65 C131.32355469 65.85980469 131.64710938 66.71960938 131.98046875 67.60546875 C134.58519418 76.27790706 133.3536749 84.7555492 130 93 C131.66545339 95.16641665 131.66545339 95.16641665 134 97 C136.56900326 97.23684105 136.56900326 97.23684105 139 96 C143.23529829 91.76470171 144.72232759 87.49905169 145.375 81.625 C144.77555025 75.83031905 142.67410786 71.67410786 138.5625 67.5625 C135.95948831 65.97529775 134.01090819 65.34410379 131 65 Z M188 75 C188.61056863 78.00638686 189.56004597 80.13652508 191.25 82.6875 C193.13548934 85.5775093 194.76155176 88.48163334 196.3125 91.5625 C198.60122197 95.77780438 201.4315093 98.37287849 205.13671875 101.359375 C206.94103723 102.94808309 208.10923591 104.4084849 209.375 106.4375 C210.179375 107.7059375 210.179375 107.7059375 211 109 C211.66 109 212.32 109 213 109 C211.37040623 97.11754544 202.24144108 84.80224254 193.1328125 77.50390625 C190.77642242 75.70203909 190.77642242 75.70203909 188 75 Z M160 80 C160.02320313 81.14597656 160.04640625 82.29195313 160.0703125 83.47265625 C160.08908479 85.0025976 160.10728341 86.53254606 160.125 88.0625 C160.14175781 88.81466797 160.15851563 89.56683594 160.17578125 90.34179688 C160.21881827 95.31257312 159.54273559 99.27685565 158 104 C157.51604927 107.46831357 157.64087143 108.49455979 159.6875 111.375 C161.87837691 113.24554965 161.87837691 113.24554965 164.5625 113 C167.49944921 111.79509776 168.43586548 110.73723541 170 108 C172.64952121 101.2557642 170.96733108 94.69112292 168.21484375 88.34375 C166.50313384 85.04141576 164.63129239 82.63129239 162 80 C161.34 80 160.68 80 160 80 Z M185 100 C185.17402344 100.7528125 185.34804688 101.505625 185.52734375 102.28125 C185.93428931 105.48300348 185.97051257 108.20347092 185.81640625 111.40625 C185.77708984 112.39753906 185.73777344 113.38882813 185.69726562 114.41015625 C185.60736208 116.47142312 185.49011304 118.5316772 185.34570312 120.58984375 C185.06964373 126.29564861 185.06964373 126.29564861 187.81201172 131.0546875 C189.8142215 132.5586617 191.78352524 133.83950935 194 135 C195.32 134.34 196.64 133.68 198 133 C198.9870543 121.94499186 195.3799501 109.81608667 188.33203125 101.1875 C187.04860363 99.77818331 187.04860363 99.77818331 185 100 Z M211 121 C211.144375 121.93457031 211.28875 122.86914062 211.4375 123.83203125 C212.69132811 132.5147909 213.19137712 140.92637128 212.92578125 149.70239258 C212.69524137 155.20212675 212.69524137 155.20212675 215 160 C217.55519921 160.81171228 217.55519921 160.81171228 220 161 C223.19744285 157.52451864 223.77365726 154.67775005 224 150 C222.99519963 139.45873063 218.68373968 129.16901517 212 121 C211.67 121 211.34 121 211 121 Z M227 121 C225.44451446 131.88839876 232.25716523 142.10119297 238 151 C238.33 151 238.66 151 239 151 C239.77344295 139.20499505 235.46398208 130.03122241 228 121 C227.67 121 227.34 121 227 121 Z M175 143 C174.67800354 145.9542394 174.45283467 148.12721419 175 151 C177.20589457 153.13058665 178.86685086 154.41384903 181.4375 155.9375 C182.73106644 156.77695421 184.02013284 157.62338208 185.3046875 158.4765625 C185.93729492 158.89454102 186.56990234 159.31251953 187.22167969 159.74316406 C191.30456636 162.62876272 194.61215363 166.35375857 198 170 C199.01602949 171.02561468 200.03597971 172.04738549 201.0625 173.0625 C201.701875 173.701875 202.34125 174.34125 203 175 C201.51357474 170.52402282 199.04212624 167.13620806 196.125 163.5 C195.64611328 162.89849121 195.16722656 162.29698242 194.67382812 161.67724609 C191.07518993 157.21386398 187.34690036 152.87590191 183.5 148.625 C182.9961377 148.05974609 182.49227539 147.49449219 181.97314453 146.91210938 C180.711818 145.54698929 179.36169098 144.26502773 178 143 C177.01 143 176.02 143 175 143 Z M235 164 C234.28935663 167.14105275 233.61090582 170.28827213 232.9375 173.4375 C232.73833984 174.31599609 232.53917969 175.19449219 232.33398438 176.09960938 C230.45803611 185.01859146 231.59342606 192.39892959 234.0625 201.0625 C234.24876953 201.73732422 234.43503906 202.41214844 234.62695312 203.10742188 C235.07851366 204.73998687 235.53834769 206.37025998 236 208 C236.99 207.505 236.99 207.505 238 207 C239.13948136 202.27514417 239.19275724 197.52416254 239.1875 192.6875 C239.18669434 191.91148437 239.18588867 191.13546875 239.18505859 190.3359375 C239.12687869 184.68678259 238.75729687 179.11322307 238.125 173.5 C238.00741333 172.41464966 238.00741333 172.41464966 237.88745117 171.30737305 C237.43081161 167.21512726 237.43081161 167.21512726 235 164 Z M203 175 C203.33 175.99 203.66 176.98 204 178 C204 177.01 204 176.02 204 175 C203.67 175 203.34 175 203 175 Z M205 178 C206 180 206 180 206 180 Z M206 180 C206.33 180.99 206.66 181.98 207 183 C207 182.01 207 181.02 207 180 C206.67 180 206.34 180 206 180 Z M208 183 C209 185 209 185 209 185 Z " fill="#008E99" transform="translate(208,60)"/>
<path d="M0 0 C24.48637363 23.08233844 40.25635031 51.95800548 42.31640625 85.890625 C42.296875 88.41796875 42.296875 88.41796875 41.296875 89.41796875 C39.73514755 89.50482478 38.16958156 89.52499094 36.60546875 89.515625 C35.66123047 89.51240234 34.71699219 89.50917969 33.74414062 89.50585938 C32.75091797 89.49748047 31.75769531 89.48910156 30.734375 89.48046875 C29.73728516 89.47595703 28.74019531 89.47144531 27.71289062 89.46679688 C25.24082651 89.45496882 22.76887982 89.43848724 20.296875 89.41796875 C19.75417969 88.45375 19.21148437 87.48953125 18.65234375 86.49609375 C17.9298325 85.21996998 17.20716817 83.94393287 16.484375 82.66796875 C16.12794922 82.03375 15.77152344 81.39953125 15.40429688 80.74609375 C13.88582116 78.07134753 12.39423162 75.54662628 10.53515625 73.08984375 C9.296875 71.41796875 9.296875 71.41796875 9.296875 69.41796875 C17.546875 69.41796875 25.796875 69.41796875 34.296875 69.41796875 C32.74176933 64.1384572 32.74176933 64.1384572 31.18603516 58.85913086 C30.98800293 58.1863208 30.7899707 57.51351074 30.5859375 56.8203125 C30.38693848 56.14476318 30.18793945 55.46921387 29.98291016 54.77319336 C29.07556676 51.6581963 28.18644599 48.53808113 27.296875 45.41796875 C25.32448853 45.48866577 25.32448853 45.48866577 23.31225586 45.56079102 C18.36458986 45.72551239 13.41715765 45.82765762 8.4675293 45.91235352 C6.33853206 45.95720666 4.2098054 46.01831586 2.08178711 46.09692383 C-12.71463325 46.62921922 -21.78610298 45.24999566 -33.703125 36.41796875 C-36.40916404 34.92488154 -39.13074957 33.6886486 -41.953125 32.41796875 C-42.88705078 31.99064453 -42.88705078 31.99064453 -43.83984375 31.5546875 C-46.43552652 30.37686156 -48.99695412 29.32002571 -51.703125 28.41796875 C-51.703125 27.75796875 -51.703125 27.09796875 -51.703125 26.41796875 C-29.593125 26.41796875 -7.483125 26.41796875 15.296875 26.41796875 C9.13476328 17.79839328 9.13476328 17.79839328 2.421875 9.85546875 C1.31199219 8.64697266 1.31199219 8.64697266 0.1796875 7.4140625 C-2.76566037 3.99417803 -2.76566037 3.99417803 -7.11954689 3.14063835 C-8.62967489 3.11738711 -10.13999679 3.10530027 -11.65029907 3.10153198 C-12.89630404 3.08671805 -12.89630404 3.08671805 -14.16748083 3.07160485 C-16.96662598 3.04075063 -19.76567905 3.02410595 -22.56494141 3.00732422 C-24.5652193 2.9881753 -26.56548902 2.96815566 -28.56575012 2.94732666 C-34.00962082 2.89312244 -39.45352639 2.85116108 -44.89751863 2.81132269 C-50.58175841 2.76766876 -56.26589008 2.71285931 -61.95004272 2.65921021 C-72.7199127 2.55926716 -83.48984255 2.46942275 -94.25982988 2.38316548 C-106.51848082 2.28449676 -118.77702331 2.17463241 -131.03556943 2.0638063 C-156.25798757 1.83602936 -181.48051082 1.62277849 -206.703125 1.41796875 C-206.703125 7.02796875 -206.703125 12.63796875 -206.703125 18.41796875 C-202.743125 17.42796875 -202.743125 17.42796875 -198.703125 16.41796875 C-168.37750423 11.28302325 -136.01091455 11.54833285 -105.703125 16.41796875 C-104.67751465 16.57555664 -103.6519043 16.73314453 -102.59521484 16.89550781 C-101.59312988 17.06018555 -100.59104492 17.22486328 -99.55859375 17.39453125 C-98.65133545 17.54229004 -97.74407715 17.69004883 -96.80932617 17.84228516 C-95.76675659 18.12724854 -95.76675659 18.12724854 -94.703125 18.41796875 C-94.373125 19.07796875 -94.043125 19.73796875 -93.703125 20.41796875 C-94.34822021 20.33232666 -94.99331543 20.24668457 -95.65795898 20.15844727 C-155.58584046 12.39555105 -216.02674069 16.39496909 -265.890625 53.98046875 C-271.92377289 58.49149217 -276.17083874 59.41796875 -283.703125 59.41796875 C-284.63125 59.91296875 -284.63125 59.91296875 -285.578125 60.41796875 C-287.703125 61.41796875 -287.703125 61.41796875 -291.390625 61.16796875 C-296.22481493 60.9782155 -298.94995839 63.2882089 -302.625 66.203125 C-304.703125 67.41796875 -304.703125 67.41796875 -306.96875 67.1015625 C-307.54109375 66.87597656 -308.1134375 66.65039062 -308.703125 66.41796875 C-308.703125 65.75796875 -308.703125 65.09796875 -308.703125 64.41796875 C-307.05961043 63.05619953 -305.38789844 61.72834809 -303.703125 60.41796875 C-302.95933594 59.63550781 -302.21554687 58.85304688 -301.44921875 58.046875 C-298.51623959 55.23905853 -295.44194161 53.18948719 -291.953125 51.16796875 C-291.29683105 50.78374756 -290.64053711 50.39952637 -289.96435547 50.00366211 C-287.88399242 48.79630416 -285.79474522 47.60569975 -283.703125 46.41796875 C-283.05827148 46.04623535 -282.41341797 45.67450195 -281.74902344 45.29150391 C-265.22781197 35.83467881 -247.1069043 28.32076483 -228.703125 23.41796875 C-227.37475139 10.13423261 -227.14787764 -3.23945214 -226.703125 -16.58203125 C-162.353125 -16.91203125 -98.003125 -17.24203125 -31.703125 -17.58203125 C-85.93837968 -45.99097418 -140.88888328 -48.19695207 -199.17919922 -30.71240234 C-211.57867501 -26.73501749 -223.91799309 -22.07750426 -235.8046875 -16.7734375 C-239.33095126 -15.32396251 -241.92326196 -15.2254404 -245.703125 -15.58203125 C-246.363125 -15.93265625 -247.023125 -16.28328125 -247.703125 -16.64453125 C-250.86044263 -18.12452389 -253.36625926 -17.2845293 -256.703125 -16.58203125 C-257.5075 -16.23140625 -258.311875 -15.88078125 -259.140625 -15.51953125 C-262.08561167 -14.4420971 -264.5932164 -14.55023137 -267.69921875 -14.64453125 C-270.58828472 -14.55442393 -273.04001439 -13.64727549 -275.703125 -12.58203125 C-275.39111328 -14.4543457 -275.39111328 -14.4543457 -274.703125 -16.58203125 C-272.33491033 -18.19057186 -270.11750509 -19.4863735 -267.578125 -20.76953125 C-266.8267627 -21.15608887 -266.07540039 -21.54264648 -265.30126953 -21.94091797 C-238.61330612 -35.30922535 -209.99710956 -42.73219866 -180.703125 -47.58203125 C-179.36580322 -47.80463623 -179.36580322 -47.80463623 -178.00146484 -48.03173828 C-114.73630679 -57.90746759 -47.34092375 -43.97494064 0 0 Z " fill="#008E99" transform="translate(353.703125,246.58203125)"/>
<path d="M0 0 C1.37099452 -0.00953367 2.74197104 -0.02202387 4.11291504 -0.03717041 C7.77043859 -0.06853732 11.4265493 -0.05694369 15.08409119 -0.03451681 C18.95355396 -0.01650517 22.82291412 -0.03330889 26.69238281 -0.04421997 C33.18446057 -0.05687289 39.67597673 -0.04039147 46.16796875 -0.00683594 C53.62052559 0.03124533 61.07174087 0.01889951 68.52426529 -0.01962078 C74.98020847 -0.05162477 81.43575327 -0.05575463 87.89175034 -0.03755009 C91.72253067 -0.02676573 95.55268543 -0.02481666 99.38342285 -0.04830551 C116.00905868 -0.1364692 130.92956734 0.32464358 146.109375 7.90576172 C147.21367355 8.42739395 148.31797211 8.94902618 149.45573425 9.48646545 C151.95437281 10.69614026 154.37522378 11.98722061 156.796875 13.34326172 C158.02760742 14.01131836 158.02760742 14.01131836 159.28320312 14.69287109 C161.23148741 15.7524643 163.17150567 16.8272387 165.109375 17.90576172 C165.109375 18.23576172 165.109375 18.56576172 165.109375 18.90576172 C105.709375 18.90576172 46.309375 18.90576172 -14.890625 18.90576172 C-14.890625 27.15576172 -14.890625 35.40576172 -14.890625 43.90576172 C-12.2774939 43.8835556 -9.66436279 43.86134949 -6.9720459 43.83847046 C17.63067992 43.63417716 42.23329398 43.48532965 66.83667755 43.38764 C79.48618558 43.33607902 92.13507118 43.2657859 104.78417969 43.15136719 C115.80937283 43.05168531 126.83411521 42.98717736 137.85974646 42.96487677 C143.69786218 42.95184082 149.53468842 42.92121469 155.37239075 42.84846115 C160.86881021 42.78051673 166.36341089 42.75965848 171.86021042 42.77468491 C173.87587245 42.77193665 175.89159608 42.75208045 177.90689468 42.71370697 C193.12042593 42.43826561 193.12042593 42.43826561 198.03953552 46.06770706 C200.11098914 48.59990955 201.63568445 50.99368429 203.109375 53.90576172 C203.77127209 54.96317597 203.77127209 54.96317597 204.44654083 56.04195213 C207.109375 60.3099862 207.109375 60.3099862 207.109375 62.90576172 C127.579375 62.90576172 48.049375 62.90576172 -33.890625 62.90576172 C-33.890625 44.75576172 -33.890625 26.60576172 -33.890625 7.90576172 C-12.05507461 -0.13891474 -12.05507461 -0.13891474 0 0 Z " fill="#008E99" transform="translate(159.890625,273.09423828125)"/>
<path d="M0 0 C11.81027506 22.74345903 4.52754576 53.86040167 -2.6875 76.80859375 C-17.4488169 123.01917598 -36.83015818 169.5671192 -82.07397461 193.33911133 C-99.99339563 202.38947478 -99.99339563 202.38947478 -109 202 C-108.34 201.01 -107.68 200.02 -107 199 C-106.34 199 -105.68 199 -105 199 C-104.73960937 198.43796875 -104.47921875 197.8759375 -104.2109375 197.296875 C-102.87619543 194.76517068 -101.31109162 192.56193349 -99.625 190.25 C-97.02031978 186.5807513 -94.8006363 182.97213837 -92.921875 178.88671875 C-90.69456194 174.3282772 -88.71464684 171.43981574 -84.4375 168.625 C-83.54675781 168.02429688 -82.65601563 167.42359375 -81.73828125 166.8046875 C-80.00683808 165.66356518 -78.27510473 164.52288292 -76.54296875 163.3828125 C-57.01074132 150.19303695 -42.72777656 131.33560782 -29 112.5 C-28.44787842 111.7464624 -27.89575684 110.9929248 -27.3269043 110.21655273 C-24.48649365 106.28025985 -22.02242067 102.4380898 -20 98 C-20.71285156 98.845625 -21.42570312 99.69125 -22.16015625 100.5625 C-23.12756678 101.7083649 -24.09501684 102.85419642 -25.0625 104 C-25.52849609 104.55300781 -25.99449219 105.10601562 -26.47460938 105.67578125 C-27.97779974 107.45506781 -29.48802369 109.22817485 -31 111 C-31.51320801 111.60658447 -32.02641602 112.21316895 -32.55517578 112.83813477 C-37.24051179 118.29786623 -42.23665189 123.42282621 -47.32324219 128.50854492 C-48.73919947 129.92668284 -50.14698289 131.35296665 -51.5546875 132.77929688 C-60.09192495 141.33436978 -69.27766611 148.89921594 -79 156.0625 C-79.64066406 156.54654297 -80.28132813 157.03058594 -80.94140625 157.52929688 C-85.64428262 161 -85.64428262 161 -89 161 C-88.97716246 156.93626193 -88.89980036 152.87532424 -88.8125 148.8125 C-88.80669922 147.66201172 -88.80089844 146.51152344 -88.79492188 145.32617188 C-88.57331963 136.83141925 -88.57331963 136.83141925 -85.8828125 132.9296875 C-82.70973508 130.80570343 -79.48944605 128.97961475 -76.0625 127.3125 C-62.45076045 120.34633496 -50.80557149 110.62302886 -39 101 C-39.8971875 101.4846875 -40.794375 101.969375 -41.71875 102.46875 C-78.01215059 122 -78.01215059 122 -86 122 C-86.8655047 119.73291675 -87.71759315 117.46224921 -88.5625 115.1875 C-88.80935547 114.54490234 -89.05621094 113.90230469 -89.31054688 113.24023438 C-91.11328125 108.33984375 -91.11328125 108.33984375 -90 105 C-87.82958984 104.20385742 -87.82958984 104.20385742 -84.9609375 103.60546875 C-83.91292969 103.37561279 -82.86492187 103.14575684 -81.78515625 102.90893555 C-80.65980469 102.67086182 -79.53445313 102.43278809 -78.375 102.1875 C-57.13571666 97.37004981 -37.93415266 88.80182384 -21 75 C-21.86238281 75.4846875 -22.72476563 75.969375 -23.61328125 76.46875 C-38.37683474 84.63144967 -53.4810071 91.33340111 -70 95 C-70.9384375 95.22429687 -71.876875 95.44859375 -72.84375 95.6796875 C-80.72611815 97.37207831 -91.18926828 99.54858612 -98.55859375 95.64453125 C-101.6157298 93.02660567 -103.93501632 90.08164616 -106.4375 86.9375 C-109.36155451 83.58553507 -112.45294478 81.53250903 -116.20703125 79.19921875 C-116.79871094 78.80347656 -117.39039063 78.40773438 -118 78 C-118 77.67 -118 77.34 -118 77 C-110.23680977 77.31443089 -102.6489218 77.81953168 -94.99072266 79.14501953 C-76.50470887 82.32329055 -52.06600712 84.73946936 -35 75 C-35.68964844 75.20496094 -36.37929688 75.40992188 -37.08984375 75.62109375 C-43.06973397 77.335493 -48.7855496 78.63974201 -55 79 C-55.6703125 79.04125 -56.340625 79.0825 -57.03125 79.125 C-66.17807158 79.39803945 -75.33011878 77.88198884 -84.21484375 75.82421875 C-97.3766708 72.79542233 -110.02837021 71.24107571 -123.4921875 70.72070312 C-130.29983217 70.42243003 -135.79805827 69.89737177 -142 67 C-141.505 66.01 -141.505 66.01 -141 65 C-140.35417969 65.05800781 -139.70835937 65.11601562 -139.04296875 65.17578125 C-132.08890794 65.50873902 -126.19311694 64.44679694 -119.5625 62.5625 C-102.21681189 57.69508752 -87.87891511 59.2146849 -70.91015625 64.81323242 C-56.55923049 69.50722951 -42.61649724 71.1688084 -28.4453125 64.86328125 C-14.51033164 57.42659954 -7.80969629 45.84180598 -3.0625 31.0859375 C-0.33197273 20.92522544 -0.26847102 10.45850379 0 0 Z M-19 95 C-18 97 -18 97 -18 97 Z " fill="#008E99" transform="translate(407,300)"/>
<path d="M0 0 C8.1184952 2.31626206 16.30440205 3.98526334 24.59350586 5.56958008 C45.44150082 9.61375594 63.95357142 16.21145681 83.29058838 24.8447113 C88.06723969 26.97584459 92.86004466 29.06675607 97.66381836 31.13598633 C98.34777679 31.4307637 99.03173523 31.72554108 99.73641968 32.0292511 C102.39804248 33.1759071 105.05998016 34.32183022 107.72210693 35.46731567 C109.54455351 36.25231476 111.36592553 37.03980707 113.18725586 37.82739258 C114.22172852 38.27356934 115.25620117 38.71974609 116.32202148 39.17944336 C122.76412618 42.06988604 127.49440057 44.42020055 131.28100586 50.50708008 C132.36881601 53.47285105 132.8817151 56.38016671 133.28100586 59.50708008 C133.39057617 60.35657227 133.50014648 61.20606445 133.61303711 62.08129883 C133.86484588 64.21999464 134.07683745 66.36331174 134.28100586 68.50708008 C131.30477091 67.12216538 128.83417358 65.48188547 126.21850586 63.50708008 C110.1022323 52.13641477 91.06688358 44.47542617 73.26538086 36.16333008 C71.68696406 35.4243697 70.10883352 34.68479755 68.53100586 33.94458008 C67.75764893 33.58211182 66.98429199 33.21964355 66.1875 32.84619141 C61.55660704 30.65307132 57.02639844 28.32527942 52.52368164 25.88061523 C5.48459108 0.40318364 -46.81576412 -12.87039557 -100.21899414 -12.55541992 C-101.73591971 -12.55038408 -103.25284694 -12.54582493 -104.76977539 -12.54174805 C-108.41955054 -12.53093228 -112.06926093 -12.51378838 -115.71899414 -12.49291992 C-87.24555692 -29.57698225 -29.1474604 -8.52061687 0 0 Z " fill="#008E99" transform="translate(324.718994140625,72.492919921875)"/>
<path d="M0 0 C0.91604004 0.52400391 0.91604004 0.52400391 1.85058594 1.05859375 C10.9299583 6.35206659 18.50258219 12.67043483 26 20 C26.67804688 20.62777344 27.35609375 21.25554687 28.0546875 21.90234375 C42.87122379 35.89573914 52.28742843 57.62742541 53.16796875 77.859375 C53.17441406 79.14328125 53.18085938 80.4271875 53.1875 81.75 C53.20167969 83.04421875 53.21585938 84.3384375 53.23046875 85.671875 C53 89 53 89 51 92 C50.96132813 90.09541016 50.96132813 90.09541016 50.921875 88.15234375 C50.07354913 58.89224203 38.47123732 36.42683364 17.25 16.375 C3.96325098 4.74653553 -12.88000877 -3.04311469 -30 -7 C-30.97582031 -7.22558594 -31.95164062 -7.45117188 -32.95703125 -7.68359375 C-63.51271793 -13.49037562 -92.4647074 -5.90746775 -119 9 C-121.98885293 10.67889533 -124.44033813 11.35356955 -127.84375 11.74609375 C-128.76027344 11.86146484 -129.67679688 11.97683594 -130.62109375 12.09570312 C-132.53991113 12.32351387 -134.45918949 12.54747491 -136.37890625 12.76757812 C-137.75369141 12.94256836 -137.75369141 12.94256836 -139.15625 13.12109375 C-139.98962891 13.2183374 -140.82300781 13.31558105 -141.68164062 13.41577148 C-144.36462851 14.09188669 -145.82569821 15.33294141 -148 17 C-148.99 17 -149.98 17 -151 17 C-150.52126919 12.6914227 -148.10624944 10.84188778 -145 8 C-144.48953125 7.4740625 -143.9790625 6.948125 -143.453125 6.40625 C-108.56030159 -27.56021526 -39.05409619 -22.41044301 0 0 Z " fill="#008E99" transform="translate(256,370)"/>
<path d="M0 0 C7.6439478 6.66690184 14.26732687 14.73651016 19.0625 23.6875 C18.7325 24.6775 18.4025 25.6675 18.0625 26.6875 C17.61519531 26.02363281 17.16789062 25.35976563 16.70703125 24.67578125 C13.46084963 19.9345565 10.34889868 15.55571345 6.0625 11.6875 C5.54816406 11.15769531 5.03382813 10.62789063 4.50390625 10.08203125 C-10.33148166 -4.37050794 -31.58803962 -6.90020428 -51.27563477 -6.86889648 C-59.77246146 -6.67924258 -66.72270525 -5.44766452 -74.6171875 -2.4296875 C-80.50041184 -0.45015554 -86.53207748 -0.55742864 -92.5625 -1.89453125 C-95.78031471 -2.4608243 -97.94653441 -1.49497477 -100.9375 -0.3125 C-99.71591613 -3.97725161 -98.24269945 -4.50525288 -94.92163086 -6.21850586 C-94.22561768 -6.55889893 -93.52960449 -6.89929199 -92.8125 -7.25 C-92.09908447 -7.60263916 -91.38566895 -7.95527832 -90.65063477 -8.31860352 C-61.8277673 -22.05239358 -25.4121029 -19.69437975 0 0 Z " fill="#008E99" transform="translate(273.9375,404.3125)"/>
<path d="M0 0 C19.00741473 7.26609864 49.87316419 21.44702188 59 41 C60.06615265 45.59111985 60.49971025 49.50086925 59 54 C53.51251021 53.65703189 50.09023753 50.32086464 46 47 C45.42121094 46.56816406 44.84242188 46.13632813 44.24609375 45.69140625 C40.44349219 42.71814238 37.71496701 39.40042829 34.875 35.5 C26.61358735 24.18973268 17.09310374 14.53733964 6 6 C3.96671013 4.36469904 1.97390639 2.70716228 0 1 C0 0.67 0 0.34 0 0 Z " fill="#008E98" transform="translate(407,118)"/>
<path d="M0 0 C0 0.66 0 1.32 0 2 C-0.7425 2.433125 -1.485 2.86625 -2.25 3.3125 C-5.10008318 4.82424313 -5.10008318 4.82424313 -6.75 7.375 C-12.0937801 13.60941012 -19.17578236 15.44274275 -26.92700195 17.34887695 C-48.8811049 22.92473707 -68.26194923 34.7523355 -84.796875 49.98046875 C-87.45746425 52.41934223 -90.20391271 54.71898142 -93 57 C-90.82602108 52.24245192 -87.52091764 48.81375992 -84 45 C-83.38511719 44.319375 -82.77023437 43.63875 -82.13671875 42.9375 C-64.41571137 24.21861065 -41.17443846 11.33635179 -17 3.0625 C-16.11554199 2.75554199 -15.23108398 2.44858398 -14.31982422 2.13232422 C-9.34044298 0.49082195 -5.2422001 -0.34900517 0 0 Z " fill="#008E99" transform="translate(500,345)"/>
<path d="M0 0 C9.16878696 3.92658867 15.36965789 15.20093353 21 23 C21.59296875 23.81984375 22.1859375 24.6396875 22.796875 25.484375 C29.08683968 34.51452231 30.51403523 42.00714173 31 53 C21.49304723 43.65033137 13.30440474 34.85083156 9 22 C8.23696691 19.91451334 7.45777062 17.83558863 6.67529297 15.75732422 C6.15691298 14.37613727 5.64508505 12.99246619 5.14111328 11.60595703 C3.66984014 7.58999734 1.98251031 3.78905817 0 0 Z " fill="#008E99" transform="translate(355,225)"/>
<path d="M0 0 C14.82405345 14.36080178 14.82405345 14.36080178 15.25 20.75 C15.16036102 24.78375413 14.27209713 28.18370862 13 32 C12.34 32 11.68 32 11 32 C10.80889648 31.40574219 10.61779297 30.81148437 10.42089844 30.19921875 C9.53715616 27.46397792 8.643651 24.73201876 7.75 22 C7.44964844 21.06542969 7.14929688 20.13085938 6.83984375 19.16796875 C5.39752879 14.77964878 3.89683455 10.60455173 1.765625 6.5 C0 3 0 3 0 0 Z " fill="#008E99" transform="translate(456,171)"/>
<path d="M0 0 C1.28197266 -0.01160156 1.28197266 -0.01160156 2.58984375 -0.0234375 C5.4850126 0.4430826 6.88197953 1.46261778 9.0625 3.375 C8.58213048 7.93851039 8.58213048 7.93851039 6.5 9.6875 C2.12030818 10.92279769 -2.18684734 11.07526107 -6.4375 9.375 C-6.9325 9.045 -7.4275 8.715 -7.9375 8.375 C-8.30245774 3.87385457 -8.30245774 3.87385457 -6.734375 1.73046875 C-4.38160956 -0.04433475 -2.92375932 -0.02637978 0 0 Z " fill="#008E99" transform="translate(520.9375,342.625)"/>
<path d="M0 0 C0.99 0.495 0.99 0.495 2 1 C1.01 1.495 1.01 1.495 0 2 C0 1.34 0 0.68 0 0 Z " fill="#008F9C" transform="translate(405,402)"/>
</svg>
