<?xml version="1.0" encoding="UTF-8" standalone="no"?>
<svg
   width="558"
   height="558"
   viewBox="0 0 558 558"
   fill="none"
   version="1.1"
   id="svg3"
   sodipodi:docname="8794a8cd-a350-4c28-b7e4-600c5a108d68.svg"
   xmlns:inkscape="http://www.inkscape.org/namespaces/inkscape"
   xmlns:sodipodi="http://sodipodi.sourceforge.net/DTD/sodipodi-0.dtd"
   xmlns="http://www.w3.org/2000/svg"
   xmlns:svg="http://www.w3.org/2000/svg">
  <sodipodi:namedview
     id="namedview3"
     pagecolor="#ffffff"
     bordercolor="#000000"
     borderopacity="0.25"
     inkscape:showpageshadow="2"
     inkscape:pageopacity="0.0"
     inkscape:pagecheckerboard="0"
     inkscape:deskcolor="#d1d1d1" />
  <mask
     id="mask0_383_669"
     style="mask-type:luminance"
     maskUnits="userSpaceOnUse"
     x="20"
     y="49"
     width="518"
     height="460">
    <path
       d="M168.911 406.852L172.559 405.193C173.554 404.862 174.881 404.53 175.876 404.53C176.539 404.53 177.203 404.53 178.198 404.862L180.187 405.525C181.514 405.857 183.172 406.188 185.162 406.188C189.142 406.188 191.795 405.857 194.117 405.193C196.438 404.53 198.428 403.867 200.418 402.872C205.061 401.213 210.699 399.555 223.965 399.555C262.437 399.555 282.999 417.464 292.949 435.373C282.336 413.153 259.452 391.596 221.312 391.596C196.438 391.264 176.208 400.218 168.911 406.852ZM108.219 378.329C107.556 378.993 107.224 379.656 106.561 380.319L104.903 382.641C104.239 383.304 103.576 383.968 102.913 384.631L99.2646 387.616C98.9329 387.947 98.6013 388.279 99.5963 389.606C101.255 389.606 102.249 388.942 104.239 386.621C104.903 386.289 105.566 385.957 106.229 385.626C107.224 385.626 108.219 385.626 108.882 385.626C109.546 385.626 110.209 385.957 111.536 385.957C112.199 385.957 112.862 385.626 113.526 385.626L115.847 384.631C117.837 383.968 120.822 382.973 126.46 382.973C128.118 382.973 130.44 381.646 133.756 379.656C137.404 377.666 141.716 375.013 147.354 372.36C158.63 367.053 175.213 361.747 198.428 361.747C266.417 361.747 308.205 416.469 308.205 456.931C308.205 461.242 308.205 464.89 307.873 467.875C308.536 464.559 308.868 460.579 308.868 456.931C308.868 400.882 250.498 355.777 188.479 355.777C154.982 355.446 124.138 365.395 108.219 378.329ZM503.879 346.823C466.402 355.446 439.539 375.013 422.293 392.259C416.655 397.897 412.012 403.203 408.363 407.846C418.976 395.907 436.222 380.319 459.106 370.702C469.719 366.058 476.352 363.405 486.301 361.747C491.608 360.752 498.904 354.782 499.899 352.792C500.894 350.802 502.221 349.144 504.874 348.481C505.869 348.149 506.864 347.818 506.864 346.823C506.532 346.823 506.532 346.823 506.2 346.823C505.537 346.823 504.874 346.823 503.879 346.823ZM528.753 344.833C524.441 344.833 520.13 346.823 520.461 350.139C520.793 353.456 524.773 354.451 529.084 354.451C533.064 354.451 537.376 352.461 537.376 349.807C537.376 346.491 533.396 344.833 529.416 344.833C529.084 344.833 529.084 344.833 528.753 344.833ZM362.264 372.691C356.294 372.691 351.651 372.028 347.34 371.033C343.028 370.038 339.048 368.712 335.069 367.385C327.109 364.732 319.149 362.079 306.547 362.079C299.913 362.079 293.944 363.737 287.974 365.727C284.989 366.722 282.004 367.385 279.351 368.048C276.366 368.712 273.713 369.043 271.06 369.043C268.075 369.043 265.422 368.712 263.764 368.048C267.08 370.37 273.713 372.028 277.361 372.36C285.321 372.691 293.944 372.028 305.22 373.686C313.843 375.013 320.476 377.003 327.109 378.329C333.742 379.988 340.375 380.983 349.33 380.983C365.58 380.983 378.183 376.34 389.459 369.707C371.55 385.626 342.365 388.611 312.516 382.973C304.888 381.646 298.587 380.651 288.969 380.651C296.929 383.968 301.24 388.942 304.557 392.922L306.878 395.907C307.541 396.902 308.536 397.565 309.2 398.229C310.858 399.555 312.516 400.218 314.506 400.218C344.686 400.218 381.5 384.962 403.389 364.732C382.826 389.274 351.319 404.53 316.828 409.836C317.159 410.831 318.154 412.49 318.818 414.479C320.144 417.464 321.471 421.444 321.802 424.097C321.802 425.756 322.797 426.751 325.119 425.756C349.661 415.806 369.229 405.193 389.128 389.606C368.565 407.846 346.676 426.751 324.124 437.363C322.134 438.358 321.139 439.022 320.808 440.68C320.144 446.65 319.813 453.614 319.481 461.242C319.481 462.237 319.149 463.895 319.813 466.549C333.079 458.589 369.892 429.735 398.082 388.942C388.796 410.5 360.937 446.65 339.048 465.222C337.058 466.88 334.737 468.539 332.415 469.865L325.451 474.177C320.807 477.161 317.823 479.151 317.491 481.141C317.159 484.126 307.873 502.367 298.255 509C330.425 503.03 367.239 473.845 385.811 435.373C394.102 417.796 397.419 406.851 404.384 387.616C410.022 372.028 415.66 349.144 415.66 332.562C415.66 321.286 413.67 311.004 411.68 303.708L410.685 299.728C415.328 338.863 395.097 372.691 362.264 372.691ZM141.716 273.859C134.088 276.181 127.123 278.503 120.822 281.487V337.205H369.229C366.244 331.235 361.932 324.934 356.294 318.301H139.394V291.769H325.119C313.511 284.472 299.913 278.171 284.989 273.859H141.716V273.859ZM366.244 241.689C367.239 245.006 368.234 247.991 369.229 250.976C370.224 253.629 371.218 255.95 372.877 257.94C376.193 261.588 379.51 265.236 382.495 268.885C384.816 271.538 386.806 274.523 388.464 277.508C388.133 274.523 388.133 270.875 387.469 266.895C386.474 260.925 384.153 253.96 378.515 247.659C373.54 242.021 370.224 236.714 366.575 232.071C363.922 228.423 360.937 225.438 357.289 222.785C361.932 229.418 364.254 236.051 366.244 241.689ZM78.3706 225.107C76.7123 226.102 74.7224 227.097 73.0642 228.092C72.4009 228.423 71.7376 229.087 70.7426 230.413C70.7426 231.076 70.7426 231.408 73.3958 230.745L75.0541 229.75C76.3807 229.087 77.7073 228.092 79.3655 228.423C80.6921 228.755 81.3554 228.755 82.0187 229.087C82.682 229.087 83.0137 229.418 84.3403 229.087C85.0036 229.087 85.6669 228.755 86.6619 228.423L89.3151 227.097C90.9733 226.102 92.9632 225.107 95.2848 225.438C98.2696 225.77 99.9279 226.433 101.255 227.428L102.913 228.423C103.576 228.755 103.908 228.755 104.903 228.755C105.566 228.755 106.893 228.423 109.214 227.428C111.204 226.765 114.189 225.438 117.505 224.112C124.138 221.459 133.093 217.81 144.037 214.162C165.926 206.866 195.112 199.901 228.609 199.901C266.085 199.901 298.919 210.514 324.787 227.097L326.777 228.423H121.485L121.154 269.548C93.9582 277.176 69.416 288.784 44.8738 304.703C44.5422 305.035 43.8789 305.366 42.8839 307.025C42.8839 308.019 42.2206 308.683 41.5573 309.346C40.894 310.009 39.899 310.673 39.2357 311.004C38.5724 311.668 37.5775 311.999 37.2458 312.331C36.5825 312.663 36.5826 312.994 38.2408 314.321C39.8991 314.321 42.2206 312.663 44.5422 311.004C45.5371 310.009 46.8637 309.346 47.8587 308.683C48.8536 308.019 49.8486 307.356 50.8435 307.356C51.5068 307.356 52.1701 307.356 54.16 308.019C54.8233 308.351 55.4867 308.351 56.4816 308.351C57.1449 308.351 57.4766 308.019 59.4665 306.693C60.4614 306.03 61.4564 305.035 63.4463 305.366C65.4362 305.698 66.7628 305.698 68.4211 305.366C70.0793 305.035 71.4059 304.703 72.7325 304.371C73.7275 304.04 75.3857 303.376 77.3756 302.05C79.3655 300.723 82.0187 299.065 85.0036 296.743C90.9733 292.432 99.2646 287.125 109.546 281.819C130.44 271.206 160.288 260.925 201.081 260.925C223.302 260.925 242.869 262.583 260.115 265.568C242.869 261.588 222.639 259.267 200.418 259.267C179.524 259.267 159.957 260.925 141.384 264.573V246.332L351.651 246.664C359.942 254.624 366.907 263.247 373.54 273.196H302.235C315.169 277.839 326.446 284.141 336.395 291.105L383.821 291.437C387.469 299.728 390.454 308.351 392.112 317.637H365.249C370.555 324.27 374.535 330.572 376.857 336.541H393.439H398.414C398.082 295.417 374.867 255.287 325.782 222.454C298.255 203.881 255.472 193.931 206.056 193.931C192.127 194.595 138.068 194.595 78.3706 225.107ZM472.04 194.926L473.699 199.901C475.025 195.59 476.684 189.952 476.684 187.63C476.684 184.977 472.704 180.002 468.061 174.696C465.739 172.043 463.417 169.721 461.428 167.399C465.076 174.364 469.719 184.314 472.04 194.926ZM451.81 153.47C454.131 156.455 456.121 158.113 458.111 159.44L461.096 161.098C462.091 161.761 462.754 162.425 463.749 163.088L465.407 164.746C466.071 165.41 466.734 165.741 467.397 166.404C468.724 167.399 469.719 167.731 470.382 167.399C470.714 167.399 471.377 166.736 471.709 165.41C472.04 164.083 472.04 162.425 472.04 161.098C472.04 148.164 454.131 136.224 440.865 128.928C430.916 123.29 420.303 117.32 410.353 112.014C427.599 124.285 442.523 140.204 451.81 153.47ZM448.825 266.895C448.162 260.925 446.503 255.95 445.177 252.302C444.513 250.312 443.85 248.986 443.518 247.659C443.187 246.332 442.855 245.337 443.187 244.342C444.513 241.358 445.177 237.709 445.84 233.398C446.503 229.087 446.835 224.443 448.825 218.805C449.82 221.459 450.483 226.102 451.146 231.408C451.81 236.714 452.141 243.348 452.805 249.981C453.136 252.965 452.473 257.94 451.81 261.92C451.478 263.91 451.146 265.568 450.815 266.563L449.156 267.558L448.825 266.895ZM451.81 209.519C449.82 206.866 448.162 203.881 446.835 200.896L444.845 196.585C444.182 195.258 443.518 193.932 442.523 192.937C439.207 188.293 438.212 179.671 439.539 176.354C441.529 177.681 444.513 180.997 448.493 188.293C450.483 191.942 451.478 195.921 452.141 199.57C452.805 203.218 452.805 206.534 453.136 209.187L453.468 211.509L451.81 209.519ZM426.604 216.815C425.278 215.157 424.946 212.504 424.946 210.182C424.946 207.861 425.278 205.208 425.278 203.881C425.941 197.248 424.946 186.635 422.956 179.671C421.961 176.022 422.293 173.701 425.609 178.344C430.584 184.977 433.569 192.605 435.559 199.901C436.885 205.208 437.217 212.836 434.232 217.147C433.237 218.805 432.242 219.137 430.916 219.137C428.926 218.805 427.599 217.81 426.604 216.815ZM406.042 191.61C405.379 191.61 404.384 190.947 403.389 190.615C402.725 190.283 401.73 189.62 401.067 188.957L399.077 187.63C396.756 185.972 395.761 181.329 396.756 178.344C398.745 172.043 398.414 164.746 396.756 159.771L396.092 157.45C396.092 156.787 395.761 156.123 395.761 155.792C395.761 155.46 395.761 154.465 398.414 155.46C404.384 160.103 407.037 170.384 408.695 176.354C410.022 181.329 411.68 188.625 408.032 191.942C407.7 192.273 407.037 192.605 406.705 192.605C406.373 191.61 406.373 191.61 406.042 191.61ZM373.872 169.389C372.877 169.058 371.55 168.063 370.555 167.399C368.234 165.741 367.239 162.425 368.565 159.44C371.218 151.812 372.213 142.526 370.223 138.546C369.892 137.219 369.56 135.893 369.892 134.898C370.555 133.571 371.882 133.903 372.877 134.898C377.851 139.541 381.831 147.169 382.163 154.133C382.495 159.44 380.505 166.073 377.188 169.058C376.525 169.721 375.862 169.721 375.198 169.721C374.867 169.389 374.203 169.389 373.872 169.389ZM424.614 165.741C423.619 165.41 422.624 164.083 421.961 162.756C420.303 159.108 416.323 155.792 411.017 151.48C410.022 150.817 409.358 149.49 408.695 148.495C408.032 147.169 407.368 145.842 406.705 144.516C405.379 141.531 404.052 138.214 401.73 135.561C400.404 133.903 399.077 132.244 398.746 131.249C398.082 129.923 398.746 128.596 400.735 129.591C403.389 130.918 407.7 133.571 413.007 139.872C418.313 146.837 423.619 157.118 425.609 162.756C425.941 163.751 426.273 164.415 425.941 165.078C425.609 165.741 425.278 165.741 424.946 165.741C424.946 166.073 424.946 166.073 424.614 165.741ZM342.033 151.812C340.375 151.149 338.385 148.827 340.043 145.842C344.686 136.888 343.691 125.28 340.707 121.963C338.385 118.978 340.375 118.647 343.028 119.31C350.324 121.632 355.631 129.591 355.299 136.556C355.299 141.862 352.646 148.164 349.33 151.149C348.003 152.143 346.345 152.475 345.018 152.475C344.023 152.475 343.028 152.143 342.033 151.812ZM70.411 119.31C70.411 115.33 75.0541 113.009 77.3756 113.009C78.3706 113.009 79.6972 113.34 80.6921 113.672C81.6871 114.004 82.682 114.999 82.682 116.325C82.682 118.647 82.0187 120.637 78.3706 121.963C77.7073 122.295 76.7123 122.295 75.7174 122.295C73.3958 122.627 70.411 121.632 70.411 119.31ZM394.434 139.209L392.112 137.882C388.796 135.893 387.801 134.898 385.479 132.908C383.158 130.918 381.831 128.265 380.505 125.611C379.178 122.958 378.515 119.973 377.52 117.32C377.188 116.325 376.525 115.33 375.862 114.667L373.872 112.014C373.54 111.35 373.872 110.687 375.198 111.019L376.525 111.682L378.846 112.677C379.51 113.009 380.505 113.672 381.5 114.335C383.49 115.662 385.479 117.983 387.469 121.632C391.449 129.26 392.112 130.586 394.766 135.893C395.429 136.888 395.761 137.883 395.761 138.214C395.761 138.546 395.761 139.541 394.434 139.541C394.766 139.209 394.766 139.209 394.434 139.209ZM317.491 142.857C316.496 142.526 315.833 142.194 313.511 141.862C312.848 141.862 312.185 141.862 311.853 141.531C310.858 141.199 309.531 140.204 310.526 138.546C313.843 131.581 313.511 120.968 308.205 111.682C307.873 111.019 307.541 109.692 307.541 109.029C307.541 107.702 308.868 107.371 310.195 108.034C313.843 110.024 324.124 115.662 325.451 126.606C326.114 132.576 324.787 140.536 320.808 142.526C319.813 142.857 319.149 143.189 318.486 143.189C318.154 142.857 317.823 142.857 317.491 142.857ZM282.668 134.234C281.341 133.903 280.346 133.239 279.351 132.908C278.025 132.244 276.035 131.249 277.361 128.928C280.678 122.627 281.009 113.009 278.688 104.717C278.688 104.386 278.356 103.391 278.688 102.727C279.019 101.733 279.683 100.738 281.009 101.401C287.642 103.391 292.617 112.345 292.617 121.963C292.617 127.27 290.959 133.239 286.647 134.566C285.984 134.566 285.652 134.898 284.989 134.898C284.326 134.566 283.331 134.566 282.668 134.234ZM361.601 120.968C360.937 120.637 360.274 120.305 359.611 119.973L356.957 118.978C354.968 117.983 352.978 116.988 350.656 114.667C348.998 113.009 347.671 111.35 346.676 109.36C345.35 107.371 344.023 105.049 342.033 102.396C340.707 100.738 339.712 99.0793 339.38 98.0844C339.38 97.4211 339.38 96.7578 340.043 96.4261C340.707 96.0945 341.37 96.4261 342.365 96.7578C345.018 97.7527 350.324 99.7426 357.289 105.049C359.279 106.376 360.606 108.366 361.932 110.024C363.259 112.014 364.585 114.004 366.244 116.657C368.234 119.31 367.57 122.627 364.917 122.627C364.254 122.295 362.927 121.963 361.601 120.968ZM335.4 110.024C334.737 109.692 333.742 109.361 332.415 109.029L328.104 108.034C325.119 107.371 321.802 106.376 319.813 104.717C317.823 103.059 316.496 101.401 315.169 99.7426L310.195 93.1096C307.21 89.1298 309.2 87.4715 313.18 88.7981C314.506 89.1298 316.496 89.7931 318.486 90.4564C320.808 91.1197 323.129 92.4463 325.451 94.1046C328.767 96.7578 330.757 98.7477 332.415 100.738C334.074 102.727 335.732 104.717 337.722 106.707C338.717 107.702 339.38 109.029 337.39 110.687C337.058 110.687 336.395 110.355 335.4 110.024ZM289.301 96.0944L287.311 95.7628C285.984 95.4312 284.658 95.0995 283.994 93.7729C282.004 87.4715 279.683 84.155 277.693 82.8284C276.698 82.1651 275.703 81.5018 275.371 81.1701C274.376 79.8435 275.371 79.1803 276.366 79.1803C279.019 79.1803 285.984 81.5018 290.627 86.8082C294.275 90.7881 296.265 93.4413 296.265 96.7578C296.265 97.4211 295.934 97.7527 293.944 97.7527H293.612C292.949 97.421 291.622 97.0894 289.301 96.0944ZM144.037 65.9142C134.42 69.2307 125.465 73.8739 116.842 78.517C112.531 80.8385 108.219 83.1601 104.239 85.15C99.9279 87.1399 95.9481 89.1298 91.6366 90.4564C83.0137 93.4412 78.7022 94.1045 70.7426 97.7527C63.7779 101.069 58.8032 104.386 54.16 108.366C49.5169 112.014 44.8738 116.325 38.2408 120.637L31.9394 124.616C29.9495 125.943 27.628 127.601 25.9697 128.928C22.3215 131.913 20 135.561 20 140.204C20 141.862 20.6633 143.189 22.6532 142.526C28.6229 140.867 34.261 140.867 40.5624 140.867C56.15 140.867 62.4513 141.862 67.0944 143.189C69.416 143.852 71.4059 144.184 74.0591 144.847C76.7123 145.179 80.0288 145.51 85.0036 145.51C93.6265 145.51 105.234 142.194 103.908 124.616C104.239 123.953 104.571 123.953 105.898 125.611C106.229 126.938 106.561 128.928 106.561 132.244C106.561 142.526 98.6013 147.169 89.6467 148.164C78.7022 149.49 68.0894 148.495 59.7981 148.495C53.1651 148.495 46.2004 149.49 40.2307 150.154C34.261 150.817 29.2862 151.48 24.9748 151.48C24.9748 152.144 24.9748 153.138 25.3064 153.47C25.9697 155.46 27.9596 156.123 30.6128 156.455C31.9394 156.787 33.266 156.787 34.5926 157.118C35.9192 157.45 37.5775 157.45 38.9041 158.113C51.5068 162.093 55.4867 163.088 65.1045 163.088C69.416 163.088 72.4009 162.425 75.0541 161.43C77.7073 160.435 80.3605 159.108 84.0086 157.782C85.6669 157.118 87.6568 156.787 89.6467 156.455C91.6366 156.123 93.9582 156.123 96.2797 155.792C100.923 155.46 105.898 155.128 110.541 153.47C119.495 150.817 126.792 144.184 126.792 125.943C126.792 115.994 119.495 104.054 113.857 100.406L111.867 99.0793H114.189C120.159 99.0793 134.751 111.35 133.756 123.29C133.425 126.938 133.756 131.249 133.425 135.229C133.093 139.209 132.761 143.189 130.771 145.51C129.445 147.169 128.782 148.495 129.113 149.822C144.369 149.822 165.595 137.882 165.595 115.33C165.595 107.039 162.278 97.0894 157.967 90.4564C156.64 88.4665 159.957 87.1399 160.952 87.8032C161.947 88.4665 162.942 89.4614 163.937 90.7881L166.921 94.7679C167.916 96.0945 168.911 97.0894 170.57 98.0844C171.565 96.7578 173.223 94.4362 175.544 92.1146C177.866 89.4614 180.519 86.4766 183.836 83.8234C190.469 78.1853 199.755 73.5422 210.699 73.5422C219.322 73.5422 227.945 74.5372 234.247 75.8638C237.231 76.5271 239.885 77.1904 241.543 77.522C242.206 77.8537 242.869 78.1853 243.533 78.1853C243.533 78.1853 243.864 78.517 243.533 79.8436C240.216 81.1702 237.231 81.1702 233.252 80.5068C229.272 80.1752 224.297 79.1803 217.001 79.1803C206.388 79.1803 194.448 83.4917 183.836 93.7729C181.182 96.4261 176.871 99.4109 171.896 101.069C171.565 101.069 171.565 102.727 172.228 102.727C180.519 102.727 199.092 97.4211 216.669 91.783C225.624 89.1298 234.247 86.4766 241.211 84.155C248.176 82.1651 253.814 80.8385 256.467 80.8385C261.11 80.8385 268.738 84.8183 270.065 89.7931C266.085 89.7931 238.226 94.4362 217.664 98.416C198.097 102.396 186.82 103.722 180.187 104.717C176.871 105.049 174.881 105.381 172.891 105.712C173.223 106.707 173.554 107.702 173.554 108.697L174.218 111.682C174.549 112.677 174.549 113.34 175.876 113.672C184.167 111.35 205.725 109.36 225.955 107.702C235.905 107.039 245.854 106.044 253.482 105.381C261.11 104.717 266.748 104.054 269.402 104.054C269.07 107.039 268.075 110.687 266.748 113.34C266.085 114.667 265.753 115.994 263.764 118.315C245.854 115.994 224.297 116.325 206.056 116.988C193.122 117.32 181.514 117.652 174.218 116.988V119.973C179.856 121.3 190.469 124.616 202.076 127.601C213.684 130.586 225.624 133.571 233.252 133.571C241.875 133.571 248.839 131.249 253.151 129.591C255.472 128.596 257.131 127.933 258.125 127.27L259.784 128.265C255.141 135.229 249.834 138.214 240.548 141.199C260.779 141.199 290.627 147.5 318.486 157.782C345.35 167.731 376.193 194.263 377.188 203.218C378.846 215.157 380.173 226.102 379.51 235.388C372.877 221.79 370.887 212.172 369.892 205.539C369.229 202.223 368.897 199.57 368.565 197.58C368.234 195.59 367.57 194.263 366.575 193.6C333.41 167.731 268.407 146.174 243.201 146.174C242.206 146.174 241.211 146.505 240.216 146.837C239.221 147.169 237.895 147.832 236.236 148.495C232.588 149.822 227.282 150.817 216.337 150.817C209.041 150.817 204.066 148.827 199.755 146.505C197.765 145.51 195.775 144.516 193.454 143.521C191.464 142.857 189.142 142.194 186.489 142.194C185.494 142.194 184.167 142.526 182.509 142.857C180.851 143.189 179.524 143.852 177.866 144.516C176.539 144.847 175.213 145.51 174.218 145.51C172.891 145.51 172.228 144.847 172.891 143.521L173.886 141.199C174.218 140.536 174.549 139.872 175.213 139.209C176.871 137.882 178.529 136.556 180.519 137.219C187.484 139.209 193.453 141.199 199.423 142.857C205.393 144.184 211.031 145.179 217.996 145.179C221.312 145.179 224.96 144.516 227.614 143.521C230.598 142.526 233.252 141.862 236.236 140.867C235.905 140.867 235.242 140.536 234.578 140.536C230.598 140.536 226.287 139.541 221.644 138.214C217.001 136.888 212.026 135.229 207.383 133.903C201.745 132.244 196.438 130.918 190.8 129.26C185.494 127.601 179.856 125.611 172.228 123.29C169.243 142.857 135.746 163.751 125.797 164.746C124.802 164.746 124.138 164.746 122.812 163.751C122.812 163.42 123.143 162.756 124.802 161.43C127.123 160.103 130.771 158.113 133.425 157.118C135.415 156.455 136.741 155.128 137.736 153.802L139.726 151.812C140.389 151.149 141.384 150.485 143.374 149.49C139.726 150.817 136.741 151.149 133.756 151.149C132.761 151.149 131.435 151.149 130.44 151.149C128.45 151.149 126.46 151.149 124.47 151.149C123.807 151.149 123.143 150.817 122.149 150.485C117.505 154.465 113.526 155.792 109.214 156.123C107.556 156.123 106.229 156.123 104.571 156.123C101.918 156.123 99.2646 156.123 96.2797 156.787C93.9582 157.118 91.305 157.118 88.6518 157.45C85.9986 157.782 83.677 158.113 81.6871 159.44C81.0238 160.103 80.3605 160.766 80.6921 161.098C88.3201 162.425 98.6013 165.41 103.244 167.068C105.898 167.731 113.526 167.731 115.184 166.736C116.842 166.073 117.837 166.073 118.832 166.736L121.485 167.731C138.731 169.389 146.359 173.701 162.942 174.696C190.137 176.022 198.428 175.691 230.267 177.017C268.075 178.676 335.732 188.957 379.51 239.036L380.505 237.378C380.836 237.378 380.836 237.709 381.5 239.036L383.49 243.348C385.148 246.996 387.138 251.307 389.791 254.624C398.746 265.9 410.353 273.859 421.629 273.859C423.619 273.859 424.283 272.864 424.946 271.869C425.609 270.543 425.609 268.885 425.609 267.226C425.609 238.041 400.072 217.147 386.474 208.524C385.811 208.193 385.479 207.198 385.148 206.203C385.148 205.208 384.816 203.881 385.148 202.886C385.148 201.891 385.148 200.896 385.479 199.901C385.479 199.57 385.811 199.238 387.138 198.575C398.082 206.866 432.906 247.991 432.906 275.849C432.906 277.839 432.906 280.824 432.574 282.814C432.242 285.136 431.247 287.457 428.926 287.457C423.619 287.457 418.645 284.804 413.338 281.156C410.685 279.497 408.032 277.176 405.379 274.854L400.404 270.543C412.675 292.764 419.971 310.341 419.971 335.878C419.971 357.435 415.66 374.35 405.379 393.917C415.328 380.983 430.584 361.747 444.513 338.2C461.759 309.346 476.684 274.523 476.684 238.373C476.684 225.438 475.025 213.167 471.709 201.559L470.05 202.223C470.05 198.906 469.387 195.59 468.724 192.273C459.769 167.731 443.518 145.842 421.961 127.27C398.082 106.376 346.345 76.5271 301.572 63.5927C284.658 58.6179 272.718 56.9596 260.447 56.628C248.508 56.2963 236.237 56.9597 219.986 56.9597C193.122 56.9597 166.921 61.9344 136.409 66.9092C170.238 55.3014 192.79 50.9899 229.603 50.9899C278.025 50.6583 316.164 62.9294 350.656 76.8587C372.213 85.4816 383.158 92.7779 402.725 102.064C422.624 111.682 441.86 120.637 448.493 124.616C455.126 128.265 461.759 133.239 464.081 135.893C463.086 133.571 462.754 131.581 462.754 129.26C462.423 126.938 462.423 124.616 462.091 121.632C460.764 115.33 455.458 110.024 450.483 108.366C435.89 102.727 421.629 96.0945 408.032 90.1248C394.766 84.155 382.163 78.8486 370.887 75.8638C353.309 71.2206 348.003 72.2156 327.772 66.5775C310.858 61.9344 295.934 57.6229 280.014 54.3064C264.095 50.9899 246.849 49 225.624 49C206.388 51.3216 174.881 55.633 144.037 65.9142Z"
       fill="white"
       id="path1" />
  </mask>
  <g
     mask="url(#mask0_383_669)"
     id="g2">
    <path
       d="M472.704 -120.142L689.604 452.951L85.0043 681.79L-131.896 108.697L472.704 -120.142Z"
       fill="url(#paint0_linear_383_669)"
       id="path2" />
  </g>
  <defs
     id="defs3">
    <linearGradient
       id="paint0_linear_383_669"
       x1="137.379"
       y1="-92.721"
       x2="294.16"
       y2="321.458"
       gradientUnits="userSpaceOnUse">
      <stop
         stop-color="#008E99"
         id="stop2" />
      <stop
         offset="1"
         stop-color="#008E99"
         id="stop3" />
    </linearGradient>
  </defs>
</svg>
