<svg width="32" height="32" viewBox="0 0 32 32" fill="none" xmlns="http://www.w3.org/2000/svg">
<path d="M26.08 12.71C25.4035 12.5727 24.7357 12.3957 24.08 12.18C24.1169 11.9558 24.0763 11.7257 23.9649 11.5276C23.8536 11.3295 23.6781 11.1752 23.4673 11.0902C23.2566 11.0052 23.0231 10.9946 22.8055 11.06C22.5879 11.1253 22.399 11.2629 22.27 11.45L21.52 11.09H21.46C21.5053 10.8879 21.4867 10.6768 21.4069 10.4857C21.327 10.2946 21.1898 10.133 21.0142 10.0233C20.8386 9.91349 20.6332 9.86096 20.4265 9.87292C20.2197 9.88487 20.0218 9.96073 19.86 10.09C19.4587 9.82361 19.0715 9.53656 18.7 9.23H18.65L15.65 7.23C15.4724 7.11337 15.2624 7.05631 15.0502 7.06709C14.838 7.07788 14.6348 7.15596 14.47 7.29C13.9006 7.70733 13.4606 8.27691 13.2005 8.93323C12.9405 9.58954 12.871 10.3059 13 11C12.2469 10.9167 11.5179 10.6847 10.8553 10.3173C10.1927 9.94992 9.60961 9.45457 9.14 8.86C8.9135 8.58473 8.62757 8.36434 8.3037 8.21539C7.97982 8.06645 7.62641 7.99281 7.27 8H5.81C5.38305 7.99974 4.96333 8.11015 4.59177 8.32046C4.22022 8.53078 3.90952 8.83381 3.69 9.2C2.84721 10.6301 2.27436 12.2029 2 13.84C1.7749 15.2377 1.7749 16.6623 2 18.06V20.11C2 20.3582 2.04889 20.604 2.14387 20.8333C2.23885 21.0626 2.37807 21.2709 2.55357 21.4464C2.72907 21.6219 2.93742 21.7612 3.16673 21.8561C3.39603 21.9511 3.6418 22 3.89 22H6V23C6 23.2652 6.10536 23.5196 6.29289 23.7071C6.48043 23.8946 6.73479 24 7 24C7.26522 24 7.51957 23.8946 7.70711 23.7071C7.89464 23.5196 8 23.2652 8 23V22H9V23C9 23.2652 9.10536 23.5196 9.29289 23.7071C9.48043 23.8946 9.73478 24 10 24C10.2652 24 10.5196 23.8946 10.7071 23.7071C10.8946 23.5196 11 23.2652 11 23V22H18V23C18 23.2652 18.1054 23.5196 18.2929 23.7071C18.4804 23.8946 18.7348 24 19 24C19.2652 24 19.5196 23.8946 19.7071 23.7071C19.8946 23.5196 20 23.2652 20 23V22H21V23C21 23.2652 21.1054 23.5196 21.2929 23.7071C21.4804 23.8946 21.7348 24 22 24C22.2652 24 22.5196 23.8946 22.7071 23.7071C22.8946 23.5196 23 23.2652 23 23V22H24V23C24 23.2652 24.1054 23.5196 24.2929 23.7071C24.4804 23.8946 24.7348 24 25 24C25.2652 24 25.5196 23.8946 25.7071 23.7071C25.8946 23.5196 26 23.2652 26 23V22H28.11C28.3582 22 28.604 21.9511 28.8333 21.8561C29.0626 21.7612 29.2709 21.6219 29.4464 21.4464C29.6219 21.2709 29.7612 21.0626 29.8561 20.8333C29.9511 20.604 30 20.3582 30 20.11V17.44C30.0027 16.3177 29.6119 15.2299 28.8958 14.3658C28.1796 13.5016 27.1833 12.9158 26.08 12.71ZM15.15 9.3L16.36 10.11C15.9652 10.4037 15.5265 10.6332 15.06 10.79C15.0018 10.7299 14.9514 10.6627 14.91 10.59C14.8433 10.3715 14.8303 10.1402 14.8721 9.91562C14.9138 9.69104 15.0092 9.47986 15.15 9.3ZM5.81 10H7.27C7.32871 9.99707 7.3874 10.0062 7.44244 10.0268C7.49747 10.0475 7.5477 10.0792 7.59 10.12C8.35365 11.0969 9.34614 11.8707 10.4798 12.373C11.6135 12.8753 12.8534 13.0906 14.09 13C15.5764 12.9146 16.9884 12.3216 18.09 11.32L18.69 11.73L18.21 12.45C18.0653 12.6705 18.0135 12.9392 18.0659 13.1976C18.1184 13.4561 18.2708 13.6834 18.49 13.83C18.6398 13.9351 18.8171 13.9942 19 14C19.1647 13.9991 19.3267 13.9576 19.4715 13.8791C19.6162 13.8006 19.7394 13.6876 19.83 13.55L20.35 12.78L20.54 12.89L21.09 13.15L20.78 13.61C20.7068 13.7195 20.6559 13.8425 20.6304 13.9717C20.6048 14.101 20.605 14.234 20.6311 14.3632C20.6571 14.4924 20.7084 14.6151 20.782 14.7244C20.8556 14.8337 20.9501 14.9274 21.06 15C21.2227 15.1094 21.414 15.1685 21.61 15.17C21.7747 15.1691 21.9367 15.1276 22.0815 15.0491C22.2262 14.9706 22.3494 14.8576 22.44 14.72L22.97 13.94C23.8663 14.2546 24.7857 14.4986 25.72 14.67C26.2951 14.7731 26.8238 15.053 27.2324 15.4706C27.6411 15.8882 27.9094 16.4228 28 17H15V16.41C15 15.7708 14.7461 15.1578 14.2941 14.7059C13.8422 14.2539 13.2292 14 12.59 14H10.14C9.97799 13.9965 9.81893 13.956 9.67504 13.8814C9.53116 13.8069 9.40628 13.7003 9.31 13.57C8.77596 12.8712 8.05874 12.3339 7.23792 12.018C6.4171 11.702 5.52479 11.6196 4.66 11.78C4.87472 11.2388 5.12873 10.7141 5.42 10.21C5.45984 10.1429 5.51718 10.0879 5.58588 10.0509C5.65458 10.0139 5.73206 9.99632 5.81 10ZM3.88 17C3.79976 16.0521 3.84008 15.0978 4 14.16V14C4.12686 13.9936 4.25183 13.9666 4.37 13.92C4.72191 13.7742 5.09909 13.6992 5.48 13.6992C5.86091 13.6992 6.2381 13.7742 6.59 13.92C7.02749 14.1117 7.40935 14.411 7.7 14.79C7.98241 15.1699 8.3507 15.4775 8.77478 15.6878C9.19885 15.8981 9.66667 16.0051 10.14 16H12.59C12.6987 16 12.803 16.0432 12.8799 16.1201C12.9568 16.197 13 16.3013 13 16.41V17H3.88ZM28 20H4V19H28V20Z" fill="white"/>
</svg>
