<?xml version="1.0" encoding="UTF-8"?>
<svg version="1.1" xmlns="http://www.w3.org/2000/svg" width="225" height="225">
<path d="M0 0 C2.125 2 2.125 2 3.453125 3.5078125 C5.52366934 5.3558217 7.37142527 5.99360847 10 6.875 C10.969375 7.21402344 11.93875 7.55304687 12.9375 7.90234375 C13.989375 8.26457031 15.04125 8.62679688 16.125 9 C30.17982718 13.87127533 30.17982718 13.87127533 34.125 19 C34.723125 19.721875 35.32125 20.44375 35.9375 21.1875 C37.125 23 37.125 23 37.125 25 C39.35410872 25.50021394 41.58373923 25.99631787 43.81640625 26.48046875 C45.47307941 26.85329029 47.11723101 27.28349458 48.75 27.75 C51.47635195 28.03698442 53.34291132 27.31126895 55.91796875 26.4921875 C66.18099861 24.20344102 76.6723612 26.05577341 85.5625 31.5 C95.86975738 38.87801905 105.08826574 47.96124517 107.25 60.8125 C107.35570312 61.70582031 107.46140625 62.59914063 107.5703125 63.51953125 C108.20374879 66.35215126 109.31782582 67.76678217 111.125 70 C112.81646061 75.07438183 112.35026129 80.40053686 112.36523438 85.71411133 C112.37491783 87.79484373 112.40594366 89.87457832 112.4375 91.95507812 C112.44403307 93.28905667 112.44928235 94.62304224 112.453125 95.95703125 C112.4624707 97.16335205 112.47181641 98.36967285 112.48144531 99.61254883 C111.8304127 105.79958818 108.76265758 109.7395181 104.625 114.1875 C103.8515625 115.02667969 103.078125 115.86585937 102.28125 116.73046875 C100.125 119 100.125 119 98.44921875 120.2890625 C96.22297447 123.16544891 95.99801282 126.68046621 95.4375 130.1875 C95.30794922 130.93708984 95.17839844 131.68667969 95.04492188 132.45898438 C94.72759462 134.30418359 94.42486709 136.151883 94.125 138 C93.465 138 92.805 138 92.125 138 C91.75375 138.804375 91.75375 138.804375 91.375 139.625 C90.125 142 90.125 142 88 144.75 C85.28599805 149.45427005 85.50537525 153.19262327 86.6328125 158.30078125 C87.75850263 162.15012393 88.99377016 165.12842479 91.6875 168.125 C96.86103097 174.22711346 96.60888701 181.37609139 96.125 189 C95.49226872 196.41370043 92.75559783 201.12162349 87.125 206 C77.90608543 212.20114613 66.91835365 213.19004893 56.14160156 211.54443359 C54.0900772 211.13003507 52.04067216 210.70504772 49.99316406 210.27124023 C35.82658119 207.29026096 21.82705032 206.32442373 7.375 205.9375 C6.44550537 205.90536407 5.51601074 205.87322815 4.55834961 205.84011841 C-7.94910672 205.43334154 -18.85249584 206.5688601 -30.875 210 C-33.02220461 210.54911454 -35.17054049 211.09383687 -37.3203125 211.6328125 C-39.21410171 212.12807174 -41.10735026 212.62540391 -43 213.125 C-44.44246094 213.50205078 -44.44246094 213.50205078 -45.9140625 213.88671875 C-49.86784404 214.9240433 -53.80782359 215.97095868 -57.71875 217.16015625 C-65.56182797 219.24711388 -73.5718658 218.55903226 -80.875 215 C-85.35295495 212.23679804 -88.09323852 208.97017676 -89.875 204 C-91.93797571 193.44351168 -90.15310856 183.34438696 -87.59375 173.04296875 C-86.87832595 170.01408105 -86.19220811 167.09821071 -85.875 164 C-87.72664036 161.24743206 -87.72664036 161.24743206 -89.875 159 C-89.875 158.34 -89.875 157.68 -89.875 157 C-90.844375 156.979375 -91.81375 156.95875 -92.8125 156.9375 C-100.0096225 155.93019482 -106.24094267 149.19576125 -110.875 144 C-113.29734649 140.33630869 -113.33511309 136.51592914 -113.375 132.25 C-113.38217041 131.53207275 -113.38934082 130.81414551 -113.39672852 130.07446289 C-113.26754598 124.41806717 -111.89749107 121.67874333 -108.14453125 117.64453125 C-106.51822029 115.90045436 -106.51822029 115.90045436 -107 112.625 C-107.433125 110.830625 -107.433125 110.830625 -107.875 109 C-108.38958551 102.63972315 -108.10304109 97.67689984 -104.875 92 C-102.34475202 89.15347103 -100.04197747 87.11131831 -96.875 85 C-96.47656958 82.14807181 -96.47656958 82.14807181 -96.5 78.875 C-96.0812128 71.13171009 -93.64393399 67.06827821 -88.5625 61.4375 C-86.24321413 58.08742041 -86.46010434 56.01065807 -86.875 52 C-87.1946875 50.95328125 -87.514375 49.9065625 -87.84375 48.828125 C-90.30648881 39.68614003 -91.83867775 28.14314473 -86.9921875 19.63671875 C-86.62351562 19.09660156 -86.25484375 18.55648438 -85.875 18 C-85.070625 16.7315625 -85.070625 16.7315625 -84.25 15.4375 C-83.79625 14.963125 -83.3425 14.48875 -82.875 14 C-82.215 14 -81.555 14 -80.875 14 C-80.875 13.34 -80.875 12.68 -80.875 12 C-74.25 9.125 -74.25 9.125 -70.875 8 C-70.875 7.34 -70.875 6.68 -70.875 6 C-65.82698259 1.10449066 -59.93934465 0.15615185 -53.14453125 -0.15234375 C-49.07370832 0.03733617 -45.6147135 0.91660211 -41.80078125 2.30859375 C-39.90229644 3.11263604 -39.90229644 3.11263604 -37.875 3 C-36.9675 2.21625 -36.06 1.4325 -35.125 0.625 C-25.65890021 -7.48879982 -9.94721965 -6.91980497 0 0 Z " fill="#2AAE91" transform="translate(112.875,6)"/>
<path d="M0 0 C2.125 2 2.125 2 3.453125 3.5078125 C5.52366934 5.3558217 7.37142527 5.99360847 10 6.875 C10.969375 7.21402344 11.93875 7.55304687 12.9375 7.90234375 C13.989375 8.26457031 15.04125 8.62679688 16.125 9 C30.17982718 13.87127533 30.17982718 13.87127533 34.125 19 C34.723125 19.721875 35.32125 20.44375 35.9375 21.1875 C37.125 23 37.125 23 37.125 25 C39.35410872 25.50021394 41.58373923 25.99631787 43.81640625 26.48046875 C45.47307941 26.85329029 47.11723101 27.28349458 48.75 27.75 C51.47635195 28.03698442 53.34291132 27.31126895 55.91796875 26.4921875 C66.18099861 24.20344102 76.6723612 26.05577341 85.5625 31.5 C95.86975738 38.87801905 105.08826574 47.96124517 107.25 60.8125 C107.35570312 61.70582031 107.46140625 62.59914063 107.5703125 63.51953125 C108.20374879 66.35215126 109.31782582 67.76678217 111.125 70 C112.81646061 75.07438183 112.35026129 80.40053686 112.36523438 85.71411133 C112.37491783 87.79484373 112.40594366 89.87457832 112.4375 91.95507812 C112.44403307 93.28905667 112.44928235 94.62304224 112.453125 95.95703125 C112.4624707 97.16335205 112.47181641 98.36967285 112.48144531 99.61254883 C111.8304127 105.79958818 108.76265758 109.7395181 104.625 114.1875 C103.8515625 115.02667969 103.078125 115.86585937 102.28125 116.73046875 C100.125 119 100.125 119 98.44921875 120.2890625 C96.22297447 123.16544891 95.99801282 126.68046621 95.4375 130.1875 C95.30794922 130.93708984 95.17839844 131.68667969 95.04492188 132.45898438 C94.72759462 134.30418359 94.42486709 136.151883 94.125 138 C93.465 138 92.805 138 92.125 138 C91.75375 138.804375 91.75375 138.804375 91.375 139.625 C90.125 142 90.125 142 88 144.75 C85.28599805 149.45427005 85.50537525 153.19262327 86.6328125 158.30078125 C87.75850263 162.15012393 88.99377016 165.12842479 91.6875 168.125 C96.86103097 174.22711346 96.60888701 181.37609139 96.125 189 C95.49226872 196.41370043 92.75559783 201.12162349 87.125 206 C77.90608543 212.20114613 66.91835365 213.19004893 56.14160156 211.54443359 C54.0900772 211.13003507 52.04067216 210.70504772 49.99316406 210.27124023 C35.82658119 207.29026096 21.82705032 206.32442373 7.375 205.9375 C6.44550537 205.90536407 5.51601074 205.87322815 4.55834961 205.84011841 C-7.94910672 205.43334154 -18.85249584 206.5688601 -30.875 210 C-33.02220461 210.54911454 -35.17054049 211.09383687 -37.3203125 211.6328125 C-39.21410171 212.12807174 -41.10735026 212.62540391 -43 213.125 C-44.44246094 213.50205078 -44.44246094 213.50205078 -45.9140625 213.88671875 C-49.86784404 214.9240433 -53.80782359 215.97095868 -57.71875 217.16015625 C-65.56182797 219.24711388 -73.5718658 218.55903226 -80.875 215 C-85.35295495 212.23679804 -88.09323852 208.97017676 -89.875 204 C-91.93797571 193.44351168 -90.15310856 183.34438696 -87.59375 173.04296875 C-86.87832595 170.01408105 -86.19220811 167.09821071 -85.875 164 C-87.72664036 161.24743206 -87.72664036 161.24743206 -89.875 159 C-89.875 158.34 -89.875 157.68 -89.875 157 C-90.844375 156.979375 -91.81375 156.95875 -92.8125 156.9375 C-100.0096225 155.93019482 -106.24094267 149.19576125 -110.875 144 C-113.29734649 140.33630869 -113.33511309 136.51592914 -113.375 132.25 C-113.38217041 131.53207275 -113.38934082 130.81414551 -113.39672852 130.07446289 C-113.26754598 124.41806717 -111.89749107 121.67874333 -108.14453125 117.64453125 C-106.51822029 115.90045436 -106.51822029 115.90045436 -107 112.625 C-107.433125 110.830625 -107.433125 110.830625 -107.875 109 C-108.38958551 102.63972315 -108.10304109 97.67689984 -104.875 92 C-102.34475202 89.15347103 -100.04197747 87.11131831 -96.875 85 C-96.47656958 82.14807181 -96.47656958 82.14807181 -96.5 78.875 C-96.0812128 71.13171009 -93.64393399 67.06827821 -88.5625 61.4375 C-86.24321413 58.08742041 -86.46010434 56.01065807 -86.875 52 C-87.1946875 50.95328125 -87.514375 49.9065625 -87.84375 48.828125 C-90.30648881 39.68614003 -91.83867775 28.14314473 -86.9921875 19.63671875 C-86.62351562 19.09660156 -86.25484375 18.55648438 -85.875 18 C-85.070625 16.7315625 -85.070625 16.7315625 -84.25 15.4375 C-83.79625 14.963125 -83.3425 14.48875 -82.875 14 C-82.215 14 -81.555 14 -80.875 14 C-80.875 13.34 -80.875 12.68 -80.875 12 C-74.25 9.125 -74.25 9.125 -70.875 8 C-70.875 7.34 -70.875 6.68 -70.875 6 C-65.82698259 1.10449066 -59.93934465 0.15615185 -53.14453125 -0.15234375 C-49.07370832 0.03733617 -45.6147135 0.91660211 -41.80078125 2.30859375 C-39.90229644 3.11263604 -39.90229644 3.11263604 -37.875 3 C-36.9675 2.21625 -36.06 1.4325 -35.125 0.625 C-25.65890021 -7.48879982 -9.94721965 -6.91980497 0 0 Z M-24.875 14 C-25.205 16.31 -25.535 18.62 -25.875 21 C-27.855 21 -29.835 21 -31.875 21 C-32.535 22.32 -33.195 23.64 -33.875 25 C-38.9251112 24.08179796 -42.27086754 22.91048482 -46.4375 19.875 C-49.32719788 17.87101431 -50.93594533 16.98610019 -54.4375 16.1875 C-58.77211105 17.21204443 -60.7871986 19.20471947 -63.9453125 22.24609375 C-66.34848291 24.43035188 -68.91536922 25.7006499 -71.875 27 C-73.28940273 28.18000917 -73.28940273 28.18000917 -72.89453125 31.52734375 C-72.83176504 32.99767567 -72.76244893 34.46773872 -72.6875 35.9375 C-72.65946289 37.0502832 -72.65946289 37.0502832 -72.63085938 38.18554688 C-72.54991585 40.60434968 -72.54991585 40.60434968 -71.875 44 C-69.96464846 45.59760536 -69.96464846 45.59760536 -67.875 46 C-67.82089313 47.77049689 -67.78215881 49.54146849 -67.75 51.3125 C-67.72679688 52.29863281 -67.70359375 53.28476562 -67.6796875 54.30078125 C-67.875 57 -67.875 57 -69.875 60 C-70.54207548 63.41499591 -70.54207548 63.41499591 -69.875 67 C-68.05133295 69.12584444 -66.21431992 70.39171756 -63.875 72 C-64.205 73.32 -64.535 74.64 -64.875 76 C-67.35521057 75.42764372 -69.50912862 74.73577974 -71.875 73.75 C-74.81666667 72.69583333 -74.81666667 72.69583333 -77.25 74 C-79.13184598 75.95702349 -79.13184598 75.95702349 -79.25 78.9375 C-79.09373583 81.93449464 -79.09373583 81.93449464 -77.70703125 83.9453125 C-77.43246094 84.62335938 -77.15789062 85.30140625 -76.875 86 C-77.73828125 87.96484375 -77.73828125 87.96484375 -79.1875 89.9375 C-81.27369143 92.97041417 -82.52387127 95.25462686 -82.875 99 C-84.2671875 98.9071875 -84.2671875 98.9071875 -85.6875 98.8125 C-88.79936195 98.74414957 -88.79936195 98.74414957 -90.8125 100.1875 C-92.12601046 102.02168669 -92.12601046 102.02168669 -91.625 104.5625 C-90.955487 106.97602515 -90.955487 106.97602515 -89.875 109 C-88.84626049 120.2655409 -88.84626049 120.2655409 -91.6875 124.625 C-93.875 127 -93.875 127 -96.875 129 C-97.96161522 131.82180519 -97.96161522 131.82180519 -96.875 135 C-91.85051255 139.14622339 -82.59885565 145 -75.875 145 C-75.648125 146.03125 -75.42125 147.0625 -75.1875 148.125 C-73.66471939 153.48736315 -70.51089613 156.90940258 -65.875 160 C-67.33426594 169.54283118 -67.33426594 169.54283118 -69.875 173.5625 C-74.36202932 181.27458164 -74.73090124 190.22701231 -73.875 199 C-71.3943021 201.4806979 -70.59238983 201.31891405 -67.16015625 201.36328125 C-59.88555463 201.22691952 -53.24912499 199.2365496 -46.3125 197.1875 C-45.06275391 196.83107422 -43.81300781 196.47464844 -42.52539062 196.10742188 C-35.81747626 194.20527176 -35.81747626 194.20527176 -29.17944336 192.07763672 C-22.56052031 189.84060914 -16.51869945 189.61286878 -9.5625 189.75 C-8.40041016 189.76313232 -7.23832031 189.77626465 -6.04101562 189.78979492 C-2.31841811 189.84077919 1.40295062 189.91871995 5.125 190 C6.99357666 190.0311792 6.99357666 190.0311792 8.89990234 190.06298828 C23.90061911 190.32540849 38.3851345 191.1920646 53.125 194 C55.64322191 194.45741498 58.16302226 194.88946456 60.6875 195.3125 C61.69941406 195.49425781 62.71132812 195.67601562 63.75390625 195.86328125 C64.53636719 195.90839844 65.31882813 195.95351562 66.125 196 C66.785 195.34 67.445 194.68 68.125 194 C70.13090447 193.80896148 72.13906423 193.62185156 74.15234375 193.5390625 C76.27566942 193.13397225 76.27566942 193.13397225 77.84765625 191.27734375 C79.32552922 188.64248154 79.58870795 186.94520353 79.625 183.9375 C79.67140625 182.65166016 79.67140625 182.65166016 79.71875 181.33984375 C79.5228125 180.56769531 79.326875 179.79554688 79.125 179 C77.94164062 178.33097656 77.94164062 178.33097656 76.734375 177.6484375 C73.65444414 175.70273268 73.17848205 174.16468569 72.3125 170.69726562 C72.168125 170.03404297 72.02375 169.37082031 71.875 168.6875 C71.71515625 168.03587891 71.5553125 167.38425781 71.390625 166.71289062 C66.59476326 146.75011611 66.59476326 146.75011611 70.75 139.25 C71.93820594 137.47826231 73.21470461 135.89764774 74.62109375 134.29296875 C78.27020859 129.97045117 79.53514302 126.75253711 80.4375 121.125 C82.06753528 112.00851527 87.40372885 107.54155067 93.875 101.3828125 C97.27374619 97.21336657 96.85673706 92.52684212 96.75 87.375 C96.76933594 86.43398437 96.78867188 85.49296875 96.80859375 84.5234375 C96.79000593 81.90627288 96.70246744 79.55360046 96.125 77 C93.6905047 74.66489951 93.6905047 74.66489951 91.125 73 C90.84765625 70.51953125 90.84765625 70.51953125 91.1875 67.8125 C91.41160151 62.37623102 90.37135383 59.45886365 87.109375 55.140625 C81.9552966 49.58071365 75.5995722 43.3550419 67.77734375 42.734375 C66.55144531 42.73953125 65.32554687 42.7446875 64.0625 42.75 C62.83402344 42.74484375 61.60554687 42.7396875 60.33984375 42.734375 C56.97345333 42.75125736 56.97345333 42.75125736 54.125 45 C48.10576906 44.64132427 42.5742652 43.14168407 36.8125 41.4375 C35.23410927 40.97431824 33.65471699 40.51453227 32.07421875 40.05859375 C31.38674561 39.85548584 30.69927246 39.65237793 29.9909668 39.44311523 C27.95817185 38.88447659 27.95817185 38.88447659 25.125 39 C24.7228125 37.9171875 24.7228125 37.9171875 24.3125 36.8125 C21.99814701 31.33113766 20.31689902 28.61161683 14.6875 26.3125 C13.26630859 25.71888672 13.26630859 25.71888672 11.81640625 25.11328125 C10.92824219 24.74589844 10.04007812 24.37851562 9.125 24 C8.39925781 23.61972656 7.67351562 23.23945313 6.92578125 22.84765625 C4.26963263 21.59736503 2.88411926 22.08029358 0.125 23 C-1.88754782 24.31431695 -3.88810269 25.64721885 -5.875 27 C-7.195 27.33 -8.515 27.66 -9.875 28 C-9.875 23.05 -9.875 18.1 -9.875 13 C-14.7606475 10.55717625 -20.0441314 12.11478298 -24.875 14 Z " fill="#F5F6F0" transform="translate(112.875,6)"/>
<path d="M0 0 C0.99 0.33 1.98 0.66 3 1 C3 1.66 3 2.32 3 3 C-2.445 4.485 -2.445 4.485 -8 6 C-8 6.66 -8 7.32 -8 8 C-8.66 8 -9.32 8 -10 8 C-10.309375 8.61875 -10.61875 9.2375 -10.9375 9.875 C-11.625 11.25 -12.3125 12.625 -13 14 C-13.49002712 19.71334866 -13.49002712 19.71334866 -11.375 24.875 C-6.66445657 29.08969676 -1.06299142 29.3473808 5.0234375 29.6328125 C5.76961334 29.67437469 6.51578918 29.71593689 7.28457642 29.75875854 C9.64770812 29.88861048 12.0112508 30.00698114 14.375 30.125 C15.98571808 30.21147933 17.59639594 30.29871126 19.20703125 30.38671875 C23.13760913 30.59985379 27.06859673 30.80270027 31 31 C31.495 32.485 31.495 32.485 32 34 C32.495 33.01 32.495 33.01 33 32 C33.99 32 34.98 32 36 32 C36 32.99 36 33.98 36 35 C36.66 35 37.32 35 38 35 C38 34.01 38 33.02 38 32 C39.32 32 40.64 32 42 32 C42.33 32.66 42.66 33.32 43 34 C44.32 33.34 45.64 32.68 47 32 C47 33.32 47 34.64 47 36 C47.433125 35.505 47.86625 35.01 48.3125 34.5 C50 33 50 33 53 33 C52.67 34.32 52.34 35.64 52 37 C53.65 36.34 55.3 35.68 57 35 C57 35.99 57 36.98 57 38 C58.65 38 60.3 38 62 38 C61.67 38.99 61.34 39.98 61 41 C62.98 41 64.96 41 67 41 C67 41.66 67 42.32 67 43 C66.01 43.495 66.01 43.495 65 44 C66.65 44.33 68.3 44.66 70 45 C70 46.32 70 47.64 70 49 C71.485 49.99 71.485 49.99 73 51 C73 51.66 73 52.32 73 53 C72.01 53 71.02 53 70 53 C70 53.66 70 54.32 70 55 C71.32 55.33 72.64 55.66 74 56 C74.33 57.32 74.66 58.64 75 60 C74.01 60.495 74.01 60.495 73 61 C73.66 61.33 74.32 61.66 75 62 C74.16592416 69.17305224 71.35249745 73.24222449 66 78 C64.10242597 79.29134688 62.16734352 80.48709389 60.19921875 81.66796875 C57.77708478 83.13501614 55.4191811 84.68012817 53.0625 86.25 C52.31097656 86.75015625 51.55945313 87.2503125 50.78515625 87.765625 C49.06191055 88.87827433 49.06191055 88.87827433 48 90 C48 91.155 48 92.31 48 93.5 C48 94.655 48 95.81 48 97 C47 98 47 98 44.05859375 98.09765625 C42.86363281 98.08605469 41.66867188 98.07445312 40.4375 98.0625 C38.64119141 98.04896484 38.64119141 98.04896484 36.80859375 98.03515625 C35.41833984 98.01775391 35.41833984 98.01775391 34 98 C34.49628906 98.45503906 34.99257812 98.91007812 35.50390625 99.37890625 C37 101 37 101 36.9375 102.9375 C36 105 36 105 33.9375 106.9375 C31.78848999 108.83053723 31.78848999 108.83053723 31.6484375 111.421875 C31.76170808 114.06583574 31.76170808 114.06583574 33.57421875 115.73828125 C34.27160156 116.25777344 34.96898438 116.77726562 35.6875 117.3125 C39.88762302 120.69945533 42.45071662 124.2813745 45 129 C45.01417969 127.87980469 45.02835937 126.75960937 45.04296875 125.60546875 C45.08986994 124.13277131 45.13811734 122.66011632 45.1875 121.1875 C45.19620117 120.08051758 45.19620117 120.08051758 45.20507812 118.95117188 C45.29296875 116.79296875 45.29296875 116.79296875 46 113 C48.42578125 110.92578125 48.42578125 110.92578125 51 110 C51.66 110.33 52.32 110.66 53 111 C52.03320312 111.44279297 52.03320312 111.44279297 51.046875 111.89453125 C47.75953184 115.27597774 48.32313475 119.14317276 48.25 123.6875 C48.20552734 125.02651367 48.20552734 125.02651367 48.16015625 126.39257812 C48.08948573 128.59514277 48.03678061 130.79665131 48 133 C47.01 133.33 46.02 133.66 45 134 C44.319375 133.0925 43.63875 132.185 42.9375 131.25 C39.19316559 126.86259431 35.72110748 124.22332321 29.90625 123.74609375 C28.7821875 123.70613281 27.658125 123.66617188 26.5 123.625 C21.12666506 123.35942138 18.24364333 122.58909761 14.3671875 118.86328125 C8.9108591 111.42708512 9.81210914 104.69800927 10.20507812 95.85351562 C10.37415486 89.24302756 9.96758909 85.37049352 6 80 C3.60236815 77.60236815 2.66726502 77.65719414 -0.625 77.375 C-1.44226563 77.30023438 -2.25953125 77.22546875 -3.1015625 77.1484375 C-4.04128906 77.07496094 -4.04128906 77.07496094 -5 77 C-5 77.66 -5 78.32 -5 79 C-4.113125 78.9175 -3.22625 78.835 -2.3125 78.75 C1.74088462 79.05591582 3.16191707 80.16191707 6 83 C7.28923485 86.86770455 7.14505706 90.53437316 7.125 94.5625 C7.13080078 95.73329102 7.13080078 95.73329102 7.13671875 96.92773438 C7.12667749 102.74664502 7.12667749 102.74664502 6 105 C5.93003986 106.70702735 5.91559846 108.41668003 5.9375 110.125 C5.94652344 111.03507812 5.95554688 111.94515625 5.96484375 112.8828125 C5.97644531 113.58148438 5.98804688 114.28015625 6 115 C6.66 115 7.32 115 8 115 C9.83808552 116.82387352 11.44825049 118.79857186 13.11328125 120.78125 C14.29687151 122.17313254 15.51919195 123.53389673 16.79296875 124.84375 C19.54497875 127.71995998 20.88275169 129.30953774 21.5625 133.3125 C21.376875 134.529375 21.19125 135.74625 21 137 C20.88422607 137.80590576 20.76845215 138.61181152 20.64916992 139.44213867 C20.06007957 142.26009086 19.41442757 144.48483597 18 147 C14.75701808 148.92499066 11.44577411 149.43025583 7.75 150 C5.89046717 150.35333703 4.03108869 150.70748749 2.171875 151.0625 C1.28628906 151.21662354 0.40070313 151.37074707 -0.51171875 151.52954102 C-3.75634475 152.14300199 -6.84297066 153.03718869 -10 154 C-12.5 154.5625 -12.5 154.5625 -15 154 C-21.6924405 149.40905048 -26.22020483 141.4524114 -29 134 C-28.71484375 130.88671875 -28.71484375 130.88671875 -28 128 C-27.60496381 124.9097169 -27.36537083 122.0673743 -28 119 C-30.75954128 116.66030012 -30.75954128 116.66030012 -34 115 C-35.78726736 112.51059189 -36.88661144 110.3320665 -37.875 107.4375 C-40.55198605 101.63736355 -46.17133394 99.94751901 -51.79296875 97.83203125 C-54 97 -54 97 -56 96 C-54.62595257 84.66410869 -47.71319987 73.25670344 -39 66 C-31.80207983 61.22147644 -24.59755909 57.79349606 -15.7578125 58.3828125 C-9.5022798 59.78277591 -4.94578672 63.26521939 -1.4375 68.5625 C-1.07011719 69.14773437 -0.70273438 69.73296875 -0.32421875 70.3359375 C1.7404369 72.93046053 4.41555454 74.25616071 7.328125 75.76171875 C9 77 9 77 9.734375 79.14453125 C9.82203125 79.75683594 9.9096875 80.36914062 10 81 C10.66 81 11.32 81 12 81 C11.938125 80.236875 11.87625 79.47375 11.8125 78.6875 C12 76 12 76 13 74.25 C16.1527286 72.27954463 19.35669922 71.88572673 23 72 C26.85615453 73.26322304 29.57641069 74.66305396 32.75 77.1875 C37.40446189 79.78325759 41.7735127 79.65426187 47 79 C52.57599126 77.13859081 56.54276005 74.13728526 59.875 69.25 C61.8273439 63.60989539 61.58109332 58.93697775 59.875 53.25 C57.0872997 48.41798615 53.26579053 45.03880608 48 43 C45.4257202 42.78740498 42.9502963 42.67546425 40.375 42.65625 C39.6322583 42.6416272 38.8895166 42.62700439 38.12426758 42.61193848 C35.74956683 42.56555857 33.37494359 42.53135717 31 42.5 C-5.5762327 42.00828229 -5.5762327 42.00828229 -18.35546875 29.8046875 C-21.69475576 26.14019677 -21.33586793 22.66264631 -21.2734375 17.88671875 C-20.68378599 11.66168357 -17.99965018 7.63682647 -13.375 3.5625 C-8.9967784 0.05418706 -5.59218578 -0.3765036 0 0 Z " fill="#FBFDFD" transform="translate(78,45)"/>
<path d="M0 0 C2.125 2 2.125 2 3.453125 3.5078125 C5.52366934 5.3558217 7.37142527 5.99360847 10 6.875 C10.969375 7.21402344 11.93875 7.55304687 12.9375 7.90234375 C13.989375 8.26457031 15.04125 8.62679688 16.125 9 C30.17982718 13.87127533 30.17982718 13.87127533 34.125 19 C34.723125 19.721875 35.32125 20.44375 35.9375 21.1875 C37.125 23 37.125 23 37.125 25 C39.35410872 25.50021394 41.58373923 25.99631787 43.81640625 26.48046875 C45.47307941 26.85329029 47.11723101 27.28349458 48.75 27.75 C51.47635195 28.03698442 53.34291132 27.31126895 55.91796875 26.4921875 C66.18099861 24.20344102 76.6723612 26.05577341 85.5625 31.5 C95.86975738 38.87801905 105.08826574 47.96124517 107.25 60.8125 C107.35570312 61.70582031 107.46140625 62.59914063 107.5703125 63.51953125 C108.20374879 66.35215126 109.31782582 67.76678217 111.125 70 C112.81646061 75.07438183 112.35026129 80.40053686 112.36523438 85.71411133 C112.37491783 87.79484373 112.40594366 89.87457832 112.4375 91.95507812 C112.44403307 93.28905667 112.44928235 94.62304224 112.453125 95.95703125 C112.4624707 97.16335205 112.47181641 98.36967285 112.48144531 99.61254883 C111.8304127 105.79958818 108.76265758 109.7395181 104.625 114.1875 C103.8515625 115.02667969 103.078125 115.86585937 102.28125 116.73046875 C100.125 119 100.125 119 98.44921875 120.2890625 C96.22297447 123.16544891 95.99801282 126.68046621 95.4375 130.1875 C95.30794922 130.93708984 95.17839844 131.68667969 95.04492188 132.45898438 C94.72759462 134.30418359 94.42486709 136.151883 94.125 138 C93.465 138 92.805 138 92.125 138 C91.75375 138.804375 91.75375 138.804375 91.375 139.625 C90.125 142 90.125 142 88 144.75 C85.28599805 149.45427005 85.50537525 153.19262327 86.6328125 158.30078125 C87.75850263 162.15012393 88.99377016 165.12842479 91.6875 168.125 C96.86103097 174.22711346 96.60888701 181.37609139 96.125 189 C95.49226872 196.41370043 92.75559783 201.12162349 87.125 206 C77.90608543 212.20114613 66.91835365 213.19004893 56.14160156 211.54443359 C54.0900772 211.13003507 52.04067216 210.70504772 49.99316406 210.27124023 C35.82658119 207.29026096 21.82705032 206.32442373 7.375 205.9375 C6.44550537 205.90536407 5.51601074 205.87322815 4.55834961 205.84011841 C-7.94910672 205.43334154 -18.85249584 206.5688601 -30.875 210 C-33.02220461 210.54911454 -35.17054049 211.09383687 -37.3203125 211.6328125 C-39.21410171 212.12807174 -41.10735026 212.62540391 -43 213.125 C-44.44246094 213.50205078 -44.44246094 213.50205078 -45.9140625 213.88671875 C-49.86784404 214.9240433 -53.80782359 215.97095868 -57.71875 217.16015625 C-65.56182797 219.24711388 -73.5718658 218.55903226 -80.875 215 C-85.35295495 212.23679804 -88.09323852 208.97017676 -89.875 204 C-91.93797571 193.44351168 -90.15310856 183.34438696 -87.59375 173.04296875 C-86.87832595 170.01408105 -86.19220811 167.09821071 -85.875 164 C-87.72664036 161.24743206 -87.72664036 161.24743206 -89.875 159 C-89.875 158.34 -89.875 157.68 -89.875 157 C-90.844375 156.979375 -91.81375 156.95875 -92.8125 156.9375 C-100.0096225 155.93019482 -106.24094267 149.19576125 -110.875 144 C-113.29734649 140.33630869 -113.33511309 136.51592914 -113.375 132.25 C-113.38217041 131.53207275 -113.38934082 130.81414551 -113.39672852 130.07446289 C-113.26754598 124.41806717 -111.89749107 121.67874333 -108.14453125 117.64453125 C-106.51822029 115.90045436 -106.51822029 115.90045436 -107 112.625 C-107.433125 110.830625 -107.433125 110.830625 -107.875 109 C-108.38958551 102.63972315 -108.10304109 97.67689984 -104.875 92 C-102.34475202 89.15347103 -100.04197747 87.11131831 -96.875 85 C-96.47656958 82.14807181 -96.47656958 82.14807181 -96.5 78.875 C-96.0812128 71.13171009 -93.64393399 67.06827821 -88.5625 61.4375 C-86.24321413 58.08742041 -86.46010434 56.01065807 -86.875 52 C-87.1946875 50.95328125 -87.514375 49.9065625 -87.84375 48.828125 C-90.30648881 39.68614003 -91.83867775 28.14314473 -86.9921875 19.63671875 C-86.62351562 19.09660156 -86.25484375 18.55648438 -85.875 18 C-85.070625 16.7315625 -85.070625 16.7315625 -84.25 15.4375 C-83.79625 14.963125 -83.3425 14.48875 -82.875 14 C-82.215 14 -81.555 14 -80.875 14 C-80.875 13.34 -80.875 12.68 -80.875 12 C-74.25 9.125 -74.25 9.125 -70.875 8 C-70.875 7.34 -70.875 6.68 -70.875 6 C-65.82698259 1.10449066 -59.93934465 0.15615185 -53.14453125 -0.15234375 C-49.07370832 0.03733617 -45.6147135 0.91660211 -41.80078125 2.30859375 C-39.90229644 3.11263604 -39.90229644 3.11263604 -37.875 3 C-36.9675 2.21625 -36.06 1.4325 -35.125 0.625 C-25.65890021 -7.48879982 -9.94721965 -6.91980497 0 0 Z M-31.875 7 C-32.88068242 8.66324401 -33.88164799 10.32936253 -34.875 12 C-37.25 13.0625 -37.25 13.0625 -39.875 13 C-42.4375 11.1875 -42.4375 11.1875 -44.875 9 C-48.57850869 6.44585608 -52.5285382 6.48431809 -56.875 7 C-61.98220198 8.64160064 -65.79211802 11.25273195 -69.95703125 14.5234375 C-71.875 16 -71.875 16 -75.125 18.0625 C-79.38571695 21.06436876 -81.47178361 23.38713445 -82.75 28.5 C-83.38773538 36.47169223 -82.06325151 44.2289934 -77.875 51 C-78.12837661 53.72379855 -78.6572976 55.5645952 -79.875 58 C-79.9439472 59.37342831 -79.95967708 60.75002102 -79.9375 62.125 C-79.916875 63.40375 -79.89625 64.6825 -79.875 66 C-80.6175 66.185625 -81.36 66.37125 -82.125 66.5625 C-85.14015157 68.13860196 -86.57683261 69.72178748 -88.16796875 72.7265625 C-89.36124873 76.563518 -89.05238216 80.35267079 -88.8203125 84.328125 C-88.875 87 -88.875 87 -90.875 90 C-92.53779327 91.0064275 -94.20483484 92.00585407 -95.875 93 C-98.55520392 95.38240349 -99.73037608 96.56612823 -100.875 100 C-101.13483369 104.67700636 -100.6299179 107.72238761 -98.875 112 C-98.30932601 115.25262544 -98.25916919 117.12129216 -100.18359375 119.8671875 C-101.24868784 121.09830345 -102.3419524 122.30573727 -103.46484375 123.484375 C-106.54047361 126.79003811 -106.217387 130.14989586 -106.13671875 134.46875 C-105.73133774 138.38944995 -104.59627208 140.14914353 -101.875 143 C-93.5491515 148.85642754 -93.5491515 148.85642754 -83.875 151 C-83.77445313 151.56847656 -83.67390625 152.13695312 -83.5703125 152.72265625 C-82.50076405 156.22572786 -80.24220225 158.78538873 -78.0546875 161.68359375 C-76.55703652 164.62434551 -76.88960316 165.90375308 -77.875 169 C-78.349375 170.0725 -78.82375 171.145 -79.3125 172.25 C-82.43333795 179.45546408 -83.14150339 186.43057082 -83.375 194.1875 C-83.41778076 194.96005127 -83.46056152 195.73260254 -83.50463867 196.52856445 C-83.55599132 200.89825107 -83.10418364 203.29597086 -80.0078125 206.49609375 C-77.02398891 209.16716399 -74.95300384 209.84896282 -70.875 210 C-70.00875 210.06058594 -69.1425 210.12117187 -68.25 210.18359375 C-61.5163259 210.47293131 -56.48042231 209.31930847 -50.14501953 207.1159668 C-32.85537793 201.21549257 -16.23367737 197.91021342 2.02099609 198.85302734 C5.34396088 199.01036766 8.6622058 199.08356639 11.98828125 199.14453125 C24.25883339 199.41009435 36.04467054 200.30171145 48.09277344 202.61376953 C59.50711754 204.78309826 71.17359071 206.92171213 81.63671875 200.4453125 C85.69024223 197.17047306 88.31281601 194.27919591 89.125 189 C89.80433771 181.77929757 89.51427926 176.89417501 85.125 171 C84.135 170.34 83.145 169.68 82.125 169 C78.65710453 160.23749868 77.9161826 150.48617127 79.9375 141.3125 C81.125 139 81.125 139 84.125 138 C87.52758309 133.68284978 89.3302108 129.42169115 89.5 123.9375 C89.83771488 117.86801304 92.95191412 115.10736799 97.125 111 C98.42878505 109.55249061 99.72090566 108.09437284 101 106.625 C101.86238281 105.65433594 101.86238281 105.65433594 102.7421875 104.6640625 C106.64161484 99.9715313 105.39257873 93.48833318 105.4375 87.6875 C105.46650391 86.45064453 105.49550781 85.21378906 105.52539062 83.93945312 C105.53376953 82.74642578 105.54214844 81.55339844 105.55078125 80.32421875 C105.56536377 79.23197998 105.57994629 78.13974121 105.5949707 77.0144043 C105.02023834 73.328056 103.57693101 71.74336496 101.125 69 C100.65625 66.82421875 100.65625 66.82421875 100.625 64.6875 C99.91642152 55.56643656 94.56971967 49.16788463 88.125 43 C78.54948694 35.1419996 70.5810832 31.90457141 58.125 33 C57.073125 33.350625 56.02125 33.70125 54.9375 34.0625 C48.27376721 36.28374426 40.93328958 33.7861664 34.58203125 31.37890625 C30.58268256 29.1344387 29.11269783 25.97539565 27.125 22 C24.2800078 19.1550078 20.77938998 18.26473005 17.0625 16.9375 C9.24493243 14.11993243 9.24493243 14.11993243 8.125 13 C6.43891034 12.92794489 4.74999341 12.91613932 3.0625 12.9375 C2.14339844 12.94652344 1.22429687 12.95554687 0.27734375 12.96484375 C-0.43292969 12.97644531 -1.14320312 12.98804688 -1.875 13 C-1.895625 12.0925 -1.91625 11.185 -1.9375 10.25 C-2.62047988 6.81135104 -2.62047988 6.81135104 -5.5 4.625 C-13.49829506 0.67563439 -25.03962583 1.25207172 -31.875 7 Z " fill="#FEFBF8" transform="translate(112.875,6)"/>
<path d="M0 0 C1.87890625 0.93359375 1.87890625 0.93359375 4.50390625 3.30859375 C5.44140625 6.55859375 5.44140625 6.55859375 5.50390625 9.30859375 C6.16777344 9.27378906 6.83164063 9.23898438 7.515625 9.203125 C8.39863281 9.17605469 9.28164062 9.14898437 10.19140625 9.12109375 C11.06152344 9.08628906 11.93164062 9.05148438 12.828125 9.015625 C16.06591625 9.37012769 17.76514728 10.58372251 20.50390625 12.30859375 C22.49039955 12.95578904 24.49167558 13.55900381 26.50390625 14.12109375 C32.03210661 15.89364939 34.44024613 17.40673756 37.50390625 22.30859375 C37.76816406 22.98535156 38.03242188 23.66210938 38.3046875 24.359375 C40.77390498 28.37285879 46.18465747 29.10308913 50.50390625 30.30859375 C54.73976203 31.22285455 58.16047046 31.75640568 62.31640625 30.37109375 C69.82446326 27.86840808 77.84187224 28.58891102 84.99609375 31.85546875 C94.50924247 37.36776053 103.93594066 45.62129218 107.50390625 56.30859375 C107.7732591 58.55576613 107.87728372 60.76670309 107.96484375 63.02734375 C108.36028057 65.50535768 108.36028057 65.50535768 110.50439453 67.56469727 C112.88691828 70.83419475 113.01823587 72.49142372 113.03515625 76.4921875 C113.04289062 78.2546582 113.04289062 78.2546582 113.05078125 80.05273438 C113.0353125 81.27154297 113.01984375 82.49035156 113.00390625 83.74609375 C113.02710938 85.56850586 113.02710938 85.56850586 113.05078125 87.42773438 C113.0137154 95.88338075 111.79989065 99.80502815 105.9609375 106.01171875 C105.08824219 106.8521875 104.21554688 107.69265625 103.31640625 108.55859375 C98.35551665 113.33290305 98.35551665 113.33290305 97.31640625 119.80859375 C96.78807542 125.84917623 94.27845913 130.60291775 90.50390625 135.30859375 C89.84390625 135.30859375 89.18390625 135.30859375 88.50390625 135.30859375 C84.64637387 143.98804162 86.07742809 153.85123066 88.51171875 162.7421875 C89.82038786 166.12720957 91.72258409 168.02648326 94.50390625 170.30859375 C97.45420634 174.97820665 96.97345111 179.97698759 96.50390625 185.30859375 C95.11271034 190.30053203 92.95446947 193.83520529 88.8984375 197.01171875 C78.93548502 202.40764081 68.19820431 201.47697053 57.50390625 199.30859375 C43.62407755 196.52911413 30.02817406 195.64853416 15.87744141 195.38916016 C12.72072081 195.31377169 9.57509567 195.17066945 6.421875 195.0078125 C-12.81987484 194.22696473 -30.71422382 199.01688696 -48.72045898 205.52880859 C-55.71081805 207.49267585 -63.81914303 207.17014406 -70.49609375 204.30859375 C-75.16203287 200.71150412 -75.16203287 200.71150412 -75.94506836 197.4230957 C-76.09978158 195.19684286 -76.08507095 193.03842355 -75.99609375 190.80859375 C-75.97909424 190.01630371 -75.96209473 189.22401367 -75.94458008 188.40771484 C-75.36004962 171.80972949 -75.36004962 171.80972949 -70.828125 166.26953125 C-69.24592868 164.36351797 -69.24592868 164.36351797 -69.6171875 161.84765625 C-70.58189135 159.060734 -71.82746491 157.06543059 -73.55859375 154.68359375 C-76.49609375 150.63329963 -76.49609375 150.63329963 -76.49609375 147.30859375 C-77.54603516 147.14617187 -77.54603516 147.14617187 -78.6171875 146.98046875 C-81.87349733 146.22051585 -84.55746962 145.03070015 -87.55859375 143.55859375 C-89.09193359 142.82382812 -89.09193359 142.82382812 -90.65625 142.07421875 C-94.3152008 139.79932774 -96.57407616 137.15262893 -98.49609375 133.30859375 C-99.146286 128.88070224 -99.3670113 124.91222935 -97.19140625 120.90625 C-95.42042595 118.56330238 -93.57214703 116.38464703 -91.49609375 114.30859375 C-91.28000534 111.139297 -91.2821669 108.83004044 -92.49609375 105.87109375 C-93.81578421 102.48938695 -93.81794036 99.91327574 -93.49609375 96.30859375 C-91.51160523 92.04194344 -88.71861327 88.26110212 -84.30859375 86.37109375 C-82.30020825 85.45269495 -82.30020825 85.45269495 -81.74609375 83.24609375 C-81.44545724 80.45341304 -81.44545724 80.45341304 -81.5859375 78.2265625 C-81.83824172 72.30245946 -81.11432913 69.10031088 -77.49609375 64.30859375 C-74.74609375 62.87109375 -74.74609375 62.87109375 -72.49609375 62.30859375 C-72.53734375 61.05046875 -72.57859375 59.79234375 -72.62109375 58.49609375 C-72.73513115 55.01795302 -72.55535056 54.39747897 -70.49609375 51.30859375 C-70.75279157 48.22821997 -71.58611013 46.13231168 -72.99609375 43.37109375 C-75.81545329 37.02055618 -76.88420519 27.84389377 -74.43359375 21.24609375 C-70.69258527 15.57424219 -65.25097069 12.37754896 -59.64453125 8.73828125 C-58.1760983 7.76110587 -56.73883372 6.7358646 -55.33203125 5.671875 C-51.87075091 3.10169024 -47.98498802 2.87109375 -43.71484375 2.87109375 C-40.06509644 3.59076223 -37.52366529 5.79459184 -34.671875 8.09375 C-32.52495442 9.54547976 -32.52495442 9.54547976 -29.84765625 9.171875 C-26.39917539 7.90590445 -25.48626078 5.32399833 -23.49609375 2.30859375 C-16.57451706 -2.02500338 -7.793695 -2.15881693 0 0 Z M-16.37109375 3.55859375 C-19.53492055 4.04587338 -19.53492055 4.04587338 -21.43359375 6.12109375 C-22.78736306 8.50295176 -22.78736306 8.50295176 -22.49609375 12.30859375 C-23.25921875 12.43234375 -24.02234375 12.55609375 -24.80859375 12.68359375 C-27.69876511 13.18962167 -27.69876511 13.18962167 -30.49609375 15.30859375 C-31.54796875 14.71046875 -32.59984375 14.11234375 -33.68359375 13.49609375 C-34.32941406 13.13386719 -34.97523437 12.77164062 -35.640625 12.3984375 C-37.49609375 11.30859375 -37.49609375 11.30859375 -39.87109375 9.55859375 C-43.86628347 7.65612246 -47.17572935 7.21483061 -51.49609375 8.30859375 C-54.2870642 10.12440585 -56.70510021 12.14009558 -59.19921875 14.34375 C-61.77099999 16.54376014 -64.46820337 17.83157405 -67.49609375 19.30859375 C-69.50625806 21.13515991 -70.41925524 22.52946886 -70.68823242 25.25683594 C-70.67508748 27.62086388 -70.54433589 29.95099415 -70.37109375 32.30859375 C-70.31695312 33.51902344 -70.31695312 33.51902344 -70.26171875 34.75390625 C-69.98047777 39.23895971 -69.58920365 41.86821564 -66.49609375 45.30859375 C-65.68359375 48.93359375 -65.68359375 48.93359375 -65.49609375 52.30859375 C-66.15609375 52.96859375 -66.81609375 53.62859375 -67.49609375 54.30859375 C-67.73925031 56.97808784 -67.73925031 56.97808784 -67.62109375 59.93359375 C-67.59402344 61.43792969 -67.59402344 61.43792969 -67.56640625 62.97265625 C-67.54320313 63.74351563 -67.52 64.514375 -67.49609375 65.30859375 C-68.40359375 65.32921875 -69.31109375 65.34984375 -70.24609375 65.37109375 C-73.73511618 66.05270095 -73.73511618 66.05270095 -75.93359375 69.18359375 C-78.10306514 73.44348696 -77.23101387 77.12597286 -76.61328125 81.71484375 C-76.49609375 84.30859375 -76.49609375 84.30859375 -78.12109375 87.87109375 C-80.59895587 90.41416276 -82.20545053 91.15686862 -85.49609375 92.30859375 C-87.91276042 93.89192708 -87.91276042 93.89192708 -89.49609375 96.30859375 C-89.85857824 99.69178232 -90.08042993 102.1764424 -88.49609375 105.24609375 C-86.87838815 108.58261156 -86.73098455 111.74665682 -87.49609375 115.30859375 C-89.21732591 118.23725743 -91.30585832 120.72399461 -93.49609375 123.30859375 C-95.06544969 126.44730563 -94.84810478 128.84715197 -94.49609375 132.30859375 C-90.25489872 138.05472895 -83.34102133 141.37331713 -76.68359375 143.62109375 C-72.78590499 145.68457604 -72.11681027 147.39257154 -70.4765625 151.33203125 C-69.49223938 153.62612723 -69.49223938 153.62612723 -66.68359375 155.80859375 C-64.49609375 158.30859375 -64.49609375 158.30859375 -64.43359375 162.24609375 C-65.20882589 166.26525843 -67.20298087 168.94058421 -69.49609375 172.30859375 C-70.21532583 176.00383327 -70.21532583 176.00383327 -70.49609375 179.30859375 C-70.82609375 179.63859375 -71.15609375 179.96859375 -71.49609375 180.30859375 C-71.70395108 183.07606557 -71.82071387 185.78770033 -71.87109375 188.55859375 C-71.90847656 189.32300781 -71.94585937 190.08742187 -71.984375 190.875 C-72.04470331 194.75612148 -71.71722071 196.91480602 -69.78515625 200.35546875 C-62.90605158 204.44044777 -54.98348594 202.84351885 -47.52740479 200.96710205 C-44.03831269 200.02137309 -40.57993289 198.98367006 -37.12109375 197.93359375 C-35.69838739 197.51532263 -34.27521074 197.09864774 -32.8515625 196.68359375 C-30.238524 195.91938641 -27.62961095 195.14455517 -25.02197266 194.36181641 C-23.85843262 194.01425293 -22.69489258 193.66668945 -21.49609375 193.30859375 C-20.41158936 192.94233887 -19.32708496 192.57608398 -18.2097168 192.19873047 C-13.38239746 191.04164637 -8.79984315 190.94683599 -3.8515625 190.90234375 C-2.82034775 190.88881363 -1.789133 190.87528351 -0.72666931 190.86134338 C2.6211402 190.82747457 5.96843696 190.81506784 9.31640625 190.80859375 C10.45329895 190.80358856 11.59019165 190.79858337 12.76153564 190.79342651 C31.60183363 190.75773596 49.30921683 192.49386421 67.62451172 196.87133789 C70.6211581 197.32639925 72.59882873 197.08823909 75.50390625 196.30859375 C76.41269531 196.10621094 77.32148438 195.90382812 78.2578125 195.6953125 C79.18464844 195.46457031 80.11148438 195.23382813 81.06640625 194.99609375 C81.99582031 194.77308594 82.92523438 194.55007812 83.8828125 194.3203125 C86.95353472 193.13504118 88.44995187 191.86555736 90.50390625 189.30859375 C91.72120757 186.13703032 91.7996357 182.81031052 91.94140625 179.43359375 C92.00199219 178.42554688 92.06257812 177.4175 92.125 176.37890625 C91.44780014 173.03123901 91.04371163 172.63347736 88.625 170.48046875 C84.76938616 166.97930883 84.03898028 163.43482626 83.12890625 158.43359375 C82.96519531 157.66917969 82.80148438 156.90476563 82.6328125 156.1171875 C80.09407554 143.55150624 80.09407554 143.55150624 82.87890625 139.12109375 C83.41515625 138.52296875 83.95140625 137.92484375 84.50390625 137.30859375 C84.79265625 136.52484375 85.08140625 135.74109375 85.37890625 134.93359375 C86.50390625 132.30859375 86.50390625 132.30859375 88.94140625 129.93359375 C91.89406456 126.66036111 92.01494299 123.47275247 92.56640625 119.18359375 C93.71491761 111.03841553 97.74382967 107.04700284 103.7890625 101.796875 C106.93228938 98.91596058 108.2981745 97.06906971 108.79443359 92.82250977 C108.84353336 89.83824679 108.87521003 86.85579095 108.87890625 83.87109375 C108.90339844 82.83404297 108.92789063 81.79699219 108.953125 80.72851562 C108.97622147 74.73498275 108.71187036 71.82229904 104.50390625 67.30859375 C103.78125 64.08203125 103.78125 64.08203125 103.44140625 60.68359375 C102.91125834 55.2516164 102.91125834 55.2516164 99.50390625 51.30859375 C99.03339844 50.50550781 98.56289062 49.70242187 98.078125 48.875 C94.21297555 42.57375139 86.81546237 36.09106939 79.50390625 34.30859375 C69.87699666 33.59751913 69.87699666 33.59751913 60.50390625 35.30859375 C55.19432724 35.5763585 50.45271059 34.93733053 45.31640625 33.74609375 C44.61837891 33.61396484 43.92035156 33.48183594 43.20117188 33.34570312 C40.33692521 32.6780148 38.06811773 32.00832866 36.18359375 29.67114258 C35.19694702 27.93344266 34.3434875 26.12192662 33.50390625 24.30859375 C30.46565766 20.21864373 26.60268743 18.9783029 21.96484375 17.2578125 C19.50390625 16.30859375 19.50390625 16.30859375 16.25390625 14.55859375 C13.01478837 13.08626744 11.02602272 12.85896186 7.50390625 13.30859375 C4.68610091 14.69744623 4.68610091 14.69744623 2.50390625 16.30859375 C2.48972656 15.7053125 2.47554688 15.10203125 2.4609375 14.48046875 C2.21996263 10.4425114 2.03993394 7.99537923 -0.49609375 4.74609375 C-5.73036336 2.23800623 -10.71441791 3.19364692 -16.37109375 3.55859375 Z " fill="#F58B30" transform="translate(105.49609375,9.69140625)"/>
<path d="M0 0 C0.99 0.33 1.98 0.66 3 1 C3 1.66 3 2.32 3 3 C-0.63 3.99 -4.26 4.98 -8 6 C-8 6.66 -8 7.32 -8 8 C-8.66 8 -9.32 8 -10 8 C-10.309375 8.61875 -10.61875 9.2375 -10.9375 9.875 C-11.625 11.25 -12.3125 12.625 -13 14 C-13.49002712 19.71334866 -13.49002712 19.71334866 -11.375 24.875 C-6.66445657 29.08969676 -1.06299142 29.3473808 5.0234375 29.6328125 C5.76961334 29.67437469 6.51578918 29.71593689 7.28457642 29.75875854 C9.64770812 29.88861048 12.0112508 30.00698114 14.375 30.125 C15.98571808 30.21147933 17.59639594 30.29871126 19.20703125 30.38671875 C23.13760913 30.59985379 27.06859673 30.80270027 31 31 C31.495 32.485 31.495 32.485 32 34 C32.495 33.01 32.495 33.01 33 32 C33.99 32 34.98 32 36 32 C36 32.99 36 33.98 36 35 C36.66 35 37.32 35 38 35 C38 34.01 38 33.02 38 32 C39.32 32 40.64 32 42 32 C42.33 32.66 42.66 33.32 43 34 C44.32 33.34 45.64 32.68 47 32 C47 33.32 47 34.64 47 36 C47.433125 35.505 47.86625 35.01 48.3125 34.5 C50 33 50 33 53 33 C52.67 34.32 52.34 35.64 52 37 C53.65 36.34 55.3 35.68 57 35 C57 35.99 57 36.98 57 38 C58.65 38 60.3 38 62 38 C61.67 38.99 61.34 39.98 61 41 C62.98 41 64.96 41 67 41 C67 41.66 67 42.32 67 43 C66.01 43.495 66.01 43.495 65 44 C66.65 44.33 68.3 44.66 70 45 C70 46.32 70 47.64 70 49 C71.485 49.99 71.485 49.99 73 51 C73 51.66 73 52.32 73 53 C72.01 53 71.02 53 70 53 C70 53.66 70 54.32 70 55 C71.98 55.495 71.98 55.495 74 56 C74.495 57.98 74.495 57.98 75 60 C74.01 60.495 74.01 60.495 73 61 C73.66 61.33 74.32 61.66 75 62 C74.16592416 69.17305224 71.35249745 73.24222449 66 78 C64.10242597 79.29134688 62.16734352 80.48709389 60.19921875 81.66796875 C57.77708478 83.13501614 55.4191811 84.68012817 53.0625 86.25 C52.31097656 86.75015625 51.55945313 87.2503125 50.78515625 87.765625 C49.06191055 88.87827433 49.06191055 88.87827433 48 90 C48 91.155 48 92.31 48 93.5 C48 94.655 48 95.81 48 97 C47 98 47 98 44.05859375 98.09765625 C42.86363281 98.08605469 41.66867188 98.07445312 40.4375 98.0625 C38.64119141 98.04896484 38.64119141 98.04896484 36.80859375 98.03515625 C35.41833984 98.01775391 35.41833984 98.01775391 34 98 C34.49628906 98.45503906 34.99257812 98.91007812 35.50390625 99.37890625 C37 101 37 101 36.9375 102.9375 C36 105 36 105 33.9375 106.9375 C31.78848999 108.83053723 31.78848999 108.83053723 31.6484375 111.421875 C31.76170808 114.06583574 31.76170808 114.06583574 33.57421875 115.73828125 C34.27160156 116.25777344 34.96898437 116.77726562 35.6875 117.3125 C39.88762302 120.69945533 42.45071662 124.2813745 45 129 C45.01417969 127.87980469 45.02835937 126.75960937 45.04296875 125.60546875 C45.08986994 124.13277131 45.13811734 122.66011632 45.1875 121.1875 C45.19620117 120.08051758 45.19620117 120.08051758 45.20507812 118.95117188 C45.29296875 116.79296875 45.29296875 116.79296875 46 113 C48.42578125 110.92578125 48.42578125 110.92578125 51 110 C51.66 110.33 52.32 110.66 53 111 C52.03320312 111.44279297 52.03320312 111.44279297 51.046875 111.89453125 C47.75953184 115.27597774 48.32313475 119.14317276 48.25 123.6875 C48.20552734 125.02651367 48.20552734 125.02651367 48.16015625 126.39257812 C48.08948573 128.59514277 48.03678061 130.79665131 48 133 C47.01 133.33 46.02 133.66 45 134 C44.319375 133.0925 43.63875 132.185 42.9375 131.25 C39.19316559 126.86259431 35.72110748 124.22332321 29.90625 123.74609375 C28.7821875 123.70613281 27.658125 123.66617188 26.5 123.625 C21.12666506 123.35942138 18.24364333 122.58909761 14.3671875 118.86328125 C9.54352792 112.28932234 9.68501198 106.88905951 9.9375 99 C10.12300697 92.46383968 10.24033029 87.21318266 8 81 C8.66 80.01 9.32 79.02 10 78 C10 78.99 10 79.98 10 81 C10.66 81 11.32 81 12 81 C11.938125 80.236875 11.87625 79.47375 11.8125 78.6875 C12 76 12 76 13 74.25 C16.1527286 72.27954463 19.35669922 71.88572673 23 72 C26.85615453 73.26322304 29.57641069 74.66305396 32.75 77.1875 C37.40446189 79.78325759 41.7735127 79.65426187 47 79 C52.57599126 77.13859081 56.54276005 74.13728526 59.875 69.25 C61.8273439 63.60989539 61.58109332 58.93697775 59.875 53.25 C57.0872997 48.41798615 53.26579053 45.03880608 48 43 C45.4257202 42.78740498 42.9502963 42.67546425 40.375 42.65625 C39.6322583 42.6416272 38.8895166 42.62700439 38.12426758 42.61193848 C35.74956683 42.56555857 33.37494359 42.53135717 31 42.5 C-5.5762327 42.00828229 -5.5762327 42.00828229 -18.35546875 29.8046875 C-21.69475576 26.14019677 -21.33586793 22.66264631 -21.2734375 17.88671875 C-20.68378599 11.66168357 -17.99965018 7.63682647 -13.375 3.5625 C-8.9967784 0.05418706 -5.59218578 -0.3765036 0 0 Z " fill="#F4FAF9" transform="translate(78,45)"/>
<path d="M0 0 C4.52799884 1.59811724 7.15635357 3.8663501 10 7.6875 C11.83427282 13.7635287 11.99199935 19.50591359 9.375 25.375 C7.13227735 29.18223364 5.16846704 31.24485598 1 33 C-5.04606176 33.81808825 -11.00271646 34.25905297 -16.25 30.75 C-18.91180221 28.08819779 -19.38140114 27.44647936 -20 24 C-20.99 24 -21.98 24 -23 24 C-23.86082844 10.20761541 -23.86082844 10.20761541 -20.75 5.8125 C-14.2668294 -0.81801538 -9.18895857 -1.08830124 0 0 Z " fill="#F0B073" transform="translate(126,89)"/>
<path d="M0 0 C0.33 0 0.66 0 1 0 C1 2.97 1 5.94 1 9 C1.66 9 2.32 9 3 9 C2.34309381 12.78239671 1.279869 16.21841526 -0.0625 19.8125 C-0.42472656 20.78832031 -0.78695313 21.76414063 -1.16015625 22.76953125 C-1.43730469 23.50558594 -1.71445312 24.24164063 -2 25 C-1.01 25.2475 -0.02 25.495 1 25.75 C7.00893783 27.48076911 13.09788674 29.94170504 17 35 C18 37.33333333 19 39.66666667 20 42 C22.20760501 44.55254329 24.1797111 46.1198074 27 48 C27.328125 49.953125 27.328125 49.953125 27.25 52.25 C27.23453125 52.99765625 27.2190625 53.7453125 27.203125 54.515625 C27 57 27 57 26.29296875 59.890625 C25.6599548 66.60901307 30.8383714 72.86286721 34.5234375 78.2109375 C36.04076994 80.14093029 36.04076994 80.14093029 39 82 C44.75599153 82.09755918 50.01289075 80.22741402 55.484375 78.5234375 C58.09489213 77.98025536 59.51325634 78.12847769 62 79 C61.01 79.495 61.01 79.495 60 80 C60.66 80.66 61.32 81.32 62 82 C61.07662842 82.23710693 60.15325684 82.47421387 59.2019043 82.71850586 C55.77438074 83.59893927 52.34721965 84.48077648 48.92016602 85.36303711 C47.4371916 85.74460505 45.95411932 86.1257928 44.47094727 86.5065918 C42.33844539 87.0541743 40.20629984 87.60312544 38.07421875 88.15234375 C37.41161545 88.3221727 36.74901215 88.49200165 36.06632996 88.66697693 C33.34274853 89.36976178 30.66973372 90.11008876 28 91 C26.1485555 91.11829437 24.29267862 91.17514861 22.4375 91.1875 C21.46683594 91.20167969 20.49617188 91.21585937 19.49609375 91.23046875 C17 91 17 91 15 89 C13.98465214 80.04647794 14.79225948 70.26069446 19.5625 62.4375 C21.82518393 58.60077508 22.28105515 54.35595997 23 50 C22.29423828 49.47212891 22.29423828 49.47212891 21.57421875 48.93359375 C17.02872772 45.32919817 14.80678301 42.5266304 13 37 C13 36.34 13 35.68 13 35 C12.360625 34.7525 11.72125 34.505 11.0625 34.25 C4.45135929 31.55157522 -1.86087558 28.65735072 -8 25 C-8.3125 22.25 -8.3125 22.25 -8 19 C-5.625 16.875 -5.625 16.875 -3 15 C-0.967268 11.82385625 -0.64092624 8.97296738 -0.375 5.25 C-0.26285156 3.77273437 -0.26285156 3.77273437 -0.1484375 2.265625 C-0.09945313 1.51796875 -0.05046875 0.7703125 0 0 Z " fill="#39B49A" transform="translate(24,116)"/>
<path d="M0 0 C1.74609375 1.21484375 1.74609375 1.21484375 2.43359375 3.27734375 C2.53671875 3.91671875 2.63984375 4.55609375 2.74609375 5.21484375 C3.07609375 5.54484375 3.40609375 5.87484375 3.74609375 6.21484375 C3.89861168 8.48208144 3.96801315 10.75515539 3.99609375 13.02734375 C4.021875 14.27128906 4.04765625 15.51523438 4.07421875 16.796875 C3.73296139 20.35163918 3.17274518 21.6796316 0.74609375 24.21484375 C1.07609375 24.87484375 1.40609375 25.53484375 1.74609375 26.21484375 C-5.21018197 26.58096352 -10.27508791 25.88814226 -15.69140625 21.02734375 C-17.72061192 17.37477355 -18.05679592 14.25290648 -17.25390625 10.21484375 C-15.37890625 6.71484375 -15.37890625 6.71484375 -13.25390625 4.21484375 C-12.59390625 4.21484375 -11.93390625 4.21484375 -11.25390625 4.21484375 C-11.25390625 3.55484375 -11.25390625 2.89484375 -11.25390625 2.21484375 C-9.84445259 1.65467627 -8.42590315 1.11735873 -7.00390625 0.58984375 C-6.215 0.28820313 -5.42609375 -0.0134375 -4.61328125 -0.32421875 C-2.25390625 -0.78515625 -2.25390625 -0.78515625 0 0 Z " fill="#3AB499" transform="translate(81.25390625,48.78515625)"/>
<path d="M0 0 C5.75 -0.125 5.75 -0.125 8 1 C10.56166986 1.19472153 13.12076768 1.3175905 15.6875 1.42578125 C18 2 18 2 19.29296875 3.73828125 C20.94468813 9.02195816 20.50142124 14.31876408 18.9375 19.5625 C17 22 17 22 13.9375 22.875 C9.2874691 23.02262003 4.65163908 23.08423491 0 23 C-1.72005735 15.56006938 -1.65642737 7.45392316 0 0 Z " fill="#F6913C" transform="translate(117,94)"/>
<path d="M0 0 C0.66 0 1.32 0 2 0 C2.55054808 9.86092787 2.72144803 17.48717884 -3 26 C-3.66 26.99 -4.32 27.98 -5 29 C-4.34 29 -3.68 29 -3 29 C-4.57033197 36.49351397 -6.6232033 42.39854605 -12 48 C-12.99 48.495 -12.99 48.495 -14 49 C-13.04739918 46.07415463 -12.08764816 43.20451238 -10.875 40.375 C-9.76952976 37.79628077 -9.76952976 37.79628077 -10 34 C-10.85722656 34.63808594 -11.71445313 35.27617187 -12.59765625 35.93359375 C-13.75210162 36.76892414 -14.90707814 37.60352081 -16.0625 38.4375 C-16.62388672 38.85837891 -17.18527344 39.27925781 -17.76367188 39.71289062 C-21.87766517 42.65145727 -24.9508666 43.64623906 -30 44 C-30.33 42.35 -30.66 40.7 -31 39 C-25.37348558 33.82968945 -18.83882303 30.02615028 -11.7890625 27.07421875 C-9.49360518 25.69594198 -9.03080282 24.44371357 -8 22 C-7.17124771 20.53905846 -6.33773037 19.08081193 -5.5 17.625 C-2.28175249 11.83215448 -0.79134405 6.59453377 0 0 Z " fill="#48B9A0" transform="translate(158,97)"/>
<path d="M0 0 C2.37114598 2.21681103 4.11413811 4.52780269 5.875 7.25 C8.48863059 11.24232073 11.20332317 15.13400556 14 19 C7.75690073 21.77471079 2.80203375 22.37634203 -4 22 C-4.25773994 4.55959752 -4.25773994 4.55959752 -1.4375 1.0625 C-0.7259375 0.5365625 -0.7259375 0.5365625 0 0 Z " fill="#F7FCFB" transform="translate(47,181)"/>
<path d="M0 0 C2.23117427 2.85827947 4.08026623 5.78943995 5.875 8.9375 C9.21001019 14.60316366 9.21001019 14.60316366 14 19 C19.76181746 19 25.00773653 17.22901919 30.484375 15.5234375 C33.09489213 14.98025536 34.51325634 15.12847769 37 16 C36.01 16.495 36.01 16.495 35 17 C35.66 17.66 36.32 18.32 37 19 C36.07662842 19.23710693 35.15325684 19.47421387 34.2019043 19.71850586 C30.77438074 20.59893927 27.34721965 21.48077648 23.92016602 22.36303711 C22.4371916 22.74460505 20.95411932 23.1257928 19.47094727 23.5065918 C17.33844539 24.0541743 15.20629984 24.60312544 13.07421875 25.15234375 C12.41161545 25.3221727 11.74901215 25.49200165 11.06632996 25.66697693 C8.34274853 26.36976178 5.66973372 27.11008876 3 28 C1.10529184 28.0685495 -0.7916834 28.08480372 -2.6875 28.0625 C-3.68136719 28.05347656 -4.67523438 28.04445312 -5.69921875 28.03515625 C-6.83810547 28.01775391 -6.83810547 28.01775391 -8 28 C-8 24.83772601 -7.82985212 21.88359512 -7.5 18.75 C-7.36078125 17.41195312 -7.36078125 17.41195312 -7.21875 16.046875 C-7.1465625 15.37140625 -7.074375 14.6959375 -7 14 C-6.67 14 -6.34 14 -6 14 C-6 17.3 -6 20.6 -6 24 C-3.72796198 23.7178711 -1.45738316 23.42397144 0.8125 23.125 C2.07707031 22.96257812 3.34164062 22.80015625 4.64453125 22.6328125 C8.11699317 22.20431547 8.11699317 22.20431547 11 20 C10.22076172 19.07380859 10.22076172 19.07380859 9.42578125 18.12890625 C4.94528543 12.68771262 1.16551287 7.30058811 -2 1 C-1.34 0.67 -0.68 0.34 0 0 Z " fill="#49BAA2" transform="translate(49,179)"/>
<path d="M0 0 C6.24832522 0.70545607 10.68622349 3.8267243 14.8125 8.5 C18.22983956 13.36711998 18.7202519 18.59757776 17.875 24.4375 C15.54688736 30.05708223 11.79443908 33.98342576 6.875 37.4375 C1.37164114 39.23333289 -5.29228316 39.70535135 -10.62109375 37.3203125 C-12.54187115 36.10827115 -14.35421334 34.85818844 -16.125 33.4375 C-15.465 32.4475 -14.805 31.4575 -14.125 30.4375 C-13.0421875 31.4275 -13.0421875 31.4275 -11.9375 32.4375 C-7.04168024 35.72870897 -0.7567368 35.21988146 4.875 34.4375 C9.35241574 32.31928915 11.15281445 30.15887909 13.1484375 25.75390625 C14.83152005 20.38794952 14.48431696 15.37297741 12.8125 10.0625 C9.76443688 5.93286609 6.37803416 3.911047 1.41796875 2.97265625 C-0.76586227 2.72160166 -2.9294888 2.53706967 -5.125 2.4375 C-3.125 0.4375 -3.125 0.4375 0 0 Z " fill="#52B99F" transform="translate(122.125,86.5625)"/>
<path d="M0 0 C1.99954746 -0.04254356 4.00041636 -0.04080783 6 0 C7 1 7 1 7.11352539 3.13305664 C7.10828857 4.04949951 7.10305176 4.96594238 7.09765625 5.91015625 C7.09443359 6.89951172 7.09121094 7.88886719 7.08789062 8.90820312 C7.07951172 9.94912109 7.07113281 10.99003906 7.0625 12.0625 C7.05798828 13.10728516 7.05347656 14.15207031 7.04882812 15.22851562 C7.03699913 17.8190666 7.02051689 20.40950559 7 23 C4.69 23 2.38 23 0 23 C-1.72005735 15.56006938 -1.65642737 7.45392316 0 0 Z " fill="#F6933F" transform="translate(117,94)"/>
<path d="M0 0 C0.66 0 1.32 0 2 0 C2.65654593 7.8663929 2.74674867 13.5810017 -2.23046875 19.9453125 C-2.81441406 20.62335938 -3.39835937 21.30140625 -4 22 C-4.55300781 22.69867188 -5.10601562 23.39734375 -5.67578125 24.1171875 C-12.70234289 32.67828559 -21.065703 37.33088041 -31 42 C-30.11786547 37.66133833 -28.7268332 36.53424657 -25 34 C-16.08280255 28.8742628 -16.08280255 28.8742628 -11.78515625 27.0703125 C-9.49157447 25.69516719 -9.02954922 24.44074169 -8 22 C-7.17124771 20.53905846 -6.33773037 19.08081193 -5.5 17.625 C-2.28175249 11.83215448 -0.79134405 6.59453377 0 0 Z " fill="#ECF7F5" transform="translate(158,97)"/>
<path d="M0 0 C-0.33 1.98 -0.66 3.96 -1 6 C-2.65 6 -4.3 6 -6 6 C-5.67 8.31 -5.34 10.62 -5 13 C-4.01 13 -3.02 13 -2 13 C-1.67 15.97 -1.34 18.94 -1 22 C-1.99 22.33 -2.98 22.66 -4 23 C2.27 23 8.54 23 15 23 C14 26 14 26 11 28 C8.00390625 28.30078125 8.00390625 28.30078125 4.5625 28.3125 C2.86287109 28.33763672 2.86287109 28.33763672 1.12890625 28.36328125 C-2.30416587 27.96468486 -3.66968572 27.5286389 -6 25 C-7.50325558 20.65638257 -7.14817575 15.86653555 -7.125 11.3125 C-7.12886719 10.54099609 -7.13273437 9.76949219 -7.13671875 8.97460938 C-7.12672546 3.25345092 -7.12672546 3.25345092 -6 1 C-3.911361 0.32624548 -2.19636905 0 0 0 Z " fill="#F58729" transform="translate(116,94)"/>
<path d="M0 0 C2.375 -0.125 2.375 -0.125 5 0 C7 2 7 2 7.265625 5.15234375 C7.26046875 6.40144531 7.2553125 7.65054688 7.25 8.9375 C7.25515625 10.18402344 7.2603125 11.43054688 7.265625 12.71484375 C7 16 7 16 5 19 C2.375 19.1875 2.375 19.1875 0 19 C-2.65436438 14.43912787 -2.43254226 10.14891657 -2 5 C-1 1.875 -1 1.875 0 0 Z " fill="#DFF2ED" transform="translate(78,53)"/>
<path d="M0 0 C2.31 0 4.62 0 7 0 C8 1 8 1 8.1328125 2.92578125 C8.13023437 3.71339844 8.12765625 4.50101563 8.125 5.3125 C8.12757813 6.09238281 8.13015625 6.87226562 8.1328125 7.67578125 C8 10 8 10 7.4296875 12.10546875 C6.78103794 14.20683257 6.78103794 14.20683257 8 17 C8.03954234 19.33299825 8.04401732 21.66708189 8 24 C7.01 23.67 6.02 23.34 5 23 C4.67 19.37 4.34 15.74 4 12 C3.34 12 2.68 12 2 12 C2 14.97 2 17.94 2 21 C1.34 21 0.68 21 0 21 C0 14.07 0 7.14 0 0 Z " fill="#DAF0EB" transform="translate(157,55)"/>
<path d="M0 0 C4.75 0.75 4.75 0.75 7 3 C7.30078125 5.4609375 7.30078125 5.4609375 7.3125 8.375 C7.32925781 9.33148438 7.34601563 10.28796875 7.36328125 11.2734375 C6.94300415 14.42777529 6.29858866 15.81037378 4 18 C2.68 18 1.36 18 0 18 C-2.30821663 14.53767506 -2.27000989 13.08201684 -2.25 9 C-2.25515625 7.948125 -2.2603125 6.89625 -2.265625 5.8125 C-2 3 -2 3 0 0 Z " fill="#DDF1ED" transform="translate(142,54)"/>
<path d="M0 0 C2.56314499 -0.08132187 5.12368418 -0.14064175 7.6875 -0.1875 C8.40873047 -0.21263672 9.12996094 -0.23777344 9.87304688 -0.26367188 C14.45085111 -0.32638152 17.4181539 0.06939865 21 3 C22.3125 6.1875 22.3125 6.1875 23 9 C25.97 9.495 25.97 9.495 29 10 C29 10.66 29 11.32 29 12 C22.375 14.875 22.375 14.875 19 16 C18.90203125 15.38511719 18.8040625 14.77023438 18.703125 14.13671875 C18.55359375 13.32847656 18.4040625 12.52023438 18.25 11.6875 C18.11078125 10.88699219 17.9715625 10.08648437 17.828125 9.26171875 C16.74082929 6.29217055 15.79782116 5.47253745 13 4 C9.50141132 3.42232504 9.50141132 3.42232504 5.75 3.3125 C3.85507813 3.21388672 3.85507813 3.21388672 1.921875 3.11328125 C0.95765625 3.07589844 -0.0065625 3.03851563 -1 3 C-0.67 2.01 -0.34 1.02 0 0 Z " fill="#F58729" transform="translate(89,10)"/>
<path d="M0 0 C2.31 0 4.62 0 7 0 C9.41486943 2.41486943 9.2961925 3.12707789 9.3125 6.4375 C9.32925781 7.21996094 9.34601563 8.00242187 9.36328125 8.80859375 C9 11 9 11 7.85546875 12.78515625 C6 14 6 14 0 14 C0 9.38 0 4.76 0 0 Z " fill="#C3E7DF" transform="translate(110,54)"/>
<path d="M0 0 C0.99 0.66 1.98 1.32 3 2 C2.87022934 10.04578092 0.54223469 15.12659487 -5 21 C-8.49242082 23.67250627 -12.16395822 25.85908142 -16 28 C-22.6787395 31.76624507 -22.6787395 31.76624507 -27 38 C-27.33 38 -27.66 38 -28 38 C-28.4375 35.875 -28.4375 35.875 -28 33 C-23.02483926 26.81421681 -14.39336273 22.46445424 -7 20 C-5.93283296 18.20067421 -5.93283296 18.20067421 -5 16 C-4.505 15.21625 -4.01 14.4325 -3.5 13.625 C-1.89804126 10.82157221 -0.93231973 8.0838268 0 5 C-0.99 4.67 -1.98 4.34 -3 4 C-2.01 3.67 -1.02 3.34 0 3 C0 2.01 0 1.02 0 0 Z " fill="#54BDA6" transform="translate(153,102)"/>
<path d="M0 0 C-0.020625 0.804375 -0.04125 1.60875 -0.0625 2.4375 C-0.29633621 4.93354885 -0.29633621 4.93354885 1 6 C1.15582303 7.34015221 1.25044142 8.68758903 1.31640625 10.03515625 C1.35830078 10.84404297 1.40019531 11.65292969 1.44335938 12.48632812 C1.48267578 13.33646484 1.52199219 14.18660156 1.5625 15.0625 C1.60568359 15.91650391 1.64886719 16.77050781 1.69335938 17.65039062 C1.79976702 19.76672037 1.90041731 21.88333813 2 24 C0.62437146 22.71034824 -0.70766393 21.37310707 -2 20 C-2 19.34 -2 18.68 -2 18 C-2.99 18 -3.98 18 -5 18 C-5.08119503 15.75059705 -5.13927819 13.50035129 -5.1875 11.25 C-5.22230469 9.99703125 -5.25710937 8.7440625 -5.29296875 7.453125 C-4.97998906 3.76413775 -4.32735588 0 0 0 Z " fill="#D6AC72" transform="translate(108,95)"/>
<path d="M0 0 C2.31 0 4.62 0 7 0 C7.2358396 5.77807024 6.86783046 10.51324804 5 16 C3.68 16 2.36 16 1 16 C0.67 10.72 0.34 5.44 0 0 Z " fill="#F2FAF8" transform="translate(110,176)"/>
<path d="M0 0 C1.98 0 3.96 0 6 0 C6 0.99 6 1.98 6 3 C4.68 3 3.36 3 2 3 C2 5.97 2 8.94 2 12 C3.32 12 4.64 12 6 12 C6 12.99 6 13.98 6 15 C4.68 15 3.36 15 2 15 C2 18.3 2 21.6 2 25 C3.32 25.33 4.64 25.66 6 26 C6 26.99 6 27.98 6 29 C1.125 27.125 1.125 27.125 0 26 C-0.08748207 24.07332493 -0.10697334 22.14348139 -0.09765625 20.21484375 C-0.09443359 19.04501953 -0.09121094 17.87519531 -0.08789062 16.66992188 C-0.07951172 15.43822266 -0.07113281 14.20652344 -0.0625 12.9375 C-0.05798828 11.70193359 -0.05347656 10.46636719 -0.04882812 9.19335938 C-0.03699608 6.12885883 -0.02051173 3.06445279 0 0 Z " fill="#DDF1ED" transform="translate(168,55)"/>
<path d="M0 0 C1.49080078 0.02707031 1.49080078 0.02707031 3.01171875 0.0546875 C3.77097656 0.07789063 4.53023437 0.10109375 5.3125 0.125 C4.9825 1.115 4.6525 2.105 4.3125 3.125 C2.52734375 3.86328125 2.52734375 3.86328125 0.25 4.4375 C-4.29753703 5.78653013 -7.36193332 7.87436645 -10.9609375 10.91796875 C-12.6875 12.125 -12.6875 12.125 -15.6875 12.125 C-12.60758785 4.84520764 -8.0521938 -0.18946338 0 0 Z " fill="#F58729" transform="translate(57.6875,13.875)"/>
<path d="M0 0 C0.33 0 0.66 0 1 0 C1.226875 0.886875 1.45375 1.77375 1.6875 2.6875 C3.17853428 6.45058652 5.0938301 8.24286445 8 11 C9.04976964 14.14930893 9.10131595 16.38814456 9.0625 19.6875 C9.05347656 20.68136719 9.04445312 21.67523438 9.03515625 22.69921875 C9.02355469 23.45847656 9.01195312 24.21773437 9 25 C8.67 25 8.34 25 8 25 C8 21.7 8 18.4 8 15 C7.01 15 6.02 15 5 15 C5 17.64 5 20.28 5 23 C4.67 23 4.34 23 4 23 C3.98582031 22.34773438 3.97164062 21.69546875 3.95703125 21.0234375 C3.68923856 14.79808011 3.68923856 14.79808011 0.3125 9.8125 C-0.450625 8.884375 -1.21375 7.95625 -2 7 C-1.3125 3.125 -1.3125 3.125 0 0 Z " fill="#F69745" transform="translate(193,170)"/>
<path d="M0 0 C0.99 0 1.98 0 3 0 C5.11536025 7.73241853 6.47957572 14.06409385 5 22 C4.34 22 3.68 22 3 22 C-0.44419134 7.40318907 -0.44419134 7.40318907 0 0 Z " fill="#F5882B" transform="translate(187,155)"/>
<path d="M0 0 C5.72280376 0.23358383 8.46382667 1.72478561 12.71484375 5.52734375 C14 7 14 7 14 9 C5.42857143 9.14285714 5.42857143 9.14285714 2 8 C2.66 6.68 3.32 5.36 4 4 C2.02 4 0.04 4 -2 4 C-1.34 2.68 -0.68 1.36 0 0 Z " fill="#55BDA7" transform="translate(100,123)"/>
<path d="M0 0 C0.33 0 0.66 0 1 0 C1.46247397 7.55374159 0.66018911 12.94078252 -4.5 18.875 C-7 21 -7 21 -10 22 C-9.45716791 18.60729944 -7.92352607 16.07159904 -6.1875 13.1484375 C-3.8423818 8.90562498 -1.95569501 4.43237435 0 0 Z " fill="#CCEBE4" transform="translate(167,104)"/>
<path d="M0 0 C0.66 0 1.32 0 2 0 C2.67039467 8.03232132 2.65149902 13.67762922 -2.3984375 20.1875 C-4.19235802 22.21769298 -5.96892321 24.20327822 -8 26 C-8.66 25.34 -9.32 24.68 -10 24 C-9.401875 23.29875 -8.80375 22.5975 -8.1875 21.875 C-3.13958305 15.24059486 -0.98380331 8.19836088 0 0 Z " fill="#E5F4F1" transform="translate(158,97)"/>
<path d="M0 0 C0.33 0 0.66 0 1 0 C1 8.58 1 17.16 1 26 C-0.32 25.34 -1.64 24.68 -3 24 C-2.979375 22.96875 -2.95875 21.9375 -2.9375 20.875 C-2.90300837 17.06694411 -2.90300837 17.06694411 -3.5625 13.625 C-3.706875 12.75875 -3.85125 11.8925 -4 11 C-3.67 10.67 -3.34 10.34 -3 10 C-2.7746669 7.9720021 -2.55232815 5.94325126 -2.37890625 3.91015625 C-2 2 -2 2 0 0 Z " fill="#44B79E" transform="translate(167,55)"/>
<path d="M0 0 C2.31 0 4.62 0 7 0 C7 4.95 7 9.9 7 15 C5.68 15 4.36 15 3 15 C3 11.04 3 7.08 3 3 C2.01 3 1.02 3 0 3 C0 2.01 0 1.02 0 0 Z " fill="#95D6C7" transform="translate(120,54)"/>
<path d="M0 0 C0.61875 0.53625 1.2375 1.0725 1.875 1.625 C1.875 2.285 1.875 2.945 1.875 3.625 C-4.725 3.295 -11.325 2.965 -18.125 2.625 C-14.27697522 -3.14703716 -5.92035369 -2.60495562 0 0 Z " fill="#F58627" transform="translate(129.125,90.375)"/>
<path d="M0 0 C0.66 0.33 1.32 0.66 2 1 C2.3125 4.3125 2.3125 4.3125 2 8 C-0.3125 9.5625 -0.3125 9.5625 -3 11 C-4.74170298 13.9000525 -4.74170298 13.9000525 -6 17 C-6.66666667 18.33333333 -7.33333333 19.66666667 -8 21 C-9.56152344 14.03320312 -9.56152344 14.03320312 -8.0234375 11.203125 C-6.6875 9.625 -6.6875 9.625 -4 7 C-1.77810176 4.77810176 -1.07401108 2.91517292 0 0 Z " fill="#F58220" transform="translate(35,66)"/>
<path d="M0 0 C0.66 0 1.32 0 2 0 C2.144375 1.134375 2.28875 2.26875 2.4375 3.4375 C2.61171478 6.80777201 2.61171478 6.80777201 4 8 C4.66 5.36 5.32 2.72 6 0 C6.66 0 7.32 0 8 0 C7.40984815 5.50808397 6.43336231 10.64878069 5 16 C4.01 15.67 3.02 15.34 2 15 C0.00813631 9.86308839 -0.1921227 5.47549707 0 0 Z " fill="#D3EDE7" transform="translate(130,54)"/>
<path d="M0 0 C2.83320671 4.24981006 2.53392409 8.00897044 2 13 C0.5 16.625 0.5 16.625 -1 19 C-1.66 18.67 -2.32 18.34 -3 18 C-2.67 12.72 -2.34 7.44 -2 2 C-1.34 2 -0.68 2 0 2 C0 1.34 0 0.68 0 0 Z " fill="#F3A057" transform="translate(135,97)"/>
<path d="M0 0 C1.4540625 0.0309375 1.4540625 0.0309375 2.9375 0.0625 C2.9375 1.0525 2.9375 2.0425 2.9375 3.0625 C1.2875 3.0625 -0.3625 3.0625 -2.0625 3.0625 C-2.0625 4.3825 -2.0625 5.7025 -2.0625 7.0625 C-0.7425 7.0625 0.5775 7.0625 1.9375 7.0625 C1.9375 7.7225 1.9375 8.3825 1.9375 9.0625 C0.6175 9.0625 -0.7025 9.0625 -2.0625 9.0625 C-2.0625 10.7125 -2.0625 12.3625 -2.0625 14.0625 C-0.7425 14.0625 0.5775 14.0625 1.9375 14.0625 C1.9375 14.7225 1.9375 15.3825 1.9375 16.0625 C-0.0425 16.0625 -2.0225 16.0625 -4.0625 16.0625 C-4.08935095 13.58326199 -4.10926547 11.1043116 -4.125 8.625 C-4.13756836 7.56442383 -4.13756836 7.56442383 -4.15039062 6.48242188 C-4.15903588 4.67556441 -4.11470011 2.86862397 -4.0625 1.0625 C-3.0625 0.0625 -3.0625 0.0625 0 0 Z " fill="#D6EFE9" transform="translate(100.0625,52.9375)"/>
<path d="M0 0 C0.05437607 1.58294782 0.09296271 3.16644256 0.125 4.75 C0.14820313 5.63171875 0.17140625 6.5134375 0.1953125 7.421875 C-0.01279305 10.16886832 -0.43741301 11.73836094 -2 14 C-5.125 14.75 -5.125 14.75 -8 15 C-8 13.35 -8 11.7 -8 10 C-6.68 9.67 -5.36 9.34 -4 9 C-4 7.68 -4 6.36 -4 5 C-3.34 5 -2.68 5 -2 5 C-2.33 3.68 -2.66 2.36 -3 1 C-1 0 -1 0 0 0 Z " fill="#F58323" transform="translate(133,102)"/>
<path d="M0 0 C1.0725 -0.01417969 2.145 -0.02835938 3.25 -0.04296875 C6 0.1875 6 0.1875 8 2.1875 C7.01 3.6725 7.01 3.6725 6 5.1875 C3.37302936 5.40887393 0.99106036 5.46912025 -1.625 5.375 C-2.33140625 5.36146484 -3.0378125 5.34792969 -3.765625 5.33398438 C-5.51074128 5.2986104 -7.25546608 5.24480221 -9 5.1875 C-8.625 3.25 -8.625 3.25 -8 1.1875 C-5.27457733 -0.17521133 -3.03912726 0.01826399 0 0 Z " fill="#F6933F" transform="translate(177,38.8125)"/>
<path d="M0 0 C0.33 0 0.66 0 1 0 C1 5.94 1 11.88 1 18 C-1.31 18 -3.62 18 -6 18 C-6 16.35 -6 14.7 -6 13 C-4.35 13 -2.7 13 -1 13 C-1.01160156 12.14535156 -1.02320312 11.29070312 -1.03515625 10.41015625 C-1.04417969 9.30542969 -1.05320312 8.20070313 -1.0625 7.0625 C-1.07410156 5.96035156 -1.08570312 4.85820313 -1.09765625 3.72265625 C-1 1 -1 1 0 0 Z " fill="#F47F1C" transform="translate(123,99)"/>
<path d="M0 0 C-1.98 0.99 -1.98 0.99 -4 2 C-2.02 2.66 -0.04 3.32 2 4 C-1.30995334 5.2412325 -3.99956351 4.73495622 -7.42773438 4.27368164 C-12.92980338 3.68827737 -18.47259514 3.61552096 -24 3.4375 C-25.87751953 3.37272461 -25.87751953 3.37272461 -27.79296875 3.30664062 C-30.86188523 3.20121983 -33.93087389 3.09909658 -37 3 C-37 2.67 -37 2.34 -37 2 C-35.78884521 1.96241577 -35.78884521 1.96241577 -34.55322266 1.92407227 C-30.91031083 1.80834513 -27.26767274 1.68551365 -23.625 1.5625 C-21.71847656 1.50352539 -21.71847656 1.50352539 -19.7734375 1.44335938 C-17.95585937 1.38051758 -17.95585937 1.38051758 -16.1015625 1.31640625 C-14.42054443 1.26141968 -14.42054443 1.26141968 -12.70556641 1.20532227 C-8.23925923 0.86637944 -4.71482416 -0.07604555 0 0 Z " fill="#F79B4C" transform="translate(155,202)"/>
<path d="M0 0 C0.66 0.33 1.32 0.66 2 1 C1.03320312 1.44279297 1.03320312 1.44279297 0.046875 1.89453125 C-3.24046816 5.27597774 -2.67686525 9.14317276 -2.75 13.6875 C-2.77964844 14.58017578 -2.80929688 15.47285156 -2.83984375 16.39257812 C-2.91051427 18.59514277 -2.96321939 20.79665131 -3 23 C-3.99 23.33 -4.98 23.66 -6 24 C-6.66 22.68 -7.32 21.36 -8 20 C-7.34 19.67 -6.68 19.34 -6 19 C-5.76956697 15.62283402 -5.68239924 12.28593361 -5.69726562 8.90234375 C-5.63671875 6.7578125 -5.63671875 6.7578125 -5 3 C-2.58203125 0.9296875 -2.58203125 0.9296875 0 0 Z " fill="#C0E6DD" transform="translate(129,155)"/>
<path d="M0 0 C0.99 0 1.98 0 3 0 C3 6.27 3 12.54 3 19 C2.01 19 1.02 19 0 19 C0 12.73 0 6.46 0 0 Z " fill="#C5E8E0" transform="translate(151,55)"/>
<path d="M0 0 C3.10495519 -0.43469373 5.90881307 -0.58807946 9 0 C11.55839382 1.96918797 13.38844907 4.20664506 15 7 C15 7.66 15 8.32 15 9 C14.34 9 13.68 9 13 9 C13 12.3 13 15.6 13 19 C12.67 19 12.34 19 12 19 C11.90203125 18.09636719 11.8040625 17.19273437 11.703125 16.26171875 C11.55359375 15.08222656 11.4040625 13.90273437 11.25 12.6875 C11.04117188 10.92986328 11.04117188 10.92986328 10.828125 9.13671875 C10.26952026 5.95503109 10.26952026 5.95503109 8.125 4.125 C5.45223045 2.71000435 2.98766854 2.33950779 0 2 C0 1.34 0 0.68 0 0 Z " fill="#51BCA5" transform="translate(73,122)"/>
<path d="M0 0 C0.99 0.33 1.98 0.66 3 1 C3.02712066 2.43739513 3.04645067 3.87493863 3.0625 5.3125 C3.07410156 6.11300781 3.08570312 6.91351563 3.09765625 7.73828125 C3 10 3 10 2 13 C1.01 13 0.02 13 -1 13 C-2.17673198 10.64653604 -2.16623866 9.1193967 -2.1875 6.5 C-2.20167969 5.7059375 -2.21585937 4.911875 -2.23046875 4.09375 C-2 2 -2 2 0 0 Z " fill="#2BAE92" transform="translate(80,56)"/>
<path d="M0 0 C1.98 0.495 1.98 0.495 4 1 C4 3.97 4 6.94 4 10 C2.02 10.99 2.02 10.99 0 12 C-1 11 -1 11 -1.1328125 8.75 C-1.13023437 7.8425 -1.12765625 6.935 -1.125 6 C-1.12757813 5.0925 -1.13015625 4.185 -1.1328125 3.25 C-1 1 -1 1 0 0 Z " fill="#3AB499" transform="translate(143,57)"/>
<path d="M0 0 C1.41191619 4.23574857 -0.20780901 7.13033048 -2 11 C-4.14923047 14.62682642 -5.48656538 16.65771025 -9 19 C-7.12033937 12.67750515 -4.73442329 4.73442329 0 0 Z " fill="#D2EDE7" transform="translate(153,127)"/>
<path d="M0 0 C1.5625 1.1875 1.5625 1.1875 3 3 C2.75 5.1875 2.75 5.1875 2 8 C1.79461133 9.43505331 1.60791502 10.87287462 1.4375 12.3125 C1.2209375 14.1378125 1.2209375 14.1378125 1 16 C0.67 14.68 0.34 13.36 0 12 C-0.99 12 -1.98 12 -3 12 C-3.33 13.32 -3.66 14.64 -4 16 C-4.40909091 7.81818182 -4.40909091 7.81818182 -1 4 C-0.29485154 1.85266073 -0.29485154 1.85266073 0 0 Z " fill="#F6923C" transform="translate(190,143)"/>
<path d="M0 0 C0.33 0 0.66 0 1 0 C1 2.97 1 5.94 1 9 C1.66 9 2.32 9 3 9 C2.39009109 12.55780196 1.4216319 15.6828589 0 19 C-0.66 18.34 -1.32 17.68 -2 17 C-4.66735273 19.48952921 -6.55746343 21.63408134 -8 25 C-8.3125 22.25 -8.3125 22.25 -8 19 C-5.625 16.875 -5.625 16.875 -3 15 C-0.967268 11.82385625 -0.64092624 8.97296738 -0.375 5.25 C-0.26285156 3.77273437 -0.26285156 3.77273437 -0.1484375 2.265625 C-0.09945313 1.51796875 -0.05046875 0.7703125 0 0 Z " fill="#40B69D" transform="translate(24,116)"/>
<path d="M0 0 C2.64 0 5.28 0 8 0 C8 0.99 8 1.98 8 3 C7.01 3 6.02 3 5 3 C5 7.62 5 12.24 5 17 C4.34 17 3.68 17 3 17 C3 12.38 3 7.76 3 3 C2.01 3 1.02 3 0 3 C0 2.01 0 1.02 0 0 Z " fill="#D1ECE6" transform="translate(87,53)"/>
<path d="M0 0 C0 0.99 0 1.98 0 3 C-5.13594268 8.03260379 -12.52721758 14.61933767 -19.9375 15.25 C-20.618125 15.1675 -21.29875 15.085 -22 15 C-22 14.01 -22 13.02 -22 12 C-20.6078125 11.9690625 -20.6078125 11.9690625 -19.1875 11.9375 C-11.76676891 10.90768426 -4.99408629 5.29817586 0 0 Z " fill="#90D3C4" transform="translate(150,126)"/>
<path d="M0 0 C0.33 0 0.66 0 1 0 C1 3.3 1 6.6 1 10 C3.64 10 6.28 10 9 10 C8.01 10.66 7.02 11.32 6 12 C7.32 12.66 8.64 13.32 10 14 C6.37 14 2.74 14 -1 14 C-1 10.83772601 -0.82985212 7.88359512 -0.5 4.75 C-0.4071875 3.85796875 -0.314375 2.9659375 -0.21875 2.046875 C-0.1465625 1.37140625 -0.074375 0.6959375 0 0 Z " fill="#67C5B1" transform="translate(42,193)"/>
<path d="M0 0 C1.65 0 3.3 0 5 0 C5 3.96 5 7.92 5 12 C4.67 12 4.34 12 4 12 C4 10.35 4 8.7 4 7 C3.01 7 2.02 7 1 7 C0.67 8.32 0.34 9.64 0 11 C0 7.37 0 3.74 0 0 Z " fill="#F8AE6F" transform="translate(110,100)"/>
<path d="M0 0 C2.97 0.495 2.97 0.495 6 1 C4.68 1.33 3.36 1.66 2 2 C2 5.3 2 8.6 2 12 C3.65 12 5.3 12 7 12 C6.67 12.66 6.34 13.32 6 14 C4.02 14 2.04 14 0 14 C0 9.38 0 4.76 0 0 Z " fill="#EEF8F6" transform="translate(110,54)"/>
<path d="M0 0 C-2.19246391 2.5213335 -3.68847248 3.51052239 -7 4 C-8.74886981 4.06624507 -10.50002748 4.08552595 -12.25 4.0625 C-13.14203125 4.05347656 -14.0340625 4.04445312 -14.953125 4.03515625 C-15.62859375 4.02355469 -16.3040625 4.01195312 -17 4 C-11.21128901 0.14085934 -6.80327576 -0.26679513 0 0 Z " fill="#30B195" transform="translate(62,202)"/>
<path d="M0 0 C0.66 0.33 1.32 0.66 2 1 C1.88529863 2.75070517 1.75780972 4.50057536 1.625 6.25 C1.55539063 7.22453125 1.48578125 8.1990625 1.4140625 9.203125 C1.01534751 11.89633189 0.36492937 13.66963279 -1 16 C-2.77641602 10.44869995 -2.53883587 5.23634898 0 0 Z " fill="#F57F1B" transform="translate(33,183)"/>
<path d="M0 0 C0.99 0 1.98 0 3 0 C3.33 4.95 3.66 9.9 4 15 C1.04731694 12.04731694 0.07927075 10.83591059 -0.09765625 6.73828125 C-0.08605469 5.93777344 -0.07445313 5.13726562 -0.0625 4.3125 C-0.05347656 3.50425781 -0.04445313 2.69601563 -0.03515625 1.86328125 C-0.02355469 1.24839844 -0.01195313 0.63351563 0 0 Z " fill="#F78628" transform="translate(104,101)"/>
<path d="M0 0 C0.68835938 0.01353516 1.37671875 0.02707031 2.0859375 0.04101562 C3.76597001 0.0760163 5.4455935 0.12981046 7.125 0.1875 C7.125 0.5175 7.125 0.8475 7.125 1.1875 C6.16078125 1.23648437 5.1965625 1.28546875 4.203125 1.3359375 C2.93984375 1.41070312 1.6765625 1.48546875 0.375 1.5625 C-1.50445312 1.66691406 -1.50445312 1.66691406 -3.421875 1.7734375 C-7.35986649 2.2456401 -9.58305803 2.87515895 -12.359375 5.6953125 C-12.77703125 6.22898437 -13.1946875 6.76265625 -13.625 7.3125 C-14.3675 8.26125 -15.11 9.21 -15.875 10.1875 C-16.535 9.8575 -17.195 9.5275 -17.875 9.1875 C-13.43942876 1.51054978 -8.65616312 -0.32712244 0 0 Z " fill="#F79A4B" transform="translate(95.875,8.8125)"/>
<path d="M0 0 C0.8125 1.6875 0.8125 1.6875 1 4 C-1.53816609 7.03169839 -3.22508911 8.74169637 -7 10 C-6.42562214 6.12294944 -4.57271945 3.88456423 -2 1 C-1.34 0.67 -0.68 0.34 0 0 Z " fill="#DCF1EC" transform="translate(164,116)"/>
<path d="M0 0 C1 3 1 3 0.109375 5.41015625 C-0.33921875 6.28542969 -0.7878125 7.16070312 -1.25 8.0625 C-1.68828125 8.94035156 -2.1265625 9.81820312 -2.578125 10.72265625 C-4 13 -4 13 -7 15 C-5.67231025 9.20644472 -3.33455096 4.9000081 0 0 Z " fill="#81CEBD" transform="translate(159,110)"/>
<path d="M0 0 C1.65 0 3.3 0 5 0 C5.33 1.32 5.66 2.64 6 4 C4.41705218 4.05437607 2.83355744 4.09296271 1.25 4.125 C0.36828125 4.14820313 -0.5134375 4.17140625 -1.421875 4.1953125 C-4.1135858 3.99139502 -5.69904974 3.36551721 -8 2 C-5.36 2 -2.72 2 0 2 C0 1.34 0 0.68 0 0 Z " fill="#F69542" transform="translate(171,206)"/>
<path d="M0 0 C0 0.99 0 1.98 0 3 C-3.63195496 5.42130331 -5.38349348 5.21022785 -9.6875 5.125 C-10.86699219 5.10695313 -12.04648438 5.08890625 -13.26171875 5.0703125 C-14.16535156 5.04710938 -15.06898437 5.02390625 -16 5 C-16 4.67 -16 4.34 -16 4 C-12.04 4 -8.08 4 -4 4 C-4 3.34 -4 2.68 -4 2 C-6.97 2 -9.94 2 -13 2 C-13 1.67 -13 1.34 -13 1 C-6.565 0.505 -6.565 0.505 0 0 Z " fill="#F0913C" transform="translate(130,117)"/>
<path d="M0 0 C0.66 1.32 1.32 2.64 2 4 C0.02 6.97 -1.96 9.94 -4 13 C-4.99 12.34 -5.98 11.68 -7 11 C-6.401875 10.29875 -5.80375 9.5975 -5.1875 8.875 C-3.02259039 6.02969023 -1.50403364 3.23367233 0 0 Z " fill="#D5EEE9" transform="translate(155,110)"/>
<path d="M0 0 C0.33 0 0.66 0 1 0 C1.08086147 1.79093191 1.13912702 3.58289628 1.1875 5.375 C1.22230469 6.37273437 1.25710937 7.37046875 1.29296875 8.3984375 C1.19628906 9.25695312 1.09960938 10.11546875 1 11 C0.01 11.66 -0.98 12.32 -2 13 C-2.05416188 11.39620659 -2.09286638 9.79188594 -2.125 8.1875 C-2.14820313 7.29417969 -2.17140625 6.40085938 -2.1953125 5.48046875 C-2 3 -2 3 0 0 Z " fill="#33B297" transform="translate(41,192)"/>
<path d="M0 0 C0.66 0.33 1.32 0.66 2 1 C2.05384521 3.29141286 2.09272087 5.58318188 2.125 7.875 C2.14820312 9.15117188 2.17140625 10.42734375 2.1953125 11.7421875 C2 15 2 15 0 17 C-0.98844951 13.05352382 -0.96191905 9.72607036 -0.5625 5.6875 C-0.46066406 4.61886719 -0.35882813 3.55023438 -0.25390625 2.44921875 C-0.17011719 1.64097656 -0.08632812 0.83273438 0 0 Z " fill="#C2E7DE" transform="translate(83,54)"/>
<path d="M0 0 C4.67825497 0.46015623 6.91653972 1.83069941 10.8125 4.375 C10.1525 5.035 9.4925 5.695 8.8125 6.375 C8.173125 5.900625 7.53375 5.42625 6.875 4.9375 C2.89068481 2.90468613 -0.77244074 2.6539471 -5.1875 2.375 C-3.1875 0.375 -3.1875 0.375 0 0 Z " fill="#89C5AB" transform="translate(122.1875,86.625)"/>
<path d="M0 0 C1.32 0.33 2.64 0.66 4 1 C4 2.98 4 4.96 4 7 C2.68 7.33 1.36 7.66 0 8 C0 5.36 0 2.72 0 0 Z " fill="#31B095" transform="translate(113,57)"/>
<path d="M0 0 C0.99 0 1.98 0 3 0 C3 0.66 3 1.32 3 2 C2.34 2 1.68 2 1 2 C1 2.99 1 3.98 1 5 C1.66 5 2.32 5 3 5 C3 5.66 3 6.32 3 7 C2.34 7 1.68 7 1 7 C1 8.32 1 9.64 1 11 C0.34 11 -0.32 11 -1 11 C-1.02688151 9.35425434 -1.04634123 7.70838587 -1.0625 6.0625 C-1.07410156 5.14597656 -1.08570312 4.22945313 -1.09765625 3.28515625 C-1 1 -1 1 0 0 Z " fill="#FBCBA3" transform="translate(128,100)"/>
<path d="M0 0 C3.63 0 7.26 0 11 0 C11.33 0.66 11.66 1.32 12 2 C5.565 2.495 5.565 2.495 -1 3 C-0.67 2.01 -0.34 1.02 0 0 Z " fill="#F47F1A" transform="translate(89,10)"/>
<path d="M0 0 C0.66 0 1.32 0 2 0 C2.33 2.97 2.66 5.94 3 9 C1.35 8.67 -0.3 8.34 -2 8 C-2 7.01 -2 6.02 -2 5 C-1.34 5 -0.68 5 0 5 C0 3.35 0 1.7 0 0 Z " fill="#F47E19" transform="translate(112,107)"/>
<path d="M0 0 C0.66 0 1.32 0 2 0 C1.48041715 4.37934119 0.94324258 8.68803391 0 13 C-0.33 12.34 -0.66 11.68 -1 11 C-1.66 10.67 -2.32 10.34 -3 10 C-2.01 6.7 -1.02 3.4 0 0 Z " fill="#C1E6DE" transform="translate(136,54)"/>
<path d="M0 0 C0.99 0.33 1.98 0.66 3 1 C2.21625 1.598125 1.4325 2.19625 0.625 2.8125 C-3.26628022 6.60456911 -3.39421765 11.83728771 -4 17 C-4.33 17 -4.66 17 -5 17 C-5.54335626 10.34388587 -4.80091227 6.52859966 -1 1 C-0.67 0.67 -0.34 0.34 0 0 Z " fill="#F79D51" transform="translate(29,73)"/>
<path d="M0 0 C-2 2 -2 2 -4.6015625 2.1953125 C-5.59929688 2.17210937 -6.59703125 2.14890625 -7.625 2.125 C-9.12933594 2.09792969 -9.12933594 2.09792969 -10.6640625 2.0703125 C-11.43492188 2.04710937 -12.20578125 2.02390625 -13 2 C-13 1.34 -13 0.68 -13 0 C-11.39679026 -0.19551338 -9.79237014 -0.38111983 -8.1875 -0.5625 C-7.29417969 -0.66691406 -6.40085937 -0.77132812 -5.48046875 -0.87890625 C-3 -1 -3 -1 0 0 Z " fill="#F57E19" transform="translate(55,213)"/>
<path d="M0 0 C0.99 0 1.98 0 3 0 C3.1953125 6.0546875 3.1953125 6.0546875 3 8 C2.34 8.66 1.68 9.32 1 10 C-0.60725635 6.78548731 -0.05748185 3.56387464 0 0 Z " fill="#F47F1C" transform="translate(187,155)"/>
<path d="M0 0 C0.99 0 1.98 0 3 0 C3 2.64 3 5.28 3 8 C2.01 8.33 1.02 8.66 0 9 C0 6.03 0 3.06 0 0 Z " fill="#F47D17" transform="translate(198,185)"/>
<path d="M0 0 C1.32 0 2.64 0 4 0 C4.33 2.97 4.66 5.94 5 9 C2 6 2 6 0 3 C0 2.01 0 1.02 0 0 Z " fill="#DFF2EE" transform="translate(117,159)"/>
<path d="M0 0 C0.66 0 1.32 0 2 0 C2.66 1.65 3.32 3.3 4 5 C3.34 5 2.68 5 2 5 C2 8.3 2 11.6 2 15 C1.67 15 1.34 15 1 15 C0.67 10.05 0.34 5.1 0 0 Z " fill="#62C3AE" transform="translate(84,126)"/>
<path d="M0 0 C-0.33 1.32 -0.66 2.64 -1 4 C-1.66 3.67 -2.32 3.34 -3 3 C-5.37402501 2.92883618 -7.75000677 2.91590915 -10.125 2.9375 C-11.40632813 2.94652344 -12.68765625 2.95554687 -14.0078125 2.96484375 C-14.99523437 2.97644531 -15.98265625 2.98804687 -17 3 C-17 2.67 -17 2.34 -17 2 C-14.54187409 1.66507287 -12.08352273 1.3319903 -9.625 1 C-8.92632812 0.90460938 -8.22765625 0.80921875 -7.5078125 0.7109375 C-2.2265625 0 -2.2265625 0 0 0 Z " fill="#F4B984" transform="translate(133,115)"/>
<path d="M0 0 C0.99 0.66 1.98 1.32 3 2 C3.1875 5.125 3.1875 5.125 3 8 C2.01 8.495 2.01 8.495 1 9 C1 7.68 1 6.36 1 5 C-0.32 4.67 -1.64 4.34 -3 4 C-2.01 3.67 -1.02 3.34 0 3 C0 2.01 0 1.02 0 0 Z " fill="#43B79E" transform="translate(153,102)"/>
<path d="M0 0 C1.32 0 2.64 0 4 0 C4 1.98 4 3.96 4 6 C2.68 6 1.36 6 0 6 C0 4.02 0 2.04 0 0 Z " fill="#41B69D" transform="translate(159,58)"/>
<path d="M0 0 C0.65234375 1.796875 0.65234375 1.796875 1 4 C-0.36489377 6.33370072 -2.1419038 8.00594554 -4 10 C-4.33 9.34 -4.66 8.68 -5 8 C-4.00390625 6.0546875 -4.00390625 6.0546875 -2.5625 3.875 C-2.08941406 3.15054688 -1.61632812 2.42609375 -1.12890625 1.6796875 C-0.75636719 1.12539062 -0.38382813 0.57109375 0 0 Z " fill="#DBF0EC" transform="translate(149,136)"/>
<path d="M0 0 C-0.33 0.99 -0.66 1.98 -1 3 C-3.875 3.125 -3.875 3.125 -7 3 C-7.66 2.34 -8.32 1.68 -9 1 C-5.8035914 -0.06546953 -3.34252724 -0.07427838 0 0 Z " fill="#F5811E" transform="translate(72,208)"/>
<path d="M0 0 C0.33 0 0.66 0 1 0 C1.103125 1.093125 1.20625 2.18625 1.3125 3.3125 C1.97307727 6.85559629 2.2027092 7.93243723 5 10 C3.68 10.33 2.36 10.66 1 11 C-1.78637633 6.8204355 -0.79562512 4.85331323 0 0 Z " fill="#CCEAE3" transform="translate(141,61)"/>
<path d="M0 0 C0.33 0 0.66 0 1 0 C1 2.97 1 5.94 1 9 C0.01 9.495 0.01 9.495 -1 10 C-3.125 9.0625 -3.125 9.0625 -5 8 C-3.68 8 -2.36 8 -1 8 C-1.020625 7.05125 -1.04125 6.1025 -1.0625 5.125 C-1 2 -1 2 0 0 Z " fill="#D7EFE9" transform="translate(164,56)"/>
<path d="M0 0 C1.5625 1.75 1.5625 1.75 3 4 C2.6875 6.25 2.6875 6.25 2 8 C0.68 8.33 -0.64 8.66 -2 9 C-1.34 6.03 -0.68 3.06 0 0 Z " fill="#4BBBA2" transform="translate(47,169)"/>
<path d="M0 0 C1.65 0 3.3 0 5 0 C5 0.66 5 1.32 5 2 C2 4 2 4 -2 4 C-1.34 2.68 -0.68 1.36 0 0 Z " fill="#4ABAA1" transform="translate(100,123)"/>
<path d="M0 0 C0.33 0 0.66 0 1 0 C1 1.98 1 3.96 1 6 C2.32 6.33 3.64 6.66 5 7 C5 7.99 5 8.98 5 10 C0.125 8.25 0.125 8.25 -1 6 C-0.71887936 3.99199544 -0.38932033 1.98985949 0 0 Z " fill="#C8E9E2" transform="translate(169,74)"/>
<path d="M0 0 C0.99 0.33 1.98 0.66 3 1 C3 3.97 3 6.94 3 10 C2.67 10 2.34 10 2 10 C2 7.69 2 5.38 2 3 C0.68 3.33 -0.64 3.66 -2 4 C-1.34 2.68 -0.68 1.36 0 0 Z " fill="#45B79E" transform="translate(80,56)"/>
<path d="M0 0 C0.66 0.33 1.32 0.66 2 1 C1.67 1.99 1.34 2.98 1 4 C-2.96 3.67 -6.92 3.34 -11 3 C-11 2.67 -11 2.34 -11 2 C-10.28972656 1.93941406 -9.57945313 1.87882812 -8.84765625 1.81640625 C-7.46900391 1.69072266 -7.46900391 1.69072266 -6.0625 1.5625 C-5.14597656 1.48128906 -4.22945313 1.40007812 -3.28515625 1.31640625 C-1.03840268 1.23955024 -1.03840268 1.23955024 0 0 Z " fill="#80BA98" transform="translate(128,120)"/>
<path d="M0 0 C0.66 0 1.32 0 2 0 C2 0.99 2 1.98 2 3 C1.34 3 0.68 3 0 3 C-0.2165625 3.928125 -0.2165625 3.928125 -0.4375 4.875 C-1 7 -1 7 -2 9 C-2.66 9 -3.32 9 -4 9 C-4 8.01 -4 7.02 -4 6 C-3.34 6 -2.68 6 -2 6 C-1.34 4.02 -0.68 2.04 0 0 Z " fill="#F5923F" transform="translate(133,96)"/>
<path d="M0 0 C0.66 0 1.32 0 2 0 C2 0.66 2 1.32 2 2 C2.66 2.33 3.32 2.66 4 3 C3.34 3 2.68 3 2 3 C1.67 4.98 1.34 6.96 1 9 C0.01 8.34 -0.98 7.68 -2 7 C-1.34 7 -0.68 7 0 7 C-0.2784375 5.824375 -0.2784375 5.824375 -0.5625 4.625 C-1 2 -1 2 0 0 Z " fill="#EEBA86" transform="translate(108,92)"/>
<path d="M0 0 C0.33 0 0.66 0 1 0 C1 2.97 1 5.94 1 9 C1.66 9 2.32 9 3 9 C3 9.99 3 10.98 3 12 C2.01 12 1.02 12 0 12 C0 8.04 0 4.08 0 0 Z " fill="#57BFA9" transform="translate(24,116)"/>
<path d="M0 0 C0 1.32 0 2.64 0 4 C-1.65 4.33 -3.3 4.66 -5 5 C-4.625 3.0625 -4.625 3.0625 -4 1 C-2 0 -2 0 0 0 Z " fill="#F5811E" transform="translate(82,18)"/>
<path d="M0 0 C1.134375 0.020625 2.26875 0.04125 3.4375 0.0625 C3.4375 0.3925 3.4375 0.7225 3.4375 1.0625 C2.07625 1.4646875 2.07625 1.4646875 0.6875 1.875 C-2.27721963 2.95826294 -4.1794754 4.04609457 -6.5625 6.0625 C-4.25951087 0.07472826 -4.25951087 0.07472826 0 0 Z " fill="#FDE5D1" transform="translate(89.5625,13.9375)"/>
<path d="M0 0 C-0.99 0.33 -1.98 0.66 -3 1 C-2.34 1.66 -1.68 2.32 -1 3 C-2.98 3.33 -4.96 3.66 -7 4 C-7 2.68 -7 1.36 -7 0 C-3.86650268 -1.04449911 -3.01031744 -0.93423645 0 0 Z " fill="#57BFA9" transform="translate(75,198)"/>
<path d="M0 0 C1.32 0.66 2.64 1.32 4 2 C3.67 2.33 3.34 2.66 3 3 C2.95936168 4.66617115 2.957279 6.33388095 3 8 C2.67 7.01 2.34 6.02 2 5 C1.01 4.67 0.02 4.34 -1 4 C-0.67 2.68 -0.34 1.36 0 0 Z " fill="#F79949" transform="translate(27,152)"/>
<path d="M0 0 C3.465 1.98 3.465 1.98 7 4 C6.01 4.66 5.02 5.32 4 6 C2.35 4.68 0.7 3.36 -1 2 C-0.67 1.34 -0.34 0.68 0 0 Z " fill="#69C0A8" transform="translate(107,117)"/>
<path d="M0 0 C0.33 0 0.66 0 1 0 C1.33 3.3 1.66 6.6 2 10 C-1 7 -1 7 -1.25 3.875 C-1 1 -1 1 0 0 Z " fill="#F6B67E" transform="translate(108,109)"/>
<path d="M0 0 C0.66 0 1.32 0 2 0 C2.33 1.32 2.66 2.64 3 4 C2.34 4 1.68 4 1 4 C1 6.31 1 8.62 1 11 C0.67 11 0.34 11 0 11 C0 7.37 0 3.74 0 0 Z " fill="#72C8B5" transform="translate(157,93)"/>
<path d="M0 0 C2.31 0.33 4.62 0.66 7 1 C7 2.32 7 3.64 7 5 C6.01 5.33 5.02 5.66 4 6 C4 4.68 4 3.36 4 2 C2.68 2 1.36 2 0 2 C0 1.34 0 0.68 0 0 Z " fill="#C6E8E0" transform="translate(141,89)"/>
</svg>
