<?xml version="1.0" encoding="UTF-8"?>
<svg version="1.1" xmlns="http://www.w3.org/2000/svg" width="1280" height="1280">
<path d="M0 0 C1.02379761 0.00060425 2.04759521 0.0012085 3.10241699 0.00183105 C84.29938294 0.13098013 164.90936119 15.46859095 288.375 68.1875 C289.45571777 68.72729492 290.53643555 69.26708984 291.64990234 69.82324219 C329.16799567 88.62515034 364.69757075 111.85741069 397.375 138.1875 C398.76912109 139.30705078 398.76912109 139.30705078 400.19140625 140.44921875 C411.73825531 149.81107454 422.91032818 159.54911819 433.77050781 169.69628906 C435.36681292 171.17989095 436.97416038 172.65042133 438.5859375 174.1171875 C448.63747062 183.27846371 458.6870994 192.61550739 467.48046875 203.01171875 C469.60658662 205.45346649 471.81233616 207.8081377 474.02905273 210.16748047 C480.10039234 216.6324365 485.83380003 223.25870269 491.375 230.1875 C492.35628222 231.37908109 493.33948045 232.56908596 494.32421875 233.7578125 C502.74204478 243.94896637 510.66380608 254.45334836 518.375 265.1875 C518.96458496 266.00798828 519.55416992 266.82847656 520.16162109 267.67382812 C576.43849247 346.31695131 613.70057902 437.63700647 637.5625 636.4375 C637.56189575 637.68171722 637.5612915 638.92593445 637.56066895 640.20785522 C637.53639328 658.62375895 637.24192836 676.85401291 635.375 695.1875 C635.23922821 696.56834047 635.10365819 697.9492008 634.96826172 699.33007812 C626.99853252 779.57650321 604.47044716 857.83385771 492.85888672 1042.3671875 C491.56406012 1043.9555763 490.28279718 1045.55500271 489.00390625 1047.15625 C484.29414646 1053.03264753 479.31874016 1058.59113077 474.15429688 1064.06689453 C471.49065089 1066.89225004 468.89280407 1069.7434753 466.37890625 1072.703125 C461.18007175 1078.67963046 455.50360707 1084.20755885 449.89624023 1089.79663086 C447.94204376 1091.7454687 445.99324853 1093.69959272 444.04492188 1095.65429688 C437.9904238 1101.71203257 431.92511939 1107.66093234 425.375 1113.1875 C423.76731627 1114.64195517 422.16260285 1116.09970895 420.5625 1117.5625 C415.31324117 1122.29321502 409.87941004 1126.75833694 404.375 1131.1875 C403.25364698 1132.10124442 402.13256489 1133.01532139 401.01171875 1133.9296875 C367.72399621 1160.97425442 331.34066586 1184.28825444 293.375 1204.1875 C291.98692139 1204.91549805 291.98692139 1204.91549805 290.57080078 1205.65820312 C219.17386806 1242.81937023 140.54826243 1264.41200039 20.3359375 1274.390625 C18.93379687 1274.39769134 17.53165658 1274.404824 16.1295166 1274.41201782 C11.66967236 1274.43154915 7.20988301 1274.43671045 2.75 1274.4375 C1.98868019 1274.43779457 1.22736038 1274.43808914 0.44297028 1274.43839264 C-23.03729111 1274.43985982 -46.29798768 1274.10074409 -69.625 1271.1875 C-70.42568909 1271.09039734 -71.22637817 1270.99329468 -72.05133057 1270.89324951 C-139.87433971 1262.66481265 -205.98189096 1244.78538863 -267.82714844 1215.50634766 C-270.53565202 1214.22961674 -273.25414232 1212.97719861 -275.9765625 1211.73046875 C-288.20299183 1206.08574769 -299.90555442 1199.69917139 -311.55175781 1192.94506836 C-313.79169026 1191.66406473 -316.03734238 1190.40606549 -318.29980469 1189.16625977 C-327.55259394 1184.07842967 -336.40958317 1178.56353143 -345.16210938 1172.65844727 C-347.25235269 1171.24841292 -349.34827134 1169.84716513 -351.4453125 1168.44726562 C-379.99037631 1149.33853307 -406.91654727 1128.13450872 -432.02050781 1104.67871094 C-433.61681292 1103.19510905 -435.22416038 1101.72457867 -436.8359375 1100.2578125 C-446.9103262 1091.07570501 -456.98150125 1081.71504398 -465.796875 1071.296875 C-467.78636733 1069.00130693 -469.8470151 1066.7848084 -471.92089844 1064.56567383 C-476.86866263 1059.26832271 -481.63035328 1053.89208655 -486.16796875 1048.234375 C-488.02445546 1045.93221342 -489.89995624 1043.65567659 -491.80078125 1041.390625 C-518.68423216 1009.29484353 -541.47865656 973.75838307 -561.18554688 936.86962891 C-562.54021381 934.34548186 -563.91588875 931.83403338 -565.296875 929.32421875 C-580.07353798 902.17754219 -591.42644645 873.31498843 -601.625 844.1875 C-602.20604492 842.52944336 -602.20604492 842.52944336 -602.79882812 840.83789062 C-623.49188655 780.89280608 -634.38511671 716.55586833 -635.625 653.1875 C-635.64691406 652.07681152 -635.66882813 650.96612305 -635.69140625 649.82177734 C-637.02353044 568.17366525 -623.48474186 486.43306245 -530.625 286.1875 C-530.12532715 285.43936035 -529.6256543 284.6912207 -529.11083984 283.92041016 C-518.31806178 267.82367576 -507.08829971 252.03940175 -494.625 237.1875 C-493.20719009 235.4384261 -491.79056182 233.68839382 -490.375 231.9375 C-475.76056118 214.10636494 -460.02328273 197.49970677 -443.75 181.1875 C-443.11416992 180.54899109 -442.47833984 179.91048218 -441.82324219 179.25262451 C-435.26919718 172.67766504 -428.73256176 166.17005127 -421.625 160.1875 C-420.45637683 159.16629713 -419.28970481 158.1428571 -418.125 157.1171875 C-403.17065461 144.03955733 -387.74247065 131.80339174 -371.625 120.1875 C-370.52406006 119.39230957 -370.52406006 119.39230957 -369.40087891 118.58105469 C-347.1355747 102.54440524 -323.78529957 88.18810741 -299.625 75.1875 C-298.66835449 74.66961914 -297.71170898 74.15173828 -296.72607422 73.61816406 C-226.21540634 35.62955765 -147.67759835 11.79207213 0 0 Z " fill="#FEFEFE" transform="translate(640.625,3.8125)"/>
<path d="M0 0 C1.02379761 0.00060425 2.04759521 0.0012085 3.10241699 0.00183105 C84.29938294 0.13098013 164.90936119 15.46859095 288.375 68.1875 C289.45571777 68.72729492 290.53643555 69.26708984 291.64990234 69.82324219 C329.16799567 88.62515034 364.69757075 111.85741069 397.375 138.1875 C398.76912109 139.30705078 398.76912109 139.30705078 400.19140625 140.44921875 C411.73825531 149.81107454 422.91032818 159.54911819 433.77050781 169.69628906 C435.36681292 171.17989095 436.97416038 172.65042133 438.5859375 174.1171875 C448.63747062 183.27846371 458.6870994 192.61550739 467.48046875 203.01171875 C469.60658662 205.45346649 471.81233616 207.8081377 474.02905273 210.16748047 C480.10039234 216.6324365 485.83380003 223.25870269 491.375 230.1875 C492.35628222 231.37908109 493.33948045 232.56908596 494.32421875 233.7578125 C502.74204478 243.94896637 510.66380608 254.45334836 518.375 265.1875 C518.96458496 266.00798828 519.55416992 266.82847656 520.16162109 267.67382812 C576.43849247 346.31695131 613.70057902 437.63700647 637.5625 636.4375 C637.56189575 637.68171722 637.5612915 638.92593445 637.56066895 640.20785522 C637.53639328 658.62375895 637.24192836 676.85401291 635.375 695.1875 C635.23922821 696.56834047 635.10365819 697.9492008 634.96826172 699.33007812 C626.99853252 779.57650321 604.47044716 857.83385771 492.85888672 1042.3671875 C491.56406012 1043.9555763 490.28279718 1045.55500271 489.00390625 1047.15625 C484.29414646 1053.03264753 479.31874016 1058.59113077 474.15429688 1064.06689453 C471.49065089 1066.89225004 468.89280407 1069.7434753 466.37890625 1072.703125 C461.18007175 1078.67963046 455.50360707 1084.20755885 449.89624023 1089.79663086 C447.94204376 1091.7454687 445.99324853 1093.69959272 444.04492188 1095.65429688 C437.9904238 1101.71203257 431.92511939 1107.66093234 425.375 1113.1875 C423.76731627 1114.64195517 422.16260285 1116.09970895 420.5625 1117.5625 C415.31324117 1122.29321502 409.87941004 1126.75833694 404.375 1131.1875 C403.25364698 1132.10124442 402.13256489 1133.01532139 401.01171875 1133.9296875 C367.72399621 1160.97425442 331.34066586 1184.28825444 293.375 1204.1875 C291.98692139 1204.91549805 291.98692139 1204.91549805 290.57080078 1205.65820312 C219.17386806 1242.81937023 140.54826243 1264.41200039 20.3359375 1274.390625 C18.93379687 1274.39769134 17.53165658 1274.404824 16.1295166 1274.41201782 C11.66967236 1274.43154915 7.20988301 1274.43671045 2.75 1274.4375 C1.98868019 1274.43779457 1.22736038 1274.43808914 0.44297028 1274.43839264 C-23.03729111 1274.43985982 -46.29798768 1274.10074409 -69.625 1271.1875 C-70.42568909 1271.09039734 -71.22637817 1270.99329468 -72.05133057 1270.89324951 C-139.87433971 1262.66481265 -205.98189096 1244.78538863 -267.82714844 1215.50634766 C-270.53565202 1214.22961674 -273.25414232 1212.97719861 -275.9765625 1211.73046875 C-288.20299183 1206.08574769 -299.90555442 1199.69917139 -311.55175781 1192.94506836 C-313.79169026 1191.66406473 -316.03734238 1190.40606549 -318.29980469 1189.16625977 C-327.55259394 1184.07842967 -336.40958317 1178.56353143 -345.16210938 1172.65844727 C-347.25235269 1171.24841292 -349.34827134 1169.84716513 -351.4453125 1168.44726562 C-379.99037631 1149.33853307 -406.91654727 1128.13450872 -432.02050781 1104.67871094 C-433.61681292 1103.19510905 -435.22416038 1101.72457867 -436.8359375 1100.2578125 C-446.9103262 1091.07570501 -456.98150125 1081.71504398 -465.796875 1071.296875 C-467.78636733 1069.00130693 -469.8470151 1066.7848084 -471.92089844 1064.56567383 C-476.86866263 1059.26832271 -481.63035328 1053.89208655 -486.16796875 1048.234375 C-488.02445546 1045.93221342 -489.89995624 1043.65567659 -491.80078125 1041.390625 C-518.68423216 1009.29484353 -541.47865656 973.75838307 -561.18554688 936.86962891 C-562.54021381 934.34548186 -563.91588875 931.83403338 -565.296875 929.32421875 C-580.07353798 902.17754219 -591.42644645 873.31498843 -601.625 844.1875 C-602.20604492 842.52944336 -602.20604492 842.52944336 -602.79882812 840.83789062 C-623.49188655 780.89280608 -634.38511671 716.55586833 -635.625 653.1875 C-635.64691406 652.07681152 -635.66882813 650.96612305 -635.69140625 649.82177734 C-637.02353044 568.17366525 -623.48474186 486.43306245 -530.625 286.1875 C-530.12532715 285.43936035 -529.6256543 284.6912207 -529.11083984 283.92041016 C-518.31806178 267.82367576 -507.08829971 252.03940175 -494.625 237.1875 C-493.20719009 235.4384261 -491.79056182 233.68839382 -490.375 231.9375 C-475.76056118 214.10636494 -460.02328273 197.49970677 -443.75 181.1875 C-443.11416992 180.54899109 -442.47833984 179.91048218 -441.82324219 179.25262451 C-435.26919718 172.67766504 -428.73256176 166.17005127 -421.625 160.1875 C-420.45637683 159.16629713 -419.28970481 158.1428571 -418.125 157.1171875 C-403.17065461 144.03955733 -387.74247065 131.80339174 -371.625 120.1875 C-370.52406006 119.39230957 -370.52406006 119.39230957 -369.40087891 118.58105469 C-347.1355747 102.54440524 -323.78529957 88.18810741 -299.625 75.1875 C-298.66835449 74.66961914 -297.71170898 74.15173828 -296.72607422 73.61816406 C-226.21540634 35.62955765 -147.67759835 11.79207213 0 0 Z M-61.625 54.1875 C-63.72283701 54.41876349 -65.82120836 54.64469184 -67.91964722 54.87042236 C-155.18008813 64.30001302 -241.23688608 95.09019212 -418.1875 227.625 C-419.57980835 229.01029907 -419.57980835 229.01029907 -421.00024414 230.42358398 C-426.08361806 235.51894808 -430.94382883 240.722621 -435.625 246.1875 C-437.07945517 247.79518373 -438.53720895 249.39989715 -440 251 C-510.08526601 328.85942998 -557.21460289 429.31103114 -584.875 635.1875 C-584.87440582 636.12961334 -584.87381165 637.07172668 -584.87319946 638.04238892 C-584.82350674 658.5767271 -583.90001205 678.93401296 -581.63305664 699.34692383 C-581.31231648 702.25166202 -581.00812188 705.15782154 -580.70507812 708.06445312 C-579.41393554 720.09826194 -577.54101805 731.90922738 -575.11819458 743.76559448 C-574.64927581 746.06829001 -574.19449496 748.37321042 -573.74584961 750.67993164 C-570.42241312 767.73577335 -566.87624947 784.60604168 -561.625 801.1875 C-561.18436282 802.60574105 -560.74448063 804.02421679 -560.30517578 805.44287109 C-547.17849626 847.73670771 -530.84298543 888.77019434 -508.625 927.1875 C-508.06377441 928.16170898 -507.50254883 929.13591797 -506.92431641 930.13964844 C-489.91967546 959.48373391 -470.52552407 987.29399188 -448.625 1013.1875 C-448.09632324 1013.81527344 -447.56764648 1014.44304688 -447.02294922 1015.08984375 C-438.19740369 1025.55548596 -429.16043841 1035.79533025 -419.38671875 1045.390625 C-417.69887971 1047.11214597 -416.15885052 1048.8912857 -414.625 1050.75 C-411.97388972 1053.91285275 -409.03550478 1056.50535063 -405.89453125 1059.171875 C-403.19364895 1061.57059318 -400.65888599 1064.1158013 -398.125 1066.6875 C-393.7874426 1071.07142084 -389.3239068 1075.1958681 -384.625 1079.1875 C-383.13613281 1080.49267578 -383.13613281 1080.49267578 -381.6171875 1081.82421875 C-373.35219069 1089.04705488 -364.78363423 1095.78464821 -356.0090332 1102.37548828 C-354.2339729 1103.72464318 -352.47141193 1105.09027439 -350.71557617 1106.46435547 C-342.73462038 1112.70885476 -334.51431904 1118.47519455 -326.0625 1124.0625 C-325.41091919 1124.49504089 -324.75933838 1124.92758179 -324.0880127 1125.37322998 C-307.38708562 1136.45199723 -290.24983306 1146.6478411 -272.625 1156.1875 C-271.52792725 1156.7870752 -270.43085449 1157.38665039 -269.30053711 1158.00439453 C-260.29726792 1162.89409589 -251.14947335 1167.34834579 -241.8125 1171.5625 C-241.09956787 1171.88520874 -240.38663574 1172.20791748 -239.65209961 1172.54040527 C-226.17140562 1178.62727881 -212.56556986 1184.22939914 -198.625 1189.1875 C-198.01285645 1189.4053717 -197.40071289 1189.62324341 -196.77001953 1189.84771729 C-168.27303204 1199.95864678 -139.5212923 1207.90376173 -109.8125 1213.5625 C-108.95488068 1213.72608002 -108.09726135 1213.88966003 -107.21365356 1214.05819702 C-101.36114618 1215.16439714 -95.49942942 1216.20444464 -89.625 1217.1875 C-88.84175354 1217.31902466 -88.05850708 1217.45054932 -87.25152588 1217.58605957 C-58.96962286 1222.22603074 -30.54949397 1223.73519357 -1.93150711 1223.57442474 C0.36093893 1223.56224259 2.65336248 1223.55486263 4.9458313 1223.54840088 C26.87457293 1223.47731958 48.61141672 1223.15186693 70.375 1220.1875 C71.9021553 1219.98662101 73.42933749 1219.78594637 74.95654297 1219.58544922 C93.19666328 1217.1565912 111.26080742 1213.99372075 129.25 1210.125 C129.99642761 1209.96536774 130.74285522 1209.80573547 131.51190186 1209.64126587 C141.64156436 1207.45526393 151.56082562 1204.78371092 161.47241211 1201.76400757 C164.1746701 1200.94519011 166.88649184 1200.15984077 169.59765625 1199.37109375 C223.53021634 1183.37588582 275.50572017 1159.29374028 322.375 1128.1875 C323.096875 1127.70861328 323.81875 1127.22972656 324.5625 1126.73632812 C340.8716635 1115.84810817 356.55757978 1104.11052273 371.65576172 1091.60253906 C373.18671112 1090.34247335 374.73480647 1089.10330531 376.28515625 1087.8671875 C382.42995692 1082.9622067 388.19500989 1077.72738526 393.89868164 1072.32250977 C396.93485795 1069.44689058 399.99775626 1066.63329415 403.171875 1063.91015625 C408.32867118 1059.42891472 413.11906343 1054.58907227 417.9375 1049.75 C418.84435547 1048.84701172 419.75121094 1047.94402344 420.68554688 1047.01367188 C425.24647308 1042.44613084 429.67644911 1037.82726135 433.87963867 1032.92797852 C435.9454997 1030.52348492 438.09906733 1028.20336651 440.25 1025.875 C445.1707178 1020.47258543 449.80292553 1014.88581141 454.375 1009.1875 C455.28725289 1008.06729484 456.20003803 1006.94752295 457.11328125 1005.828125 C511.99338193 938.27416836 552.11107684 857.14896156 576.80908203 746.24072266 C577.32625285 743.45049907 577.87282468 740.66844925 578.43359375 737.88671875 C580.71013972 726.38037061 582.23473875 714.83481564 583.5625 703.1875 C583.6896489 702.0764238 583.6896489 702.0764238 583.81936646 700.94290161 C585.4929141 686.18055975 586.53747499 671.53415742 586.578125 656.66796875 C586.58236607 655.59059165 586.58236607 655.59059165 586.58669281 654.49144936 C586.60156746 650.67325116 586.61086476 646.85508944 586.61523438 643.03686523 C586.61957065 639.96284805 586.63328862 636.88911923 586.65625 633.81518555 C586.81501513 612.09251288 585.80231019 590.77767303 583.375 569.1875 C583.27257996 568.25988861 583.17015991 567.33227722 583.06463623 566.3765564 C582.52212156 561.55023889 581.88998722 556.74361625 581.1875 551.9375 C581.08717468 551.24222198 580.98684937 550.54694397 580.88348389 549.83059692 C572.34620251 491.27071758 554.07401626 434.40485412 528.375 381.1875 C527.92447266 380.24406738 527.47394531 379.30063477 527.00976562 378.32861328 C519.90081452 363.48543471 511.86242088 349.28192034 503.375 335.1875 C502.82553711 334.27049316 502.27607422 333.35348633 501.70996094 332.40869141 C486.86544401 307.71394933 469.9915643 284.18889417 451.375 262.1875 C450.93269043 261.66172363 450.49038086 261.13594727 450.03466797 260.59423828 C441.07135142 249.95276108 431.87540633 239.50934748 421.92578125 229.7734375 C420.27300906 228.08319692 418.76905522 226.31103907 417.25 224.5 C413.03121518 219.59399232 408.22525843 215.35221549 403.4453125 211.0078125 C401.13738926 208.90528472 398.91607201 206.74978493 396.75 204.5 C393.15841279 200.83746786 389.169767 197.70250893 385.17578125 194.4921875 C382.61310398 192.38342936 380.17926132 190.19708549 377.75 187.9375 C371.4525686 182.20073022 364.62756441 177.15792281 357.82226562 172.04711914 C356.02358779 170.68034649 354.23759884 169.29683414 352.45898438 167.90405273 C344.98734806 162.05397052 337.31607203 156.61562781 329.40087891 151.38256836 C327.50401817 150.12765831 325.61306959 148.86420542 323.72265625 147.59960938 C283.37206871 120.71997198 239.68407037 98.98166443 193.79980469 83.35498047 C190.38449736 82.19073755 186.97737873 81.00451893 183.5703125 79.81640625 C159.12638623 71.37913272 134.41307762 65.53722009 109.02050781 60.87670898 C105.32600382 60.17823693 101.64915747 59.41349594 97.96875 58.64453125 C90.06040304 57.05650566 82.13462031 56.01292852 74.125 55.125 C73.37389954 55.04100952 72.62279907 54.95701904 71.84893799 54.8704834 C27.58571071 49.9758751 -17.36468595 48.94257239 -61.625 54.1875 Z " fill="#00619E" transform="translate(640.625,3.8125)"/>
<path d="M0 0 C2 1 2 1 3.26513672 4.30371094 C3.74451177 5.77806707 4.21539845 7.25519884 4.6796875 8.734375 C4.93372345 9.52338196 5.1877594 10.31238892 5.44949341 11.12530518 C6.26510408 13.66465617 7.07007467 16.20724426 7.875 18.75 C8.40947981 20.41818563 8.94462863 22.08615707 9.48046875 23.75390625 C12.08923789 31.89220386 14.6372703 40.04730508 17.13720703 48.21972656 C18.3624772 52.16805045 19.6722159 56.08520177 21 60 C23.07608989 66.1711772 25.04914013 72.36216244 26.9375 78.59375 C28.23372185 82.74928476 29.61334883 86.87393001 31 91 C33.03894646 97.07217254 35.00317948 103.15680272 36.85546875 109.2890625 C37.81390115 112.39660784 38.79979019 115.49196514 39.80078125 118.5859375 C40.12119385 119.57948242 40.44160645 120.57302734 40.77172852 121.59667969 C41.41586227 123.590649 42.06339973 125.58352249 42.71459961 127.57519531 C43.00987549 128.49139648 43.30515137 129.40759766 43.609375 130.3515625 C43.87717773 131.17479004 44.14498047 131.99801758 44.42089844 132.84619141 C45 135 45 135 45 138 C92.85 138 140.7 138 190 138 C186.2445034 141.7554966 183.08733797 144.51731735 178.8125 147.5 C177.56337609 148.37830071 176.31470023 149.2572389 175.06640625 150.13671875 C174.40656738 150.59997559 173.74672852 151.06323242 173.06689453 151.54052734 C169.43993741 154.1015892 165.8464242 156.70882452 162.25 159.3125 C160.71358279 160.42323397 159.17712407 161.53391052 157.640625 162.64453125 C156.87298828 163.19963379 156.10535156 163.75473633 155.31445312 164.32666016 C152.29091913 166.51266248 149.26626449 168.69711062 146.24145508 170.88134766 C144.74377619 171.96288682 143.24621811 173.04459331 141.7487793 174.12646484 C138.01292827 176.82541173 134.27560767 179.52227542 130.53515625 182.21484375 C122.74084088 187.82903224 114.9754971 193.47889786 107.25 199.1875 C97.8494018 206.13253297 88.36546443 212.94776315 78.78930664 219.64868164 C77.89160049 220.27690323 76.99389435 220.90512482 76.06898499 221.55238342 C75.38621994 222.03009689 74.7034549 222.50781036 74 223 C80.62837275 244.10319933 87.33834524 265.17629375 94.2890625 286.17578125 C94.59040855 287.08668392 94.89175461 287.99758659 95.20223236 288.93609238 C97.9708706 297.30291782 100.7461021 305.66755044 103.52490234 314.03100586 C105.07378945 318.69361208 106.61838893 323.35762153 108.16047287 328.02248192 C108.73685649 329.76313331 109.31486811 331.50324664 109.89467239 333.24276161 C112.95463502 342.42338798 115.86849273 351.54801688 118 361 C115.2618043 359.6577242 112.80815786 358.24743572 110.33984375 356.453125 C109.63859375 355.94523437 108.93734375 355.43734375 108.21484375 354.9140625 C107.08755859 354.09035156 107.08755859 354.09035156 105.9375 353.25 C105.14601563 352.67507813 104.35453125 352.10015625 103.5390625 351.5078125 C97.04038476 346.77964066 90.57274745 342.00933325 84.10913086 337.23339844 C78.76406905 333.28751888 73.39216026 329.38122218 68 325.5 C60.99784758 320.45992181 54.04386744 315.35786615 47.10546875 310.23046875 C41.03564779 305.75012627 34.92900005 301.32332767 28.80249023 296.92089844 C24.76359919 294.01350296 20.74733778 291.07898127 16.75390625 288.109375 C15.88701172 287.46548828 15.02011719 286.82160156 14.12695312 286.15820312 C12.44991953 284.91032664 10.77533167 283.65915483 9.10351562 282.40429688 C7.97139648 281.5622168 7.97139648 281.5622168 6.81640625 280.703125 C5.81782593 279.95530762 5.81782593 279.95530762 4.79907227 279.19238281 C2.90194756 277.82258614 2.90194756 277.82258614 0 277 C-1.90170185 277.95875647 -1.90170185 277.95875647 -3.81640625 279.5078125 C-4.57115234 280.07564453 -5.32589844 280.64347656 -6.10351562 281.22851562 C-7.32071289 282.16727539 -7.32071289 282.16727539 -8.5625 283.125 C-10.2922952 284.43058038 -12.02277991 285.73524765 -13.75390625 287.0390625 C-14.63191895 287.70454102 -15.50993164 288.37001953 -16.41455078 289.05566406 C-20.2349012 291.92868302 -24.11468399 294.71583288 -28 297.5 C-34.19756483 301.95876772 -40.35985925 306.4625061 -46.5 311 C-52.64016269 315.53751011 -58.80354661 320.03966576 -65 324.5 C-71.17194427 328.94420481 -77.31694807 333.42276084 -83.4375 337.9375 C-84.21496582 338.51089111 -84.99243164 339.08428223 -85.79345703 339.67504883 C-89.94825308 342.74164319 -94.09852575 345.81426286 -98.24609375 348.890625 C-99.10468994 349.52621338 -99.96328613 350.16180176 -100.84790039 350.81665039 C-102.49044732 352.03265243 -104.13163864 353.25048849 -105.77124023 354.47045898 C-109.42185166 357.17131784 -113.03665681 359.76568502 -117 362 C-114.84269096 353.70430273 -112.2985866 345.57330885 -109.60546875 337.4375 C-109.17660553 336.13497297 -108.74800819 334.83235838 -108.31965637 333.52966309 C-107.41362568 330.77585464 -106.50595911 328.02259347 -105.59692383 325.26977539 C-104.17430182 320.9614167 -102.75565655 316.65175567 -101.33789062 312.34179688 C-100.86117735 310.8926996 -100.38446227 309.44360292 -99.90774536 307.99450684 C-99.67216038 307.27836716 -99.43657539 306.56222748 -99.19385147 305.8243866 C-98.48097201 303.65777953 -97.76774338 301.4912877 -97.05441284 299.3248291 C-93.30726879 287.9432947 -89.57711904 276.55629336 -85.86709595 265.16259766 C-85.29916154 263.41863747 -84.73079796 261.67481697 -84.16195679 259.93115234 C-81.4713007 251.6832281 -78.79921909 243.42955438 -76.1875 235.15625 C-75.98036377 234.50587769 -75.77322754 233.85550537 -75.55981445 233.1854248 C-74.5024766 229.81357306 -73.61594755 226.48043483 -73 223 C-81.69632266 216.42693534 -90.43021674 209.92584627 -99.3203125 203.6171875 C-103.48067046 200.66430932 -107.61571274 197.67672357 -111.75 194.6875 C-112.50780762 194.139729 -113.26561523 193.59195801 -114.04638672 193.02758789 C-115.59284925 191.90961007 -117.13923554 190.79152678 -118.68554688 189.67333984 C-121.70908087 187.48733752 -124.73373551 185.30288938 -127.75854492 183.11865234 C-129.25622381 182.03711318 -130.75378189 180.95540669 -132.2512207 179.87353516 C-135.98707173 177.17458827 -139.72439233 174.47772458 -143.46484375 171.78515625 C-152.0881104 165.57361679 -160.6649753 159.30479117 -169.20410156 152.97802734 C-174.98868245 148.70672766 -180.86104335 144.59175037 -186.82421875 140.57421875 C-187.54222656 140.05472656 -188.26023437 139.53523437 -189 139 C-189 138.67 -189 138.34 -189 138 C-141.15 138 -93.3 138 -44 138 C-43.01 134.37 -42.02 130.74 -41 127 C-40.18405183 124.42676968 -39.344828 121.86073928 -38.4765625 119.3046875 C-38.0105393 117.92359753 -37.54455765 116.54249353 -37.07861328 115.16137695 C-36.72189545 114.10981918 -36.72189545 114.10981918 -36.35797119 113.03701782 C-31.49985884 98.75124362 -31.49985884 98.75124362 -27.125 84.3125 C-25.41687188 78.29718549 -23.40360822 72.4623324 -21.25 66.59375 C-19.8595324 62.59615565 -18.66431997 58.56784288 -17.5 54.5 C-16.0002051 49.26009158 -14.37908941 44.12051863 -12.5 39 C-10.37404482 33.20012851 -8.58952007 27.35697565 -6.88598633 21.42407227 C-4.80280259 14.20924385 -2.43033654 7.1048562 0 0 Z " fill="#FFCC01" transform="translate(641,449)"/>
<path d="M0 0 C3.40457317 1.36526442 6.01732858 3.89446436 8.79663086 6.2331543 C16.20876876 12.30289378 23.87500521 17.70269047 31.98413086 22.7956543 C32.63043457 23.20525391 33.27673828 23.61485352 33.94262695 24.03686523 C49.04166221 33.52514788 65.16691089 40.90174991 81.98413086 46.7956543 C80.67364845 50.72710152 78.17854951 52.21147321 74.98413086 54.6081543 C73.70139482 55.59189671 72.4202132 56.57766844 71.14038086 57.56518555 C70.12331055 58.34949951 70.12331055 58.34949951 69.08569336 59.1496582 C65.49466123 61.96224401 61.99280298 64.88146287 58.48413086 67.7956543 C52.8188549 72.48943188 47.09839102 77.09356267 41.29272461 81.61206055 C36.62314081 85.26050529 32.04772201 89.01579257 27.48413086 92.7956543 C21.81814287 97.48859247 16.09841607 102.09354317 10.29272461 106.61206055 C5.62314081 110.26050529 1.04772201 114.01579257 -3.51586914 117.7956543 C-9.18185713 122.48859247 -14.90158393 127.09354317 -20.70727539 131.61206055 C-25.37685919 135.26050529 -29.95227799 139.01579257 -34.51586914 142.7956543 C-40.18185713 147.48859247 -45.90158393 152.09354317 -51.70727539 156.61206055 C-56.37685919 160.26050529 -60.95227799 164.01579257 -65.51586914 167.7956543 C-71.18185713 172.48859247 -76.90158393 177.09354317 -82.70727539 181.61206055 C-87.37685919 185.26050529 -91.95227799 189.01579257 -96.51586914 192.7956543 C-102.18185713 197.48859247 -107.90158393 202.09354317 -113.70727539 206.61206055 C-119.11787943 210.83948011 -124.4012024 215.21544043 -129.68847656 219.59545898 C-134.73924026 223.76994698 -139.85823182 227.84361259 -145.02807617 231.86914062 C-150.80222324 236.37898059 -156.41804106 241.06928297 -162.01586914 245.7956543 C-165.91569899 244.10255744 -169.08952961 241.54787671 -172.39086914 238.9206543 C-173.31017212 238.1925354 -173.31017212 238.1925354 -174.24804688 237.44970703 C-185.0339218 228.84772048 -195.3159553 219.71983582 -205.39379883 210.30444336 C-207.04398957 208.76949772 -208.70398448 207.24590435 -210.36743164 205.7253418 C-213.08230874 203.24325879 -215.78315065 200.74694376 -218.47143555 198.23608398 C-219.5018535 197.27505554 -220.53539782 196.3173684 -221.57202148 195.36303711 C-223.02415873 194.02066257 -224.45800087 192.65857781 -225.89086914 191.2956543 C-226.71329102 190.5222168 -227.53571289 189.7487793 -228.38305664 188.9519043 C-230.01586914 186.7956543 -230.01586914 186.7956543 -229.81201172 184.83886719 C-228.87365671 182.43068164 -227.92972 181.5385406 -225.91040039 179.94799805 C-225.26401611 179.43116455 -224.61763184 178.91433105 -223.95166016 178.38183594 C-222.9006311 177.56573853 -222.9006311 177.56573853 -221.82836914 176.7331543 C-221.10512451 176.15879639 -220.38187988 175.58443848 -219.63671875 174.99267578 C-217.43765123 173.25003213 -215.22842565 171.52112567 -213.01586914 169.7956543 C-211.82293696 168.8610441 -210.63021192 167.92616944 -209.43774414 166.9909668 C-207.75247823 165.66970078 -206.06674839 164.34908701 -204.37841797 163.03173828 C-198.94876762 158.78115015 -193.64276425 154.38549127 -188.33251953 149.98730469 C-183.39052579 145.90313696 -178.3836131 141.91673909 -173.32446289 137.97924805 C-168.65487909 134.3308033 -164.07946029 130.57551602 -159.51586914 126.7956543 C-153.84988115 122.10271612 -148.13015435 117.49776542 -142.32446289 112.97924805 C-137.65487909 109.3308033 -133.07946029 105.57551602 -128.51586914 101.7956543 C-122.84988115 97.10271612 -117.13015435 92.49776542 -111.32446289 87.97924805 C-106.65487909 84.3308033 -102.07946029 80.57551602 -97.51586914 76.7956543 C-92.40108149 72.55925594 -87.2569707 68.37484209 -82.01586914 64.2956543 C-75.93789179 59.56432108 -69.98864633 54.68684955 -64.05322266 49.77832031 C-59.61874839 46.11180787 -55.15768579 42.48463171 -50.65258789 38.9050293 C-47.86773284 36.67714525 -45.10241798 34.42646184 -42.33837891 32.17285156 C-36.05059408 27.04648111 -29.73927462 21.95810393 -23.32788086 16.98681641 C-20.07013928 14.45027911 -16.87881471 11.85347114 -13.72680664 9.1862793 C-13.00493164 8.58106445 -12.28305664 7.97584961 -11.53930664 7.35229492 C-10.13193743 6.16882536 -8.73309518 4.97512326 -7.34399414 3.77026367 C-6.70719727 3.23723633 -6.07040039 2.70420898 -5.41430664 2.1550293 C-4.85404785 1.67517578 -4.29378906 1.19532227 -3.71655273 0.70092773 C-2.01586914 -0.2043457 -2.01586914 -0.2043457 0 0 Z " fill="#00619E" transform="translate(479.015869140625,828.204345703125)"/>
<path d="M0 0 C1.29003906 1.7746582 1.29003906 1.7746582 2.765625 4.30078125 C3.31879395 5.2441333 3.87196289 6.18748535 4.44189453 7.15942383 C5.33690674 8.72019653 5.33690674 8.72019653 6.25 10.3125 C6.87116699 11.38975342 7.49233398 12.46700684 8.13232422 13.5769043 C17.8635435 30.6083769 26.82387458 48.01658495 34.9375 65.875 C35.46424316 67.01622314 35.99098633 68.15744629 36.53369141 69.33325195 C37.24211182 70.92786255 37.24211182 70.92786255 37.96484375 72.5546875 C38.3837085 73.48780762 38.80257324 74.42092773 39.23413086 75.38232422 C40.12633764 78.43181136 40.06860964 80.01842027 39 83 C37.53564453 84.53881836 37.53564453 84.53881836 35.6328125 85.83984375 C34.92189453 86.33806641 34.21097656 86.83628906 33.47851562 87.34960938 C32.70185547 87.87361328 31.92519531 88.39761719 31.125 88.9375 C29.47052565 90.09126074 27.81690675 91.24624897 26.1640625 92.40234375 C25.30844727 92.99515137 24.45283203 93.58795898 23.57128906 94.19873047 C19.49137428 97.05684016 15.49825567 100.02928691 11.5 103 C4.62442036 108.08399602 -2.29035698 113.11004679 -9.23046875 118.10546875 C-14.68083838 122.03392016 -20.09674016 126.00705268 -25.5 130 C-31.64016269 134.53751011 -37.80354661 139.03966576 -44 143.5 C-53.38780773 150.25983749 -62.69696495 157.12417344 -72 164 C-82.0401124 171.42059673 -92.09797508 178.81196039 -102.23071289 186.10571289 C-107.68106937 190.0339888 -113.09683174 194.00712036 -118.5 198 C-124.64016269 202.53751011 -130.80354661 207.03966576 -137 211.5 C-146.38780773 218.25983749 -155.69696495 225.12417344 -165 232 C-175.93612002 240.08283147 -186.89704486 248.12647996 -197.9375 256.06640625 C-200.4714247 257.89047681 -202.99356367 259.72818962 -205.5 261.58984375 C-206.49 262.32332031 -207.48 263.05679687 -208.5 263.8125 C-209.3353125 264.43769531 -210.170625 265.06289063 -211.03125 265.70703125 C-213 267 -213 267 -215 267 C-215.13462646 265.72660767 -215.13462646 265.72660767 -215.27197266 264.42749023 C-218.41179558 235.44766755 -223.98630007 207.37196713 -237.04272461 181.02172852 C-239.12660516 176.61525664 -239.12660516 176.61525664 -238.5546875 173.8359375 C-236.38489936 171.27362487 -233.82352565 169.48634398 -231.0625 167.625 C-229.78662869 166.73991042 -228.51195308 165.85309553 -227.23828125 164.96484375 C-226.55330566 164.48901855 -225.86833008 164.01319336 -225.16259766 163.52294922 C-221.31029244 160.81007047 -217.53455425 157.99371042 -213.75 155.1875 C-207.52743727 150.58618196 -201.28145872 146.02057946 -195 141.5 C-188.80341871 137.03984573 -182.64016025 132.53750831 -176.5 128 C-170.35983731 123.46248989 -164.19645339 118.96033424 -158 114.5 C-148.61219227 107.74016251 -139.30303505 100.87582656 -130 94 C-119.9598876 86.57940327 -109.90202492 79.18803961 -99.76928711 71.89428711 C-94.31893063 67.9660112 -88.90316826 63.99287964 -83.5 60 C-77.35983731 55.46248989 -71.19645339 50.96033424 -65 46.5 C-56.42055202 40.32223456 -47.90675657 34.05804654 -39.40429688 27.77490234 C-36.9851429 25.98903218 -34.56333981 24.20681718 -32.140625 22.42578125 C-30.94058838 21.54321655 -30.94058838 21.54321655 -29.71630859 20.64282227 C-28.12834741 19.47499503 -26.54013591 18.30750808 -24.95166016 17.14038086 C-21.05392328 14.27108889 -17.17339217 11.38217758 -13.3203125 8.453125 C-12.58127686 7.89254395 -11.84224121 7.33196289 -11.08081055 6.75439453 C-9.68320747 5.69190416 -8.28867718 4.62535596 -6.89770508 3.55419922 C-2.22083799 0 -2.22083799 0 0 0 Z " fill="#00619E" transform="translate(1103,357)"/>
<path d="M0 0 C3.87054505 2.23619222 7.15048858 5.00569782 10.55078125 7.89453125 C12.06856368 9.16459656 13.58680403 10.43411481 15.10546875 11.703125 C15.8747168 12.34878418 16.64396484 12.99444336 17.43652344 13.65966797 C20.98862259 16.62628111 24.58009063 19.54352699 28.17578125 22.45703125 C28.84649658 23.00141846 29.51721191 23.54580566 30.20825195 24.10668945 C34.4786576 27.57005586 38.76662446 31.01066049 43.06640625 34.4375 C45.86117361 36.68066854 48.64003181 38.94254355 51.41772461 41.20678711 C57.13077608 45.86358758 62.86251393 50.48830599 68.67578125 55.01953125 C74.6811853 59.70274723 80.55678196 64.53284582 86.42163086 69.39038086 C90.81229854 73.01892112 95.24334769 76.58366495 99.73828125 80.08203125 C105.72548583 84.74181865 111.57921594 89.5513564 117.421875 94.390625 C121.81249597 98.01904052 126.24343832 101.58373549 130.73828125 105.08203125 C136.72548583 109.74181865 142.57921594 114.5513564 148.421875 119.390625 C152.81249597 123.01904052 157.24343832 126.58373549 161.73828125 130.08203125 C167.72548583 134.74181865 173.57921594 139.5513564 179.421875 144.390625 C184.36222352 148.47333617 189.36643658 152.45970227 194.42529297 156.39404297 C199.14396382 160.07877967 203.75690393 163.8832735 208.36328125 167.70703125 C215.00501538 173.21693288 221.76230677 178.50126371 228.73828125 183.58203125 C227.13650343 187.5629029 224.35597531 190.23696299 221.35546875 193.1953125 C220.82237091 193.72795212 220.28927307 194.26059174 219.74002075 194.80937195 C218.61094608 195.93543046 217.47944684 197.05906245 216.34570312 198.18041992 C214.63492254 199.87311869 212.93210633 201.57350614 211.23046875 203.27539062 C205.56760464 208.91999329 199.85031136 214.42016902 193.73828125 219.58203125 C192.63177196 220.54307411 191.52627533 221.50528434 190.421875 222.46875 C184.23585576 227.81866801 177.98189628 233.0753897 171.61328125 238.20703125 C170.98607178 238.71580811 170.3588623 239.22458496 169.71264648 239.7487793 C166.84969038 242.03766421 164.12953621 244.14791846 160.73828125 245.58203125 C160.12984375 245.08316406 159.52140625 244.58429688 158.89453125 244.0703125 C155.84436593 241.57186826 152.79178958 239.07638738 149.73828125 236.58203125 C149.12259277 236.07881348 148.5069043 235.5755957 147.87255859 235.05712891 C140.89570472 229.35839663 133.90499931 223.68403837 126.80078125 218.14453125 C120.79546711 213.46119577 114.91978466 208.63122009 109.05493164 203.77368164 C104.66426396 200.14514138 100.23321481 196.58039755 95.73828125 193.08203125 C89.75107667 188.42224385 83.89734656 183.6127061 78.0546875 178.7734375 C73.66406653 175.14502198 69.23312418 171.58032701 64.73828125 168.08203125 C58.75107667 163.42224385 52.89734656 158.6127061 47.0546875 153.7734375 C42.66406653 150.14502198 38.23312418 146.58032701 33.73828125 143.08203125 C27.75107667 138.42224385 21.89734656 133.6127061 16.0546875 128.7734375 C11.66406485 125.14502059 7.23308957 121.58037354 2.73828125 118.08203125 C-3.3396961 113.35069804 -9.28894156 108.4732265 -15.22436523 103.56469727 C-19.6588395 99.89818482 -24.1199021 96.27100866 -28.625 92.69140625 C-32.1057898 89.90677441 -35.55690658 87.08628153 -39.01171875 84.26953125 C-44.58739176 79.72634199 -50.20961343 75.25179777 -55.88378906 70.83251953 C-61.48244949 66.45130516 -66.95231978 61.91639353 -72.40209961 57.35180664 C-75.4371177 54.82642545 -78.42502801 52.41356377 -81.76171875 50.296875 C-82.58671875 49.73097656 -83.41171875 49.16507813 -84.26171875 48.58203125 C-84.26171875 47.92203125 -84.26171875 47.26203125 -84.26171875 46.58203125 C-83.61436768 46.33670654 -82.9670166 46.09138184 -82.30004883 45.83862305 C-55.4652061 35.59069924 -31.45577665 22.94776416 -9.08203125 4.859375 C-8.15132812 4.10785156 -7.220625 3.35632813 -6.26171875 2.58203125 C-5.57851563 1.94394531 -4.8953125 1.30585937 -4.19140625 0.6484375 C-2.26171875 -0.41796875 -2.26171875 -0.41796875 0 0 Z " fill="#00619E" transform="translate(806.26171875,828.41796875)"/>
<path d="M0 0 C6.52496269 3.94897542 12.67693271 8.19086213 18.68188477 12.89306641 C23.25116934 16.45788764 27.91707068 19.87086023 32.625 23.25 C38.94878571 27.79087703 45.24006076 32.37146998 51.5 37 C57.64003171 41.53768514 63.80354896 46.03966745 70 50.5 C80.19356463 57.84003533 90.29401627 65.30454606 100.39550781 72.77050781 C109.63804661 79.59965419 118.9038828 86.3920693 128.23071289 93.10571289 C134.4862521 97.61431413 140.69318346 102.18680605 146.89453125 106.76953125 C152.23857821 110.71415511 157.60918549 114.61958115 163 118.5 C173.19356463 125.84003533 183.29401627 133.30454606 193.39550781 140.77050781 C204.22268139 148.77051244 215.09463595 156.70343434 226.01855469 164.57080078 C230.35615226 167.69947207 234.67842467 170.84924794 239 174 C237.63529915 177.42910002 236.24055548 180.84422039 234.828125 184.25390625 C223.64746645 211.49018183 217.25709474 237.77245282 214 267 C210.37841711 265.25094834 207.18782726 263.10373354 203.9375 260.75 C203.33389648 260.31598877 202.73029297 259.88197754 202.10839844 259.43481445 C196.14240029 255.13145922 190.22783169 250.75799553 184.31225586 246.38574219 C178.89983934 242.38851609 173.46111979 238.43037409 168 234.5 C157.80637289 227.1600532 147.7059823 219.69545288 137.60449219 212.22949219 C128.36195339 205.40034581 119.0961172 198.6079307 109.76928711 191.89428711 C103.5137479 187.38568587 97.30681654 182.81319395 91.10546875 178.23046875 C85.76142179 174.28584489 80.39081451 170.38041885 75 166.5 C64.80643537 159.15996467 54.70598373 151.69545394 44.60449219 144.22949219 C36.09906265 137.94498265 27.58191379 131.67980365 19 125.5 C12.82814504 121.0556706 6.68302358 116.57728032 0.5625 112.0625 C-0.2207666 111.4847583 -1.0040332 110.9070166 -1.81103516 110.31176758 C-5.86551592 107.31893701 -9.91630339 104.3211729 -13.96484375 101.3203125 C-22.87500838 94.72393914 -31.82592998 88.22585003 -41 82 C-40.35573197 77.96646345 -39.07836049 74.59312438 -37.41015625 70.87109375 C-36.87849854 69.68153076 -36.34684082 68.49196777 -35.79907227 67.26635742 C-35.22087906 65.98977057 -34.64200613 64.71349139 -34.0625 63.4375 C-33.76866425 62.78762115 -33.47482849 62.13774231 -33.17208862 61.46817017 C-12.85503792 16.56924702 -12.85503792 16.56924702 0 0 Z " fill="#00619E" transform="translate(181,357)"/>
<path d="M0 0 C0.17015625 1.10214844 0.3403125 2.20429687 0.515625 3.33984375 C5.00749522 31.81265838 13.81320734 58.03142765 26.921875 83.76538086 C28.06635603 86.1375355 29.04815558 88.54494446 30 91 C24.45381131 96.12068744 18.67645629 100.8807782 12.71826172 105.5090332 C7.90866448 109.25669685 3.19415266 113.10901728 -1.5 117 C-6.61460855 121.23660838 -11.75890512 125.4208174 -17 129.5 C-23.07797735 134.23133321 -29.02722281 139.10880475 -34.96264648 144.01733398 C-39.39712075 147.68384643 -43.85818335 151.31102259 -48.36328125 154.890625 C-51.84407105 157.67525684 -55.29518783 160.49574972 -58.75 163.3125 C-63.77350767 167.40577197 -68.82669754 171.45381992 -73.9375 175.4375 C-79.94290405 180.12071598 -85.81850071 184.95081457 -91.68334961 189.80834961 C-96.62534335 193.89251734 -101.63225604 197.87891521 -106.69140625 201.81640625 C-111.36099005 205.464851 -115.93640885 209.22013828 -120.5 213 C-126.16598799 217.69293817 -131.88571479 222.29788888 -137.69140625 226.81640625 C-142.36099005 230.464851 -146.93640885 234.22013828 -151.5 238 C-157.16195916 242.68960124 -162.87470366 247.29529863 -168.68041992 251.80541992 C-174.18177587 256.09772125 -179.54453781 260.55467382 -184.87695312 265.0546875 C-189.69531901 269.07543425 -194.71745847 272.61410954 -200 276 C-213.5533178 258.2799297 -224.40815704 238.58219173 -235 219 C-235.53447754 218.01322266 -236.06895508 217.02644531 -236.61962891 216.00976562 C-238.10209587 213.24671141 -239.55702836 210.47134745 -241 207.6875 C-241.43981201 206.8637085 -241.87962402 206.03991699 -242.33276367 205.19116211 C-242.71795166 204.4306958 -243.10313965 203.67022949 -243.5 202.88671875 C-243.8403125 202.22889404 -244.180625 201.57106934 -244.53125 200.89331055 C-245 199 -245 199 -244.29394531 196.93505859 C-242.95117172 194.92697869 -241.68321049 193.65177276 -239.796875 192.15234375 C-239.15371338 191.63551025 -238.51055176 191.11867676 -237.84790039 190.58618164 C-236.8094397 189.77008423 -236.8094397 189.77008423 -235.75 188.9375 C-235.03126709 188.36314209 -234.31253418 187.78878418 -233.57202148 187.19702148 C-228.52744359 183.17480545 -223.44338139 179.202028 -218.35791016 175.23168945 C-212.24956653 170.44650545 -206.28105255 165.4942922 -200.30078125 160.55078125 C-190.74920714 152.65622293 -181.13004627 144.85446938 -171.35864258 137.23364258 C-165.931132 132.98279484 -160.62573283 128.58887432 -155.31665039 124.19165039 C-150.37465665 120.10748266 -145.36774396 116.12108479 -140.30859375 112.18359375 C-135.63900995 108.535149 -131.06359115 104.77986172 -126.5 101 C-120.83401201 96.30706183 -115.11428521 91.70211112 -109.30859375 87.18359375 C-104.63900995 83.535149 -100.06359115 79.77986172 -95.5 76 C-90.38521235 71.76360164 -85.24110156 67.5791878 -80 63.5 C-73.92202265 58.76866679 -67.97277719 53.89119525 -62.03735352 48.98266602 C-57.60287925 45.31615357 -53.14181665 41.68897741 -48.63671875 38.109375 C-45.85177399 35.88141919 -43.0863634 33.63067328 -40.32226562 31.37695312 C-34.0100381 26.23079214 -27.66768107 21.13058255 -21.24829102 16.11865234 C-18.09005112 13.65061181 -14.94975885 11.16268813 -11.828125 8.6484375 C-10.7918396 7.81421265 -10.7918396 7.81421265 -9.73461914 6.96313477 C-8.39099694 5.87974423 -7.04898089 4.79435809 -5.70874023 3.70678711 C-1.10961269 0 -1.10961269 0 0 0 Z " fill="#CC001C" transform="translate(397,674)"/>
<path d="M0 0 C5.5221827 4.06291968 10.85979583 8.29818961 16.125 12.6875 C21.36326651 17.02986752 26.62935033 21.32239398 32 25.5 C37.98734034 30.1596074 43.84094081 34.96933023 49.68359375 39.80859375 C54.07421472 43.43700927 58.50515707 47.00170424 63 50.5 C68.98720458 55.1597874 74.84093469 59.96932515 80.68359375 64.80859375 C85.07421472 68.43700927 89.50515707 72.00170424 94 75.5 C99.98720458 80.1597874 105.84093469 84.96932515 111.68359375 89.80859375 C116.07421472 93.43700927 120.50515707 97.00170424 125 100.5 C130.98720458 105.1597874 136.84093469 109.96932515 142.68359375 114.80859375 C147.07421472 118.43700927 151.50515707 122.00170424 156 125.5 C161.98720458 130.1597874 167.84093469 134.96932515 173.68359375 139.80859375 C178.07421472 143.43700927 182.50515707 147.00170424 187 150.5 C192.98720458 155.1597874 198.84093469 159.96932515 204.68359375 164.80859375 C209.61669453 168.88531537 214.61287086 172.86678025 219.66503906 176.79443359 C225.36808702 181.24675547 230.9350579 185.86158573 236.4921875 190.49414062 C237.18054687 191.06583984 237.86890625 191.63753906 238.578125 192.2265625 C239.19075195 192.73783691 239.80337891 193.24911133 240.43457031 193.77587891 C241.99733934 195.08144984 241.99733934 195.08144984 244 196 C243.48250428 201.95608281 240.98587257 206.63539474 238.3125 211.875 C237.58317261 213.31552734 237.58317261 213.31552734 236.83911133 214.78515625 C225.96293881 235.97219384 213.2784633 256.24423753 200 276 C197.26951538 274.72217784 194.99594754 273.33406328 192.671875 271.41796875 C192.04522949 270.90476074 191.41858398 270.39155273 190.77294922 269.86279297 C190.10537598 269.30994629 189.43780273 268.75709961 188.75 268.1875 C187.30994519 267.00645023 185.8698396 265.82546239 184.4296875 264.64453125 C183.32705566 263.73695068 183.32705566 263.73695068 182.20214844 262.81103516 C178.7690161 259.98764539 175.32338057 257.17973345 171.875 254.375 C171.21008545 253.83375488 170.5451709 253.29250977 169.86010742 252.73486328 C165.62878032 249.29868837 161.36065855 245.91454627 157.0625 242.5625 C151.0572272 237.87911012 145.18150514 233.04919027 139.31665039 228.19165039 C134.92598271 224.56311013 130.49493356 220.9983663 126 217.5 C120.01279542 212.8402126 114.15906531 208.03067485 108.31640625 203.19140625 C103.92578528 199.56299073 99.49484293 195.99829576 95 192.5 C89.01279542 187.8402126 83.15906531 183.03067485 77.31640625 178.19140625 C72.92578528 174.56299073 68.49484293 170.99829576 64 167.5 C58.01279542 162.8402126 52.15906531 158.03067485 46.31640625 153.19140625 C41.92578528 149.56299073 37.49484293 145.99829576 33 142.5 C27.01279542 137.8402126 21.15906531 133.03067485 15.31640625 128.19140625 C10.37807709 124.11036389 5.37528494 120.12647481 0.31958008 116.19238281 C-5.20403301 111.87718358 -10.59883043 107.41040571 -15.99780273 102.94091797 C-20.92708404 98.86595423 -25.90212496 94.8633469 -31 91 C-30.5153125 90.06542969 -30.030625 89.13085938 -29.53125 88.16796875 C-15.11930955 60.0743122 -5.66416207 31.01221952 0 0 Z " fill="#CC001C" transform="translate(887,674)"/>
<path d="M0 0 C6.98803925 4.93273359 13.10460083 10.60408911 19.32861328 16.44189453 C21.4290089 18.39993205 23.55456558 20.32913365 25.68188477 22.2578125 C33.51852767 29.37394681 41.13232924 36.66678547 48.0078125 44.7265625 C49.63969931 46.58883333 51.29936293 48.40476819 52.9921875 50.2109375 C53.5279541 50.78352295 54.0637207 51.3561084 54.61572266 51.94604492 C55.68213084 53.08238935 56.75197068 54.21552586 57.82568359 55.3449707 C60.67074768 58.38281862 63.00158481 61.31114456 65 65 C64.20980469 65.55945313 63.41960937 66.11890625 62.60546875 66.6953125 C54.77963002 72.25260372 47.03160809 77.9083116 39.31323242 83.61376953 C33.90028477 87.61087404 28.46148995 91.56952773 23 95.5 C16.80341871 99.96015427 10.64016025 104.46249169 4.5 109 C-1.64016269 113.53751011 -7.80354661 118.03966576 -14 122.5 C-23.38780773 129.25983749 -32.69696495 136.12417344 -42 143 C-52.0401124 150.42059673 -62.09797508 157.81196039 -72.23071289 165.10571289 C-77.68106937 169.0339888 -83.09683174 173.00712036 -88.5 177 C-94.64016269 181.53751011 -100.80354661 186.03966576 -107 190.5 C-116.38780773 197.25983749 -125.69696495 204.12417344 -135 211 C-140.52853452 215.08611214 -146.06070373 219.16711528 -151.60205078 223.23583984 C-153.2482792 224.44696248 -154.89237544 225.66098701 -156.53466797 226.87744141 C-159.01832012 228.7165685 -161.50845293 230.54658893 -164 232.375 C-165.13997437 233.22396851 -165.13997437 233.22396851 -166.30297852 234.09008789 C-167.00737061 234.60434326 -167.7117627 235.11859863 -168.4375 235.6484375 C-169.05496094 236.10395996 -169.67242188 236.55948242 -170.30859375 237.02880859 C-172 238 -172 238 -175 238 C-176.65625 236.56640625 -176.65625 236.56640625 -178.5 234.5625 C-183.32589127 229.58009334 -188.52625874 225.24857173 -194 221 C-194.66402832 220.48131348 -195.32805664 219.96262695 -196.01220703 219.42822266 C-213.70939801 205.70427509 -232.63312602 195.21746525 -253 186 C-249.53378226 182.3611109 -246.02105735 179.44475915 -241.875 176.5625 C-240.6266102 175.68631033 -239.37927178 174.80862134 -238.1328125 173.9296875 C-237.13362793 173.22537598 -237.13362793 173.22537598 -236.11425781 172.50683594 C-232.29083661 169.7818757 -228.52334942 166.98116329 -224.75 164.1875 C-218.52707097 159.58667034 -212.28146555 155.02058439 -206 150.5 C-199.80341871 146.03984573 -193.64016025 141.53750831 -187.5 137 C-181.35983731 132.46248989 -175.19645339 127.96033424 -169 123.5 C-159.61219227 116.74016251 -150.30303505 109.87582656 -141 103 C-130.9598876 95.57940327 -120.90202492 88.18803961 -110.76928711 80.89428711 C-105.31893063 76.9660112 -99.90316826 72.99287964 -94.5 69 C-88.35983731 64.46248989 -82.19645339 59.96033424 -76 55.5 C-66.61219227 48.74016251 -57.30303505 41.87582656 -48 35 C-36.37533579 26.40826897 -24.71120811 17.87693161 -12.98144531 9.42919922 C-8.64384774 6.30052793 -4.32157533 3.15075206 0 0 Z " fill="#CC001C" transform="translate(990,227)"/>
<path d="M0 0 C3.65919421 1.65765906 6.82319013 3.90424474 10.0625 6.25 C10.96790527 6.90101685 10.96790527 6.90101685 11.89160156 7.56518555 C17.85759971 11.86854078 23.77216831 16.24200447 29.68774414 20.61425781 C35.10015914 24.61148278 40.53880119 28.56973725 46 32.5 C53.00219604 37.54001692 59.95613336 42.64213444 66.89453125 47.76953125 C72.23857821 51.71415511 77.60918549 55.61958115 83 59.5 C93.19356463 66.84003533 103.29401627 74.30454606 113.39550781 81.77050781 C122.63804661 88.59965419 131.9038828 95.3920693 141.23071289 102.10571289 C147.4862521 106.61431413 153.69318346 111.18680605 159.89453125 115.76953125 C165.23857821 119.71415511 170.60918549 123.61958115 176 127.5 C186.19356463 134.84003533 196.29401627 142.30454606 206.39550781 149.77050781 C215.04517373 156.16159103 223.70962234 162.52850186 232.4375 168.8125 C237.66366067 172.58001244 242.88705992 176.35046753 248.0625 180.1875 C249.00222656 180.88230469 249.94195313 181.57710937 250.91015625 182.29296875 C253 184 253 184 254 186 C252.30745442 186.84627279 250.61487133 187.69247063 248.92211914 188.53833008 C247.45711367 189.27124447 245.99277193 190.00548692 244.52905273 190.7409668 C241.3200716 192.35158873 238.11048131 193.94785502 234.86328125 195.48046875 C215.27068074 204.79856746 197.36681579 218.54697289 181.54296875 233.2890625 C180.84816406 233.93617188 180.15335938 234.58328125 179.4375 235.25 C178.85871094 235.81203125 178.27992188 236.3740625 177.68359375 236.953125 C176 238 176 238 174.13720703 237.73217773 C171.74382986 236.91223963 170.14120269 235.852027 168.12109375 234.33203125 C167.374646 233.77572021 166.62819824 233.21940918 165.85913086 232.64624023 C165.05999268 232.04110596 164.26085449 231.43597168 163.4375 230.8125 C161.71885186 229.52850948 160.00009895 228.24465919 158.28125 226.9609375 C157.40339844 226.3019043 156.52554688 225.64287109 155.62109375 224.96386719 C151.57606335 221.93310857 147.50760361 218.93445732 143.4375 215.9375 C142.65238037 215.35846924 141.86726074 214.77943848 141.05834961 214.18286133 C134.99059219 209.71329395 128.88566325 205.2969801 122.76928711 200.89428711 C116.5137479 196.38568587 110.30681654 191.81319395 104.10546875 187.23046875 C98.76142179 183.28584489 93.39081451 179.38041885 88 175.5 C77.80643537 168.15996467 67.70598373 160.69545394 57.60449219 153.22949219 C49.09906265 146.94498265 40.58191379 140.67980365 32 134.5 C21.80658134 127.15975779 11.70598709 119.69545642 1.60449219 112.22949219 C-7.63297912 105.40409009 -16.89378656 98.61547126 -26.21533203 91.90527344 C-32.62531996 87.28513298 -38.98880307 82.60347313 -45.3449707 77.90966797 C-51.21008142 73.5786797 -57.09324663 69.27410019 -63 65 C-61.4186938 61.26077871 -59.06769602 58.70350263 -56.3125 55.75 C-55.48363281 54.85796875 -54.65476563 53.9659375 -53.80078125 53.046875 C-53.1214856 52.31682251 -53.1214856 52.31682251 -52.4284668 51.57202148 C-50.9261846 49.91876648 -49.48601696 48.22136375 -48.0390625 46.51953125 C-42.95448887 40.68667752 -37.42651613 35.27758754 -31.94848633 29.81811523 C-30.06671726 27.94170525 -28.19035262 26.06001031 -26.31445312 24.17773438 C-20.38030766 18.24019763 -14.43745372 12.39770347 -8 7 C-6.74703125 5.90365234 -6.74703125 5.90365234 -5.46875 4.78515625 C-3.64583333 3.19010417 -1.82291667 1.59505208 0 0 Z " fill="#CC001C" transform="translate(292,227)"/>
<path d="M0 0 C23.98671762 -0.57325839 47.22606662 0.68249479 65.85009766 17.73095703 C78.31104015 30.93247233 79.66709759 48.70431869 79.26416016 65.86767578 C78.71822073 81.03718661 75.40194973 94.75940797 64.45947266 105.90283203 C49.51941052 119.41426586 32.03096894 123.63990618 12.29931641 123.27001953 C7.59681641 123.20814453 2.89431641 123.14626953 -1.95068359 123.08251953 C-1.95068359 142.22251953 -1.95068359 161.36251953 -1.95068359 181.08251953 C-12.08690982 184.46126161 -12.08690982 184.46126161 -16.32568359 184.44580078 C-17.24865234 184.44515625 -18.17162109 184.44451172 -19.12255859 184.44384766 C-20.05583984 184.42773438 -20.98912109 184.41162109 -21.95068359 184.39501953 C-23.35060547 184.39985352 -23.35060547 184.39985352 -24.77880859 184.40478516 C-31.01292106 184.35689742 -35.58396306 183.49734632 -41.95068359 182.08251953 C-41.95068359 123.34251953 -41.95068359 64.60251953 -41.95068359 4.08251953 C-13.55839319 0.3791773 -13.55839319 0.3791773 0 0 Z " fill="#00619E" transform="translate(655.95068359375,133.91748046875)"/>
<path d="M0 0 C14.19 0 28.38 0 43 0 C44.78645066 4.76386843 46.41368447 9.15900788 47.75 14 C49.58096415 20.53416597 51.46795606 27.05012583 53.375 33.5625 C55.65095533 41.34690044 57.90447673 49.1371076 60.125 56.9375 C62.26181661 64.44112371 64.43926482 71.9314657 66.6484375 79.4140625 C70.46047217 92.3310176 74.23083045 105.26057036 77.9140625 118.21484375 C79.38327237 123.33593857 80.88001477 128.44887974 82.375 133.5625 C84.93627247 142.32337239 87.46818196 151.09197311 89.95849609 159.87329102 C90.18359863 160.66533936 90.40870117 161.4573877 90.640625 162.2734375 C90.85912109 163.04268555 91.07761719 163.81193359 91.30273438 164.60449219 C92.30176034 168.03672005 93.36804609 171.44794833 94.44042969 174.85791016 C95 177 95 177 95 180 C88.25992605 182.03336365 82.01695063 182.33421086 75 182.3125 C73.43765625 182.33666992 73.43765625 182.33666992 71.84375 182.36132812 C65.59092155 182.36527562 60.44536809 182.23628126 55 179 C53.39487228 176.14418313 52.7593642 173.16811299 52 170 C51.40931032 168.20512312 50.80066037 166.41607451 50.17578125 164.6328125 C49.55465255 162.79688682 48.93355909 160.96094922 48.3125 159.125 C47.99216797 158.18914062 47.67183594 157.25328125 47.34179688 156.2890625 C47.03951172 155.391875 46.73722656 154.4946875 46.42578125 153.5703125 C46.01453003 152.36012451 46.01453003 152.36012451 45.5949707 151.12548828 C45 149 45 149 45 146 C44.14921875 146.2165625 43.2984375 146.433125 42.421875 146.65625 C26.64519743 150.2815291 8.55323658 151.07170758 -7 146 C-7.4349715 147.59372935 -7.86984617 149.18748513 -8.3046875 150.78125 C-8.58022461 151.78671875 -8.85576172 152.7921875 -9.13964844 153.828125 C-9.68984882 155.85655957 -10.23050867 157.88762155 -10.75878906 159.921875 C-11.5108028 162.7926654 -12.31386096 165.64541454 -13.125 168.5 C-13.36992187 169.47453125 -13.61484375 170.4490625 -13.8671875 171.453125 C-15.8341702 178.17055648 -15.8341702 178.17055648 -18.84033203 180.30932617 C-24.83665017 182.59008062 -31.29502254 182.41552698 -37.625 182.3125 C-39.12160156 182.31733398 -39.12160156 182.31733398 -40.6484375 182.32226562 C-46.14631197 182.28226786 -50.80648659 181.8257309 -56 180 C-54.74854053 172.18492597 -52.43392728 164.87147139 -49.86203003 157.3991394 C-48.71117218 154.05226379 -47.58232418 150.69798326 -46.453125 147.34375 C-46.23317368 146.69135849 -46.01322235 146.03896698 -45.78660583 145.36680603 C-44.23606657 140.75030092 -42.77341214 136.1202236 -41.4375 131.4375 C-36.13926492 112.91391767 -30.24114424 94.57576574 -24.09472656 76.31835938 C-21.9124021 69.81169276 -19.83937604 63.29564466 -17.94775391 56.69921875 C-12.47006796 37.64479565 -6.34974448 18.77903155 0 0 Z " fill="#01629E" transform="translate(503,136)"/>
<path d="M0 0 C34.98 0 69.96 0 106 0 C106 12.87 106 25.74 106 39 C85.21 39 64.42 39 43 39 C43 49.56 43 60.12 43 71 C58.51 71 74.02 71 90 71 C90 83.54 90 96.08 90 109 C74.16 109 58.32 109 42 109 C42 132.76 42 156.52 42 181 C34.93288976 184.53355512 27.88069082 184.21221344 20.125 184.25 C19.07441406 184.270625 18.02382813 184.29125 16.94140625 184.3125 C15.91144531 184.31765625 14.88148438 184.3228125 13.8203125 184.328125 C12.89492676 184.3374707 11.96954102 184.34681641 11.01611328 184.35644531 C8 184 8 184 0 181 C0 121.27 0 61.54 0 0 Z " fill="#02629F" transform="translate(750,134)"/>
<path d="M0 0 C2.60903439 1.06491199 5.18077598 2.18036426 7.75390625 3.328125 C8.96542358 3.86808105 8.96542358 3.86808105 10.20141602 4.41894531 C10.81557373 4.69319336 11.42973145 4.96744141 12.0625 5.25 C12.36145394 26.92646038 12.49965838 48.51091896 10.625 70.125 C10.52377335 71.29704483 10.52377335 71.29704483 10.42050171 72.49276733 C9.83689321 79.11428008 9.22392696 85.69967714 8.0625 92.25 C6.70701156 91.81661254 5.35318724 91.37802005 4 90.9375 C3.24589844 90.69386719 2.49179687 90.45023438 1.71484375 90.19921875 C-1.55820136 89.02786387 -4.74224509 87.61939496 -7.9375 86.25 C-7.6075 79.98 -7.2775 73.71 -6.9375 67.25 C-9.04125 67.188125 -9.04125 67.188125 -11.1875 67.125 C-17.88689896 66.48559867 -23.13149431 63.45947822 -28.9375 60.25 C-30.2575 59.59 -31.5775 58.93 -32.9375 58.25 C-37.8875 64.685 -37.8875 64.685 -42.9375 71.25 C-47.10831442 70.41583712 -49.97280861 69.46232487 -53.75 67.6875 C-54.72582031 67.23246094 -55.70164062 66.77742188 -56.70703125 66.30859375 C-57.81111328 65.78458984 -57.81111328 65.78458984 -58.9375 65.25 C-56.65175079 61.14776135 -53.87775495 57.65753888 -50.8125 54.125 C-49.82210797 52.97074549 -48.83253655 51.81578639 -47.84375 50.66015625 C-47.35261719 50.08668457 -46.86148437 49.51321289 -46.35546875 48.92236328 C-44.30205212 46.50054787 -42.30791973 44.03218322 -40.3125 41.5625 C-36.68915505 37.11096192 -32.91786128 32.82617545 -29.0546875 28.58203125 C-27.15698831 26.49176111 -25.29016585 24.38013885 -23.4375 22.25 C-19.32196818 17.53567256 -15.15794901 12.870664 -10.9375 8.25 C-10.23109375 7.44175781 -9.5246875 6.63351562 -8.796875 5.80078125 C-3.78687336 0.32228709 -3.78687336 0.32228709 0 0 Z " fill="#03639F" transform="translate(482.9375,1069.75)"/>
<path d="M0 0 C15.46600273 4.53313873 29.82022531 11.65618082 38 26 C40.36525047 30.73050094 39.56399681 36.88678361 39 42 C37.50306057 46.06383892 35.47597578 49.46035921 33 53 C32.39091797 53.92619141 32.39091797 53.92619141 31.76953125 54.87109375 C28.06997333 59.93431124 22.76594874 62.07801709 17 64 C8.01711899 65.14157446 0.31689537 61.80392013 -7.5 57.6875 C-10.86038418 55.5663167 -10.86038418 55.5663167 -14 57 C-15.53119194 59.0902441 -15.53119194 59.0902441 -16.91796875 61.69140625 C-17.44970703 62.63564453 -17.98144531 63.57988281 -18.52929688 64.55273438 C-19.35010742 66.04256836 -19.35010742 66.04256836 -20.1875 67.5625 C-20.74630859 68.55958984 -21.30511719 69.55667969 -21.88085938 70.58398438 C-23.26220405 73.05151461 -24.63478849 75.52351834 -26 78 C-29.60260955 76.60933499 -32.62407815 75.06406575 -35.8125 72.875 C-36.60269531 72.33617187 -37.39289063 71.79734375 -38.20703125 71.2421875 C-38.79871094 70.83226562 -39.39039063 70.42234375 -40 70 C-38.65544302 66.45565573 -37.08771656 63.19200807 -35.234375 59.88671875 C-34.68096436 58.89784668 -34.12755371 57.90897461 -33.55737305 56.89013672 C-32.96093994 55.8332666 -32.36450684 54.77639648 -31.75 53.6875 C-31.1310083 52.58680176 -30.5120166 51.48610352 -29.87426758 50.35205078 C-21.67119651 35.81094944 -13.25304581 21.39294488 -4.6875 7.0625 C-4.32035889 6.44745605 -3.95321777 5.83241211 -3.57495117 5.19873047 C-1.12343318 1.12343318 -1.12343318 1.12343318 0 0 Z " fill="#04639F" transform="translate(407,1033)"/>
<path d="M0 0 C1.48831242 0.00667405 2.97660807 0.01863442 4.46484375 0.03515625 C5.22345703 0.03966797 5.98207031 0.04417969 6.76367188 0.04882812 C8.64326246 0.06064945 10.52281274 0.07858547 12.40234375 0.09765625 C19.78617205 20.33218572 24.73852149 41.45576474 29.33984375 62.47265625 C29.48927429 63.15206268 29.63870483 63.83146912 29.79266357 64.53146362 C31.28831369 71.36621264 32.70576242 78.13184292 33.40234375 85.09765625 C31.88161705 85.12519456 30.36073701 85.14429 28.83984375 85.16015625 C27.99292969 85.17175781 27.14601563 85.18335938 26.2734375 85.1953125 C22.96470579 85.0827706 19.67971523 84.56585218 16.40234375 84.09765625 C15.08234375 78.15765625 13.76234375 72.21765625 12.40234375 66.09765625 C10.71625 65.96488281 9.03015625 65.83210938 7.29296875 65.6953125 C5.07941295 65.5171025 2.86587205 65.33870745 0.65234375 65.16015625 C-0.45882812 65.07314453 -1.57 64.98613281 -2.71484375 64.89648438 C-3.78476562 64.80947266 -4.8546875 64.72246094 -5.95703125 64.6328125 C-6.94155273 64.55426025 -7.92607422 64.47570801 -8.94042969 64.39477539 C-11.25100565 64.13641716 -13.36503508 63.72992345 -15.59765625 63.09765625 C-15.77941406 63.65453125 -15.96117187 64.21140625 -16.1484375 64.78515625 C-17.8462781 69.93962616 -19.6618786 75.0277624 -21.59765625 80.09765625 C-23.49340876 80.12486801 -25.38927604 80.14414761 -27.28515625 80.16015625 C-28.86876953 80.17755859 -28.86876953 80.17755859 -30.484375 80.1953125 C-33.32175887 80.1063105 -35.84154815 79.74705463 -38.59765625 79.09765625 C-36.38609468 72.17047467 -33.79081833 65.4865911 -30.97265625 58.78515625 C-30.53099121 57.73191162 -30.08932617 56.67866699 -29.63427734 55.59350586 C-23.49196482 41.02007277 -16.92157403 26.67641569 -10.09765625 12.41015625 C-9.56865723 11.30357666 -9.0396582 10.19699707 -8.49462891 9.05688477 C-8.00269043 8.03522217 -7.51075195 7.01355957 -7.00390625 5.9609375 C-6.56369141 5.04610596 -6.12347656 4.13127441 -5.66992188 3.1887207 C-4.09174906 0.11106811 -4.09174906 0.11106811 0 0 Z " fill="#04649F" transform="translate(608.59765625,1101.90234375)"/>
<path d="M0 0 C1.83984375 2.01171875 1.83984375 2.01171875 3.9375 4.6875 C6.97464442 8.49987676 10.05136228 12.24307206 13.25756836 15.9140625 C24.02256659 28.2551565 33.66953925 41.45845127 43.33154297 54.66870117 C45.6325016 57.81177707 47.9275678 60.91190361 50.40234375 63.921875 C52 66 52 66 52 68 C49.73117913 68.83919398 47.46022973 69.67151724 45.1875 70.5 C44.22360352 70.85771484 44.22360352 70.85771484 43.24023438 71.22265625 C40.35066261 72.27068746 38.09923939 73 35 73 C33.29939257 70.86175784 31.79794342 68.77910139 30.3125 66.5 C29.89677734 65.87996094 29.48105469 65.25992187 29.05273438 64.62109375 C28.02596494 63.08684057 27.01177775 61.54418071 26 60 C20.845376 60.8400128 16.34040952 62.83280381 11.546875 64.84375 C8 66 8 66 -1 67 C-1 73.27 -1 79.54 -1 86 C-3.26875 86.825 -5.5375 87.65 -7.875 88.5 C-8.58769043 88.76103516 -9.30038086 89.02207031 -10.03466797 89.29101562 C-14.77777778 91 -14.77777778 91 -17 91 C-17.02321736 80.83784978 -17.04096289 70.67570593 -17.05181217 60.51353455 C-17.05702048 55.79433248 -17.06408073 51.07514862 -17.07543945 46.35595703 C-17.08634142 41.79776837 -17.09229229 37.23959718 -17.09487724 32.68139648 C-17.09671835 30.94636765 -17.10031349 29.21133972 -17.10573006 27.47631836 C-17.1130376 25.03757699 -17.11398687 22.59890689 -17.11352539 20.16015625 C-17.1189183 19.09523705 -17.1189183 19.09523705 -17.12442017 18.00880432 C-17.11473725 13.24917343 -16.66412501 8.70230855 -16 4 C-14.3962669 3.35309078 -12.79199694 2.70751236 -11.1875 2.0625 C-9.84751953 1.52302734 -9.84751953 1.52302734 -8.48046875 0.97265625 C-3.2431259 -1.08104197 -3.2431259 -1.08104197 0 0 Z " fill="#03629F" transform="translate(822,1076)"/>
<path d="M0 0 C14.49017651 0.57406437 31.03687347 1.92948205 42.0625 12.625 C42.701875 13.40875 43.34125 14.1925 44 15 C44.5775 15.680625 45.155 16.36125 45.75 17.0625 C49.27259569 22.52252332 48.59114804 29.79294558 48 36 C46.13811582 43.3692332 43.39139392 48.68612391 37.0625 53.01171875 C34.72729176 54.1306727 32.54975872 54.59717354 30 55 C30.16604736 55.57331055 30.33209473 56.14662109 30.50317383 56.73730469 C39 86.12695109 39 86.12695109 39 92 C37.40137256 91.79148338 35.80356238 91.57448837 34.2109375 91.32421875 C32.61835694 91.09067778 31.01732077 90.91241983 29.4140625 90.76953125 C28.09535156 90.60517578 28.09535156 90.60517578 26.75 90.4375 C25.50476563 90.31181641 25.50476563 90.31181641 24.234375 90.18359375 C21.25004379 88.60273299 20.69913383 86.64123389 19.69287109 83.51635742 C18.31650892 78.51770876 17.10149769 73.48942858 15.9375 68.4375 C13.67050889 58.66595389 13.67050889 58.66595389 11 49 C11.88042969 48.48050781 12.76085937 47.96101563 13.66796875 47.42578125 C14.84137568 46.72173709 16.0145399 46.01728832 17.1875 45.3125 C17.76564453 44.97283203 18.34378906 44.63316406 18.93945312 44.28320312 C23.32981835 41.62914053 27.6458294 38.7083412 30 34 C30.31128861 31.92779161 30.31128861 31.92779161 30.375 29.625 C30.42398438 28.85414062 30.47296875 28.08328125 30.5234375 27.2890625 C29.72867896 23.81347666 27.95443974 22.88479736 25 21 C21.67604717 19.6819913 21.67604717 19.6819913 18.1875 18.75 C16.44533203 18.24726562 16.44533203 18.24726562 14.66796875 17.734375 C13.78753906 17.49203125 12.90710938 17.2496875 12 17 C11.86948242 18.15669189 11.73896484 19.31338379 11.60449219 20.50512695 C11.07874075 24.6971606 10.26128383 28.79934499 9.328125 32.91796875 C9.16528015 33.64991959 9.0024353 34.38187042 8.83465576 35.13600159 C8.31027785 37.48737948 7.78035555 39.83746385 7.25 42.1875 C6.88785971 43.8043259 6.52588126 45.42118806 6.1640625 47.03808594 C3.54409653 58.71634166 0.83856625 70.37279593 -2 82 C-3.41575574 81.85935198 -4.83103118 81.71386511 -6.24609375 81.56640625 C-7.0342749 81.48592041 -7.82245605 81.40543457 -8.63452148 81.32250977 C-11.89348172 80.87818254 -14.86984856 79.9989845 -18 79 C-17.38686314 73.46936599 -16.45970038 68.15408439 -15.1796875 62.7421875 C-15.00011505 61.96821121 -14.8205426 61.19423492 -14.63552856 60.39680481 C-14.05260287 57.88860516 -13.46394162 55.38179323 -12.875 52.875 C-12.46971852 51.13785448 -12.0647738 49.40063036 -11.66015625 47.66333008 C-10.84025092 44.14535422 -10.01808702 40.62791709 -9.19433594 37.11083984 C-8.08102027 32.35340543 -6.98021133 27.59315806 -5.8828125 22.83203125 C-5.40607601 20.76875106 -4.92900524 18.70554861 -4.45172119 16.64239502 C-4.00677028 14.71679946 -3.56367348 12.79077577 -3.12060547 10.86474609 C-2.85393066 9.71699707 -2.58725586 8.56924805 -2.3125 7.38671875 C-1.96638672 5.88951294 -1.96638672 5.88951294 -1.61328125 4.36206055 C-1 2 -1 2 0 0 Z " fill="#04639F" transform="translate(523,1087)"/>
<path d="M0 0 C9.55820237 43.83308417 9.55820237 43.83308417 9.5625 58.5625 C9.56467529 59.32127441 9.56685059 60.08004883 9.5690918 60.86181641 C9.33770827 68.46540848 6.8945491 74.86723567 1.73046875 80.46484375 C-5.57261036 86.94364757 -15.50782644 88.56612977 -24.96875 88.375 C-31.5212469 87.56438183 -36.89111724 84.55896426 -41.375 79.75 C-50.8580636 67.27509661 -51.67978567 49.59532251 -54.21704102 34.59155273 C-54.69327115 31.77840916 -55.17545205 28.966328 -55.65820312 26.15429688 C-55.96389087 24.35943444 -56.26924217 22.56451466 -56.57421875 20.76953125 C-56.71792404 19.93210892 -56.86162933 19.09468658 -57.00968933 18.23188782 C-57.53331574 15.11957564 -58 12.16224252 -58 9 C-56.27192682 8.66104344 -54.54248026 8.32908475 -52.8125 8 C-51.84957031 7.814375 -50.88664063 7.62875 -49.89453125 7.4375 C-47.20131375 7.03042799 -44.71612318 6.96797497 -42 7 C-40.28844469 15.21499913 -38.72829676 23.43732271 -37.3515625 31.71484375 C-37.06545743 33.40696081 -36.77899565 35.09901759 -36.4921875 36.79101562 C-36.05356071 39.37866727 -35.6203055 41.9666586 -35.203125 44.55786133 C-34.7897882 47.11323001 -34.35393375 49.6639262 -33.9140625 52.21484375 C-33.79616364 52.97957504 -33.67826477 53.74430634 -33.55679321 54.5322113 C-32.56773722 60.09613941 -30.56575954 64.57746023 -27 69 C-23.25816125 71.49455917 -21.43756964 71.37606522 -17 71 C-12.79017815 69.38083775 -10.33529169 67.85409496 -8 64 C-6.21676971 53.1301856 -9.43896887 41.4010525 -11.4375 30.75 C-11.92966931 28.07732457 -12.41854102 25.40408688 -12.90455627 22.73028564 C-13.20530468 21.08103349 -13.50997093 19.43248861 -13.81944275 17.78485107 C-14.78908879 12.53620658 -15.46146189 7.31075841 -16 2 C-10.50690995 0.64785476 -5.69981632 -0.04674375 0 0 Z " fill="#04639F" transform="translate(778,1091)"/>
<path d="M0 0 C-0.28256092 1.93884889 -0.5763793 3.87605961 -0.875 5.8125 C-1.03742187 6.89144531 -1.19984375 7.97039062 -1.3671875 9.08203125 C-2 12 -2 12 -4 15 C-4.68964844 14.7834375 -5.37929688 14.566875 -6.08984375 14.34375 C-15.47281333 11.56361086 -23.98177949 10.34204533 -33 15 C-37.81311951 18.86454851 -39.57403882 24.13964472 -40.23754883 30.15283203 C-40.87958415 41.04278393 -41.00824502 52.19548154 -33.37890625 60.8359375 C-27.01619599 65.78927323 -21.44167516 64 -13 64 C-13 54.43 -13 44.86 -13 35 C-7.72 35 -2.44 35 3 35 C3.495 55.295 3.495 55.295 4 76 C-7.93985824 81.1170821 -22.93458306 84.09701561 -35.625 79.375 C-37.8984375 78.25 -37.8984375 78.25 -40 77 C-40.71414063 76.5875 -41.42828125 76.175 -42.1640625 75.75 C-51.14424513 69.83047887 -55.2555886 59.8527353 -57.5168457 49.67333984 C-59.74320586 37.35467197 -59.47390611 23.90243319 -53 13 C-52.401875 11.906875 -51.80375 10.81375 -51.1875 9.6875 C-38.39127057 -6.03358187 -17.96398268 -9.72168474 0 0 Z " fill="#04639F" transform="translate(711,1107)"/>
<path d="M0 0 C1.93454681 3.86909361 2.2337968 4.98861642 2.12841797 9.06201172 C2.10955536 10.07182098 2.09069275 11.08163025 2.07125854 12.12203979 C2.03211838 13.75932541 2.03211838 13.75932541 1.9921875 15.4296875 C1.97347242 17.77732115 1.95795879 20.12498206 1.9453125 22.47265625 C1.91907385 26.14655318 1.87659234 29.8160754 1.77734375 33.48876953 C1.33649719 51.04356706 3.75476387 63.1860673 13.6892395 77.85916138 C15.09923156 80.1620729 16.06352759 82.47180468 17 85 C14.87767021 86.17176518 12.75242209 87.33754785 10.625 88.5 C10.02171875 88.83386719 9.4184375 89.16773438 8.796875 89.51171875 C4.2265625 92 4.2265625 92 2 92 C1.70158203 91.26587891 1.40316406 90.53175781 1.09570312 89.77539062 C-6.82269881 70.98536405 -14.86250505 61.04314272 -32.98339844 50.78955078 C-37.84418897 47.9059643 -42.3126674 44.53526566 -46.8125 41.125 C-48.3394437 39.98123657 -49.86675227 38.83795997 -51.39453125 37.6953125 C-52.02206299 37.22109863 -52.64959473 36.74688477 -53.29614258 36.25830078 C-54.83047136 35.12519711 -56.41296603 34.05802265 -58 33 C-56.79535529 29.38606586 -55.41042207 28.84385014 -52.13085938 27.15039062 C-51.48955078 26.83263672 -50.84824219 26.51488281 -50.1875 26.1875 C-49.55779297 25.85041016 -48.92808594 25.51332031 -48.27929688 25.16601562 C-46.41796875 24.23046875 -46.41796875 24.23046875 -43 23 C-40.17985031 24.071499 -37.99565391 25.66757796 -35.6796875 27.57421875 C-35.06617432 28.07405273 -34.45266113 28.57388672 -33.82055664 29.08886719 C-33.17852295 29.61641602 -32.53648926 30.14396484 -31.875 30.6875 C-26.08499836 35.38953767 -20.20588417 39.85300917 -14 44 C-13.8808796 31.94236848 -14.17729546 20.03205383 -15 8 C-10.05 5.36 -5.1 2.72 0 0 Z " fill="#04639F" transform="translate(900,1037)"/>
<path d="M0 0 C24.67567568 0 24.67567568 0 33 7 C39.02694767 15.0685966 39.72372693 22.02515488 39 32 C37.59083816 39.17146692 34.92576769 43.91689262 29.29296875 48.5625 C18.77375148 55.15717114 14.34841092 53 0 53 C0 35.51 0 18.02 0 0 Z " fill="#FCFDFE" transform="translate(654,169)"/>
<path d="M0 0 C0.66 0 1.32 0 2 0 C6.01823087 16.25096581 9.98564136 32.5064573 13.5 48.875 C13.75475098 50.05545898 14.00950195 51.23591797 14.27197266 52.45214844 C16 60.61153754 16 60.61153754 16 64 C12.3992147 65.63845472 9.60392449 66.2483808 5.65625 66.23046875 C4.65722656 66.22853516 3.65820312 66.22660156 2.62890625 66.22460938 C1.59636719 66.21236328 0.56382812 66.20011719 -0.5 66.1875 C-1.53253906 66.18685547 -2.56507813 66.18621094 -3.62890625 66.18554688 C-8.24115609 66.15876607 -12.48577293 66.02017868 -17 65 C-15.65728051 58.82938028 -14.22053758 52.68854747 -12.6875 46.5625 C-12.4709375 45.69705566 -12.254375 44.83161133 -12.03125 43.93994141 C-10.03323229 36.02149696 -7.86760786 28.1553111 -5.64697266 20.296875 C-4.48161833 16.15964725 -3.33598668 12.01693517 -2.1875 7.875 C-1.76440314 6.35154022 -1.34123386 4.82810055 -0.91796875 3.3046875 C-0.46357422 1.66886719 -0.46357422 1.66886719 0 0 Z " fill="#F8FBFC" transform="translate(522,187)"/>
<path d="M0 0 C11.49730562 5.04541955 11.49730562 5.04541955 15 11 C15.80577462 16.0763801 15.53881194 18.70553503 12.625 22.9375 C11.10379221 24.89016147 10.22849647 25.88575176 8 27 C-0.29470099 27.66357608 -5.75009984 25.23348041 -12 20 C-10.19004458 16.85269603 -8.37661168 13.70740984 -6.5625 10.5625 C-5.7880957 9.21575195 -5.7880957 9.21575195 -4.99804688 7.84179688 C-4.50498047 6.98779297 -4.01191406 6.13378906 -3.50390625 5.25390625 C-2.82050171 4.06776733 -2.82050171 4.06776733 -2.12329102 2.85766602 C-1 1 -1 1 0 0 Z " fill="#F9FBFD" transform="translate(414,1053)"/>
<path d="M0 0 C0.33 0 0.66 0 1 0 C0.85980275 3.83356092 0.71181712 7.66678433 0.5625 11.5 C0.52318359 12.57765625 0.48386719 13.6553125 0.44335938 14.765625 C0.21341951 20.56718464 -0.16998731 26.25268527 -1 32 C-7.51674925 32.70834231 -12.62322243 30.73523853 -18 27 C-19.29296875 24.828125 -19.29296875 24.828125 -20 23 C-19.45472656 22.40574219 -18.90945313 21.81148437 -18.34765625 21.19921875 C-13.33214979 15.6864484 -8.52254803 10.05445118 -3.84765625 4.25 C-2 2 -2 2 0 0 Z " fill="#F3F7FA" transform="translate(480,1090)"/>
<path d="M0 0 C4.20678654 4.20678654 7.66136956 8.27524673 11.1875 13 C11.98704102 14.04800781 11.98704102 14.04800781 12.80273438 15.1171875 C15.42857072 18.61830262 17.6557949 21.77771158 19 26 C12.79051926 30.54352249 7.8622763 32 0 32 C0 21.44 0 10.88 0 0 Z " fill="#F8FBFC" transform="translate(819,1096)"/>
<path d="M0 0 C2.573533 4.71859941 3.46240534 9.72948146 4.625 14.9375 C4.96917969 16.4215332 4.96917969 16.4215332 5.3203125 17.93554688 C5.536875 18.89396484 5.7534375 19.85238281 5.9765625 20.83984375 C6.17330566 21.70988037 6.37004883 22.57991699 6.57275391 23.47631836 C7.00577237 26.03409655 7.07604933 28.41113001 7 31 C4.95840905 31.0272616 2.91671037 31.04651345 0.875 31.0625 C-0.26195312 31.07410156 -1.39890625 31.08570313 -2.5703125 31.09765625 C-5.8129156 31.005327 -8.81932612 30.61389906 -12 30 C-11.43088328 25.80160433 -10.45451706 22.29190181 -8.75 18.41796875 C-8.3065625 17.40412109 -7.863125 16.39027344 -7.40625 15.34570312 C-6.71015625 13.78239258 -6.71015625 13.78239258 -6 12.1875 C-5.5359375 11.12595703 -5.071875 10.06441406 -4.59375 8.97070312 C-1.15221429 1.15221429 -1.15221429 1.15221429 0 0 Z " fill="#F3F7FA" transform="translate(611,1121)"/>
</svg>
